<svg id="圖層_1" data-name="圖層 1" xmlns="http://www.w3.org/2000/svg" xmlns:xlink="http://www.w3.org/1999/xlink" viewBox="0 0 361.74 285.3"><defs><style>.cls-1{fill:none;}.cls-2{clip-path:url(#clip-path);}.cls-10,.cls-3,.cls-4,.cls-5,.cls-6,.cls-7,.cls-8,.cls-9{opacity:0.2;}.cls-3{fill:url(#linear-gradient);}.cls-4{fill:url(#linear-gradient-2);}.cls-5{fill:url(#linear-gradient-3);}.cls-6{fill:url(#linear-gradient-4);}.cls-7{fill:url(#linear-gradient-5);}.cls-8{fill:url(#linear-gradient-6);}.cls-9{fill:url(#linear-gradient-7);}.cls-10{fill:url(#linear-gradient-8);}.cls-11{fill:#f7327a;}.cls-12{fill:#fff;}.cls-13{fill:url(#linear-gradient-9);}.cls-14{fill:url(#linear-gradient-10);}.cls-15{fill:url(#linear-gradient-11);}.cls-16{fill:#e0e8f3;}.cls-16,.cls-21{opacity:0.5;}.cls-17{fill:url(#linear-gradient-12);}.cls-18{fill:#231815;}.cls-19{fill:#f8c4b7;}.cls-20{fill:url(#linear-gradient-13);}.cls-21{fill:#fb5d13;}.cls-22{fill:#efa49e;}.cls-23{fill:url(#linear-gradient-14);}.cls-24{fill:#6ba7fd;}.cls-25{fill:#4975ce;}.cls-26{fill:#0d1c81;}.cls-27{fill:#8cc0fc;}.cls-28{fill:url(#linear-gradient-15);}</style><clipPath id="clip-path" transform="translate(-281.76 -81.28)"><rect class="cls-1" width="598.74" height="399.16"/></clipPath><linearGradient id="linear-gradient" x1="308.09" y1="222.7" x2="643.5" y2="222.7" gradientUnits="userSpaceOnUse"><stop offset="0" stop-color="#65a3f8"/><stop offset="1" stop-color="#5884e7"/></linearGradient><linearGradient id="linear-gradient-2" x1="287.32" y1="128.86" x2="396.55" y2="128.86" xlink:href="#linear-gradient"/><linearGradient id="linear-gradient-3" x1="316.04" y1="219.18" x2="368.53" y2="219.18" xlink:href="#linear-gradient"/><linearGradient id="linear-gradient-4" x1="228.56" y1="227.65" x2="467.61" y2="426.95" xlink:href="#linear-gradient"/><linearGradient id="linear-gradient-5" x1="246.12" y1="210.79" x2="483.57" y2="408.75" xlink:href="#linear-gradient"/><linearGradient id="linear-gradient-6" x1="316.23" y1="130.49" x2="553.68" y2="328.45" xlink:href="#linear-gradient"/><linearGradient id="linear-gradient-7" x1="484.29" y1="60.47" x2="721.75" y2="258.43" xlink:href="#linear-gradient"/><linearGradient id="linear-gradient-8" x1="406.93" y1="9.88" x2="650.83" y2="213.22" xlink:href="#linear-gradient"/><linearGradient id="linear-gradient-9" x1="528.86" y1="304.3" x2="539.98" y2="304.68" gradientTransform="translate(21.34 -20.64) rotate(0.78)" xlink:href="#linear-gradient"/><linearGradient id="linear-gradient-10" x1="546.61" y1="308.09" x2="561.69" y2="331.46" gradientTransform="translate(21.34 -20.64) rotate(0.78)" xlink:href="#linear-gradient"/><linearGradient id="linear-gradient-11" x1="516.44" y1="317.77" x2="527.76" y2="325.13" gradientTransform="translate(21.34 -20.64) rotate(0.78)" xlink:href="#linear-gradient"/><linearGradient id="linear-gradient-12" x1="516.26" y1="359.02" x2="558.62" y2="359.02" gradientTransform="translate(19.18 -18.81) rotate(0.69)" gradientUnits="userSpaceOnUse"><stop offset="0" stop-color="#fbc733"/><stop offset="1" stop-color="#fb7f37"/></linearGradient><linearGradient id="linear-gradient-13" x1="419.95" y1="252.03" x2="521.06" y2="326.03" gradientTransform="matrix(1, 0, 0, 1, 0, 0)" xlink:href="#linear-gradient-12"/><linearGradient id="linear-gradient-14" x1="419.97" y1="252.01" x2="521.08" y2="326" gradientTransform="matrix(1, 0, 0, 1, 0, 0)" xlink:href="#linear-gradient-12"/><linearGradient id="linear-gradient-15" x1="341.41" y1="273.19" x2="401.41" y2="338.71" xlink:href="#linear-gradient"/></defs><title>contant</title><g class="cls-2"><path class="cls-3" d="M643.48,232.83a127.85,127.85,0,0,1-35.68,86.32c-12.11,12.47-26.06,22.08-42.69,27.38a133.43,133.43,0,0,1-22.51,5.38,131,131,0,0,1-22.74.69c-16.09-.63-31-8.57-46.11-13.32-29.85-9.4-59.39,8.48-87,17.41-30.11,9.74-66.09,4.86-76.56-30.14a49.71,49.71,0,0,1-1.89-10.2c-2.32-28.92,14.36-49.19,39.77-59.79C366,249.07,382,233,384.53,213c3.73-29.14,2.58-60.55,16.3-87.36,13-25.31,42.25-42.57,70.75-41.25,13.93.65,26.2,8.84,34.14,20,13.1,18.42,12.68,45.3,30.4,60.56,19.1,16.47,43.18-3.5,65.56.88,30.83,6.05,42.13,38.46,41.82,66.17C643.49,232.27,643.49,232.55,643.48,232.83Z" transform="translate(-281.76 -81.28)"/><path class="cls-4" d="M321.16,176.32l-.7,0c-20-1.75-34.15-18.74-33.09-38.59s15.8-37.87,32.72-47.34c15.92-8.9,37.38-12.25,54.7-5.44,10.27,4,20.77,12.55,21.69,24.3,1,12.52-9.1,20.28-16.18,29.08-4.06,5.05-8,10.26-12.3,15.06C355.93,166.71,340,177.66,321.16,176.32Z" transform="translate(-281.76 -81.28)"/><path class="cls-5" d="M368.52,208.41c-.21,8.94-5.08,19-10.06,24.9-8.72,10.26-36.8,25.33-41.78,3.38-3.06-13.5,5.36-29.86,14.82-39A25,25,0,0,1,357.81,192C365.88,194.89,368.68,201.28,368.52,208.41Z" transform="translate(-281.76 -81.28)"/><path class="cls-6" d="M283.36,284.5a17.85,17.85,0,0,0,6,5.46c3.41,1.86,8.6,3.11,12.28,1.29,7.24-3.58,2.09-14.12-3-17-4.45-2.57-10.85-2.23-14.76,1.25C280.84,278.18,281.44,281.59,283.36,284.5Z" transform="translate(-281.76 -81.28)"/><path class="cls-7" d="M303,254.59c-2.09.36-3.94,1.61-4.07,3.67a5.13,5.13,0,0,0,3.15,4.7c2.85,1.31,7.93,1.7,7.35-2.64C309,257.21,306.4,254,303,254.59Z" transform="translate(-281.76 -81.28)"/><path class="cls-8" d="M367,173.38c-.13.19-.27.37-.42.55a3.81,3.81,0,0,0-.77,1.41,4.11,4.11,0,0,0,.49,3.21,4.51,4.51,0,0,0,5,1.73,5.31,5.31,0,0,0,3.54-4.08,4.88,4.88,0,0,0-2.1-5.06,3.84,3.84,0,0,0-3.4-.15,4.24,4.24,0,0,0-1.66,1.43C367.46,172.74,367.24,173.07,367,173.38Z" transform="translate(-281.76 -81.28)"/><path class="cls-9" d="M535.08,103.36c-.14.18-.28.37-.43.54a3.62,3.62,0,0,0-.76,1.42,4.11,4.11,0,0,0,.48,3.21,4.53,4.53,0,0,0,5,1.73,5.3,5.3,0,0,0,3.53-4.09,4.85,4.85,0,0,0-2.1-5,3.85,3.85,0,0,0-3.39-.16,4.21,4.21,0,0,0-1.66,1.44C535.52,102.72,535.31,103,535.08,103.36Z" transform="translate(-281.76 -81.28)"/><path class="cls-10" d="M560,152.39c3.7.17,7.82-1.63,11.16-6.12,11.83-15.9-10-29-18.93-11.66C547.22,144.31,552.8,152.07,560,152.39Z" transform="translate(-281.76 -81.28)"/></g><path d="M403.17,292.48c.46,0,.56.3.73.54a55.62,55.62,0,0,1,4.14,7.77c.17.35.28.75-.15.93s-.71-.14-.88-.48a84.92,84.92,0,0,0-4.13-7.77C402.67,293.15,402.61,292.6,403.17,292.48Z" transform="translate(-281.76 -81.28)"/><path class="cls-11" d="M344,139.58c-5.51,0-11-.2-16.51-.13-2.21,0-5.16-.43-7.11.8a6.42,6.42,0,0,0-2.71,5.29c-.05,4.39-.06,8.77,0,13.16q.07,3.35.24,6.69c.09,1.88.05,3.63,1.46,5.08,1.6,1.64,3.91,1.63,6,1.5,2.37-.15,4.74-.26,7.11-.26,3.36,0,6.71,0,10.06,0A2.15,2.15,0,0,1,344.9,173a27.63,27.63,0,0,0,2,3.32c1.08,1.57,2.17,1.61,3.46.17a16.25,16.25,0,0,0,2.09-3.7c.39-.8.86-1.26,1.82-1.09,5.22.89,8.06-3.48,8.13-8.64.08-5.76.14-11.51.11-17.27,0-3-2.12-5.63-4.62-5.92a35.64,35.64,0,0,0-5.27-.39C349.77,139.58,346.89,139.6,344,139.58Z" transform="translate(-281.76 -81.28)"/><path class="cls-12" d="M328.19,159.07a4.08,4.08,0,0,0,4.22-4.15,3.79,3.79,0,0,0-3.8-3.77,4.38,4.38,0,0,0-4.42,4.23A3.7,3.7,0,0,0,328.19,159.07Z" transform="translate(-281.76 -81.28)"/><path class="cls-12" d="M348.48,155.25a3.42,3.42,0,0,0,3.6,3.78,3.75,3.75,0,0,0,4-3.86c0-2.25-1.24-3.69-3.73-4C350.28,151,348.5,153,348.48,155.25Z" transform="translate(-281.76 -81.28)"/><path class="cls-12" d="M339.79,158.88a3.77,3.77,0,0,0,3.92-3.77,3.73,3.73,0,0,0-3.86-3.8,3.8,3.8,0,0,0-4,3.79A3.62,3.62,0,0,0,339.79,158.88Z" transform="translate(-281.76 -81.28)"/><path class="cls-11" d="M546.65,183.91c5.5,0,11-.2,16.51-.13,2.21,0,5.16-.43,7.11.8a6.42,6.42,0,0,1,2.71,5.29c0,4.39.06,8.77,0,13.16q-.08,3.34-.24,6.69c-.09,1.88-.05,3.63-1.47,5.08-1.6,1.63-3.9,1.63-6,1.49-2.37-.15-4.74-.25-7.12-.25-3.35,0-6.7,0-10.05,0a2.15,2.15,0,0,0-2.28,1.32,26.48,26.48,0,0,1-2,3.32c-1.07,1.57-2.16,1.61-3.45.16a16,16,0,0,1-2.09-3.69c-.4-.8-.86-1.26-1.82-1.1-5.23.9-8.06-3.47-8.13-8.63-.08-5.76-.14-11.51-.11-17.27,0-3,2.11-5.63,4.62-5.92a35.65,35.65,0,0,1,5.27-.4C540.89,183.91,543.77,183.93,546.65,183.91Z" transform="translate(-281.76 -81.28)"/><path class="cls-12" d="M562.47,203.4a4.08,4.08,0,0,1-4.22-4.15,3.8,3.8,0,0,1,3.8-3.78,4.39,4.39,0,0,1,4.42,4.24A3.7,3.7,0,0,1,562.47,203.4Z" transform="translate(-281.76 -81.28)"/><path class="cls-12" d="M542.17,199.58a3.41,3.41,0,0,1-3.59,3.78,3.75,3.75,0,0,1-4-3.86c0-2.26,1.24-3.69,3.72-4C540.38,195.29,542.16,197.27,542.17,199.58Z" transform="translate(-281.76 -81.28)"/><path class="cls-12" d="M550.87,203.21a3.76,3.76,0,0,1-3.92-3.77,3.73,3.73,0,0,1,3.86-3.8,3.79,3.79,0,0,1,4,3.78C554.66,201.94,552.8,203.43,550.87,203.21Z" transform="translate(-281.76 -81.28)"/><path class="cls-13" d="M558.45,313.32c-.72,1.2-1.55,2.34-2.38,3.48-.59.83-1.19,1.66-1.73,2.53-1.3,2.05-2.29,4.24-1.7,6.8a1.74,1.74,0,0,1-1.1,2.16c-1.22.5-2-.29-2.52-1.23l-.19-.32a32.75,32.75,0,0,1-4-10.27c-.5-2.66-1.14-5.33-.81-7.82a26.17,26.17,0,0,1,.18-3.8c.19-1.56.45-3.07.62-4.59a12.65,12.65,0,0,0-1.45-7c-1.31-2.71-2.78-5.36-4.1-8.07-3.11-6.4-2.62-12.81.2-19.15,1.31-2.94,2.83-5.79,3.3-9a12.82,12.82,0,0,0,.15-2.49,2,2,0,0,1,.13-1c.36-.75,1.37,0,1.93.32,2.19,1.31,3.72,3.39,5.26,5.34,2.71,3.42,5.89,6.5,6.76,11.17a16.3,16.3,0,0,1-1.48,11.29c-2.33,4.22-1.91,7.95,1,11.25.22.26.47.51.73.77C563.83,300.21,561.72,307.91,558.45,313.32Z" transform="translate(-281.76 -81.28)"/><path class="cls-14" d="M571.88,316.6c-2,3.73-4.62,7.13-6.45,11-1,2-2.58,1.92-4,0a32.68,32.68,0,0,1-5.31-10.78,38.81,38.81,0,0,1-1.43-9.11A60.74,60.74,0,0,1,556.53,293a88.75,88.75,0,0,1,5.84-15.71c1.53-3.33,3-6.66,4.59-10,.23-.5.37-1.24,1.09-1.23a1.09,1.09,0,0,1,.5.13,2.48,2.48,0,0,1,.85,1.16l.06.11c1,2,.15,4-.25,5.93a16.74,16.74,0,0,0,1.8,12.53,31.66,31.66,0,0,1,4.9,15.76A29.89,29.89,0,0,1,571.88,316.6Z" transform="translate(-281.76 -81.28)"/><path class="cls-15" d="M551,319.41a16.29,16.29,0,0,1-.71,3.94,18.25,18.25,0,0,1-.85,2.23c-.18.39-.38.78-.59,1.16s-.43.75-.66,1.12c-.48.75.11,2-.89,2.24a9.22,9.22,0,0,1-4.37,0c-.72-.21-1.33-.65-1.27-1.33.46-5.1-2.89-8.44-5.52-12.11a20.93,20.93,0,0,1-4.18-9.28,23.88,23.88,0,0,1,1.72-11.83,61.85,61.85,0,0,0,2.14-6.64,2.72,2.72,0,0,1,.77-1.57,1.11,1.11,0,0,1,.59-.22,1,1,0,0,1,.39,0c1.86.49,2,5.66,1.83,6.92-.44,4.32,1.37,7.85,4.83,10.75l.15.12a18,18,0,0,1,5.54,7.37,15.31,15.31,0,0,1,.75,2.55A17.56,17.56,0,0,1,551,319.41Z" transform="translate(-281.76 -81.28)"/><path class="cls-16" d="M550.65,314.89a31.17,31.17,0,0,0-.38,8.46,24.08,24.08,0,0,0,.59,3.3c.12.5.31,1.24-.22,1.39-.81.23-.9-.71-1-1.18s-.16-.85-.23-1.28a19.44,19.44,0,0,1-.24-5.69,25,25,0,0,1,.72-7.55c.27-1.21.57-2.41.85-3.6,1.59-6.81.77-13.33-3-19.05-5.19-7.77-5.79-16.14-4.72-25a40.06,40.06,0,0,0,.22-5.48,7.52,7.52,0,0,0-.42-2.15,12.82,12.82,0,0,0,.15-2.49,2,2,0,0,1,.13-1c.47.19.8,1.37,1,1.79a12.91,12.91,0,0,1,.63,4.28c0,2.82-.58,5.59-.81,8.39-.53,6.34-.1,12.52,3.33,18.12,2.51,4.1,4.6,8.3,5.23,13.19a32.89,32.89,0,0,1-1,12C551.1,312.56,550.85,313.72,550.65,314.89Z" transform="translate(-281.76 -81.28)"/><path class="cls-16" d="M564.78,281.87c-.68,4.14.23,8,1,12,.52,2.51,1.14,5,1.41,7.55.31,3-.55,6-1.48,8.85a47.35,47.35,0,0,0-2.32,15.84c0,.44.49,1.16-.37,1.24s-.67-.64-.67-1.15c0-1.18,0-2.36,0-3.67a34,34,0,0,1,2.08-12.21,23.73,23.73,0,0,0,.29-15.56,30,30,0,0,1-1-14.15,41.39,41.39,0,0,1,1.84-6.93c.41-1.15.87-2.29,1.36-3.42a26,26,0,0,1,1.55-4,2.48,2.48,0,0,1,.85,1.16l.06.11c-.16.62-.3,1.24-.51,1.87-.55,1.61-1.48,3.06-2.05,4.67A46.45,46.45,0,0,0,564.78,281.87Z" transform="translate(-281.76 -81.28)"/><path class="cls-16" d="M544.65,327.83c-.7,0-.7-.58-.64-1.13.1-.88.16-1.76.24-2.64.58-4.83-1.83-8.54-4.55-12.08-3-3.93-4.92-8.19-4.5-13.22a66.11,66.11,0,0,1,1-6.73,13.19,13.19,0,0,0,.3-2.8c0-.19.07-1.08.09-1.87a1.11,1.11,0,0,1,.59-.22,1,1,0,0,1,.39,0,3.52,3.52,0,0,1,.21.77,14.67,14.67,0,0,1-.21,3.8,39.43,39.43,0,0,0-1.1,9.57c.22,3.88,2,7,4.2,10,.94,1.31,1.85,2.65,2.69,4a13.37,13.37,0,0,1,2,7.33c0,1.31-.4,2.63.16,3.94C545.82,327.33,545.28,327.8,544.65,327.83Z" transform="translate(-281.76 -81.28)"/><path class="cls-17" d="M558.07,326.75c4.85.05,8.7.07,12.55.16,2.6.06,3.28.65,2.91,3.23-.7,4.92-1.53,9.83-2.55,14.7-1.23,5.93-2.71,11.82-4.09,17.72-.66,2.8-1.93,3.78-4.81,3.81-6.43.07-12.86.18-19.3.21-2.95,0-3.3-.42-4-3.24-2.57-9.68-5.07-19.38-7.21-29.16a14.86,14.86,0,0,1-.27-2.63c-.15-3.29.76-4,4.12-4.22C543.26,326.87,551.16,326.53,558.07,326.75Z" transform="translate(-281.76 -81.28)"/><path class="cls-18" d="M508,157.3c-1.16,7.93-5.62,15.41-14.54,16.21a14.33,14.33,0,0,1-13.42-6.8,76.15,76.15,0,0,1-8.25-16.49c-1.64-4.71-5.77-10.62-4.48-15.87,1-4.21,6.16-8,10.08-9.15,14.81-4.38,29.36,10.91,30.78,24.66A30.51,30.51,0,0,1,508,157.3Z" transform="translate(-281.76 -81.28)"/><path class="cls-19" d="M480.12,181.35c.18,7.78-.77,14.7-4,21.18-1.38,2.81-3.55,5-5.42,7.49a3.4,3.4,0,0,0-.81,2.15,87.71,87.71,0,0,0,.4,10.63,1.33,1.33,0,0,0,1.06,1.37c4,1.32,7.76,3,11.59,4.68,1.35.59,1.09,1.07.7,1.89a27.77,27.77,0,0,1-7.57,9.09c-6.05,5.12-12.93,8.35-20.87,8.06-9.6-.36-17.45-4.64-23.28-12.39-.85-1.14-.57-2.07.52-3a19.19,19.19,0,0,1,5.14-3.13c1.56-.66,3.27-.86,4.87-1.41,2.75-.94,1.5-5.49-1.06-5.75a41.7,41.7,0,0,1-20.65-7.88c-4.94-3.69-9.33-8.54-10.77-14.68a21.12,21.12,0,0,1-.05-9.36c.69-3.1,2.65-5.84,2.24-9.13-.34-2.83-1.48-5.48-1.86-8.3-.67-5,1-8.57,4.07-12.38,4.44-5.52,9.89-9.76,16.9-11.38,6-1.38,11.95-.64,17.83,1.14a56.86,56.86,0,0,1,23.57,13.72,34,34,0,0,1,6.88,10.39C480.71,176.71,480,179.43,480.12,181.35Z" transform="translate(-281.76 -81.28)"/><path class="cls-19" d="M392.3,319.7a13.09,13.09,0,0,1-7.61-3.21c-6-5.14-9-13.77-12.42-20.66-7.8-15.8-15.55-31.75-22.35-48-1.85-4.44-5.17-7-9.35-8.71a9.22,9.22,0,0,0-1.43-.56c-8-2.05-11.6-8.72-15.78-14.81-.46-.66-.94-1.32-1.33-2s-1.2-1.62-.5-2.61,1.6-.89,2.57-.89a9.77,9.77,0,0,1,8.21,4.42,18.44,18.44,0,0,1,1.36,1.73c2.28,4.19,6.28,3,9.82,3.15.82,0,.81-.48.37-1-.66-.79-1.35-1.56-2-2.34a8.93,8.93,0,0,1-2.49-5.5c-.07-1.7,1.22-2.8,2.49-2,4.78,3,10.18,5.17,13.41,10.17,1.77,2.73,2.11,6.43,3.61,9.39,1.85,3.65,4.3,7,6.38,10.45,3.44,5.75,6.88,11.5,10.47,17.15,5.72,9,11.62,17.87,17.93,26.47,1.53,2.08,1.63,2.06,3-.28,1.16-2,2.31-3.93,3.51-5.86,1-1.58,1.88-1.59,2.64,0,3.43,7.29,6.81,14.6,10.25,21.88,1.74,3.7-3.39,6.88-6,8.66C402.67,317.73,397.37,320.1,392.3,319.7Z" transform="translate(-281.76 -81.28)"/><path class="cls-18" d="M470.63,177.89c-9.48-.3-19.7-2.42-27.6-7.61a22.78,22.78,0,0,1-7.94-9c-1.12-2.22-1.16-2.15-2.44-.13-5,7.85-11.87,12.9-21.13,14.45-5.38.9-11.22-3.37-12-8.6-.4-2.69,2.18-1.64,3.65-2.85,2-1.67,2-5.53,2.24-7.85a28.88,28.88,0,0,1,8.87-17.71c12.31-12.16,31.29-13.78,46.6-7.12,13,5.64,21.86,16.93,25,30.62a40.15,40.15,0,0,1,.91,10.08c-.13,5.58-9.76,5.75-13.79,5.75Z" transform="translate(-281.76 -81.28)"/><path class="cls-20" d="M430.42,304.49c-4,3.94-8,7.72-11.82,11.62-2.8,2.84-3,2.89-4.63-.81-4.74-10.89-10.31-21.41-14.46-32.56a5.76,5.76,0,0,1,0-4.41,146.59,146.59,0,0,1,13.11-25.27c4.67-7.23,9.6-15.24,17.14-19.77,3-1.82,3-1.77,5.18.86A31.14,31.14,0,0,0,450,244.4c11.54,3.55,23.27-1.22,29.71-12,.19-.31.36-.64.54-1,1.82-3.25,2.49-3.42,5.51-1.11,6.76,5.15,11.67,11.83,15.67,19.21,9.37,17.29,13.71,36.86,14.24,56.42,0,2-.66,2.89-2.75,3.37a81.82,81.82,0,0,0-24.41,10.25,4.46,4.46,0,0,0-2.22,4.23c0,3-.22,5.9-.44,8.85-.13,1.83-.7,3-3.08,2.95-8.58-.19-17.19.22-25.75-.27-5.72-.32-11.37.1-17,.15-1.7,0-2.45-.12-2.64-2.25-.32-3.61-1.48-7.14-2.07-10.75a78.71,78.71,0,0,0-4.46-17.15C430.73,305.1,430.6,304.85,430.42,304.49Z" transform="translate(-281.76 -81.28)"/><path class="cls-19" d="M440.43,344.87c-13.46.29-27.34-1.63-40.66,1-2.64.53-8.47,1.82-10.15-1.17a4.92,4.92,0,0,1-.07-3.24c1.24-6.48,3.53-10.72,12.05-12.68,6.35-1.46,12.73-1.32,19.14-1.29,2.76,0,5.58-1.54,8.2-2.3a114.58,114.58,0,0,1,27.44-4.11c4.69-.18,9.38-.18,14.07-.09s9.37-.08,14,.66c.9.15,1.22-.3,1.34-1,.94-5.69,4.58-8.81,9.79-10.64,5.52-1.94,11.05-3.83,16.72-5.35,1.12-.3,1.33-.32,1.63,1,1,4.46,1.24,9,1.78,13.52.82,6.85,1.56,15.8-3.35,21.39-2.48,2.83-6.36,6.3-10,7.4-4.47,1.34-9.37.72-13.9,0-4.91-.72-9.84-1.5-14.79-1.89A312.4,312.4,0,0,0,440.43,344.87Z" transform="translate(-281.76 -81.28)"/><path class="cls-12" d="M441.34,211.85c-3.7.12-8.42-1.27-9.79-4.82-1.1-2.81,3.45-3.37,5.17-4,4.39-1.54,8.8-3,13.3-4.24,1.7-.45,2.49,1.06,2.61,2.57.46,5.52-4.92,9.55-9.82,10.33A13.1,13.1,0,0,1,441.34,211.85Z" transform="translate(-281.76 -81.28)"/><path class="cls-21" d="M424.1,254.56c0-1,0-1.85,0-2.66,0-.41-.13-1,.46-1.09s.5.56.64.93c.85,2.29,0,4.56-.24,6.79a30.08,30.08,0,0,1-5.47,14c-2.28,3.2-2.53,6.37-1,10.11,2.34,5.83,5.86,10.84,9.47,15.86,1,1.37,1.84,2.84,2.74,4.28a.69.69,0,0,1-.08,1c-.4.29-.69,0-.89-.34-4.3-7.16-10.11-13.4-12.77-21.58-1.05-3.23-.93-6,.88-8.79,2.47-3.78,4.63-7.69,5.52-12.18A24.91,24.91,0,0,0,424.1,254.56Z" transform="translate(-281.76 -81.28)"/><path class="cls-22" d="M459.33,199.31a4.5,4.5,0,0,1-3.15-2.44c-.74-1.92.72-4.44,2.36-5.38,1.91-1.09,5.93-.74,7,1.43,1.38,2.74-1.08,6-3.8,6.52A5.53,5.53,0,0,1,459.33,199.31Z" transform="translate(-281.76 -81.28)"/><path class="cls-21" d="M458.77,302.11a23.12,23.12,0,0,0,14.71-4.27c.52-.36,1.21-1.06,1.68-.29s-.55.89-1,1.21c-6.17,4.41-13.11,5.22-20.41,4.36-.29,0-.62-.09-.65-.44-.07-.53.37-.56.72-.56C455.39,302.1,456.94,302.11,458.77,302.11Z" transform="translate(-281.76 -81.28)"/><path d="M422.85,179.52c1.53-.53,3.14-.08,3.5,1.71.46,2.25-2.18,3.45-3.91,2.23C421.11,182.52,421.17,180.09,422.85,179.52Z" transform="translate(-281.76 -81.28)"/><path d="M450.3,183.66a2.89,2.89,0,0,1-3.83-.7,2.55,2.55,0,0,1,.31-3,2.72,2.72,0,0,1,4.57,1.47A2,2,0,0,1,450.3,183.66Z" transform="translate(-281.76 -81.28)"/><path class="cls-18" d="M438,147.88a37.93,37.93,0,0,1-3.88,10.53c-.25.47-.59,1-1.17.71-.75-.4-.06-.87.15-1.25a40.55,40.55,0,0,0,3.8-10.27c.12-.5-.15-1.42.78-1.23C438.34,146.5,438,147.26,438,147.88Z" transform="translate(-281.76 -81.28)"/><path class="cls-22" d="M446.1,222.72c-.5,0-.79,0-1.08,0s-.81-.06-.78-.55.48-.45.83-.5c1.73-.25,3.46-.53,5.2-.75a18.22,18.22,0,0,0,5.62-1.72c.43-.2,1.11-.87,1.48,0,.26.62-.49.75-.91,1a21,21,0,0,1-6.87,2.09C448.37,222.5,447.13,222.6,446.1,222.72Z" transform="translate(-281.76 -81.28)"/><path class="cls-22" d="M486.83,321.37a35.13,35.13,0,0,1,12.82,3.26c.46.21,1.33.47.86,1.23-.34.56-.89,0-1.33-.19-3.62-1.43-7.2-3-11.21-2.93a3.19,3.19,0,0,1-1.06-.27c-.38-.13-1-.09-.85-.74S486.77,321.38,486.83,321.37Z" transform="translate(-281.76 -81.28)"/><path class="cls-22" d="M434,192.06c.07,1.46,1.06,2,2,2.56a.45.45,0,0,0,.64-.18.47.47,0,0,0-.22-.64c-2.28-1-1.12-2.81-1-4.32s.62-3.28.58-5c0-.37,0-.86-.47-.87s-.39.51-.45.84C434.71,187,434.61,189.65,434,192.06Z" transform="translate(-281.76 -81.28)"/><path class="cls-23" d="M485.5,317.91c-.05.81-.42,2.33,0,3.07.94,1.54,7.15-2.27,8.26-2.85,6.14-3.24,13-5.11,19.63-7,2-.58,1.89-1.43,2.23-3.36a11.81,11.81,0,0,0-.46-6A4.39,4.39,0,0,0,513,299.1a6.23,6.23,0,0,0-3.13-.29A77,77,0,0,0,490.29,303a11.18,11.18,0,0,0-3.8,1.92c-1,.88-.78,1.41-.74,2.6.09,2.52,0,5-.1,7.56C485.65,315.28,485.57,316.56,485.5,317.91Z" transform="translate(-281.76 -81.28)"/><path class="cls-21" d="M486,312.48c0,1.7,0,3.4,0,5.1,0,.44,0,1-.63,1-.76,0-.65-.6-.62-1.13.69-15.48-2.51-30.38-6.77-45.12-.27-.92-1.22-2.48-.24-2.78,1.15-.35,1,1.42,1.32,2.3a162.64,162.64,0,0,1,6,26.76A69.86,69.86,0,0,1,486,312.48Z" transform="translate(-281.76 -81.28)"/><path class="cls-24" d="M450.91,126.46c.93,0,1.65.09,1.95.11,7.17.62,11.56,5.49,15.29,11.19a64.47,64.47,0,0,1,8.19,17.82,3.35,3.35,0,0,1-.61,3.45c-2.92,3.4-5.28,7.26-8.37,10.54-.29.32-.36.83-.94.52a.7.7,0,0,1-.33-.73c.14-7.4-2.47-14-5.77-20.47a61.72,61.72,0,0,0-15-18.93c-.56-.47-1.78-1.27-1.93-2C443.07,126.38,448,126.34,450.91,126.46Z" transform="translate(-281.76 -81.28)"/><path class="cls-25" d="M464.15,209.85c-2,.17-4.2-.42-6.22,1.19-1,.8-2.43-.18-3.18-1.26a2.38,2.38,0,0,1,.22-3.23,2.48,2.48,0,0,1,3.4-.53c1.39,1.18,2.85,1.12,4.35,1,4-.38,8-.89,12.06-1.32a1.27,1.27,0,0,0,1.3-1.44,36.3,36.3,0,0,0-.29-7.29c-.36-1.94,0-2.38,2.37-2.71,1.63-.23,2.45.46,2.49,2.22.06,2.88.59,5.72.48,8.62-.14,3.61-.76,4.44-4.26,4.29C472.64,209.21,468.46,210,464.15,209.85Z" transform="translate(-281.76 -81.28)"/><path class="cls-26" d="M463.55,174.56a23.41,23.41,0,0,1,.88-10,11.51,11.51,0,0,1,10.62-8.07,11.28,11.28,0,0,1,10.89,7.71c1.34,4.11,1.1,8.43,1.45,12.67a31.86,31.86,0,0,1-.17,9.45c-1.39,6.24-5.27,9.28-11.82,9.28-4.54,0-8.8-3.75-10-9A89.62,89.62,0,0,1,463.55,174.56Z" transform="translate(-281.76 -81.28)"/><path class="cls-25" d="M480.14,175.6c-.08,1.56.38,3.21-.05,4.92a3.18,3.18,0,0,1-2.79,2.72c-1.67.14-3.64-.11-4.26-2a20.32,20.32,0,0,1-.69-10.82c.41-1.8,2.13-2.37,3.81-2.42a3.38,3.38,0,0,1,3.15,2.29C480.1,172,479.89,173.75,480.14,175.6Z" transform="translate(-281.76 -81.28)"/><polygon class="cls-27" points="164.6 256.54 59.91 256.54 49.18 260.51 143.78 260.51 164.6 256.54"/><path class="cls-25" d="M49.18,260.51h94.6a0,0,0,0,1,0,0v6.34a0,0,0,0,1,0,0H52.2a3,3,0,0,1-3-3v-3.32A0,0,0,0,1,49.18,260.51Z"/><path class="cls-26" d="M442.37,344.92l-16.83,3.21v-6.34l20.82-4v2.28A4.9,4.9,0,0,1,442.37,344.92Z" transform="translate(-281.76 -81.28)"/><path class="cls-28" d="M377.46,343.57c-14.28,0-28.56-.07-42.84.07-2.7,0-3.95-1.13-4.63-3.39-5.51-18.54-10.45-37.56-14.42-56.49-.79-3.79-1.64-7.58-2.39-11.38-.55-2.77.73-4,3.6-3.91,7.54.13,15.08-.43,22.62-.48,11.6-.07,23.2-.43,34.8-.85q9.78-.36,19.57-.42,5,0,10,.07c2.55,0,6.31-.83,7.11,2.37,1,4,1.7,8,2.55,12,1.9,9,4.09,17.92,6.14,26.87,2.17,9.46,4.35,18.92,6.62,28.36,1,4-.75,7.12-5.63,7.07-14.36-.15-28.71-.06-43.07-.06Z" transform="translate(-281.76 -81.28)"/><path class="cls-16" d="M365.14,315.28c-5.25,0-9.83-4.6-10.22-9.9-1-13.4,19.52-14,19.8-.34a9.88,9.88,0,0,1-7.52,10A9.07,9.07,0,0,1,365.14,315.28Z" transform="translate(-281.76 -81.28)"/></svg>