<svg width="109" height="109" viewBox="0 0 109 109" fill="none" xmlns="http://www.w3.org/2000/svg">
<path d="M109 35.6332C108.886 36.0037 108.744 36.3743 108.63 36.7448C107.692 39.6237 105.161 41.5904 102.147 41.7899C99.2745 41.9895 96.4307 40.3077 95.2079 37.5999C94.8667 36.8588 94.5254 36.6308 93.7292 36.6308C90.5727 36.6878 87.4161 36.6593 84.2596 36.6593C83.9183 36.6593 83.5771 36.6593 83.3212 36.6593C82.7809 39.6237 82.2974 42.5025 81.7571 45.4954C82.8662 45.4954 84.0605 45.4954 85.2833 45.4954C86.9043 45.4954 87.5867 46.037 87.9564 47.6332C88.4399 49.7424 88.9517 51.8517 89.4067 53.9895C89.5489 54.645 89.7764 54.9016 90.4589 54.8446C91.3405 54.7876 92.222 54.7876 93.1036 54.8446C93.8714 54.9016 94.2695 54.6735 94.6108 53.9039C95.862 51.0536 98.7057 49.4289 101.834 49.6854C104.791 49.9134 107.351 52.0512 108.175 54.9016C109.199 58.5785 107.294 62.4265 103.739 63.7662C100.213 65.1058 96.2032 63.5096 94.6108 60.0037C94.2695 59.2341 93.8998 59.0346 93.132 59.0631C91.568 59.1201 90.0039 59.0916 88.4399 59.0916C86.7336 59.0916 86.0796 58.55 85.6814 56.8683C85.1411 54.531 84.6008 52.1652 84.0321 49.7424C82.724 49.7424 81.4443 49.7139 80.1646 49.7709C79.9371 49.7709 79.6243 50.056 79.4821 50.284C77.264 53.5904 75.1312 56.9538 72.8847 60.2317C70.496 63.6807 68.1641 67.1581 66.9982 71.2911C66.9697 71.4051 66.9413 71.4906 66.9129 71.6047C66.4579 72.8303 66.4863 73.7709 67.5669 74.8826C69.7282 77.1058 69.785 80.5833 68.0504 83.1771C67.8513 83.4621 67.6522 83.7472 67.4532 84.0322C71.0078 88.4218 68.9035 94.0084 64.0976 95.4621C64.0976 96.6593 64.0976 97.9134 64.0976 99.1391C64.0691 104.412 60.6851 107.947 55.4242 108.032C51.6705 108.089 47.9168 108.089 44.1346 108.032C38.8737 107.947 35.4613 104.441 35.4328 99.1676C35.4328 98.9111 35.4044 98.6545 35.4328 98.4265C35.6319 96.6023 35.3759 95.3481 33.3853 94.379C30.371 92.8968 28.7785 88.1082 32.0488 84.0892C31.6222 83.3196 31.1104 82.607 30.7691 81.7804C29.6885 79.1866 30.3994 76.1937 32.5038 74.2555C32.9588 73.8279 33.0725 73.4859 32.9303 72.8873C32.191 69.6664 30.8829 66.6735 29.0913 63.9087C28.8923 63.5952 28.4088 63.3956 28.0107 63.3101C27.5841 63.1961 27.1007 63.2816 26.6457 63.2816C24.1432 63.1961 22.437 61.6284 22.2664 59.1201C22.2379 58.493 22.0104 58.265 21.4701 58.094C20.9298 57.9514 20.3611 57.7804 19.8776 57.4954C18.4558 56.7543 17.2899 56.2412 15.6689 57.4954C14.2186 58.6355 12.3702 58.1225 10.9768 56.8398C9.41273 55.3861 7.90556 53.8754 6.45526 52.3077C4.91965 50.6545 4.91965 48.2887 6.39838 46.5785C6.82494 46.0655 6.91025 45.7234 6.59744 45.0963C6.05714 44.0132 5.60214 42.9016 5.20402 41.7614C5.00496 41.2199 4.8059 40.9918 4.18028 40.9633C1.73467 40.8493 0.0853118 39.0536 0.0568745 36.5738C0 34.664 0 32.7258 0 30.8161C0.0284373 28.2792 1.62092 26.5405 4.09496 26.3695C4.77746 26.3125 4.97652 26.056 5.17558 25.4859C5.5737 24.3458 6.05714 23.2341 6.56901 22.151C6.82494 21.6379 6.82494 21.3244 6.42682 20.8398C4.74902 18.9016 4.86277 16.5643 6.65432 14.7115C7.76337 13.5714 8.90086 12.4313 10.0384 11.3196C12.5977 8.7258 14.4461 8.64029 17.233 10.8921C18.7686 10.2935 20.2758 9.72342 21.7545 9.06784C21.9536 8.98233 22.1242 8.58328 22.1526 8.32675C22.4654 5.5619 24.0864 4.05121 26.8732 4.02271C28.9776 4.02271 31.0535 4.07972 33.1578 4.07972C33.4991 4.07972 33.8403 3.9372 34.1531 3.76618C41.1203 0.146227 48.4855 -0.737384 56.1636 0.57378C56.7323 0.659291 57.3579 0.858815 57.8129 1.22936C58.5807 1.82794 58.7798 2.68304 58.3817 3.62366C57.9836 4.56428 57.1305 4.96333 56.0498 4.90632C53.007 4.7068 49.9643 4.36475 46.9499 4.45026C43.3668 4.53577 39.9828 5.64741 36.7978 7.24361C36.5703 8.46927 36.9684 9.12485 38.2197 9.46689C39.414 9.78043 40.4947 10.4075 41.7175 10.9206C41.9734 10.721 42.2578 10.436 42.5706 10.208C44.2199 8.92532 46.4949 8.98233 48.0305 10.4075C49.623 11.8897 51.1302 13.4289 52.6089 15.0251C54.0877 16.6213 54.1445 19.0441 52.6658 20.6688C52.1255 21.2674 52.1824 21.6949 52.4952 22.322C53.007 23.3766 53.3483 24.5168 53.8602 25.5714C54.0023 25.8849 54.4289 26.2555 54.7702 26.3125C57.4148 26.626 58.9504 28.2792 58.9504 30.9301C58.9504 32.8113 58.9789 34.721 58.9504 36.6023C58.922 39.0821 57.2726 40.8208 54.7986 40.9918C54.2583 41.0203 54.0023 41.1914 53.8317 41.7044C53.4052 42.9016 52.8933 44.0987 52.3814 45.2389C52.1539 45.7234 52.1539 46.0085 52.5236 46.4645C54.2298 48.4883 54.1445 50.7685 52.2677 52.6783C51.1018 53.8754 49.9074 55.0441 48.7415 56.2412C46.4096 58.5785 44.2484 58.6355 41.7743 56.4408C40.2387 57.0393 38.7031 57.6379 37.1675 58.2935C36.9969 58.3505 36.8547 58.664 36.8262 58.8351C36.7409 60.9443 35.6888 62.3695 33.8688 63.0821C35.0347 66.132 36.2006 69.1818 37.4234 72.3457C45.528 72.3457 53.8886 72.3457 62.3629 72.3457C63.6141 65.7044 67.4532 60.4028 71.3491 55.1296C72.5719 53.4479 73.6809 51.7092 75.0175 49.7424C72.6856 49.7424 70.6666 49.7424 68.676 49.7424C67.7944 49.7424 67.0835 49.4574 66.6001 48.6878C65.7469 47.2341 66.7707 45.5239 68.5338 45.4954C71.0078 45.4669 73.5103 45.4384 75.9844 45.4954C76.7522 45.5239 77.0934 45.2674 77.3209 44.5263C78.1456 42.018 78.6575 39.4526 78.7996 36.6308C78.3731 36.6308 78.0034 36.6308 77.6053 36.6308C73.9084 36.6308 70.24 36.6308 66.5432 36.6023C66.2304 36.6023 65.8891 36.6023 65.5763 36.5738C64.3251 36.4313 63.5004 35.5476 63.5288 34.4075C63.5573 33.2674 64.4104 32.3553 65.6616 32.3553C68.5338 32.3267 71.406 32.3267 74.2781 32.3267C75.7284 32.3267 77.1787 32.3267 78.7712 32.3267C78.6859 31.3576 78.6859 30.474 78.5153 29.6474C78.1456 27.8232 77.6906 26.056 77.3209 24.2317C77.1787 23.5762 76.8375 23.4051 76.2118 23.4336C73.7378 23.4621 71.2353 23.4621 68.7613 23.4336C67.2257 23.4336 66.2304 22.55 66.2588 21.2674C66.2872 20.0417 67.2541 19.1581 68.7044 19.1581C70.7803 19.1296 72.8563 19.1581 74.9322 19.1581C75.0175 19.0726 75.0744 18.9586 75.1597 18.8731C73.88 17.1629 72.5719 15.4526 71.2922 13.7139C70.9794 13.2864 70.6381 12.8588 70.4675 12.3743C70.1832 11.4336 70.6666 10.4645 71.4913 10.0085C72.3728 9.5239 73.3112 9.66642 74.1075 10.493C76.2687 12.7733 78.0603 15.3386 79.4253 18.189C79.7949 18.9586 80.2215 19.2151 81.0462 19.1581C81.9846 19.0726 82.9515 19.1296 84.0321 19.1296C84.544 16.8778 85.0843 14.626 85.5961 12.4028C86.0796 10.2365 86.563 9.83744 88.7811 9.83744C90.2314 9.83744 91.6817 9.80893 93.132 9.83744C93.8714 9.86594 94.2411 9.66642 94.5539 8.92532C95.9473 5.78993 99.246 4.13672 102.602 4.79231C105.73 5.41939 108.232 8.29825 108.374 11.4906C108.517 15.0536 106.412 18.018 103.085 18.9871C99.6441 19.9847 96.0326 18.303 94.5254 14.9681C94.2411 14.3125 93.8998 14.056 93.1889 14.113C92.4211 14.17 91.6248 14.1985 90.857 14.113C89.7764 13.9705 89.3783 14.455 89.2077 15.4526C88.838 17.4194 88.3546 19.3291 87.8996 21.2959C87.5299 22.9206 86.8758 23.4336 85.2265 23.4336C84.1174 23.4336 83.0368 23.4336 81.9277 23.4336C81.8709 23.4336 81.7856 23.4621 81.6434 23.4906C81.9562 24.9158 82.3259 26.341 82.5534 27.7947C82.8093 29.2199 82.923 30.6735 83.1221 32.2127C83.3212 32.2412 83.5487 32.3267 83.7762 32.3267C87.1886 32.3267 90.6011 32.3553 93.9851 32.2982C94.3264 32.2982 94.8098 31.9562 94.952 31.6427C96.4307 28.5928 99.1607 26.9111 102.26 27.1676C105.502 27.4526 107.863 29.5334 108.773 32.8683C108.801 33.0108 108.886 33.1248 108.943 33.2389C109 34.0655 109 34.8351 109 35.6332ZM54.6564 36.7163C54.6564 34.607 54.6564 32.6688 54.6564 30.6165C53.9455 30.6165 53.263 30.645 52.6089 30.6165C51.3008 30.5595 50.7321 29.9895 50.2771 28.7923C49.4524 26.5975 48.5708 24.4598 47.604 22.322C47.0921 21.1534 47.0921 20.3267 48.0021 19.4146C48.4571 18.9301 49.0258 18.531 49.4524 18.1605C47.8883 16.5928 46.4949 15.1961 44.874 13.5714C44.5327 13.999 44.1631 14.569 43.6796 15.0536C42.7696 15.9657 41.9165 15.9657 40.779 15.4811C38.6178 14.512 36.4281 13.6284 34.2385 12.7733C33.1294 12.3458 32.5607 11.7187 32.5322 10.493C32.5038 9.83744 32.5322 9.15335 32.5322 8.41226C30.4563 8.41226 28.4941 8.41226 26.4182 8.41226C26.4182 9.09634 26.4182 9.72342 26.4182 10.3505C26.3898 11.7757 25.8495 12.3172 24.5414 12.8018C22.437 13.5999 20.3326 14.455 18.2852 15.4241C17.0339 15.9942 16.2092 15.9942 15.2139 14.9966C14.7589 14.5405 14.3893 14.0275 14.1618 13.7139C12.5693 15.3101 11.1758 16.7353 9.6971 18.189C9.98148 18.474 10.408 18.8731 10.8062 19.2721C11.8868 20.3838 11.9152 21.1248 11.2612 22.5215C10.3227 24.5453 9.49804 26.626 8.73024 28.7068C8.2468 30.018 7.7065 30.588 6.28463 30.645C5.65901 30.6735 5.03339 30.645 4.32246 30.645C4.32246 32.7258 4.32246 34.6925 4.32246 36.7448C5.06183 36.7448 5.71589 36.7163 6.36995 36.7448C7.59275 36.7733 8.18993 37.3434 8.64493 38.4835C9.52648 40.7353 10.4365 42.9586 11.4033 45.1533C11.8583 46.208 11.8015 47.0916 11.0052 47.8897C10.4933 48.3742 9.9246 48.8018 9.49804 49.1723C11.0905 50.7685 12.4555 52.1652 14.0196 53.7044C14.4461 53.2484 14.8727 52.6783 15.3846 52.1937C16.1808 51.4241 17.0624 51.3671 18.1145 51.8517C20.3042 52.8493 22.5223 53.7614 24.7404 54.645C25.821 55.0726 26.3898 55.6712 26.4182 56.8398C26.4466 57.5524 26.4182 58.2365 26.4182 58.9491C28.5226 58.9491 30.4847 58.9491 32.5607 58.9491C32.5607 58.2935 32.5607 57.7519 32.5607 57.1819C32.5607 55.6142 33.0725 55.1011 34.5228 54.5595C36.5988 53.7899 38.6462 52.9063 40.6653 51.9657C42.0018 51.3386 42.7412 51.3671 43.8218 52.4218C44.2768 52.8493 44.7034 53.3054 45.1015 53.6759C46.5802 52.1937 47.9452 50.8256 49.5377 49.2294C49.0258 48.8018 48.4286 48.4028 47.9452 47.8897C47.0921 47.0061 47.0921 46.1795 47.604 45.0678C48.5708 42.9016 49.4524 40.7068 50.3055 38.4835C50.7321 37.3719 51.3577 36.7733 52.5521 36.7448C53.2345 36.7163 53.8886 36.7163 54.6564 36.7163ZM39.67 95.6617C39.67 96.8873 39.67 98.056 39.67 99.2246C39.6984 102.046 41.2625 103.671 44.0777 103.728C45.8977 103.757 47.6893 103.728 49.5093 103.728C51.4999 103.728 53.4905 103.757 55.4811 103.728C57.5854 103.7 59.2632 102.645 59.5761 100.849C59.8889 99.1676 59.8036 97.4289 59.8889 95.6617C53.007 95.6617 46.4096 95.6617 39.67 95.6617ZM49.7083 81.8374C53.7749 81.8374 57.8698 81.8374 61.9363 81.8374C62.3913 81.8374 62.8748 81.8089 63.3013 81.6664C64.4957 81.2389 65.1498 80.0132 64.9223 78.759C64.6663 77.5334 63.6141 76.7068 62.1923 76.7068C53.9739 76.7068 45.7555 76.7068 37.5372 76.7068C35.6888 76.7068 34.5228 77.7044 34.5228 79.2721C34.5228 80.8398 35.6603 81.8659 37.5087 81.8659C41.5468 81.8374 45.6418 81.8374 49.7083 81.8374ZM49.7368 91.3006C51.8411 91.3006 53.917 91.3006 56.0214 91.3006C58.1826 91.3006 60.3439 91.3576 62.5051 91.2436C64.2966 91.1581 65.3773 89.4764 64.8085 87.8517C64.4104 86.7115 63.5004 86.113 62.0501 86.113C53.8317 86.113 45.6134 86.113 37.395 86.113C37.0253 86.113 36.6272 86.17 36.2575 86.284C35.1484 86.6545 34.4375 87.7662 34.5228 88.9348C34.6366 90.1035 35.4897 91.0441 36.6841 91.2151C37.1106 91.2721 37.5372 91.2721 37.9637 91.2721C41.8596 91.3006 45.8124 91.3006 49.7368 91.3006ZM104.137 12.0607C104.137 10.3505 102.801 9.01083 101.123 9.01083C99.502 9.01083 98.1654 10.3505 98.137 12.0037C98.1085 13.6569 99.5304 15.0821 101.151 15.0536C102.801 15.0251 104.109 13.6854 104.137 12.0607ZM98.7342 34.4645C98.7342 36.1177 100.042 37.4574 101.663 37.5144C103.313 37.5429 104.734 36.1462 104.734 34.493C104.734 32.8113 103.369 31.4431 101.692 31.4716C100.042 31.5001 98.7342 32.8113 98.7342 34.4645ZM104.137 57.0108C104.166 55.3006 102.858 53.9324 101.18 53.9324C99.5304 53.9324 98.1938 55.2151 98.1654 56.8683C98.137 58.55 99.502 59.9467 101.151 59.9752C102.744 59.9752 104.109 58.6355 104.137 57.0108Z" fill="white"/>
<path d="M65.2635 4.10815C66.4294 4.10815 67.4247 5.16279 67.3679 6.30293C67.311 7.44307 66.3441 8.38369 65.2066 8.35519C64.0123 8.32668 63.0738 7.35756 63.1023 6.16041C63.1592 5.02027 64.126 4.10815 65.2635 4.10815Z" fill="white"/>
<path d="M32.6175 40.3078C32.646 41.5049 32.0203 42.3315 31.025 42.6166C30.115 42.8446 29.1482 42.4455 28.6932 41.5619C28.3235 40.7923 28.0676 39.9657 27.6979 39.2246C27.5557 38.9396 27.1576 38.6546 26.8732 38.6546C25.1385 38.5976 23.4038 38.5976 21.6692 38.6546C21.3564 38.6546 20.9582 38.9966 20.7876 39.2816C20.4464 39.8517 20.2758 40.5358 20.0198 41.1629C19.4795 42.474 18.3705 42.9871 17.233 42.531C16.067 42.075 15.5836 40.9348 16.067 39.6237C17.688 35.3767 19.3373 31.1866 20.9582 26.9966C21.3848 25.942 21.7829 24.8873 22.181 23.8327C22.5507 22.8921 23.2048 22.2935 24.257 22.322C25.2523 22.322 25.9063 22.8636 26.276 23.8042C28.3235 29.0774 30.371 34.322 32.4185 39.5952C32.5322 39.8517 32.5891 40.1653 32.6175 40.3078ZM22.7214 34.265C23.8304 34.265 24.7688 34.265 25.821 34.265C25.3091 32.9538 24.8257 31.7567 24.257 30.303C23.6598 31.7852 23.2048 32.9538 22.7214 34.265Z" fill="white"/>
<path d="M35.8878 32.3268C35.8878 29.733 35.8594 27.1392 35.9163 24.5168C35.9447 22.6926 37.7078 21.638 39.0728 22.6356C39.6131 23.0346 40.0965 23.9183 40.0965 24.5738C40.1818 29.847 40.1534 35.1202 40.125 40.3933C40.125 41.79 39.215 42.7021 37.9922 42.7021C36.7694 42.7021 35.9163 41.7615 35.8878 40.3648C35.8594 37.657 35.8878 34.9776 35.8878 32.3268Z" fill="white"/>
</svg>
