<svg width="110" height="103" viewBox="0 0 110 103" fill="none" xmlns="http://www.w3.org/2000/svg">
<path d="M109.563 75.4677C109.563 90.7088 97.0686 103 81.8793 103C66.69 103 54.4406 90.463 54.4406 75.2219C54.4406 59.9809 66.935 47.6897 82.1243 47.6897C97.3136 47.9355 109.563 60.2267 109.563 75.4677ZM80.1644 51.6229C72.8147 51.8687 61.5452 57.031 58.8504 70.0596C56.4005 81.3675 62.0352 92.6754 72.5697 97.346C82.1243 101.525 92.6588 98.3293 97.3136 93.6587C95.5987 91.9379 93.8838 90.2171 92.1688 88.4964C86.0441 92.6754 79.6744 93.4128 73.3047 89.2338C67.67 85.5465 64.9751 80.1384 65.71 73.5012C66.69 65.1432 72.0798 60.4725 80.1644 58.7517C80.1644 56.5393 80.1644 54.0811 80.1644 51.6229ZM82.1243 88.2506C89.229 88.2506 94.8637 82.5966 95.1087 75.4677C95.1087 68.3389 89.474 62.6849 82.3693 62.4391C75.2646 62.4391 69.6299 68.093 69.3849 75.2219C69.1399 82.5966 75.0196 88.2506 82.1243 88.2506ZM84.0842 58.9976C92.4138 60.4725 97.0686 65.389 98.7835 73.5012C101.233 73.5012 103.683 73.5012 106.133 73.5012C105.398 61.21 94.8637 52.1145 84.3292 51.6229C84.0842 54.0811 84.0842 56.5393 84.0842 58.9976ZM100.253 90.9546C103.438 87.0214 105.398 82.5966 105.643 77.4343C103.193 77.4343 100.743 77.4343 98.2936 77.4343C97.8036 80.63 96.8236 83.3341 94.8637 85.7923C96.8236 87.2673 98.5385 88.988 100.253 90.9546Z" fill="white"/>
<path d="M51.9907 0C66.69 0 81.3893 0 96.0887 0C101.233 0 104.173 2.94988 104.173 8.11217C104.173 21.6325 104.173 34.9069 104.173 48.4272C104.173 48.9189 104.173 49.1647 104.173 49.6563C103.928 50.6396 103.438 51.1313 102.213 51.1313C101.233 51.1313 100.743 50.3938 100.498 49.6563C100.498 49.1647 100.498 48.9189 100.498 48.4272C100.498 35.1527 100.498 21.6325 100.498 8.358C100.498 5.40811 99.0285 3.93317 96.0887 3.93317C66.69 3.93317 37.0464 3.93317 7.6477 3.93317C4.70783 3.93317 3.2379 5.40811 3.2379 8.358C3.2379 28.7613 3.2379 49.1647 3.2379 69.568C3.2379 72.5179 4.70783 73.9928 7.6477 73.9928C21.1221 73.9928 34.5965 73.9928 48.3158 73.9928C48.8058 73.9928 49.0508 73.9928 49.5408 73.9928C50.5207 74.2387 51.2557 74.7303 51.2557 75.7136C51.2557 76.6969 50.7657 77.4344 49.7858 77.4344C49.5408 77.4344 49.0508 77.4344 48.8058 77.4344C35.0864 77.4344 21.6121 77.4344 7.89269 77.4344C2.99291 77.4344 0.053046 74.4845 0.053046 69.568C0.053046 49.1647 0.053046 28.5155 0.053046 8.11217C-0.436932 3.1957 2.50293 0 7.40271 0C22.347 0 37.0464 0 51.9907 0Z" fill="white"/>
<path d="M76.4896 34.9068C72.5697 34.9068 70.1199 30.9737 71.3448 27.5321C71.5898 26.7947 71.5898 26.5488 71.0998 26.0572C69.3849 24.3364 67.915 22.3698 66.2 20.4033C65.7101 19.9116 65.4651 19.9116 64.7301 19.9116C63.9951 20.1574 63.2602 20.1574 62.5252 19.9116C61.5452 19.6658 61.0553 19.9116 60.5653 20.6491C59.0954 22.3698 57.6254 24.0906 56.1555 25.8114C55.6655 26.303 55.4205 26.7947 55.9105 27.5321C56.8905 29.7445 55.9105 32.4486 53.9506 33.9235C51.9907 35.3985 49.0508 35.1527 47.3359 33.4319C45.376 31.7111 44.886 29.0071 46.1109 26.7947C47.3359 24.5822 49.7858 23.3531 52.2357 24.0906C52.9706 24.3364 53.2156 24.0906 53.7056 23.599C55.1755 21.6324 56.8905 19.9116 58.3604 18.1908C58.8504 17.6992 58.8504 17.2075 58.6054 16.7159C57.6254 14.5035 58.3604 12.0453 60.3203 10.5703C62.2802 9.09538 64.9751 9.09538 66.935 10.5703C68.8949 12.0453 69.6299 14.5035 68.8949 16.9617C68.6499 17.6992 68.6499 17.945 69.1399 18.6825C70.8548 20.4033 72.3248 22.3698 73.7947 24.0906C74.2847 24.5822 74.5297 24.8281 75.2646 24.5822C75.9996 24.3364 76.9795 24.5822 77.7145 24.5822C78.2045 24.5822 78.6945 24.5822 78.9395 24.0906C80.6544 22.124 82.3693 20.4033 83.8392 18.4367C84.0842 18.1908 84.0842 17.4534 84.0842 17.2075C83.1043 14.7493 84.0842 12.0453 86.0441 10.5703C88.004 9.09538 90.9439 9.3412 92.6588 10.8161C94.6187 12.5369 95.1087 15.241 94.1288 17.4534C92.9038 19.6658 90.4539 20.8949 88.004 20.4033C87.5141 20.1574 87.0241 20.4033 86.5341 20.8949C84.8192 22.8615 83.3493 24.5822 81.6343 26.5488C81.1444 27.0405 81.1444 27.2863 81.3893 28.0238C83.1043 31.2195 80.4094 34.9068 76.4896 34.9068ZM65.4651 14.7493C65.4651 13.766 64.4851 13.0286 63.5052 13.0286C62.5252 13.0286 61.7902 14.0118 61.7902 14.9951C61.7902 15.9784 62.7702 16.7159 63.7501 16.7159C64.7301 16.4701 65.7101 15.7326 65.4651 14.7493ZM89.474 12.7827C88.494 12.7827 87.5141 13.5202 87.5141 14.5035C87.5141 15.4868 88.249 16.4701 89.229 16.4701C90.2089 16.4701 91.1889 15.7326 91.1889 14.7493C91.1889 13.766 90.4539 13.0285 89.474 12.7827ZM52.7256 29.4987C52.7256 28.5154 51.7457 27.778 50.7657 27.778C49.7858 27.778 49.0508 28.7612 49.0508 29.7445C49.0508 30.7278 50.0308 31.4653 51.0107 31.4653C51.9907 31.2195 52.7256 30.482 52.7256 29.4987ZM78.4495 29.4987C78.4495 28.5154 77.7145 27.5321 76.7346 27.5321C75.7546 27.5321 74.7746 28.2696 74.7746 29.2529C74.7746 30.2362 75.5096 31.2195 76.4896 31.2195C77.4695 31.2195 78.4495 30.482 78.4495 29.4987Z" fill="white"/>
<path d="M34.3515 52.3604C34.3515 56.7852 34.3515 61.2101 34.3515 65.6349C34.3515 67.3556 33.6165 68.0931 31.9016 68.0931C29.6967 68.0931 27.7368 68.0931 25.5319 68.0931C24.0619 68.0931 23.327 67.3556 23.327 65.8807C23.327 57.0311 23.327 47.9356 23.327 39.0859C23.327 37.611 24.0619 36.8735 25.5319 36.8735C27.7368 36.8735 29.9417 36.8735 32.1466 36.8735C33.6165 36.8735 34.3515 37.611 34.3515 39.0859C34.3515 43.5108 34.3515 47.9356 34.3515 52.3604ZM27.2468 40.5609C27.2468 48.4272 27.2468 56.5394 27.2468 64.4058C28.4717 64.4058 29.6967 64.4058 30.6766 64.4058C30.6766 56.5394 30.6766 48.4272 30.6766 40.5609C29.4517 40.5609 28.2267 40.5609 27.2468 40.5609Z" fill="white"/>
<path d="M19.6522 56.2936C19.6522 59.4893 19.6522 62.685 19.6522 65.8807C19.6522 67.6015 18.9172 68.0932 17.4473 68.0932C15.2424 68.0932 13.0375 68.0932 10.8326 68.0932C9.36265 68.0932 8.62769 67.3557 8.62769 65.8807C8.62769 59.2435 8.62769 52.8521 8.62769 46.2149C8.62769 44.7399 9.36265 44.2483 10.8326 44.2483C13.0375 44.2483 15.2424 44.2483 17.4473 44.2483C18.9172 44.2483 19.6522 44.9858 19.6522 46.4607C19.6522 49.6564 19.6522 52.8521 19.6522 56.2936ZM12.5475 47.9356C12.5475 53.5896 12.5475 58.9977 12.5475 64.4058C13.7725 64.4058 14.9974 64.4058 15.9774 64.4058C15.9774 58.9977 15.9774 53.3438 15.9774 47.9356C14.7524 47.9356 13.7725 47.9356 12.5475 47.9356Z" fill="white"/>
<path d="M38.0263 58.7517C38.0263 56.5393 38.0263 54.0811 38.0263 51.8687C38.0263 50.3937 38.7613 49.6562 40.2312 49.6562C42.4361 49.6562 44.641 49.6562 46.8459 49.6562C48.3158 49.6562 49.0508 50.3937 49.0508 51.8687C49.0508 56.5393 49.0508 61.2099 49.0508 65.8806C49.0508 67.3555 48.3158 68.093 46.8459 68.093C44.641 68.093 42.4361 68.093 40.2312 68.093C38.7613 68.093 38.0263 67.3555 38.0263 65.8806C38.0263 63.4224 38.0263 61.2099 38.0263 58.7517ZM45.376 53.3436C44.151 53.3436 42.9261 53.3436 41.9461 53.3436C41.9461 57.031 41.9461 60.7183 41.9461 64.1598C43.1711 64.1598 44.396 64.1598 45.376 64.1598C45.376 60.7183 45.376 57.031 45.376 53.3436Z" fill="white"/>
<path d="M28.7167 12.7828C26.5118 12.7828 24.062 12.7828 21.8571 12.7828C20.3871 12.7828 19.6522 12.0454 19.6522 11.0621C19.6522 9.83296 20.3871 9.34131 21.8571 9.34131C26.5119 9.34131 31.1666 9.34131 35.8214 9.34131C37.0464 9.34131 38.0263 10.0788 38.0263 11.0621C38.0263 12.2912 37.2914 12.7828 35.8214 12.7828C33.6165 12.7828 31.1666 12.7828 28.7167 12.7828Z" fill="white"/>
<path d="M28.7167 22.1241C26.5118 22.1241 24.307 22.1241 21.8571 22.1241C20.6321 22.1241 19.6522 21.3866 19.6522 20.4034C19.6522 19.1742 20.3871 18.4368 21.8571 18.4368C26.5119 18.4368 31.1666 18.4368 35.8214 18.4368C37.2914 18.4368 38.0263 19.1742 38.0263 20.1575C38.0263 21.3866 37.2914 22.1241 35.8214 22.1241C33.3715 22.1241 31.1666 22.1241 28.7167 22.1241Z" fill="white"/>
<path d="M28.9617 31.2196C26.7568 31.2196 24.307 31.2196 22.1021 31.2196C20.6321 31.2196 19.8972 30.4821 19.8972 29.4988C19.8972 28.2697 20.6321 27.7781 22.1021 27.7781C26.7568 27.7781 31.1666 27.7781 35.8214 27.7781C37.2914 27.7781 38.0263 28.5155 38.0263 29.4988C38.0263 30.728 37.2914 31.2196 35.8214 31.2196C33.3715 31.2196 31.1666 31.2196 28.9617 31.2196Z" fill="white"/>
<path d="M12.3025 12.7828C11.8125 12.7828 11.0776 12.7828 10.5876 12.7828C9.36265 12.7828 8.87267 12.0453 8.62769 11.062C8.62769 10.0788 9.36265 9.34128 10.3426 9.09546C11.5676 9.09546 12.7925 9.09546 14.0174 9.09546C14.9974 9.09546 15.7324 9.83293 15.7324 10.8162C15.7324 11.7995 14.9974 12.537 14.0174 12.7828C13.5275 13.0286 13.0375 12.7828 12.3025 12.7828Z" fill="white"/>
<path d="M12.3025 22.1241C11.8125 22.1241 11.0776 22.1241 10.5876 22.1241C9.36265 21.8783 8.62769 21.1408 8.62769 20.1575C8.62769 19.1742 9.36265 18.4368 10.3426 18.4368C11.5676 18.4368 12.7925 18.4368 14.0174 18.4368C14.9974 18.4368 15.7324 19.4201 15.7324 20.4034C15.9774 21.1408 15.2424 21.8783 14.2624 22.1241C13.7725 22.1241 13.0375 22.1241 12.3025 22.1241Z" fill="white"/>
<path d="M12.3025 31.2196C11.8125 31.2196 11.0775 31.2196 10.5875 31.2196C9.60759 31.2196 8.87262 30.4821 8.87262 29.4988C8.87262 28.5155 9.60759 27.7781 10.5875 27.7781C11.8125 27.7781 13.2824 27.7781 14.5074 27.7781C15.4873 27.7781 16.2223 28.5155 16.2223 29.4988C16.2223 30.4821 15.4873 31.2196 14.5074 31.2196C13.7724 31.2196 13.0374 31.2196 12.3025 31.2196Z" fill="white"/>
</svg>
