<svg width="114" height="109" viewBox="0 0 114 109" fill="none" xmlns="http://www.w3.org/2000/svg">
<path d="M113.109 67.2442C112.736 69.4857 112.456 71.6338 111.989 73.8752C110.868 78.9185 108.907 83.6816 106.105 88.0712C105.264 89.3787 104.05 89.7523 102.929 89.0985C101.809 88.4448 101.529 87.0438 102.369 85.7363C105.545 80.693 107.599 75.2761 108.253 69.3923C109.747 56.5039 106.105 45.2031 97.0456 35.9571C77.5262 15.8773 43.8108 21.8545 32.0431 47.1644C21.116 70.7932 35.0318 98.3446 60.6218 103.481C70.8952 105.536 80.7016 103.761 89.6675 98.2512C91.442 97.2238 92.6561 97.2238 93.4033 98.438C94.2438 99.6521 93.6834 100.866 91.9089 101.987C68.6537 116.463 37.5534 106.47 27.1866 81.0666C26.813 80.1326 26.3461 79.8525 25.3187 79.8525C20.8358 79.9459 16.4463 79.8525 11.9633 79.8525C11.5898 79.8525 11.1228 79.8525 10.7492 79.8525C9.53508 79.7591 8.78792 78.8251 8.78792 77.7044C8.78792 76.5837 9.62847 75.6497 10.8426 75.4629C11.2162 75.4629 11.5898 75.4629 11.9633 75.4629C15.9793 75.4629 19.9953 75.4629 24.0112 75.4629C24.3848 75.4629 24.7584 75.4629 25.2253 75.4629C24.7584 72.5677 24.2914 69.8593 23.8244 66.964C22.6103 66.964 21.3028 66.964 20.0886 66.964C18.1274 66.964 16.1661 66.964 14.2048 66.964C12.8973 66.964 11.9633 66.0301 11.9633 64.816C11.9633 63.6018 12.8973 62.6679 14.2048 62.5745C17.0066 62.5745 19.8085 62.5745 22.6103 62.5745C22.9839 62.5745 23.4508 62.5745 23.731 62.5745C24.1046 59.7727 24.4782 57.0642 24.8518 54.0756C24.4782 54.0756 24.1046 54.0756 23.6376 54.0756C16.8198 54.0756 9.90866 54.0756 3.09086 54.0756C2.62389 54.0756 2.06353 54.0756 1.59655 53.8888C0.569216 53.6086 -0.0845453 52.6747 0.00884914 51.6474C0.102244 50.62 0.849399 49.7795 1.87674 49.6861C2.25031 49.5927 2.71729 49.6861 3.09086 49.6861C10.469 49.6861 17.8472 49.6861 25.2253 49.6861C26.0659 49.6861 26.3461 49.4059 26.6263 48.6587C27.6536 46.1371 28.7743 43.7088 29.8951 41.1872C29.6149 41.1872 29.2413 41.0938 28.8677 41.0938C25.1319 41.0938 21.3962 41.0938 17.567 41.0938C15.9793 41.0938 14.952 40.2532 14.952 38.9457C14.952 37.6382 15.9793 36.7042 17.567 36.7042C22.3301 36.7042 27.1866 36.7042 31.9497 36.7042C32.7903 36.7042 33.2573 36.5175 33.8176 35.8637C40.0751 28.2054 48.107 23.0687 57.7266 20.7338C58.0068 20.6404 58.287 20.547 58.5671 20.4536C58.5671 20.08 58.5671 19.7999 58.5671 19.4263C58.5671 17.932 58.5671 16.4377 58.5671 14.85C55.8587 14.0094 53.8974 12.3283 53.1503 9.52647C51.7494 4.85675 55.2049 0.0936386 60.1548 0.000244141C65.7585 0.0936386 71.1754 0.0936386 76.5923 0.187033C80.328 0.187033 83.2233 2.89547 83.877 6.63125C84.4374 9.99345 82.4761 13.3556 79.0205 14.6632C78.4602 14.85 78.18 15.1301 78.18 15.7839C78.2734 17.3716 78.18 18.8659 78.18 20.3602C80.795 21.2942 83.4101 21.9479 85.8383 23.0687C101.155 29.9799 110.121 41.7475 112.736 58.3717C112.923 59.3057 113.016 60.1462 113.109 61.0802C113.109 63.1349 113.109 65.1895 113.109 67.2442ZM68.4669 10.7406C70.9886 10.7406 73.5102 10.7406 76.0319 10.7406C78.0866 10.7406 79.4875 9.52647 79.4875 7.65859C79.4875 5.88409 78.0866 4.57657 76.1253 4.48318C70.9886 4.48318 65.9453 4.48318 60.8086 4.48318C58.7539 4.48318 57.4464 5.7907 57.4464 7.65859C57.4464 9.43308 58.8473 10.6472 60.8086 10.6472C63.3303 10.7406 65.8519 10.7406 68.4669 10.7406ZM63.1435 19.6131C66.6925 19.6131 70.2414 19.6131 73.697 19.6131C73.697 18.1188 73.697 16.7178 73.697 15.2235C70.148 15.2235 66.6925 15.2235 63.1435 15.2235C63.1435 16.8112 63.1435 18.2122 63.1435 19.6131Z" fill="white"/>
<path d="M68.5603 29.8864C87.5194 29.9798 102.836 45.2965 102.743 64.2556C102.743 83.1212 87.2392 98.5313 68.3735 98.4379C49.5078 98.3445 34.1912 82.841 34.1912 63.9754C34.2846 45.1097 49.6946 29.793 68.5603 29.8864ZM68.4669 34.2759C51.9361 34.2759 38.6741 47.6313 38.6741 64.1622C38.6741 80.5996 52.1229 94.0484 68.5603 94.0484C84.9977 94.0484 98.3531 80.5996 98.3531 64.1622C98.3531 47.6313 84.9043 34.2759 68.4669 34.2759Z" fill="white"/>
<path d="M2.25038 79.9457C1.03625 79.9457 0.00891113 79.0117 0.00891113 77.7976C0.00891113 76.5835 0.942855 75.5562 2.25038 75.5562C3.4645 75.5562 4.39845 76.5835 4.39845 77.7042C4.39845 78.9183 3.4645 79.9457 2.25038 79.9457Z" fill="white"/>
<path d="M96.2983 94.0482C96.2983 92.8341 97.3257 91.9001 98.5398 91.9001C99.7539 91.9001 100.688 92.9275 100.688 94.1416C100.688 95.3557 99.6605 96.3831 98.353 96.2897C97.1389 96.1963 96.2983 95.2623 96.2983 94.0482Z" fill="white"/>
<path d="M61.6492 63.882C61.7425 63.415 61.7425 62.6678 62.0227 62.0141C62.3963 61.2669 62.1161 60.8 61.5558 60.333C60.2482 59.0255 58.9407 57.7179 57.6332 56.4104C56.5125 55.2897 56.5125 54.0756 57.4464 53.0482C58.3803 52.1143 59.6879 52.2077 60.8086 53.235C62.2095 54.6359 63.517 56.0368 65.0113 57.3444C65.2915 57.6245 65.8519 57.7179 66.2255 57.6245C67.8132 57.1576 69.4009 57.0642 70.8952 57.6245C71.549 57.9047 71.9225 57.7179 72.2961 57.251C75.5649 53.9822 78.8337 50.7134 82.1025 47.4446C82.4761 47.071 82.8497 46.6974 83.3167 46.5106C84.2506 46.137 85.1845 46.3238 85.8383 47.1644C86.4921 48.0049 86.4921 48.8455 85.9317 49.7794C85.7449 50.153 85.3713 50.4332 85.0911 50.8068C81.9157 53.9822 78.7403 57.251 75.4715 60.4264C75.0046 60.8934 74.8178 61.2669 75.0979 62.0141C76.0319 64.8159 75.3781 67.2442 73.2301 69.2055C71.082 71.1667 68.4669 71.5403 65.8519 70.3262C63.0501 69.1121 61.7425 66.964 61.6492 63.882ZM68.4669 61.7339C67.066 61.7339 66.0387 62.8546 66.1321 64.2555C66.1321 65.5631 67.2528 66.5904 68.5603 66.5904C69.8679 66.5904 70.9886 65.4697 70.9886 64.1622C70.8952 62.7612 69.7745 61.6405 68.4669 61.7339Z" fill="white"/>
<path d="M70.7085 41.5607C70.7085 41.9343 70.7085 42.3079 70.7085 42.6815C70.6151 43.8956 69.7745 44.7362 68.5604 44.8296C67.4397 44.8296 66.4123 44.0824 66.3189 42.8683C66.2256 42.1211 66.2256 41.374 66.3189 40.5334C66.4123 39.2259 67.3463 38.2919 68.6538 38.3853C69.8679 38.3853 70.7085 39.3193 70.8019 40.6268C70.7085 40.907 70.7085 41.1872 70.7085 41.5607Z" fill="white"/>
<path d="M91.1617 61.9209C91.5353 61.9209 91.8155 61.9209 92.1891 61.9209C93.4032 62.0143 94.3372 62.8548 94.4306 64.069C94.4306 65.1897 93.59 66.217 92.2825 66.3104C91.5353 66.4038 90.7882 66.4038 90.041 66.3104C88.7335 66.217 87.8929 65.2831 87.8929 63.9756C87.9863 62.7615 88.8269 61.9209 90.1344 61.9209C90.508 61.9209 90.7882 61.9209 91.1617 61.9209Z" fill="white"/>
<path d="M70.7085 86.6703C70.7085 87.0439 70.7085 87.5108 70.7085 87.8844C70.5217 89.0985 69.5878 90.0325 68.3736 89.9391C67.2529 89.8457 66.319 89.0051 66.319 87.791C66.319 87.1373 66.319 86.4835 66.319 85.8297C66.319 84.5222 67.2529 83.5883 68.467 83.4949C69.6812 83.4949 70.6151 84.4288 70.7085 85.7363C70.7085 86.0165 70.7085 86.3901 70.7085 86.6703Z" fill="white"/>
<path d="M45.959 61.9209C46.3326 61.9209 46.7995 61.9209 47.1731 61.9209C48.2938 62.0143 49.041 62.8548 49.1344 63.9756C49.2278 65.0963 48.4806 66.1237 47.3599 66.217C46.426 66.3104 45.492 66.3104 44.6515 66.217C43.5307 66.1237 42.6902 65.0963 42.7836 63.9756C42.877 62.8548 43.6241 62.0143 44.8383 61.9209C45.1184 61.9209 45.492 61.9209 45.959 61.9209Z" fill="white"/>
</svg>
