<svg width="109" height="109" viewBox="0 0 109 109" fill="none" xmlns="http://www.w3.org/2000/svg">
<path d="M109 86.0215C108.363 87.0453 107.385 87.25 106.27 87.2273C102.402 87.2045 98.5346 87.2045 94.5759 87.2045C94.5076 88.0463 94.4394 88.8426 94.3939 89.6389C94.1436 94.1208 90.4807 98.034 85.3845 98.0795C75.8746 98.1705 66.3646 98.1023 56.8547 98.1023C56.7182 98.1023 56.5817 98.0568 56.3997 98.0113C56.3997 96.8737 56.3997 95.7362 56.3997 94.4621C56.832 94.4621 57.2415 94.4621 57.651 94.4621C66.7059 94.4621 75.7381 94.4621 84.793 94.4621C87.7733 94.4621 89.8892 93.0743 90.549 90.5489C90.822 89.5251 90.7992 88.4103 90.9357 87.2045C90.2532 87.2045 89.8209 87.2045 89.3659 87.2045C76.3068 87.2045 63.2478 87.2045 50.2114 87.2045C47.6861 87.2045 47.2766 86.795 47.2766 84.2242C47.2766 79.9925 47.2766 75.7835 47.2766 71.5519C47.2766 69.5953 47.8681 69.0038 49.8247 69.0038C63.0202 69.0038 76.2158 69.0038 89.4114 69.0038C89.8664 69.0038 90.3214 69.0038 90.822 69.0038C90.822 56.5817 90.822 44.2734 90.822 31.8514C90.5945 32.0106 90.3897 32.1016 90.2304 32.2609C88.1829 34.2857 86.1353 36.2878 84.1559 38.3809C83.8147 38.7449 83.6327 39.382 83.6327 39.8825C83.6099 47.4358 83.6099 54.9891 83.6099 62.5652C83.6099 64.9313 83.1549 65.3863 80.8343 65.3863C68.1392 65.3863 55.4442 65.3863 42.7264 65.3863C40.474 65.3863 40.019 64.9086 40.019 62.6335C40.019 60.5404 40.019 58.4473 40.019 56.5362C37.8122 55.8537 35.6736 55.3759 33.6715 54.5341C25.6859 51.1215 20.8399 42.4306 22.0002 33.7852C23.1833 24.9123 30.1451 17.8368 38.8587 16.6082C47.8681 15.3342 56.286 19.9526 60.0171 28.234C60.3129 28.8938 60.6541 29.1213 61.3594 29.0985C65.1816 29.0758 69.0265 29.0985 72.8487 29.053C73.372 29.053 74.0317 28.7573 74.3957 28.3932C79.6967 23.1605 84.9522 17.8823 90.1849 12.5813C90.549 12.2173 90.7537 11.5575 90.822 11.0115C90.913 10.2152 90.8675 9.37341 90.7537 8.57712C90.4124 5.73325 88.3876 3.82217 85.521 3.64016C85.2707 3.61741 85.0205 3.61741 84.7702 3.61741C64.5901 3.61741 44.4099 3.61741 24.2298 3.61741C21.2267 3.61741 19.0653 5.07347 18.4056 7.62158C18.2008 8.39511 18.1553 9.2369 18.1553 10.0559C18.1325 25.0033 18.1553 39.928 18.1553 54.8754C18.1553 55.3304 18.1553 55.7854 18.1553 56.2859C16.904 56.2859 15.7892 56.2859 14.5151 56.2859C14.5151 55.8537 14.5151 55.4897 14.5151 55.1029C14.5151 40.019 14.5151 24.9351 14.5151 9.87393C14.5379 5.00522 16.9495 1.59257 21.3177 0.364016C22.3187 0.091004 23.4108 0.022751 24.4801 0.022751C44.4782 0 64.4991 0 84.4972 0C89.9802 0 93.3473 2.77562 94.4166 8.37236C95.2584 7.53058 96.0319 6.7798 96.7827 6.00626C98.3298 4.43644 100.173 3.54915 102.402 3.66291C105.383 3.84492 107.749 5.73325 108.659 8.59987C108.75 8.87289 108.864 9.1004 108.977 9.37341C108.977 10.1469 108.977 10.9432 108.977 11.7168C108.431 13.9464 106.975 15.5389 105.383 17.1087C101.947 20.4759 98.5345 23.8885 95.1674 27.3467C94.7806 27.7335 94.4849 28.4387 94.4849 28.9848C94.4394 41.9528 94.4621 54.9436 94.4621 67.9117C94.4621 68.253 94.4849 68.5942 94.5304 69.0493C94.9854 69.0493 95.3722 69.0493 95.7362 69.0493C99.2853 69.0493 102.834 69.072 106.361 69.0265C107.476 69.0265 108.363 69.2995 108.977 70.2778C109 75.5105 109 80.766 109 86.0215ZM105.314 83.4961C105.314 79.8787 105.314 76.3068 105.314 72.7349C104.109 72.7349 102.948 72.7349 101.72 72.7349C101.72 73.9407 101.72 75.0555 101.72 76.1931C100.468 76.1931 99.3308 76.1931 98.0795 76.1931C98.0795 74.9873 98.0795 73.8725 98.0795 72.7349C96.8282 72.7349 95.6907 72.7349 94.4394 72.7349C94.4394 73.9407 94.4394 75.0783 94.4394 76.2158C93.2108 76.2158 92.096 76.2158 90.822 76.2158C90.822 75.01 90.822 73.8725 90.822 72.7122C89.5479 72.7122 88.4331 72.7122 87.2046 72.7122C87.2046 73.8952 87.2046 75.0328 87.2046 76.1931C85.9532 76.1931 84.793 76.1931 83.5416 76.1931C83.5416 74.9873 83.5416 73.8725 83.5416 72.6894C82.3131 72.6894 81.1983 72.6894 79.9242 72.6894C79.9242 73.8725 79.9242 75.0328 79.9242 76.1931C78.6502 76.1931 77.5354 76.1931 76.2613 76.1931C76.2613 74.9873 76.2613 73.8497 76.2613 72.7122C74.9873 72.7122 73.8725 72.7122 72.6439 72.7122C72.6439 73.918 72.6439 75.0328 72.6439 76.1703C71.3926 76.1703 70.2551 76.1703 69.0038 76.1703C69.0038 74.9645 69.0038 73.8497 69.0038 72.7122C67.7525 72.7122 66.5922 72.7122 65.3636 72.7122C65.3636 73.918 65.3636 75.0328 65.3636 76.1703C64.1123 76.1703 62.9747 76.1703 61.7462 76.1703C61.7462 74.9645 61.7462 73.8497 61.7462 72.7122C60.4949 72.7122 59.3573 72.7122 58.1288 72.7122C58.1288 73.918 58.1288 75.0555 58.1288 76.1703C56.9002 76.1703 55.7399 76.1703 54.5114 76.1703C54.5114 74.9645 54.5114 73.8497 54.5114 72.6894C53.2601 72.6894 52.1225 72.6894 50.9395 72.6894C50.9395 76.3068 50.9395 79.856 50.9395 83.4734C69.0493 83.4961 87.159 83.4961 105.314 83.4961ZM79.8332 61.7007C79.8332 55.3759 79.8332 49.1194 79.8332 42.8856C79.765 42.8401 79.674 42.7946 79.6057 42.7491C78.4682 43.9549 77.3534 45.1835 76.1476 46.321C75.6698 46.776 74.9873 47.14 74.3275 47.2993C71.6656 47.9136 68.981 48.4141 66.3191 48.9601C64.3171 49.3696 63.316 48.3459 63.7255 46.3438C64.2488 43.7502 64.7266 41.1338 65.3409 38.5402C65.5229 37.7666 65.9779 36.9704 66.5239 36.3788C67.5932 35.2185 68.799 34.1947 69.9366 33.1027C69.8683 33.0117 69.8 32.9207 69.7545 32.8524C67.0244 32.8524 64.2943 32.8524 61.4504 32.8524C62.3377 38.6312 61.1774 43.8867 57.6965 48.4824C54.1701 53.1236 49.4152 55.6489 43.6819 56.3087C43.6819 58.197 43.6819 59.9489 43.6819 61.7689C55.7399 61.7007 67.7525 61.7007 79.8332 61.7007ZM39.9962 52.5093C39.9962 52.0543 39.9962 51.6675 39.9962 51.2807C39.9962 44.7284 39.9962 38.1534 39.9962 31.6011C39.9962 29.6218 40.5423 29.0758 42.5216 29.053C46.7078 29.053 50.894 29.053 55.0574 29.053C55.4214 29.053 55.8082 29.053 56.2405 29.053C54.5114 24.5256 47.8453 18.6558 38.8132 20.2256C31.1234 21.5452 25.1398 28.8483 25.4129 36.5608C25.7314 44.9787 31.8741 51.7585 39.9962 52.5093ZM74.3957 42.6354C83.2231 33.808 92.005 25.0261 100.719 16.3125C99.2853 14.8791 97.761 13.3548 96.396 12.0125C87.6368 20.7717 78.8322 29.5763 70.0731 38.3354C71.4609 39.7005 72.9624 41.202 74.3957 42.6354ZM43.6819 52.4865C52.7141 51.804 59.7214 42.3851 57.8785 33.4895C57.742 32.7842 57.378 32.6932 56.7637 32.7159C52.9643 32.7387 49.1649 32.7159 45.3882 32.7159C44.8422 32.7159 44.2734 32.7159 43.6819 32.7159C43.6819 39.4047 43.6819 45.9342 43.6819 52.4865ZM99.0123 8.96389C100.605 10.5337 102.106 12.058 103.654 13.6051C104.814 12.6723 105.678 11.512 105.314 9.82843C105.041 8.50887 104.177 7.62158 102.857 7.30307C101.174 6.93905 99.9906 7.78084 99.0123 8.96389ZM68.2985 42.0438C68.1165 42.9539 67.9345 43.8639 67.7297 44.9105C68.7763 44.7057 69.6863 44.5237 70.7556 44.2962C69.891 43.4999 69.1403 42.8174 68.2985 42.0438Z" fill="white"/>
<path d="M1.29681 109C0.295763 108.431 0 107.567 0 106.429C0.022751 88.1601 0.022751 69.891 0.022751 51.622C0.022751 51.2579 0 50.8939 0.068253 50.5527C0.318514 49.2331 1.75183 48.6416 2.86663 49.3924C3.16239 49.5971 3.41265 49.8474 3.66291 50.0976C22.0685 68.5032 40.474 86.9088 58.8796 105.337C58.9023 105.36 58.9251 105.383 58.9478 105.405C60.3356 106.816 60.2901 107.749 58.7658 108.977C39.6095 109 20.4531 109 1.29681 109ZM3.73116 55.6489C3.73116 72.1661 3.73116 88.7516 3.73116 105.292C20.3849 105.292 36.9476 105.292 53.3738 105.292C36.8111 88.7516 20.2484 72.1889 3.73116 55.6489Z" fill="white"/>
<path d="M21.8865 7.30298C23.0923 7.30298 24.1843 7.30298 25.3674 7.30298C25.3674 8.48603 25.3674 9.62358 25.3674 10.8294C24.2298 10.8294 23.0923 10.8294 21.8865 10.8294C21.8865 9.66908 21.8865 8.53153 21.8865 7.30298Z" fill="white"/>
<path d="M29.1667 7.30298C30.327 7.30298 31.4418 7.30298 32.6477 7.30298C32.6477 8.46328 32.6477 9.60083 32.6477 10.8066C31.4873 10.8066 30.3726 10.8066 29.1667 10.8066C29.1667 9.66908 29.1667 8.50878 29.1667 7.30298Z" fill="white"/>
<path d="M39.9052 10.8523C38.7449 10.8523 37.6529 10.8523 36.4698 10.8523C36.4698 9.69203 36.4698 8.55448 36.4698 7.32593C37.5846 7.32593 38.6994 7.32593 39.9052 7.32593C39.9052 8.48623 39.9052 9.64653 39.9052 10.8523Z" fill="white"/>
<path d="M21.8637 98.125C19.0198 98.125 16.1987 98.125 13.3548 98.125C11.5575 98.125 10.8977 97.4652 10.8977 95.6906C10.8977 90.0256 10.8977 84.3379 10.8977 78.6729C10.8977 77.7173 11.0797 76.8755 12.0353 76.4888C12.9908 76.102 13.7188 76.557 14.4014 77.2396C20.1801 83.0411 25.9816 88.8426 31.7831 94.6213C32.4656 95.2811 32.9434 96.0091 32.5567 96.9647C32.1471 97.9885 31.2598 98.1477 30.2816 98.1477C27.4832 98.1022 24.6621 98.125 21.8637 98.125ZM25.8224 94.4393C22.1139 90.7309 18.269 86.886 14.6289 83.2458C14.6289 86.7267 14.6289 90.5716 14.6289 94.4393C18.5193 94.4393 22.3642 94.4393 25.8224 94.4393Z" fill="white"/>
</svg>
