<svg width="624" height="70" viewBox="0 0 624 70" fill="none" xmlns="http://www.w3.org/2000/svg">
<path d="M223.115 18.9322H226.478V10.3923H223.149V6.75682H233.515V10.3923H230.083V18.9322H233.275V22.5334H230.083V31.0733C231.25 30.9018 232.451 30.6961 233.687 30.456V34.1258C230.872 34.7431 227.337 35.189 223.08 35.4633V31.6564C224.213 31.6221 225.346 31.5878 226.478 31.5192V22.5334H223.115V18.9322ZM234.442 17.0802H256.136V20.5442H246.387C246.113 21.2301 245.838 21.8818 245.632 22.4305H251.605C253.664 22.7735 254.968 23.871 255.483 25.723C255.792 26.649 255.964 28.3982 256.033 30.9361C256.033 32.5481 255.964 33.8171 255.895 34.7431C255.449 37.5554 254.248 39.0302 252.394 39.236C250.712 39.236 249.408 39.0988 248.515 38.8587V38.2414H246.868V25.6544H244.396V38.2414H241.238V25.6544H238.664V39.5447H235.197V22.4648H241.616C241.856 21.8475 242.096 21.2301 242.337 20.5785H234.442V17.0802ZM243.058 4.90479H246.765V12.1071H250.678C251.124 12.1071 251.33 11.9699 251.33 11.6613V5.65932H254.968V12.5873C254.968 14.4393 253.836 15.3996 251.605 15.4339H238.218C236.536 15.3996 235.506 14.4393 235.128 12.6216V5.65932H238.595V11.4555C238.595 11.9014 238.836 12.1414 239.282 12.1414H243.058V4.90479ZM249.923 35.8063C250.266 35.8406 250.643 35.8406 250.952 35.8749C251.639 35.8063 252.085 35.3261 252.222 34.3658C252.36 33.4398 252.428 32.3423 252.428 31.039C252.428 29.4271 252.325 28.1924 252.154 27.335C252.085 26.1689 251.467 25.5858 250.335 25.5858H249.923V35.8063Z" fill="#4C4C4C"/>
<path d="M276.319 11.6611V15.1937C275.255 15.3309 274.156 15.4338 272.989 15.5367V20.4411H278.069V11.1466H281.742V20.4411H282.738C284.935 20.4411 286.582 20.8184 287.681 21.6072C288.813 22.2931 289.465 23.4592 289.603 25.0712V25.1055C291.353 24.1452 293.207 23.5621 295.198 23.4249V26.8203C293.413 26.9575 291.628 27.472 289.809 28.3294C289.809 28.3637 289.809 28.4323 289.843 28.4666C292.177 28.7067 293.996 29.0153 295.266 29.4269V33.0967C294.134 32.6165 292.555 32.1707 290.495 31.7934C291.285 34.1256 292.589 35.326 294.443 35.326C295.095 35.2574 295.884 35.1888 296.708 35.1202L296.742 38.5156C295.644 38.6185 294.649 38.6528 293.756 38.6528C288.985 38.6528 286.41 34.5371 286.136 26.2716C285.93 24.6596 284.969 23.8365 283.253 23.8365H281.742V39.4073H278.069V23.8365H272.989V24.2481C272.749 31.9306 270.072 36.9379 264.889 39.2358L264.854 35.0516C267.806 33.5082 269.317 29.7699 269.419 23.8365H263.927L263.962 20.4068H269.385V15.811C268.012 15.8796 266.57 15.9482 265.06 16.0511V12.5185C268.287 12.5185 272.028 12.2441 276.319 11.6611ZM265.541 6.24219H283.012C285.106 6.24219 286.719 6.61945 287.818 7.40828C288.401 7.78555 288.848 8.3 289.122 8.91735C290.976 8.09422 292.967 7.30539 295.06 6.51656V10.152C293.31 10.7008 291.525 11.3524 289.74 12.0727V12.2098C292.074 12.4156 293.893 12.69 295.129 13.0673V16.497C293.996 16.0854 292.417 15.7081 290.358 15.3652C291.113 17.5602 292.452 18.692 294.443 18.7263C295.129 18.692 295.884 18.6234 296.708 18.5891L296.742 21.813C295.644 21.8816 294.649 21.9159 293.825 21.9159C289.122 21.9159 286.582 18.6234 286.273 12.0384C286.136 10.4607 285.209 9.63758 283.493 9.63758H265.472L265.541 6.24219Z" fill="#4C4C4C"/>
<path d="M312.154 9.60346H309.305C307.967 11.0439 306.491 11.9357 304.912 12.3129L304.877 8.54026C306.388 8.12869 307.658 6.9283 308.688 4.90479L312.326 4.93908C312.086 5.48783 311.811 6.00229 311.502 6.48244H321.525V9.60346H315.793V12.4158C315.793 12.6559 315.793 12.8617 315.759 13.0674H321.937V16.2228H315.553C316.514 17.6975 318.573 18.8636 321.766 19.6525V23.4594C318.127 22.2933 315.415 20.7157 313.63 18.6921C311.846 20.9557 308.928 22.7392 304.946 24.0768V20.2012C307.795 19.2066 309.786 17.869 310.919 16.2228H304.809V13.0674H312.12C312.154 12.896 312.154 12.7245 312.154 12.5187V9.60346ZM328.837 24.4883C333.642 24.6255 336.045 27.0606 336.045 31.7593C336.045 36.115 333.951 38.4472 329.798 38.8244L307.383 38.7901V24.4883H328.837ZM311.09 30.113H331.926C331.48 28.5697 330.45 27.8151 328.768 27.8151H311.09V30.113ZM311.09 35.3604L329.077 35.3947C330.587 35.3604 331.548 34.6402 331.892 33.234H311.09V35.3604ZM331.651 6.41385C333.505 6.55104 334.912 7.37416 335.839 8.91752C336.8 10.358 337.315 12.4158 337.315 15.1253C337.315 17.6632 336.834 19.5839 335.873 20.9214C334.946 22.3276 333.573 23.1164 331.754 23.2193H323.276V6.41385H331.651ZM326.846 19.9611H331.033C331.96 19.8925 332.647 19.4124 333.093 18.5207C333.539 17.6632 333.779 16.5657 333.779 15.2282C333.779 13.6162 333.539 12.3129 333.059 11.284C332.544 10.2894 331.823 9.70635 330.896 9.53487H326.846V19.9611Z" fill="#4C4C4C"/>
<path d="M346.754 19.1722H371.16C374.043 19.3094 375.691 20.6469 376.103 23.1849H377.887V25.7229H376.068C375.588 28.2266 374.009 29.5984 371.366 29.7699H346.617V26.9919H370.508C371.675 26.9919 372.395 26.5803 372.704 25.7229H345.381V23.1849H372.636C372.224 22.4647 371.469 22.0531 370.336 21.9159H346.754V19.1722ZM348.23 30.9017H351.56C351.457 35.0517 349.397 38.0698 345.381 39.9561L345.416 35.9091C347.269 34.7087 348.23 33.0281 348.23 30.9017ZM345.793 6.37944H351.629V4.93896H355.37V6.37944H360.862V8.9517H355.37V10.255H360.622V12.8273H355.37V14.0962L360.931 13.9591V16.6685L355.37 16.8057V18.0747H351.629V16.9086L345.519 17.1144V14.4049L351.629 14.1991V12.8273H346.034V10.255H351.629V8.9517H345.793V6.37944ZM354.169 31.0732H357.739C357.704 31.8277 357.704 32.7195 357.704 33.7484C357.739 35.0174 359.112 35.669 361.858 35.669C365.874 35.669 369.203 35.5661 371.846 35.3946V38.7557C368.139 38.8929 364.26 38.9615 360.21 38.9615C356.16 38.9615 354.134 37.1095 354.066 33.4054C354.134 32.4794 354.169 31.7249 354.169 31.0732ZM362.064 30.9017H365.908C366.491 32.1707 366.938 33.4054 367.212 34.6401H363.437C363.231 33.4054 362.75 32.1364 362.064 30.9017ZM362.166 14.1648H367.59V12.8273H362.407V10.255H367.59V8.986H362.166V6.41373H367.59V4.93896H371.331V6.41373H377.579V8.986H371.331V10.255H377.235V12.8273H371.331V14.1648H377.682V16.7714H371.331V18.0747H367.59V16.7714H362.166V14.1648ZM371.022 30.9017H375.004C376.309 33.3368 377.373 36.012 378.128 38.9272L374.146 38.8929C373.46 36.1492 372.43 33.474 371.022 30.9017Z" fill="#4C4C4C"/>
<path d="M385.954 35.4975H391.618V30.3873H395.084V35.4975H399.959V28.8439H387.224V25.7572H417.705V28.8439H403.494V30.6616H416.332V33.7141H403.494V35.5318H418.7V38.7557H385.954V35.4975ZM386.263 6.31082H392.888V4.80176H396.32V6.31082H402.808V9.29465H396.32V10.6322H398.174C399.375 10.7008 400.371 11.0781 401.091 11.764C401.95 12.4157 402.361 13.3074 402.361 14.3706C402.361 15.6739 402.018 16.6685 401.332 17.3887C401.023 17.7317 400.679 18.0404 400.268 18.2461C400.542 19.3436 401.229 20.304 402.258 21.0585V24.934C399.787 23.5622 398.174 21.4701 397.384 18.6234H396.32V24.7283H392.888V18.6234H391.824C391.343 21.4358 389.661 23.5279 386.778 24.8997L386.812 21.2986C387.945 20.544 388.666 19.6523 388.975 18.5891H387.327V10.5979H392.922V9.26036H386.263V6.31082ZM392.922 13.3074H390.656V15.8454H392.922V13.3074ZM396.354 15.8454H397.865C398.792 15.8454 399.238 15.3995 399.238 14.5421C399.238 13.7533 398.689 13.3417 397.556 13.3074H396.354V15.8454ZM406.103 4.87035H409.741C409.501 5.69348 409.226 6.48231 409.021 7.23684H418.357V10.3579H416.812C416.332 13.4103 415.268 16.0511 413.62 18.2118C415.096 19.5151 416.812 20.6469 418.838 21.5729V25.2084C415.748 24.351 413.174 22.8762 411.114 20.8184C409.055 22.5676 406.515 23.9394 403.426 24.8997V21.23C405.622 20.3726 407.442 19.3094 408.849 18.0747C407.785 16.5313 406.927 14.7822 406.24 12.8615C405.416 14.0619 404.524 15.0565 403.528 15.8454V11.1124C404.593 9.912 405.451 7.81989 406.103 4.87035ZM408.712 10.3236C409.226 12.3128 410.05 14.0619 411.183 15.571C412.281 13.9933 412.968 12.2442 413.277 10.3236H408.712Z" fill="#4C4C4C"/>
<path d="M430.886 19.5493C429.375 21.0241 427.796 22.1559 426.218 22.979V18.6576C429.341 16.5655 432.224 12.2784 434.765 5.83057H449.524C450.623 5.83057 451.824 6.72229 453.129 8.54002C455.428 12.4842 457.591 15.6738 459.582 18.1432V23.6993C458.792 23.0476 457.591 21.6757 456.046 19.5836H430.886V19.5493ZM451.447 23.4249C456.115 23.5964 458.415 26.1686 458.415 31.176C458.415 35.8061 456.424 38.2754 452.408 38.6527H429.753V23.4249H451.447ZM433.529 34.9829L451.687 35.0172C453.609 34.9829 454.57 33.6454 454.57 30.9359C454.57 28.2264 453.506 26.8889 451.378 26.8889H433.529V34.9829ZM453.403 15.8796C452.545 14.6106 451.584 13.1701 450.589 11.6267C449.73 10.1177 448.598 9.36315 447.19 9.36315H437.511C436.378 11.8668 435.176 14.0275 433.906 15.8796H453.403Z" fill="#4C4C4C"/>
<path d="M467.374 8.23159H480.143C480.589 7.16838 480.932 6.03658 481.138 4.90479L485.051 4.93908C484.845 6.10518 484.536 7.20268 484.159 8.23159H500.086V12.0385H482.408C481.55 13.5133 480.486 14.8852 479.284 16.1542H491.161C495.417 16.6686 497.614 19.138 497.683 23.5623C497.854 25.14 497.923 27.0263 497.923 29.187C497.923 30.1816 497.854 31.1419 497.751 32.0336C497.58 36.6637 495.417 39.0645 491.298 39.2017C489.067 39.2017 487.008 39.1674 485.12 39.0645V35.5319C487.008 35.6348 489.033 35.7034 491.23 35.7034C492.74 35.7034 493.632 34.846 493.838 33.1311H477.225V39.7162H473.586L473.552 20.7843C471.699 21.9161 469.639 22.945 467.374 23.871V19.5153C471.973 17.4232 475.44 14.9195 477.74 12.0728H467.339V8.23159H467.374ZM493.667 23.0479C493.495 20.9214 492.5 19.7553 490.646 19.6182H477.225V23.0479H493.667ZM477.259 26.3747V29.7357H494.113C494.113 29.3928 494.113 29.0498 494.113 28.7068C494.113 27.918 494.079 27.1292 494.044 26.4089L477.259 26.3747Z" fill="#4C4C4C"/>
<path d="M517.317 5.76207C519.754 5.83066 520.99 7.09965 520.99 9.53473C520.852 11.9012 519.754 14.3706 517.798 16.9429C519.96 21.813 521.161 26.0315 521.47 29.6327C521.47 33.7141 519.891 35.7719 516.733 35.7719H513.644V32.4108H516.527C517.626 32.3765 518.175 31.519 518.175 29.8728C517.386 25.3113 516.081 20.9556 514.228 16.84C515.395 15.7082 516.425 13.4103 517.386 9.94629C517.386 9.39754 517.077 9.08887 516.424 8.95168H512.374V39.6131H508.873V5.76207H517.317ZM532.66 5.65918C534.857 5.79637 536.539 6.72238 537.706 8.43723C538.873 9.8777 539.457 11.8326 539.457 14.302C539.388 17.0115 538.77 19.1036 537.638 20.544C536.539 22.0188 534.892 22.8076 532.729 22.9105H531.905C532.283 24.1109 532.729 25.2427 533.21 26.3059C535.475 24.7626 537.946 23.8708 540.658 23.6308V26.9576C538.77 27.1633 536.814 27.8836 534.823 29.084C536.47 31.4505 538.53 33.3711 541.001 34.8116V38.4813C534.72 36.2177 530.532 31.0389 528.404 22.9448H526.104V33.131C526.242 34.5372 526.962 35.326 528.267 35.5318C530.258 35.5318 532.146 35.2917 533.896 34.8458V38.3784C532.386 38.8243 530.258 39.0301 527.546 39.0301C524.56 38.7557 522.878 36.9037 522.534 33.474V5.65918H532.66ZM526.104 8.98598V12.6557H535.681C535.303 10.5636 534.136 9.36325 532.214 8.98598H526.104ZM535.544 15.9483H526.104V19.5837H531.425C533.656 19.3779 535.029 18.1776 535.544 15.9483Z" fill="#4C4C4C"/>
<path d="M556.448 5.79639H560.533C558.233 13.8905 554.285 19.8238 548.725 23.6308V18.8635C552.123 15.7425 554.697 11.3868 556.448 5.79639ZM562.352 17.2173H567.02L556.173 34.0227C556.173 34.5372 556.482 34.8116 557.066 34.8459H572.924C573.713 34.7087 574.125 34.1942 574.125 33.2339V27.815H578.107V34.9488C577.97 37.1438 576.597 38.3785 573.954 38.6185H553.29C552.089 38.5499 551.23 37.7611 550.784 36.252C550.784 35.8062 550.921 35.2231 551.162 34.5029L562.352 17.2173ZM570.35 5.89928C572.512 6.17365 574.366 7.27115 575.945 9.29467C578.21 14.2677 580.132 19.0007 581.78 23.5279H577.215C575.842 19.4466 574.331 15.3652 572.752 11.2839C571.894 10.0835 570.864 9.46616 569.663 9.46616H561.803V5.93357H570.35V5.89928Z" fill="#4C4C4C"/>
<path d="M590.224 13.0674H614.732V16.8057H590.224V13.0674ZM590.807 5.93359H611.883C614.08 5.96789 615.934 6.51664 617.444 7.61414C618.886 8.57446 619.984 9.91204 620.739 11.6955C621.494 13.9591 621.872 17.8003 621.872 23.2192C621.872 26.6489 621.7 29.1869 621.323 30.8332C621.014 33.2339 620.156 35.1889 618.714 36.6636C616.963 38.0355 615.178 38.7557 613.359 38.8243C609.103 38.8243 605.842 38.7214 603.611 38.55V34.8116C605.705 34.9831 608.691 35.086 612.57 35.086C613.702 35.0174 614.766 34.5372 615.796 33.6455C616.757 32.7538 617.307 31.622 617.478 30.2844C617.718 27.8836 617.856 25.4142 617.856 22.9106C617.856 18.5892 617.65 15.4681 617.272 13.5132C616.654 11.1124 614.698 9.77485 611.403 9.50047H590.807V5.93359ZM607.043 19.7552C609.034 19.961 610.579 20.6127 611.677 21.7445C612.81 22.7048 613.393 24.111 613.462 25.9287C613.462 27.9522 612.947 29.4956 611.883 30.5588C610.613 31.8621 609.103 32.548 607.284 32.6166H592.215V19.7552H607.043ZM595.888 29.1526L606.151 29.1183C608.485 29.0497 609.721 27.9865 609.858 25.9287C609.721 24.2138 608.691 23.2192 606.837 23.0135H595.888V29.1526Z" fill="#4C4C4C"/>
<path d="M233.618 63.0721L230.083 56.8301H227.44V63.0721H225.586V48.3931H230.186C233.172 48.3931 235.3 49.4563 235.3 52.5087C235.3 54.8066 233.996 56.1442 231.97 56.6243L235.746 63.0378L233.618 63.0721ZM227.44 55.3553H229.911C232.211 55.3553 233.481 54.4293 233.481 52.543C233.481 50.5881 232.211 49.9364 229.911 49.9364H227.44V55.3553Z" fill="#574949"/>
<path d="M239.694 57.6534C239.694 54.1208 242.062 51.9258 244.602 51.9258C247.383 51.9258 248.927 53.915 248.927 57.036C248.927 57.4476 248.893 57.8249 248.859 58.0649H241.513C241.616 60.3971 243.058 61.8719 245.117 61.8719C246.181 61.8719 247.039 61.5632 247.829 61.0145L248.481 62.2149C247.52 62.8322 246.353 63.3467 244.877 63.3467C241.994 63.3124 239.694 61.2202 239.694 57.6534ZM247.314 56.7616C247.314 54.5666 246.319 53.3663 244.602 53.3663C243.058 53.3663 241.685 54.6009 241.479 56.7616H247.314Z" fill="#574949"/>
<path d="M252.703 52.2002H254.591L256.65 58.3736C256.994 59.4368 257.337 60.5686 257.68 61.5633H257.749C258.058 60.5343 258.435 59.4368 258.744 58.3736L260.804 52.2002H262.623L258.744 63.0723H256.616L252.703 52.2002Z" fill="#574949"/>
<path d="M266.982 48.7701C266.982 48.0156 267.532 47.604 268.252 47.604C268.973 47.604 269.522 48.0499 269.522 48.7701C269.522 49.456 268.973 49.9362 268.252 49.9362C267.532 49.9362 266.982 49.456 266.982 48.7701ZM267.326 52.1998H269.145V63.0719H267.326V52.1998Z" fill="#574949"/>
<path d="M273.847 52.2002H275.735L277.795 58.3736C278.138 59.4368 278.481 60.5686 278.825 61.5633H278.893C279.202 60.5343 279.58 59.4368 279.889 58.3736L281.948 52.2002H283.767L279.889 63.0723H277.795L273.847 52.2002Z" fill="#574949"/>
<path d="M287.337 60.2598C287.337 57.8933 289.397 56.7272 294.031 56.2128C294.031 54.8066 293.584 53.469 291.8 53.469C290.529 53.469 289.397 54.0521 288.539 54.6351L287.818 53.3661C288.813 52.7145 290.358 51.96 292.108 51.96C294.751 51.96 295.884 53.7434 295.884 56.4186V63.0722H294.374L294.202 61.7689H294.134C293.104 62.6263 291.868 63.3465 290.529 63.3465C288.71 63.3122 287.337 62.2147 287.337 60.2598ZM294.031 60.4313V57.3789C290.358 57.8247 289.122 58.7165 289.122 60.1226C289.122 61.3573 289.98 61.8718 291.044 61.8718C292.108 61.8718 292.967 61.3573 294.031 60.4313Z" fill="#574949"/>
<path d="M301.926 60.9113V47.1582H303.745V61.0142C303.745 61.5629 303.985 61.803 304.26 61.803C304.363 61.803 304.431 61.803 304.637 61.7687L304.912 63.1749C304.637 63.2778 304.328 63.3463 303.848 63.3463C302.475 63.312 301.926 62.4546 301.926 60.9113Z" fill="#574949"/>
<path d="M316.411 61.1516L317.509 59.8826C318.573 60.9801 320.049 61.7003 321.56 61.7003C323.482 61.7003 324.649 60.74 324.649 59.2996C324.649 57.7905 323.585 57.3103 322.212 56.693L320.084 55.767C318.711 55.1839 317.097 54.155 317.097 51.9943C317.097 49.7307 319.054 48.0845 321.731 48.0845C323.482 48.0845 325.026 48.839 326.056 49.9022L325.061 51.0683C324.168 50.2452 323.07 49.6964 321.731 49.6964C320.084 49.6964 318.985 50.5539 318.985 51.8571C318.985 53.2633 320.255 53.8121 321.422 54.2922L323.516 55.1839C325.232 55.9385 326.537 56.9331 326.537 59.0938C326.537 61.426 324.615 63.2437 321.56 63.2437C319.5 63.3123 317.715 62.4892 316.411 61.1516Z" fill="#574949"/>
<path d="M331.892 52.2002H333.402L333.573 53.7778H333.642C334.569 52.7489 335.736 51.9258 337.04 51.9258C338.688 51.9258 339.615 52.7146 340.061 54.0179C341.194 52.7832 342.326 51.9258 343.631 51.9258C345.862 51.9258 346.926 53.4006 346.926 56.1786V63.0723H345.107V56.4187C345.107 54.3609 344.455 53.5034 343.082 53.5034C342.223 53.5034 341.365 54.0522 340.336 55.1497V63.038H338.516V56.3844C338.516 54.3266 337.864 53.4691 336.491 53.4691C335.667 53.4691 334.741 54.0179 333.745 55.1154V63.0037H331.926L331.892 52.2002Z" fill="#574949"/>
<path d="M352.349 60.2598C352.349 57.8933 354.409 56.7272 359.043 56.2128C359.043 54.8066 358.597 53.469 356.812 53.469C355.542 53.469 354.409 54.0521 353.551 54.6351L352.83 53.3661C353.825 52.7145 355.37 51.96 357.121 51.96C359.764 51.96 360.896 53.7434 360.896 56.4186V63.0722H359.386L359.214 61.7689H359.146C358.116 62.6263 356.88 63.3465 355.542 63.3465C353.722 63.3122 352.349 62.2147 352.349 60.2598ZM359.043 60.4313V57.3789C355.37 57.8247 354.134 58.7165 354.134 60.1226C354.134 61.3573 354.992 61.8718 356.057 61.8718C357.121 61.8718 357.979 61.3573 359.043 60.4313Z" fill="#574949"/>
<path d="M366.903 52.2002H368.414L368.585 54.1894H368.654C369.409 52.8175 370.507 51.9258 371.743 51.9258C372.224 51.9258 372.567 51.9944 372.91 52.1659L372.567 53.7778C372.224 53.6406 371.949 53.6063 371.503 53.6063C370.61 53.6063 369.478 54.258 368.757 56.11V63.0723H366.938L366.903 52.2002Z" fill="#574949"/>
<path d="M377.613 59.7109V53.6747H376V52.3028L377.716 52.1999L377.922 49.1475H379.432V52.1999H382.384V53.6747H379.432V59.7452C379.432 61.0828 379.844 61.8373 381.114 61.8373C381.492 61.8373 382.007 61.7001 382.35 61.5629L382.727 62.9348C382.109 63.1406 381.389 63.3464 380.736 63.3464C378.402 63.3121 377.613 61.8716 377.613 59.7109Z" fill="#574949"/>
<path d="M394.707 48.3931H396.56V63.0721H394.707V48.3931Z" fill="#574949"/>
<path d="M403.014 52.2002H404.524L404.695 53.7778H404.764C405.794 52.7489 406.927 51.9258 408.403 51.9258C410.702 51.9258 411.732 53.4006 411.732 56.1786V63.0723H409.913V56.4187C409.913 54.3609 409.295 53.5034 407.853 53.5034C406.721 53.5034 405.966 54.0522 404.867 55.1497V63.038H403.048L403.014 52.2002Z" fill="#574949"/>
<path d="M418.151 59.7109V53.6747H416.538V52.3028L418.254 52.1999L418.46 49.1475H419.97V52.1999H422.922V53.6747H419.97V59.7452C419.97 61.0828 420.382 61.8373 421.652 61.8373C422.03 61.8373 422.545 61.7001 422.888 61.5629L423.231 62.9348C422.613 63.1406 421.892 63.3464 421.24 63.3464C418.94 63.3121 418.151 61.8716 418.151 59.7109Z" fill="#574949"/>
<path d="M426.87 57.6534C426.87 54.1208 429.238 51.9258 431.778 51.9258C434.524 51.9258 436.103 53.915 436.103 57.036C436.103 57.4476 436.069 57.8249 436.035 58.0649H428.689C428.792 60.3971 430.234 61.8719 432.293 61.8719C433.357 61.8719 434.215 61.5632 435.005 61.0145L435.657 62.2149C434.696 62.8322 433.529 63.3467 432.053 63.3467C429.204 63.3124 426.87 61.2202 426.87 57.6534ZM434.49 56.7616C434.49 54.5666 433.494 53.3663 431.778 53.3663C430.234 53.3663 428.861 54.6009 428.655 56.7616H434.49Z" fill="#574949"/>
<path d="M440.325 65.1643C440.325 64.2383 440.943 63.3465 441.939 62.6949V62.6263C441.355 62.2833 440.943 61.7003 440.943 60.8429C440.943 59.9511 441.595 59.2309 442.179 58.8193V58.7508C441.458 58.1677 440.771 57.1388 440.771 55.8355C440.771 53.469 442.659 51.96 444.856 51.96C445.474 51.96 445.989 52.0971 446.367 52.2343H450.142V53.6405H447.911C448.426 54.155 448.804 54.9438 448.804 55.8698C448.804 58.202 447.053 59.6425 444.822 59.6425C444.273 59.6425 443.689 59.5053 443.209 59.2652C442.797 59.6082 442.522 59.9511 442.522 60.5685C442.522 61.2544 442.968 61.7346 444.41 61.7346H446.538C449.044 61.7346 450.314 62.5234 450.314 64.3068C450.314 66.3304 448.186 68.0795 444.822 68.0795C442.179 68.0795 440.325 67.0163 440.325 65.1643ZM448.563 64.5812C448.563 63.5866 447.774 63.2436 446.332 63.2436H444.444C444.032 63.2436 443.517 63.175 443.037 63.0722C442.247 63.6209 441.904 64.2726 441.904 64.9242C441.904 66.0903 443.071 66.8448 445.062 66.8448C447.156 66.8448 448.563 65.713 448.563 64.5812ZM447.122 55.8012C447.122 54.2236 446.092 53.2632 444.822 53.2632C443.552 53.2632 442.488 54.1893 442.488 55.8012C442.488 57.3789 443.552 58.3735 444.822 58.3735C446.058 58.3735 447.122 57.3789 447.122 55.8012Z" fill="#574949"/>
<path d="M455.051 52.2002H456.561L456.733 54.1894H456.801C457.557 52.8175 458.655 51.9258 459.891 51.9258C460.371 51.9258 460.714 51.9944 461.058 52.1659L460.714 53.7778C460.371 53.6406 460.097 53.6063 459.65 53.6063C458.758 53.6063 457.625 54.258 456.904 56.11V63.0723H455.085L455.051 52.2002Z" fill="#574949"/>
<path d="M464.181 60.2598C464.181 57.8933 466.241 56.7272 470.875 56.2128C470.875 54.8066 470.429 53.469 468.644 53.469C467.374 53.469 466.241 54.0521 465.383 54.6351L464.662 53.3661C465.657 52.7145 467.202 51.96 468.953 51.96C471.596 51.96 472.728 53.7434 472.728 56.4186V63.0722H471.218L471.046 61.7689H470.978C469.948 62.6263 468.712 63.3465 467.374 63.3465C465.554 63.3122 464.181 62.2147 464.181 60.2598ZM470.875 60.4313V57.3789C467.202 57.8247 465.966 58.7165 465.966 60.1226C465.966 61.3573 466.824 61.8718 467.888 61.8718C468.953 61.8718 469.811 61.3573 470.875 60.4313Z" fill="#574949"/>
<path d="M478.77 59.7109V53.6747H477.156V52.3028L478.873 52.1999L479.079 49.1475H480.589V52.1999H483.541V53.6747H480.589V59.7452C480.589 61.0828 481.001 61.8373 482.271 61.8373C482.648 61.8373 483.163 61.7001 483.506 61.5629L483.85 62.9348C483.232 63.1406 482.511 63.3464 481.859 63.3464C479.559 63.3121 478.77 61.8716 478.77 59.7109Z" fill="#574949"/>
<path d="M488.278 48.7701C488.278 48.0156 488.827 47.604 489.548 47.604C490.269 47.604 490.818 48.0499 490.818 48.7701C490.818 49.456 490.269 49.9362 489.548 49.9362C488.827 49.9705 488.278 49.456 488.278 48.7701ZM488.621 52.1998H490.44V63.0719H488.621V52.1998Z" fill="#574949"/>
<path d="M495.898 57.6534C495.898 54.0179 498.266 51.9258 500.944 51.9258C503.621 51.9258 505.989 54.0179 505.989 57.6534C505.989 61.2545 503.621 63.3467 500.944 63.3467C498.301 63.3124 495.898 61.2545 495.898 57.6534ZM504.102 57.6534C504.102 55.1497 502.832 53.4348 500.944 53.4348C499.056 53.4348 497.786 55.1497 497.786 57.6534C497.786 60.157 499.056 61.8033 500.944 61.8033C502.832 61.8033 504.102 60.157 504.102 57.6534Z" fill="#574949"/>
<path d="M511.447 52.2002H512.958L513.129 53.7778H513.198C514.228 52.7489 515.36 51.9258 516.836 51.9258C519.136 51.9258 520.166 53.4006 520.166 56.1786V63.0723H518.347V56.4187C518.347 54.3609 517.729 53.5034 516.287 53.5034C515.154 53.5034 514.399 54.0522 513.301 55.1497V63.038H511.482L511.447 52.2002Z" fill="#574949"/>
<path d="M532.695 55.7326C532.695 50.9996 535.475 48.1187 539.216 48.1187C541.001 48.1187 542.409 49.0104 543.232 49.9364L542.237 51.1368C541.482 50.3137 540.486 49.7306 539.251 49.7306C536.47 49.7306 534.617 52.0285 534.617 55.664C534.617 59.368 536.367 61.7002 539.182 61.7002C540.589 61.7002 541.654 61.0829 542.58 60.054L543.61 61.2201C542.443 62.5577 541.001 63.3122 539.113 63.3122C535.441 63.3122 532.695 60.4998 532.695 55.7326Z" fill="#574949"/>
<path d="M547.935 57.6534C547.935 54.0179 550.303 51.9258 552.981 51.9258C555.658 51.9258 558.027 54.0179 558.027 57.6534C558.027 61.2545 555.658 63.3467 552.981 63.3467C550.338 63.3124 547.935 61.2545 547.935 57.6534ZM556.139 57.6534C556.139 55.1497 554.869 53.4348 552.981 53.4348C551.093 53.4348 549.823 55.1497 549.823 57.6534C549.823 60.157 551.093 61.8033 552.981 61.8033C554.869 61.8033 556.139 60.157 556.139 57.6534Z" fill="#574949"/>
<path d="M562.901 61.9404C562.901 61.1172 563.484 60.5342 564.24 60.5342C564.96 60.5342 565.544 61.1172 565.544 61.9404C565.544 62.7635 564.96 63.3122 564.24 63.3122C563.484 63.3122 562.901 62.7635 562.901 61.9404Z" fill="#574949"/>
<path d="M570.658 65.7815C571.894 65.2327 572.649 64.2724 572.649 63.072C572.581 63.1063 572.512 63.1063 572.443 63.1063C571.757 63.1063 571.105 62.6605 571.105 61.8373C571.105 61.0485 571.757 60.5684 572.478 60.5684C573.439 60.5684 574.022 61.3915 574.022 62.7291C574.022 64.6497 572.89 66.1588 571.105 66.9133L570.658 65.7815Z" fill="#574949"/>
<path d="M586.86 48.3931H588.714V61.4945H595.132V63.0721H586.86V48.3931Z" fill="#574949"/>
<path d="M600.041 59.7109V53.6747H598.428V52.3028L600.144 52.1999L600.35 49.1475H601.86V52.1999H604.812V53.6747H601.86V59.7452C601.86 61.0828 602.272 61.8373 603.542 61.8373C603.92 61.8373 604.435 61.7001 604.778 61.5629L605.121 62.9348C604.503 63.1406 603.782 63.3464 603.13 63.3464C600.83 63.3121 600.041 61.8716 600.041 59.7109Z" fill="#574949"/>
<path d="M608.794 57.6532C608.794 54.1206 611.025 51.9256 613.496 51.9256C614.766 51.9256 615.59 52.4058 616.551 53.1946L616.448 51.3083V47.124H618.268V63.0721H616.792L616.62 61.8031H616.586C615.728 62.6262 614.595 63.3465 613.29 63.3465C610.544 63.3122 608.794 61.2544 608.794 57.6532ZM616.448 60.294V54.6008C615.522 53.7776 614.698 53.469 613.805 53.469C612.055 53.469 610.647 55.1495 610.647 57.6189C610.647 60.2254 611.746 61.8031 613.668 61.8031C614.663 61.8031 615.556 61.3229 616.448 60.294Z" fill="#574949"/>
<path d="M92.7814 17.8687L82.8957 40.8819L73.0443 17.8687H64.8749L77.5409 47.5012C78.7766 50.3821 81.6256 52.2685 84.7492 52.2685H86.2596L100.951 17.8687H92.7814Z" fill="#1A6A89"/>
<path d="M142.072 17.8687L132.187 40.8819L122.335 17.8687H114.166L126.798 47.3983C128.068 50.3478 130.951 52.2685 134.178 52.2685H135.585L150.276 17.8687H142.072Z" fill="#1A6A89"/>
<path d="M164.933 23.4933C164.178 21.5384 163.354 20.1665 162.462 19.412C161.363 18.3831 159.75 17.8687 157.69 17.8687H153.949C153.606 17.8687 153.297 18.0744 153.16 18.3831L142.347 45.2719C141.008 48.5987 143.48 52.2685 147.084 52.2685C147.427 52.2685 147.736 52.0627 147.873 51.754L150.448 45.4434C150.585 45.1347 150.894 44.9289 151.237 44.9289H165.208C165.551 44.9289 165.86 45.1347 165.997 45.4434L168.64 51.754C168.778 52.0627 169.087 52.2685 169.43 52.2685H175.78C176.398 52.2685 176.775 51.6511 176.569 51.1024L164.933 23.4933ZM154.155 36.0117L157.244 28.2263C157.519 27.5404 158.514 27.5061 158.789 28.2263L162.084 36.0117C162.324 36.5605 161.913 37.1778 161.295 37.1778H154.91C154.327 37.1778 153.915 36.5605 154.155 36.0117Z" fill="#1A6A89"/>
<path d="M191.57 44.6202C189.304 44.6202 187.725 44.1401 186.901 43.1798C186.181 42.3223 185.803 40.6761 185.803 38.4811V17.8687H178.354V39.0298C178.354 43.2484 179.315 46.4723 181.272 48.6673C183.435 51.0681 186.901 52.2685 191.57 52.2685H204.682V44.6202H191.57Z" fill="#1A6A89"/>
<path d="M61.6483 17.8687H35.0118V25.4483H61.6483V17.8687Z" fill="#1A6A89"/>
<path d="M60.5842 38.3781V30.7985H42.4604V30.7642H35.0118V37.2463C35.0118 37.6235 35.0118 38.0008 35.0118 38.3438H60.5842V38.3781Z" fill="#1A6A89"/>
<path d="M35.9043 44.6201C36.4192 46.3007 37.14 47.6725 38.0668 48.77C40.1263 51.1022 43.6961 52.2683 48.6733 52.2683H61.6826V44.6201H35.9043Z" fill="#1A6A89"/>
<path d="M26.7394 37.9323C30.1033 36.1146 31.8539 32.925 31.8539 28.7065C31.8539 24.6594 30.3436 21.6756 27.323 19.7893C25.2634 18.5203 22.8263 17.8687 20.1146 17.8687H2.60873V25.4483H10.5379H20.1146C23.8561 25.4483 24.3367 27.0945 24.3367 28.7065C24.3367 30.2841 23.8218 31.8961 20.1146 31.8961H10.0917V31.8618H2.64306V44.7917C2.64306 48.9074 5.97262 52.2342 10.0917 52.2342V39.51H19.3252L24.7142 52.2342H32.918L26.7394 37.9323Z" fill="#1A6A89"/>
<path d="M110.94 6.27637L103.56 11.1465V17.1485L110.94 12.2783V6.27637Z" fill="#FFA81D"/>
<path d="M103.525 17.7657V45.5119C103.525 49.0445 106.443 51.9255 110.081 51.9255H111.077V17.7314H103.525V17.7657Z" fill="#1A6A89"/>
</svg>
