<svg width="533" height="212" viewBox="0 0 533 212" fill="none" xmlns="http://www.w3.org/2000/svg">
<g filter="url(#filter0_d_1276_7467)">
<path d="M93.4746 30.082H426.475C468.256 30.082 502.114 63.9434 502.114 105.728C502.114 147.513 468.256 181.375 426.475 181.375H93.4746V30.082Z" fill="white"/>
</g>
<path d="M186.975 105.731C186.975 157.365 145.128 199.216 93.4983 199.216C41.8685 199.216 0 157.365 0 105.731C0 54.0958 41.8466 12.2451 93.4764 12.2451V105.577L186.975 105.731Z" fill="url(#paint0_linear_1276_7467)"/>
<path d="M168.083 118.219C174.976 77.0135 147.163 38.0212 105.961 31.1278C64.7592 24.2344 25.7707 52.0502 18.8779 93.2562C11.9851 134.462 39.7983 173.454 81.0003 180.348C122.202 187.241 161.191 159.425 168.083 118.219Z" fill="white"/>
<path d="M103.303 167.236C133.908 167.236 158.719 142.423 158.719 111.814C158.719 81.2056 133.908 56.3926 103.303 56.3926C72.6974 56.3926 47.8867 81.2056 47.8867 111.814C47.8867 142.423 72.6974 167.236 103.303 167.236Z" fill="url(#paint1_radial_1276_7467)"/>
<path d="M151.518 5.50283C133.725 7.07879 119.083 21.0874 116.654 38.817C116.632 38.9702 116.61 39.1234 116.588 39.2767C115.494 48.032 107.855 54.4234 99.0788 53.4822C95.8834 53.132 92.5786 53.0883 89.23 53.3509C63.7324 55.3647 43.0718 76.0492 41.102 101.549C38.607 133.857 65.352 160.626 97.6562 158.109C123.154 156.139 143.836 135.476 145.85 109.976C146.112 106.627 146.069 103.344 145.719 100.126C144.777 91.3711 151.19 83.7102 159.923 82.6157C160.076 82.5939 160.229 82.572 160.382 82.5501C178.088 80.1205 192.096 65.4771 193.671 47.6599C195.838 23.4732 175.725 3.35776 151.518 5.50283Z" fill="url(#paint2_linear_1276_7467)"/>
<path d="M157.638 71.1671C172.539 69.3384 183.137 55.7746 181.308 40.8717C179.48 25.9687 165.917 15.3699 151.016 17.1986C136.114 19.0273 125.517 32.591 127.345 47.494C129.174 62.397 142.736 72.9958 157.638 71.1671Z" fill="white"/>
<path d="M82.2632 124.016C79.82 124.007 77.7178 123.405 75.9564 122.212C74.2045 121.019 72.8551 119.291 71.9081 117.028C70.9706 114.764 70.5066 112.042 70.5161 108.86C70.5161 105.688 70.9848 102.984 71.9223 100.749C72.8693 98.5143 74.2187 96.8145 75.9706 95.6497C77.732 94.4754 79.8295 93.8883 82.2632 93.8883C84.6969 93.8883 86.7897 94.4754 88.5416 95.6497C90.303 96.8239 91.6572 98.5285 92.6041 100.763C93.5511 102.989 94.0199 105.688 94.0104 108.86C94.0104 112.051 93.5369 114.778 92.5899 117.042C91.6524 119.305 90.3077 121.033 88.5558 122.226C86.8039 123.42 84.7064 124.016 82.2632 124.016ZM82.2632 118.917C83.9299 118.917 85.2604 118.079 86.2547 116.403C87.249 114.726 87.7414 112.212 87.732 108.86C87.732 106.653 87.5047 104.816 87.0502 103.349C86.6051 101.881 85.9706 100.778 85.1468 100.039C84.3324 99.3002 83.3712 98.9309 82.2632 98.9309C80.606 98.9309 79.2803 99.7595 78.286 101.417C77.2916 103.074 76.7897 105.555 76.7803 108.86C76.7803 111.095 77.0028 112.96 77.4479 114.456C77.9024 115.943 78.5416 117.061 79.3655 117.809C80.1894 118.547 81.1553 118.917 82.2632 118.917ZM97.9557 118.263V113.42L110.101 94.286H114.277V100.991H111.805L104.149 113.107V113.334H121.407V118.263H97.9557ZM111.919 123.377V116.786L112.032 114.641V94.286H117.799V123.377H111.919Z" fill="white"/>
<path d="M156.165 42.3457V37.6188C156.165 37.2161 155.826 36.877 155.422 36.877C155.019 36.877 154.68 37.2161 154.68 37.6188V41.7734L152.876 43.5751C152.579 43.8718 152.579 44.3381 152.876 44.6137C153.173 44.9104 153.64 44.9104 153.916 44.6137L156.144 42.3881H156.165V42.3669V42.3457Z" fill="url(#paint3_linear_1276_7467)"/>
<path d="M155.338 27.8896C147.614 27.8896 141.376 34.1426 141.376 41.837C141.376 49.5313 147.636 55.7843 155.338 55.7843C163.062 55.7843 169.3 49.5313 169.3 41.837C169.3 34.1426 163.041 27.8896 155.338 27.8896ZM155.253 52.626C149.291 52.5836 144.495 47.7296 144.559 41.7734C144.601 35.8172 149.46 31.0267 155.423 31.0903C161.386 31.1327 166.181 35.9867 166.117 41.943C166.075 47.878 161.195 52.6684 155.253 52.626Z" fill="url(#paint4_linear_1276_7467)"/>
<defs>
<filter id="filter0_d_1276_7467" x="63.4746" y="0.0820312" width="468.639" height="211.293" filterUnits="userSpaceOnUse" color-interpolation-filters="sRGB">
<feFlood flood-opacity="0" result="BackgroundImageFix"/>
<feColorMatrix in="SourceAlpha" type="matrix" values="0 0 0 0 0 0 0 0 0 0 0 0 0 0 0 0 0 0 127 0" result="hardAlpha"/>
<feOffset/>
<feGaussianBlur stdDeviation="15"/>
<feComposite in2="hardAlpha" operator="out"/>
<feColorMatrix type="matrix" values="0 0 0 0 0 0 0 0 0 0 0 0 0 0 0 0 0 0 0.25 0"/>
<feBlend mode="normal" in2="BackgroundImageFix" result="effect1_dropShadow_1276_7467"/>
<feBlend mode="normal" in="SourceGraphic" in2="effect1_dropShadow_1276_7467" result="shape"/>
</filter>
<linearGradient id="paint0_linear_1276_7467" x1="0" y1="105.733" x2="186.969" y2="105.733" gradientUnits="userSpaceOnUse">
<stop stop-color="#36A620"/>
<stop offset="1" stop-color="#7EE56A"/>
</linearGradient>
<radialGradient id="paint1_radial_1276_7467" cx="0" cy="0" r="1" gradientUnits="userSpaceOnUse" gradientTransform="translate(103.299 111.81) scale(55.4251 55.4305)">
<stop/>
<stop offset="1" stop-color="white"/>
</radialGradient>
<linearGradient id="paint2_linear_1276_7467" x1="81.0051" y1="41.3874" x2="175.813" y2="136.186" gradientUnits="userSpaceOnUse">
<stop stop-color="#36A620"/>
<stop offset="1" stop-color="#7EE66A"/>
</linearGradient>
<linearGradient id="paint3_linear_1276_7467" x1="174.413" y1="60.8503" x2="138.405" y2="24.8036" gradientUnits="userSpaceOnUse">
<stop stop-color="#36A620"/>
<stop offset="1" stop-color="#8CF179"/>
</linearGradient>
<linearGradient id="paint4_linear_1276_7467" x1="174.381" y1="60.8844" x2="138.372" y2="24.837" gradientUnits="userSpaceOnUse">
<stop stop-color="#36A620"/>
<stop offset="1" stop-color="#96FA82"/>
</linearGradient>
</defs>
</svg>
