<svg width="533" height="212" viewBox="0 0 533 212" fill="none" xmlns="http://www.w3.org/2000/svg">
<g filter="url(#filter0_d_1276_7445)">
<path d="M93.4746 30.6348H426.475C468.256 30.6348 502.114 64.4962 502.114 106.281C502.114 148.066 468.256 181.928 426.475 181.928H93.4746V30.6348Z" fill="white"/>
</g>
<path d="M186.975 106.281C186.975 157.916 145.128 199.767 93.4983 199.767C41.8685 199.767 0 157.916 0 106.281C0 54.6466 41.8466 12.7959 93.4764 12.7959V106.128L186.975 106.281Z" fill="url(#paint0_linear_1276_7445)"/>
<path d="M168.083 118.771C174.976 77.5652 147.163 38.573 105.961 31.6795C64.7592 24.7861 25.7707 52.6019 18.8779 93.8079C11.9851 135.014 39.7983 174.006 81.0003 180.9C122.202 187.793 161.191 159.977 168.083 118.771Z" fill="white"/>
<path d="M103.303 167.788C133.908 167.788 158.719 142.975 158.719 112.367C158.719 81.7584 133.908 56.9453 103.303 56.9453C72.6974 56.9453 47.8867 81.7584 47.8867 112.367C47.8867 142.975 72.6974 167.788 103.303 167.788Z" fill="url(#paint1_radial_1276_7445)"/>
<path d="M151.518 6.05458C133.725 7.63055 119.083 21.6391 116.654 39.3688C116.632 39.522 116.61 39.6752 116.588 39.8284C115.494 48.5838 107.855 54.9752 99.0788 54.034C95.8834 53.6838 92.5786 53.64 89.23 53.9027C63.7324 55.9164 43.0718 76.601 41.102 102.101C38.607 134.408 65.352 161.178 97.6562 158.661C123.154 156.691 143.836 136.028 145.85 110.528C146.112 107.179 146.069 103.896 145.719 100.678C144.777 91.9229 151.19 84.2619 159.923 83.1675C160.076 83.1456 160.229 83.1237 160.382 83.1018C178.088 80.6722 192.096 66.0289 193.671 48.2117C195.838 24.025 175.725 3.90952 151.518 6.05458Z" fill="url(#paint2_linear_1276_7445)"/>
<path d="M82.2632 121.016C79.82 121.007 77.7178 120.405 75.9564 119.212C74.2045 118.019 72.8551 116.291 71.9081 114.028C70.9706 111.764 70.5066 109.042 70.5161 105.86C70.5161 102.688 70.9848 99.984 71.9223 97.7491C72.8693 95.5143 74.2187 93.8145 75.9706 92.6497C77.732 91.4754 79.8295 90.8883 82.2632 90.8883C84.6969 90.8883 86.7897 91.4754 88.5416 92.6497C90.303 93.8239 91.6572 95.5285 92.6041 97.7633C93.5511 99.9887 94.0199 102.688 94.0104 105.86C94.0104 109.051 93.5369 111.778 92.5899 114.042C91.6524 116.305 90.3077 118.033 88.5558 119.226C86.8039 120.42 84.7064 121.016 82.2632 121.016ZM82.2632 115.917C83.9299 115.917 85.2604 115.079 86.2547 113.403C87.249 111.726 87.7414 109.212 87.732 105.86C87.732 103.653 87.5047 101.816 87.0502 100.349C86.6051 98.8807 85.9706 97.7775 85.1468 97.0389C84.3324 96.3002 83.3712 95.9309 82.2632 95.9309C80.606 95.9309 79.2803 96.7595 78.286 98.4167C77.2916 100.074 76.7897 102.555 76.7803 105.86C76.7803 108.095 77.0028 109.96 77.4479 111.456C77.9024 112.943 78.5416 114.061 79.3655 114.809C80.1894 115.547 81.1553 115.917 82.2632 115.917ZM109.149 120.775C107.028 120.775 105.138 120.41 103.481 119.681C101.834 118.942 100.531 117.929 99.575 116.641C98.628 115.344 98.1404 113.848 98.1119 112.153H104.305C104.343 112.863 104.575 113.488 105.001 114.028C105.437 114.558 106.014 114.97 106.734 115.263C107.454 115.557 108.263 115.704 109.163 115.704C110.101 115.704 110.929 115.538 111.649 115.206C112.369 114.875 112.932 114.416 113.339 113.829C113.746 113.242 113.95 112.564 113.95 111.797C113.95 111.021 113.732 110.334 113.297 109.738C112.87 109.132 112.255 108.658 111.45 108.317C110.655 107.976 109.708 107.806 108.609 107.806H105.896V103.289H108.609C109.537 103.289 110.356 103.128 111.066 102.806C111.786 102.484 112.345 102.039 112.743 101.471C113.14 100.893 113.339 100.221 113.339 99.4537C113.339 98.7245 113.164 98.0853 112.814 97.536C112.473 96.9773 111.99 96.5417 111.365 96.2292C110.749 95.9167 110.03 95.7605 109.206 95.7605C108.372 95.7605 107.61 95.912 106.919 96.215C106.227 96.5086 105.674 96.93 105.257 97.4792C104.84 98.0285 104.618 98.6724 104.589 99.411H98.6943C98.7227 97.7349 99.201 96.2576 100.129 94.9792C101.057 93.7008 102.307 92.7018 103.879 91.9821C105.46 91.2529 107.245 90.8883 109.234 90.8883C111.242 90.8883 112.998 91.2529 114.504 91.9821C116.01 92.7112 117.179 93.6961 118.013 94.9366C118.855 96.1677 119.272 97.5502 119.263 99.0843C119.272 100.713 118.765 102.072 117.743 103.161C116.729 104.25 115.408 104.941 113.78 105.235V105.462C115.92 105.737 117.549 106.48 118.666 107.692C119.793 108.895 120.352 110.401 120.342 112.209C120.352 113.867 119.873 115.339 118.907 116.627C117.951 117.915 116.63 118.928 114.944 119.667C113.259 120.405 111.327 120.775 109.149 120.775Z" fill="white"/>
<path d="M157.638 71.7188C172.539 69.8901 183.137 56.3264 181.308 41.4234C179.48 26.5204 165.917 15.9216 151.016 17.7503C136.114 19.5791 125.517 33.1428 127.345 48.0458C129.174 62.9488 142.736 73.5476 157.638 71.7188Z" fill="white"/>
<path d="M156.165 42.416V37.6891C156.165 37.2864 155.826 36.9473 155.422 36.9473C155.019 36.9473 154.68 37.2864 154.68 37.6891V41.8437L152.876 43.6454C152.579 43.9421 152.579 44.4085 152.876 44.684C153.173 44.9808 153.64 44.9808 153.916 44.684L156.144 42.4584H156.165V42.4372V42.416Z" fill="url(#paint3_linear_1276_7445)"/>
<path d="M155.338 27.96C147.614 27.96 141.376 34.2129 141.376 41.9073C141.376 49.6016 147.636 55.8546 155.338 55.8546C163.062 55.8546 169.3 49.6016 169.3 41.9073C169.3 34.2129 163.041 27.96 155.338 27.96ZM155.253 52.6963C149.291 52.6539 144.495 47.7999 144.559 41.8437C144.601 35.8875 149.46 31.0971 155.423 31.1606C161.386 31.203 166.181 36.057 166.117 42.0133C166.075 47.9483 161.195 52.7387 155.253 52.6963Z" fill="url(#paint4_linear_1276_7445)"/>
<defs>
<filter id="filter0_d_1276_7445" x="63.4746" y="0.634766" width="468.639" height="211.293" filterUnits="userSpaceOnUse" color-interpolation-filters="sRGB">
<feFlood flood-opacity="0" result="BackgroundImageFix"/>
<feColorMatrix in="SourceAlpha" type="matrix" values="0 0 0 0 0 0 0 0 0 0 0 0 0 0 0 0 0 0 127 0" result="hardAlpha"/>
<feOffset/>
<feGaussianBlur stdDeviation="15"/>
<feComposite in2="hardAlpha" operator="out"/>
<feColorMatrix type="matrix" values="0 0 0 0 0 0 0 0 0 0 0 0 0 0 0 0 0 0 0.25 0"/>
<feBlend mode="normal" in2="BackgroundImageFix" result="effect1_dropShadow_1276_7445"/>
<feBlend mode="normal" in="SourceGraphic" in2="effect1_dropShadow_1276_7445" result="shape"/>
</filter>
<linearGradient id="paint0_linear_1276_7445" x1="0" y1="106.284" x2="186.969" y2="106.284" gradientUnits="userSpaceOnUse">
<stop stop-color="#1F79FF"/>
<stop offset="1" stop-color="#7CBFF4"/>
</linearGradient>
<radialGradient id="paint1_radial_1276_7445" cx="0" cy="0" r="1" gradientUnits="userSpaceOnUse" gradientTransform="translate(103.299 112.363) scale(55.4251 55.4305)">
<stop/>
<stop offset="1" stop-color="white"/>
</radialGradient>
<linearGradient id="paint2_linear_1276_7445" x1="81.0051" y1="41.9391" x2="175.813" y2="136.738" gradientUnits="userSpaceOnUse">
<stop stop-color="#387EE6"/>
<stop offset="1" stop-color="#83C8FF"/>
</linearGradient>
<linearGradient id="paint3_linear_1276_7445" x1="174.413" y1="60.9206" x2="138.405" y2="24.8739" gradientUnits="userSpaceOnUse">
<stop stop-color="#1F79FF"/>
<stop offset="1" stop-color="#80B3FF"/>
</linearGradient>
<linearGradient id="paint4_linear_1276_7445" x1="174.381" y1="60.9547" x2="138.372" y2="24.9073" gradientUnits="userSpaceOnUse">
<stop stop-color="#1F79FF"/>
<stop offset="1" stop-color="#7DB1FF"/>
</linearGradient>
</defs>
</svg>
