<svg width="533" height="212" viewBox="0 0 533 212" fill="none" xmlns="http://www.w3.org/2000/svg">
<g filter="url(#filter0_d_1276_7405)">
<path d="M93.4766 30.1123H426.477C468.258 30.1123 502.116 63.9737 502.116 105.759C502.116 147.544 468.258 181.405 426.477 181.405H93.4766V30.1123Z" fill="white"/>
</g>
<path d="M186.975 105.759C186.975 157.394 145.128 199.244 93.4983 199.244C41.8685 199.244 0 157.394 0 105.759C0 54.1241 41.8466 12.2734 93.4764 12.2734V105.606L186.975 105.759Z" fill="url(#paint0_linear_1276_7405)"/>
<path d="M168.083 118.248C174.976 77.0418 147.163 38.0495 105.961 31.1561C64.7592 24.2627 25.7707 52.0785 18.8779 93.2845C11.9851 134.49 39.7983 173.483 81.0003 180.376C122.202 187.27 161.191 159.454 168.083 118.248Z" fill="white"/>
<path d="M103.303 167.265C133.908 167.265 158.719 142.452 158.719 111.843C158.719 81.2349 133.908 56.4219 103.303 56.4219C72.6974 56.4219 47.8867 81.2349 47.8867 111.843C47.8867 142.452 72.6974 167.265 103.303 167.265Z" fill="url(#paint1_radial_1276_7405)"/>
<path d="M151.518 5.53115C133.725 7.10711 119.083 21.1157 116.654 38.8453C116.632 38.9986 116.61 39.1518 116.588 39.305C115.494 48.0604 107.855 54.4518 99.0788 53.5106C95.8834 53.1604 92.5786 53.1166 89.23 53.3792C63.7324 55.393 43.0718 76.0775 41.102 101.578C38.607 133.885 65.352 160.654 97.6562 158.137C123.154 156.167 143.836 135.505 145.85 110.005C146.112 106.656 146.069 103.372 145.719 100.155C144.777 91.3994 151.19 83.7385 159.923 82.6441C160.076 82.6222 160.229 82.6003 160.382 82.5784C178.088 80.1488 192.096 65.5054 193.671 47.6882C195.838 23.5015 175.725 3.38608 151.518 5.53115Z" fill="url(#paint2_linear_1276_7405)"/>
<path d="M157.638 71.1964C172.539 69.3677 183.137 55.8039 181.308 40.9009C179.48 25.998 165.917 15.3992 151.016 17.2279C136.114 19.0566 125.517 32.6203 127.345 47.5233C129.174 62.4263 142.736 73.0251 157.638 71.1964Z" fill="white"/>
<path d="M156.165 42.6767V37.9499C156.165 37.5472 155.826 37.208 155.422 37.208C155.019 37.208 154.68 37.5472 154.68 37.9499V42.1044L152.876 43.9061C152.579 44.2029 152.579 44.6692 152.876 44.9448C153.173 45.2415 153.64 45.2415 153.916 44.9448L156.144 42.7191H156.165V42.6979V42.6767Z" fill="url(#paint3_linear_1276_7405)"/>
<path d="M155.338 28.2207C147.614 28.2207 141.376 34.4737 141.376 42.168C141.376 49.8624 147.636 56.1154 155.338 56.1154C163.062 56.1154 169.3 49.8624 169.3 42.168C169.3 34.4737 163.041 28.2207 155.338 28.2207ZM155.253 52.9571C149.291 52.9147 144.495 48.0607 144.559 42.1044C144.601 36.1482 149.46 31.3578 155.423 31.4214C161.386 31.4638 166.181 36.3178 166.117 42.274C166.075 48.2091 161.195 52.9995 155.253 52.9571Z" fill="url(#paint4_linear_1276_7405)"/>
<path d="M87.2632 120.016C84.82 120.007 82.7178 119.405 80.9564 118.212C79.2045 117.019 77.8551 115.291 76.9081 113.028C75.9706 110.764 75.5066 108.042 75.5161 104.86C75.5161 101.688 75.9848 98.984 76.9223 96.7491C77.8693 94.5143 79.2187 92.8145 80.9706 91.6497C82.732 90.4754 84.8295 89.8883 87.2632 89.8883C89.6969 89.8883 91.7897 90.4754 93.5416 91.6497C95.303 92.8239 96.6572 94.5285 97.6041 96.7633C98.5511 98.9887 99.0199 101.688 99.0104 104.86C99.0104 108.051 98.5369 110.778 97.5899 113.042C96.6524 115.305 95.3077 117.033 93.5558 118.226C91.8039 119.42 89.7064 120.016 87.2632 120.016ZM87.2632 114.917C88.9299 114.917 90.2604 114.079 91.2547 112.403C92.249 110.726 92.7414 108.212 92.732 104.86C92.732 102.653 92.5047 100.816 92.0502 99.3485C91.6051 97.8807 90.9706 96.7775 90.1468 96.0389C89.3324 95.3002 88.3712 94.9309 87.2632 94.9309C85.606 94.9309 84.2803 95.7595 83.286 97.4167C82.2916 99.0739 81.7897 101.555 81.7803 104.86C81.7803 107.095 82.0028 108.96 82.4479 110.456C82.9024 111.943 83.5416 113.061 84.3655 113.809C85.1894 114.547 86.1553 114.917 87.2632 114.917ZM116.052 90.286V119.377H109.902V96.1241H109.731L103.069 100.3V94.8457L110.271 90.286H116.052Z" fill="white"/>
<defs>
<filter id="filter0_d_1276_7405" x="63.4766" y="0.112305" width="468.639" height="211.293" filterUnits="userSpaceOnUse" color-interpolation-filters="sRGB">
<feFlood flood-opacity="0" result="BackgroundImageFix"/>
<feColorMatrix in="SourceAlpha" type="matrix" values="0 0 0 0 0 0 0 0 0 0 0 0 0 0 0 0 0 0 127 0" result="hardAlpha"/>
<feOffset/>
<feGaussianBlur stdDeviation="15"/>
<feComposite in2="hardAlpha" operator="out"/>
<feColorMatrix type="matrix" values="0 0 0 0 0 0 0 0 0 0 0 0 0 0 0 0 0 0 0.25 0"/>
<feBlend mode="normal" in2="BackgroundImageFix" result="effect1_dropShadow_1276_7405"/>
<feBlend mode="normal" in="SourceGraphic" in2="effect1_dropShadow_1276_7405" result="shape"/>
</filter>
<linearGradient id="paint0_linear_1276_7405" x1="0" y1="105.761" x2="186.969" y2="105.761" gradientUnits="userSpaceOnUse">
<stop stop-color="#FD3E3E"/>
<stop offset="1" stop-color="#FFBBBB"/>
</linearGradient>
<radialGradient id="paint1_radial_1276_7405" cx="0" cy="0" r="1" gradientUnits="userSpaceOnUse" gradientTransform="translate(103.299 111.839) scale(55.4251 55.4305)">
<stop/>
<stop offset="1" stop-color="white"/>
</radialGradient>
<linearGradient id="paint2_linear_1276_7405" x1="81.0051" y1="41.4157" x2="175.813" y2="136.215" gradientUnits="userSpaceOnUse">
<stop stop-color="#FD3E3E"/>
<stop offset="1" stop-color="#FFBBBB"/>
</linearGradient>
<linearGradient id="paint3_linear_1276_7405" x1="174.413" y1="61.1813" x2="138.405" y2="25.1347" gradientUnits="userSpaceOnUse">
<stop stop-color="#FD3E3E"/>
<stop offset="1" stop-color="#FFBBBB"/>
</linearGradient>
<linearGradient id="paint4_linear_1276_7405" x1="174.381" y1="61.2155" x2="138.372" y2="25.1681" gradientUnits="userSpaceOnUse">
<stop stop-color="#FD3E3E"/>
<stop offset="1" stop-color="#FFBBBB"/>
</linearGradient>
</defs>
</svg>
