<svg width="533" height="208" viewBox="0 0 533 208" fill="none" xmlns="http://www.w3.org/2000/svg">
<g filter="url(#filter0_d_1276_7423)">
<path d="M98.7217 30.958H428.072C469.395 30.958 502.882 63.7491 502.882 104.213C502.882 144.677 469.395 177.469 428.072 177.469H98.7217V30.958Z" fill="white"/>
</g>
<path d="M191.196 104.212C191.196 154.214 149.808 194.742 98.744 194.742C47.6801 194.742 6.27051 154.214 6.27051 104.212C6.27051 54.2092 47.6585 13.6602 98.7224 13.6602V104.042L191.196 104.212Z" fill="url(#paint0_linear_1276_7423)"/>
<path d="M129.062 171.167C166.825 154.757 183.854 111.478 167.096 74.4994C150.338 37.521 106.14 20.8467 68.3764 37.2564C30.6131 53.6661 13.585 96.9457 30.3429 133.924C47.1009 170.902 91.299 187.577 129.062 171.167Z" fill="white"/>
<path d="M108.443 163.753C138.713 163.753 163.251 139.725 163.251 110.084C163.251 80.4428 138.713 56.4141 108.443 56.4141C78.1725 56.4141 53.6338 80.4428 53.6338 110.084C53.6338 139.725 78.1725 163.753 108.443 163.753Z" fill="url(#paint1_radial_1276_7423)"/>
<path d="M156.129 7.15216C138.53 8.67831 124.049 22.2441 121.646 39.3921C121.624 39.5405 121.603 39.6889 121.581 39.8372C120.499 48.3159 112.944 54.5052 104.264 53.5938C101.103 53.2546 97.8349 53.2123 94.523 53.4666C69.3049 55.4167 48.8707 75.4262 46.9225 100.141C44.4548 131.428 70.9067 157.351 102.857 154.913C128.075 153.006 148.531 132.996 150.522 108.302C150.782 105.059 150.739 101.88 150.392 98.7636C149.462 90.285 155.804 82.8662 164.441 81.8064C164.592 81.7852 164.744 81.764 164.895 81.7428C182.407 79.39 196.261 65.2095 197.82 47.9555C199.963 24.5545 180.07 5.0749 156.129 7.15216Z" fill="url(#paint2_linear_1276_7423)"/>
<path d="M90.2632 121.169C87.82 121.159 85.7178 120.558 83.9564 119.365C82.2045 118.171 80.8551 116.443 79.9081 114.18C78.9706 111.917 78.5066 109.194 78.5161 106.012C78.5161 102.84 78.9848 100.136 79.9223 97.9015C80.8693 95.6666 82.2187 93.9668 83.9706 92.802C85.732 91.6278 87.8295 91.0407 90.2632 91.0407C92.6969 91.0407 94.7897 91.6278 96.5416 92.802C98.303 93.9763 99.6572 95.6808 100.604 97.9157C101.551 100.141 102.02 102.84 102.01 106.012C102.01 109.204 101.537 111.931 100.59 114.194C99.6524 116.457 98.3077 118.186 96.5558 119.379C94.8039 120.572 92.7064 121.169 90.2632 121.169ZM90.2632 116.069C91.9299 116.069 93.2604 115.231 94.2547 113.555C95.249 111.879 95.7414 109.365 95.732 106.012C95.732 103.806 95.5047 101.969 95.0502 100.501C94.6051 99.0331 93.9706 97.9299 93.1468 97.1912C92.3324 96.4526 91.3712 96.0833 90.2632 96.0833C88.606 96.0833 87.2803 96.9119 86.286 98.5691C85.2916 100.226 84.7897 102.707 84.7803 106.012C84.7803 108.247 85.0028 110.113 85.4479 111.609C85.9024 113.096 86.5416 114.213 87.3655 114.961C88.1894 115.7 89.1553 116.069 90.2632 116.069ZM106.396 120.529V116.097L116.751 106.509C117.632 105.657 118.37 104.89 118.967 104.208C119.573 103.526 120.032 102.859 120.345 102.205C120.657 101.543 120.814 100.828 120.814 100.061C120.814 99.2083 120.62 98.4744 120.231 97.8588C119.843 97.2338 119.313 96.7556 118.64 96.4242C117.968 96.0833 117.206 95.9128 116.353 95.9128C115.463 95.9128 114.687 96.0927 114.024 96.4526C113.361 96.8124 112.85 97.3285 112.49 98.0009C112.13 98.6732 111.95 99.4734 111.95 100.401H106.112C106.112 98.498 106.543 96.8456 107.405 95.4441C108.266 94.0426 109.474 92.9583 111.027 92.1912C112.58 91.4242 114.37 91.0407 116.396 91.0407C118.479 91.0407 120.293 91.41 121.836 92.1486C123.389 92.8778 124.597 93.891 125.459 95.1884C126.32 96.4857 126.751 97.9725 126.751 99.6486C126.751 100.747 126.533 101.831 126.098 102.901C125.672 103.972 124.909 105.16 123.811 106.467C122.712 107.764 121.164 109.322 119.166 111.14L114.919 115.302V115.501H127.135V120.529H106.396Z" fill="white"/>
<path d="M185.784 44.6074C185.784 59.1482 173.749 70.9335 158.9 70.9335C144.05 70.9335 132.015 59.1482 132.015 44.6074C132.015 30.0665 144.05 18.2812 158.9 18.2812C173.749 18.2813 185.784 30.0665 185.784 44.6074Z" fill="white"/>
<path d="M159.308 43.7587V39.0319C159.308 38.6292 158.962 38.29 158.55 38.29C158.139 38.29 157.793 38.6292 157.793 39.0319V43.1864L155.953 44.9881C155.65 45.2849 155.65 45.7512 155.953 46.0268C156.256 46.3235 156.732 46.3235 157.014 46.0268L159.286 43.8011H159.308V43.7799V43.7587Z" fill="url(#paint3_linear_1276_7423)"/>
<path d="M158.465 29.3027C150.586 29.3027 144.222 35.5557 144.222 43.2501C144.222 50.9444 150.607 57.1974 158.465 57.1974C166.344 57.1974 172.708 50.9444 172.708 43.2501C172.708 35.5557 166.323 29.3027 158.465 29.3027ZM158.378 54.0391C152.296 53.9967 147.404 49.1427 147.469 43.1865C147.512 37.2302 152.469 32.4398 158.552 32.5034C164.634 32.5458 169.526 37.3998 169.461 43.356C169.418 49.2911 164.439 54.0815 158.378 54.0391Z" fill="url(#paint4_linear_1276_7423)"/>
<defs>
<filter id="filter0_d_1276_7423" x="68.7217" y="0.958008" width="464.16" height="206.511" filterUnits="userSpaceOnUse" color-interpolation-filters="sRGB">
<feFlood flood-opacity="0" result="BackgroundImageFix"/>
<feColorMatrix in="SourceAlpha" type="matrix" values="0 0 0 0 0 0 0 0 0 0 0 0 0 0 0 0 0 0 127 0" result="hardAlpha"/>
<feOffset/>
<feGaussianBlur stdDeviation="15"/>
<feComposite in2="hardAlpha" operator="out"/>
<feColorMatrix type="matrix" values="0 0 0 0 0 0 0 0 0 0 0 0 0 0 0 0 0 0 0.25 0"/>
<feBlend mode="normal" in2="BackgroundImageFix" result="effect1_dropShadow_1276_7423"/>
<feBlend mode="normal" in="SourceGraphic" in2="effect1_dropShadow_1276_7423" result="shape"/>
</filter>
<linearGradient id="paint0_linear_1276_7423" x1="159.069" y1="182.041" x2="29.2602" y2="49.4778" gradientUnits="userSpaceOnUse">
<stop stop-color="#FFF100"/>
<stop offset="1" stop-color="#FF9759"/>
</linearGradient>
<radialGradient id="paint1_radial_1276_7423" cx="0" cy="0" r="1" gradientUnits="userSpaceOnUse" gradientTransform="translate(108.439 110.093) scale(54.8176 53.6783)">
<stop/>
<stop offset="1" stop-color="white"/>
</radialGradient>
<linearGradient id="paint2_linear_1276_7423" x1="194.289" y1="147.553" x2="64.4808" y2="14.9897" gradientUnits="userSpaceOnUse">
<stop stop-color="#FFF100"/>
<stop offset="1" stop-color="#FF9759"/>
</linearGradient>
<linearGradient id="paint3_linear_1276_7423" x1="177.924" y1="62.2633" x2="141.923" y2="25.4988" gradientUnits="userSpaceOnUse">
<stop stop-color="#DE5670"/>
<stop offset="1" stop-color="#EDBA2C"/>
</linearGradient>
<linearGradient id="paint4_linear_1276_7423" x1="177.891" y1="62.2975" x2="141.89" y2="25.5322" gradientUnits="userSpaceOnUse">
<stop stop-color="#DE5670"/>
<stop offset="1" stop-color="#EDBA2C"/>
</linearGradient>
</defs>
</svg>
