<svg id="圖層_1" data-name="圖層 1" xmlns="http://www.w3.org/2000/svg" viewBox="0 0 344.24 108.99"><defs><style>.cls-1{fill:#fff;}.cls-2{fill:#f5a427;}</style></defs><title>未命名-1</title><path class="cls-1" d="M152.13,19.45,135.52,58.14,119,19.45H105.24l21.27,49.8a13.19,13.19,0,0,0,12.12,8h2.54l24.7-57.8Z"/><path class="cls-1" d="M234.93,19.45,218.32,58.14,201.78,19.45H188l21.2,49.61a13.45,13.45,0,0,0,12.39,8.19H224l24.7-57.8Z"/><path class="cls-1" d="M273.26,28.9c-1.29-3.3-2.65-5.56-4.12-6.88-1.87-1.7-4.56-2.57-8-2.57h-6.3a1.41,1.41,0,0,0-1.31.89L235.35,65.5a8.56,8.56,0,0,0,7.93,11.75,1.42,1.42,0,0,0,1.32-.89l4.29-10.63a1.43,1.43,0,0,1,1.32-.88h23.55a1.42,1.42,0,0,1,1.31.87l4.45,10.66a1.43,1.43,0,0,0,1.31.87h10.66a1.42,1.42,0,0,0,1.3-2ZM255.19,50l5.2-13.05a1.42,1.42,0,0,1,2.62,0l5.51,13.06a1.42,1.42,0,0,1-1.3,2H256.5A1.42,1.42,0,0,1,255.19,50Z"/><path class="cls-1" d="M318,64.39c-3.8,0-6.43-.8-7.82-2.39-1.2-1.46-1.83-4.2-1.83-7.91V19.45H295.85V55c0,7.07,1.63,12.51,4.88,16.18,3.63,4,9.44,6,17.28,6h22V64.39Z"/><path class="cls-1" d="M99.9,19.45H55.17V32.21H99.9Z"/><path class="cls-1" d="M98.09,53.91V41.2H67.68v0H55.17V52c0,.64,0,1.26,0,1.87Z"/><path class="cls-1" d="M56.65,64.4a18.44,18.44,0,0,0,3.63,7c3.46,3.91,9.44,5.89,17.79,5.89H99.9V64.4Z"/><path class="cls-1" d="M41.29,53.2c5.63-3.07,8.59-8.39,8.59-15.51,0-6.78-2.56-11.82-7.61-15a22.65,22.65,0,0,0-12.08-3.24H.79V32.21H14.1v0H30.18c6.26,0,7.11,2.76,7.11,5.46s-.85,5.38-7.11,5.38H13.3V43H.79V64.74A12.51,12.51,0,0,0,13.3,77.25V55.85H28.79l9,21.4H51.58Z"/><path class="cls-2" d="M182.66,0l-12.4,8.18V18.27l12.4-8.18Z"/><path class="cls-1" d="M170.17,19.27V65.92a10.9,10.9,0,0,0,11,10.79h1.67V19.27Z"/><path class="cls-1" d="M8.33,105.1,4.65,98.67H1.92v6.43H0V90H4.76c3.08,0,5.29,1.09,5.29,4.25a4.12,4.12,0,0,1-3.44,4.26l3.89,6.63H8.33Zm-6.41-8H4.47c2.38,0,3.68-1,3.68-2.91S6.85,91.5,4.47,91.5H1.92Z"/><path class="cls-1" d="M16,99.5c0-3.64,2.46-5.91,5.06-5.91,2.86,0,4.47,2.06,4.47,5.27a7.57,7.57,0,0,1-.08,1.07H17.9c.13,2.4,1.59,3.93,3.72,3.93a4.85,4.85,0,0,0,2.82-.89l.68,1.24a6.6,6.6,0,0,1-3.72,1.16C18.42,105.36,16,103.19,16,99.5Zm7.88-.92c0-2.27-1-3.49-2.8-3.49-1.59,0-3,1.28-3.22,3.49Z"/><path class="cls-1" d="M30.93,93.87h2L35,100.26c.36,1.1.71,2.25,1.06,3.31h.08c.33-1.06.7-2.21,1-3.31l2.14-6.39h1.85l-4,11.23H35Z"/><path class="cls-1" d="M47.12,90.34a1.3,1.3,0,0,1,2.6,0,1.3,1.3,0,0,1-2.6,0Zm.34,3.53h1.89V105.1H47.46Z"/><path class="cls-1" d="M55.65,93.87h2l2.11,6.39c.35,1.1.7,2.25,1.05,3.31h.08c.33-1.06.71-2.21,1-3.31L64,93.87h1.86l-4,11.23H59.71Z"/><path class="cls-1" d="M71,102.18c0-2.43,2.13-3.66,6.9-4.19,0-1.45-.47-2.83-2.31-2.83a6.24,6.24,0,0,0-3.37,1.19l-.74-1.3a8.43,8.43,0,0,1,4.42-1.47c2.73,0,3.89,1.84,3.89,4.61v6.9H78.27l-.17-1.34H78a6,6,0,0,1-3.72,1.61A3,3,0,0,1,71,102.18Zm6.91.19V99.23c-3.78.45-5.06,1.38-5.06,2.83,0,1.29.86,1.8,2,1.8A4.6,4.6,0,0,0,77.94,102.37Z"/><path class="cls-1" d="M87.53,102.86V88.64h1.89V103c0,.58.24.8.53.8a1.63,1.63,0,0,0,.39,0l.27,1.45a3,3,0,0,1-1.09.17C88.11,105.36,87.53,104.46,87.53,102.86Z"/><path class="cls-1" d="M105.39,103.11l1.14-1.3a6,6,0,0,0,4.2,1.88c2,0,3.18-1,3.18-2.48s-1.1-2-2.52-2.68l-2.19-1c-1.41-.6-3.08-1.68-3.08-3.89s2-4,4.77-4a6.22,6.22,0,0,1,4.47,1.89l-1,1.22a4.89,4.89,0,0,0-3.45-1.43c-1.72,0-2.83.87-2.83,2.23s1.32,2,2.5,2.52l2.17.93c1.75.76,3.12,1.8,3.12,4,0,2.4-2,4.3-5.15,4.3A7.29,7.29,0,0,1,105.39,103.11Z"/><path class="cls-1" d="M122.8,93.87h1.55l.16,1.63h.06a5,5,0,0,1,3.5-1.92,3,3,0,0,1,3.1,2.15c1.15-1.26,2.34-2.15,3.7-2.15,2.32,0,3.41,1.53,3.41,4.4v7.11H136.4V98.23c0-2.11-.66-3-2.08-3-.87,0-1.78.56-2.84,1.72v8.14H129.6V98.23c0-2.11-.66-3-2.09-3A4.17,4.17,0,0,0,124.68,97v8.14H122.8Z"/><path class="cls-1" d="M145.38,102.18c0-2.43,2.13-3.66,6.9-4.19,0-1.45-.48-2.83-2.32-2.83a6.27,6.27,0,0,0-3.37,1.19l-.74-1.3a8.49,8.49,0,0,1,4.42-1.47c2.73,0,3.89,1.84,3.89,4.61v6.9h-1.55l-.16-1.34h-.07a6,6,0,0,1-3.72,1.61A3,3,0,0,1,145.38,102.18Zm6.9.19V99.23c-3.78.45-5.07,1.38-5.07,2.83,0,1.29.87,1.8,2,1.8A4.62,4.62,0,0,0,152.28,102.37Z"/><path class="cls-1" d="M161.87,93.87h1.55l.17,2h.06a3.88,3.88,0,0,1,3.18-2.34,2.37,2.37,0,0,1,1.2.25l-.36,1.65a2.55,2.55,0,0,0-1.09-.19c-.93,0-2.09.66-2.84,2.59v7.21h-1.88V93.87Z"/><path class="cls-1" d="M174.36,101.62V95.4h-1.68V94l1.76-.1.22-3.14h1.58v3.14h3V95.4h-3v6.26c0,1.38.43,2.17,1.73,2.17a4.16,4.16,0,0,0,1.29-.29l.37,1.4a7,7,0,0,1-2.07.42C175.16,105.36,174.36,103.88,174.36,101.62Z"/><path class="cls-1" d="M194.89,90h1.92V105.1h-1.92Z"/><path class="cls-1" d="M204.91,93.87h1.55l.17,1.61h.06a5.38,5.38,0,0,1,3.76-1.9c2.36,0,3.43,1.53,3.43,4.4v7.11H212V98.23c0-2.11-.64-3-2.13-3-1.16,0-1.94.58-3.08,1.72v8.14h-1.88V93.87Z"/><path class="cls-1" d="M222,101.62V95.4h-1.67V94l1.75-.1.23-3.14h1.57v3.14h3V95.4h-3v6.26c0,1.38.44,2.17,1.74,2.17a4.1,4.1,0,0,0,1.28-.29l.37,1.4a6.93,6.93,0,0,1-2.06.42C222.82,105.36,222,103.88,222,101.62Z"/><path class="cls-1" d="M232.45,99.5c0-3.64,2.46-5.91,5.06-5.91,2.86,0,4.47,2.06,4.47,5.27a7.57,7.57,0,0,1-.08,1.07h-7.57c.13,2.4,1.59,3.93,3.72,3.93a4.85,4.85,0,0,0,2.82-.89l.68,1.24a6.6,6.6,0,0,1-3.72,1.16C234.85,105.36,232.45,103.19,232.45,99.5Zm7.87-.92c0-2.27-1-3.49-2.79-3.49-1.59,0-3,1.28-3.22,3.49Z"/><path class="cls-1" d="M247.79,107.25a3.19,3.19,0,0,1,1.68-2.55v-.08a2,2,0,0,1-1-1.83,2.74,2.74,0,0,1,1.27-2.09v-.08a3.93,3.93,0,0,1-1.47-3,4,4,0,0,1,4.21-4,4.73,4.73,0,0,1,1.57.29h3.91v1.45h-2.29a3.21,3.21,0,0,1,.91,2.31,4,4,0,0,1-5.77,3.51,1.68,1.68,0,0,0-.73,1.35c0,.72.46,1.22,2,1.22h2.19c2.6,0,3.91.83,3.91,2.66,0,2.09-2.19,3.89-5.67,3.89C249.69,110.26,247.79,109.19,247.79,107.25Zm8.5-.58c0-1-.81-1.39-2.3-1.39h-1.94a6.52,6.52,0,0,1-1.45-.18,2.36,2.36,0,0,0-1.16,1.9c0,1.2,1.23,2,3.27,2S256.29,107.85,256.29,106.67Zm-1.47-9.08a2.4,2.4,0,1,0-4.78,0,2.4,2.4,0,1,0,4.78,0Z"/><path class="cls-1" d="M264.43,93.87H266l.17,2h.06a3.89,3.89,0,0,1,3.18-2.34,2.34,2.34,0,0,1,1.2.25l-.36,1.65a2.55,2.55,0,0,0-1.09-.19c-.93,0-2.09.66-2.83,2.59v7.21h-1.89V93.87Z"/><path class="cls-1" d="M275.33,102.18c0-2.43,2.13-3.66,6.9-4.19,0-1.45-.47-2.83-2.32-2.83a6.2,6.2,0,0,0-3.36,1.19l-.75-1.3a8.5,8.5,0,0,1,4.43-1.47c2.72,0,3.88,1.84,3.88,4.61v6.9h-1.55l-.16-1.34h-.06a6,6,0,0,1-3.72,1.61A3,3,0,0,1,275.33,102.18Zm6.9.19V99.23c-3.78.45-5.06,1.38-5.06,2.83,0,1.29.87,1.8,2,1.8A4.58,4.58,0,0,0,282.23,102.37Z"/><path class="cls-1" d="M291.84,101.62V95.4h-1.67V94l1.75-.1.23-3.14h1.57v3.14h3V95.4h-3v6.26c0,1.38.44,2.17,1.74,2.17a4.1,4.1,0,0,0,1.28-.29l.37,1.4a6.93,6.93,0,0,1-2.06.42C292.65,105.36,291.84,103.88,291.84,101.62Z"/><path class="cls-1" d="M303.09,90.34a1.31,1.31,0,0,1,2.61,0,1.31,1.31,0,0,1-2.61,0Zm.35,3.53h1.88V105.1h-1.88Z"/><path class="cls-1" d="M312.41,99.5c0-3.74,2.46-5.91,5.21-5.91s5.21,2.17,5.21,5.91-2.45,5.87-5.21,5.87S312.41,103.21,312.41,99.5Zm8.48,0c0-2.59-1.32-4.34-3.27-4.34s-3.24,1.75-3.24,4.34,1.3,4.3,3.24,4.3S320.89,102.08,320.89,99.5Z"/><path class="cls-1" d="M329.93,93.87h1.55l.16,1.61h.06a5.42,5.42,0,0,1,3.77-1.9c2.35,0,3.43,1.53,3.43,4.4v7.11H337V98.23c0-2.11-.64-3-2.13-3-1.16,0-1.95.58-3.08,1.72v8.14h-1.89V93.87Z"/></svg>