<svg width="816" height="158" viewBox="0 0 816 158" fill="none" xmlns="http://www.w3.org/2000/svg">
<path fill-rule="evenodd" clip-rule="evenodd" d="M284.318 39.7229H251.257L302.439 141.407C307.431 151.315 318.896 157.738 331.576 157.738H337.698L397.102 39.7229H364.054L324.095 118.716L284.318 39.7229ZM364.976 41.2229L324.092 122.045L283.394 41.2229H253.692L303.779 140.732C303.779 140.733 303.779 140.732 303.779 140.732C308.474 150.05 319.363 156.238 331.576 156.238H336.773L394.668 41.2229H364.976Z" fill="#FFC054"/>
<path fill-rule="evenodd" clip-rule="evenodd" d="M501.431 141.026C506.533 151.16 518.265 157.738 531.249 157.738H536.884L596.289 39.7229H563.24L523.281 118.716L483.505 39.7229H450.444L501.431 141.026ZM452.878 41.2229L502.771 140.352C507.575 149.896 518.732 156.238 531.249 156.238H535.96L593.854 41.2229H564.163L523.278 122.045L482.58 41.2229H452.878Z" fill="#FFC054"/>
<path fill-rule="evenodd" clip-rule="evenodd" d="M654.109 59.6707L654.1 59.652C651.021 52.9906 647.893 48.6398 644.632 46.1655L644.621 46.1573C640.485 42.9593 634.395 41.2229 626.3 41.2229H611.142C610.237 41.2229 609.572 41.6954 609.338 42.1829C609.338 42.1834 609.338 42.1838 609.338 42.1842L565.615 134.4C563.166 139.566 564.157 144.955 567.468 149.117C570.795 153.298 576.482 156.238 583.341 156.238C584.254 156.238 584.914 155.769 585.145 155.288C585.145 155.288 585.145 155.287 585.145 155.287L595.48 133.577L595.481 133.575C596.296 131.87 598.138 130.917 599.992 130.917H656.652C658.495 130.917 660.311 131.858 661.14 133.522L661.143 133.528L671.852 155.296C671.853 155.297 671.853 155.298 671.854 155.299C672.095 155.778 672.756 156.238 673.656 156.238H699.295C700.085 156.238 700.657 155.901 700.953 155.523C701.233 155.166 701.283 154.776 701.095 154.391C701.095 154.39 701.094 154.389 701.094 154.388L654.109 59.6707ZM702.441 153.728C703.376 155.635 701.736 157.738 699.295 157.738H673.656C672.283 157.738 671.044 157.037 670.51 155.965L659.797 134.191C659.263 133.118 658.024 132.417 656.652 132.417H599.992C598.608 132.417 597.357 133.129 596.835 134.222L586.499 155.934C585.976 157.027 584.725 157.738 583.341 157.738C568.766 157.738 558.819 145.232 564.26 133.758L607.984 41.5374C608.507 40.4446 609.758 39.7229 611.142 39.7229H626.3C634.583 39.7229 641.045 41.4962 645.539 44.9705C649.085 47.6614 652.34 52.2698 655.461 59.0226L702.441 153.728ZM610.621 101.389L623.133 74.7252C624.007 72.8669 625.914 72.0575 627.612 72.0439C629.309 72.0303 631.228 72.808 632.137 74.6449C632.138 74.6456 632.138 74.6462 632.138 74.6469L645.388 101.305C646.145 102.83 645.841 104.449 644.927 105.621C644.028 106.773 642.56 107.494 640.911 107.494H615.132C613.503 107.487 612.051 106.782 611.151 105.65C610.236 104.5 609.911 102.908 610.621 101.389ZM630.794 75.312C629.616 72.9304 625.62 72.9614 624.49 75.3635L611.98 102.024C611.094 103.921 612.733 105.983 615.138 105.994H640.911C643.34 105.994 644.992 103.88 644.045 101.973L630.794 75.312Z" fill="#FFC054"/>
<path fill-rule="evenodd" clip-rule="evenodd" d="M764.594 132.989H763.094C753.897 132.989 747.025 131.352 743.236 127.68L743.218 127.662L743.2 127.643C739.902 124.218 738.384 118.123 738.384 110.447V41.2229H711.287V112.344C711.287 126.519 715.143 137.173 722.564 144.31C730.884 152.115 744.418 156.228 763.094 156.228H814.5V132.979H764.594V132.989ZM816 131.479V157.728H763.094C744.244 157.728 730.252 153.583 721.532 145.397C713.722 137.892 709.787 126.788 709.787 112.344V39.7229H739.884V110.447C739.884 118.025 741.402 123.613 744.28 126.603C747.434 129.66 753.263 131.301 761.594 131.474C761.682 131.476 761.771 131.478 761.86 131.479C762.266 131.486 762.677 131.489 763.094 131.489V131.479H816Z" fill="#FFC054"/>
<path fill-rule="evenodd" clip-rule="evenodd" d="M236.904 41.2229H132.307V64.2652H236.904V41.2229ZM238.404 39.7229V65.7652H130.807V39.7229H238.404Z" fill="#FFC054"/>
<path fill-rule="evenodd" clip-rule="evenodd" d="M160.903 84.0435V84.1259H234.056V110.086H130.867C130.831 108.838 130.807 107.57 130.807 106.271V84.0435H160.903ZM132.307 85.5435V106.271C132.307 107.052 132.315 107.823 132.331 108.586H232.556V85.6259H159.403V85.5435H132.307Z" fill="#FFC054"/>
<path fill-rule="evenodd" clip-rule="evenodd" d="M144.139 144.638C152.047 152.209 165.948 156.238 185.886 156.238H236.904V133.01H136.544C138.442 137.702 140.969 141.551 144.139 144.638ZM134.931 133.01C136.919 138.123 139.629 142.341 143.097 145.717C151.429 153.697 165.822 157.738 185.886 157.738H238.404V131.51H134.377C134.555 132.019 134.739 132.519 134.931 133.01Z" fill="#FFC054"/>
<path fill-rule="evenodd" clip-rule="evenodd" d="M95.3824 107.934L96.789 107.282C103.348 104.241 108.278 100.128 111.572 95.0829C114.865 90.0402 116.58 83.9827 116.58 76.9615C116.58 70.2657 115.096 64.5041 112.199 59.6553C109.304 54.8085 104.948 50.7912 99.0758 47.6578C90.9299 43.3962 81.3996 41.2229 70.7117 41.2229H1.5V64.2755H33.5037V64.3064H70.6996C78.3468 64.3064 83.0731 65.7269 85.8768 68.1884C88.7505 70.7113 89.2885 74.0401 89.2885 76.9615C89.2885 79.8459 88.7514 83.1371 85.8734 85.6282C83.0716 88.0533 78.3487 89.4517 70.6996 89.4517H28.5847V89.3279H1.5V132.201C1.5 144.846 13.2823 155.556 28.5968 156.216V112.535H68.2887L90.0294 156.238H119.748L95.3824 107.934ZM122.185 157.738H89.1002L67.3596 114.035H30.0968V157.748C29.5938 157.748 29.0937 157.738 28.5968 157.717C12.6669 157.053 0 145.878 0 132.201V87.8279H30.0847V87.9517H70.6996C85.7602 87.9517 87.7885 82.3947 87.7885 76.9615C87.7885 71.4458 85.748 65.8064 70.6996 65.8064H32.0037V65.7755H0V39.7229H70.7117C81.6064 39.7229 91.3836 41.9395 99.7762 46.3314C111.934 52.8162 118.08 63.1156 118.08 76.9615C118.08 91.0169 111.435 101.627 98.771 107.991C98.328 108.214 97.8776 108.431 97.4199 108.643L122.185 157.738Z" fill="#FFC054"/>
<path fill-rule="evenodd" clip-rule="evenodd" d="M409.166 17.5912V34.7523L436.008 19.7296V2.55923L409.166 17.5912ZM407.666 16.712V37.3108L437.508 20.6091V0L407.666 16.712Z" fill="#FFC054"/>
<path fill-rule="evenodd" clip-rule="evenodd" d="M408.959 40.8521V134.603C408.959 145.705 419.873 155.145 433.924 155.145H436.444V40.8521H408.959ZM407.459 134.603C407.459 146.779 419.313 156.645 433.924 156.645H437.944V39.3521H407.459V134.603Z" fill="#FFC054"/>
</svg>
