<svg width="272" height="66" viewBox="0 0 272 66" fill="none" xmlns="http://www.w3.org/2000/svg">
<g clip-path="url(#clip0_7554_17382)">
<path d="M179.012 49.2767C179.012 43.6262 179.012 37.9682 179.012 32.2875C174.837 32.2875 170.71 32.2875 166.559 32.2875C166.559 31.1861 166.559 30.1073 166.559 28.9908C170.686 28.9908 174.83 28.9908 179.012 28.9908C179.012 24.6379 179.012 20.3303 179.012 16C180.298 16 181.53 16 182.808 16C182.808 17.7502 182.808 19.4703 182.808 21.2506C187.414 20.8131 191.966 20.2624 196.525 19.5381C196.525 20.6697 196.525 21.7787 196.525 22.9103C191.989 23.6798 187.43 24.1325 182.839 24.5323C182.839 26.0109 182.839 27.4594 182.839 28.9531C188 28.9531 193.152 28.9531 198.327 28.9531C198.327 30.0696 198.327 31.1408 198.327 32.2573C193.182 32.2573 188.03 32.2573 182.817 32.2573C182.817 32.5969 182.817 32.891 182.817 33.1853C182.817 33.8265 182.832 34.4677 182.808 35.1014C182.801 35.373 182.901 35.456 183.171 35.5013C187.245 36.1501 191.288 36.9573 195.2 38.2851C195.894 38.5189 196.572 38.7829 197.242 39.062C197.349 39.1074 197.48 39.2658 197.48 39.3714C197.496 40.5482 197.488 41.7251 197.488 42.8567C195.085 42.0722 192.698 41.2574 190.28 40.5256C187.853 39.7863 185.373 39.2733 182.808 38.8282C182.808 39.0093 182.808 39.1526 182.808 39.2959C182.808 42.4569 182.808 45.6178 182.808 48.7788C182.808 48.9447 182.793 49.1031 182.786 49.2692C181.53 49.2767 180.275 49.2767 179.012 49.2767Z" fill="white"/>
<path d="M131.492 41.5915C131.639 41.5689 131.785 41.5236 131.939 41.5161C132.886 41.4708 133.833 41.4331 134.812 41.3879C134.812 38.5286 134.812 35.6997 134.812 32.8329C133.741 32.8329 132.686 32.8329 131.6 32.8329C131.6 31.6787 131.6 30.5772 131.6 29.423C132.655 29.423 133.718 29.423 134.812 29.423C134.812 26.6921 134.812 24.0064 134.812 21.2679C133.764 21.2679 132.709 21.2679 131.631 21.2679C131.631 20.0986 131.631 18.9745 131.631 17.8203C134.989 17.8203 138.331 17.8203 141.704 17.8203C141.704 18.9444 141.704 20.0835 141.704 21.2453C140.603 21.2453 139.517 21.2453 138.401 21.2453C138.401 23.9687 138.401 26.6544 138.401 29.4004C139.425 29.4004 140.441 29.4004 141.481 29.4004C141.481 30.5471 141.481 31.6485 141.481 32.7952C141.358 32.8028 141.219 32.8178 141.088 32.8178C140.295 32.8178 139.494 32.8254 138.701 32.8178C138.493 32.8178 138.37 32.848 138.37 33.097C138.377 35.6695 138.377 38.242 138.377 40.8145C138.377 40.8522 138.401 40.8824 138.424 40.9729C139.556 40.7843 140.688 40.5957 141.851 40.4071C141.866 40.5051 141.882 40.5957 141.882 40.6862C141.882 41.6368 141.874 42.5949 141.889 43.5454C141.889 43.7868 141.843 43.9 141.566 43.9377C139.571 44.2243 137.592 44.5488 135.597 44.8128C134.365 44.9712 133.117 45.0316 131.877 45.1296C131.754 45.1372 131.623 45.1221 131.492 45.1221C131.492 43.9528 131.492 42.7759 131.492 41.5915Z" fill="white"/>
<path d="M154.635 35.8127C153.796 35.8127 153.025 35.8127 152.224 35.8127C152.224 39.811 152.224 43.7942 152.224 47.7926C151.192 47.7926 150.191 47.7926 149.159 47.7926C149.159 43.8094 149.159 39.8261 149.159 35.8203C148.343 35.8203 147.573 35.8203 146.756 35.8203C146.756 40.2033 146.756 44.5863 146.756 48.9996C145.617 48.9996 144.523 48.9996 143.391 48.9996C143.391 43.6056 143.391 38.1966 143.391 32.7498C143.552 32.7498 143.699 32.7498 143.853 32.7498C145.647 32.7498 147.449 32.7423 149.244 32.7573C149.498 32.7573 149.637 32.697 149.721 32.448C149.891 31.9652 150.091 31.4975 150.299 30.977C147.719 30.977 145.185 30.977 142.621 30.977C142.621 29.8755 142.621 28.8043 142.621 27.6953C149.629 27.6953 156.653 27.6953 163.708 27.6953C163.708 28.7666 163.708 29.8378 163.708 30.9694C163.553 30.9694 163.407 30.9694 163.261 30.9694C160.373 30.9694 157.485 30.977 154.597 30.9619C154.304 30.9619 154.165 31.0449 154.065 31.3089C153.896 31.7691 153.695 32.2142 153.48 32.7196C153.657 32.7272 153.788 32.7423 153.919 32.7423C155.482 32.7423 157.053 32.7423 158.617 32.7423C161.043 32.7423 162.76 34.0775 163.23 36.3936C163.669 38.5738 163.661 40.7842 163.577 42.9871C163.53 44.2243 163.376 45.4389 162.845 46.578C162.352 47.6493 161.613 48.4791 160.38 48.6903C159.795 48.7884 159.179 48.7431 158.578 48.713C158.016 48.6828 157.462 48.5923 156.899 48.5319C156.483 48.4866 156.091 48.4187 156.26 47.8077C155.698 47.8077 155.19 47.8077 154.643 47.8077C154.635 43.8018 154.635 39.8261 154.635 35.8127ZM157.731 35.7448C157.731 39.0566 157.731 42.2704 157.731 45.4916C157.916 45.5068 158.07 45.5143 158.224 45.5294C159.256 45.6275 159.733 45.303 159.918 44.2997C160.018 43.749 160.072 43.1832 160.103 42.6173C160.203 40.7616 160.188 38.9058 159.834 37.0725C159.733 36.552 159.479 36.1144 158.933 35.9485C158.563 35.8353 158.162 35.8127 157.731 35.7448Z" fill="white"/>
<path d="M143.299 16.7485C144.416 16.7485 145.517 16.7485 146.657 16.7485C146.657 16.9069 146.657 17.0427 146.657 17.1785C146.657 18.808 146.657 20.4375 146.657 22.0745C146.657 22.7384 146.819 22.8968 147.496 22.8968C148.551 22.9044 149.599 22.8968 150.654 22.8968C150.754 22.8968 150.854 22.8818 151.001 22.8742C151.001 20.5959 151.001 18.3327 151.001 16.0469C152.217 16.0469 153.388 16.0469 154.605 16.0469C154.605 18.3176 154.605 20.5808 154.605 22.8818C154.767 22.8893 154.898 22.9044 155.021 22.9044C156.084 22.9044 157.154 22.9044 158.217 22.9044C158.972 22.9044 159.064 22.8139 159.064 22.0896C159.064 20.4601 159.064 18.8306 159.064 17.1936C159.064 17.0578 159.064 16.922 159.064 16.756C160.242 16.756 161.405 16.756 162.599 16.756C162.599 16.8918 162.599 17.0201 162.599 17.1408C162.599 19.1475 162.599 21.1542 162.599 23.1609C162.599 24.9489 161.69 25.8918 159.85 26.0201C159.441 26.0502 159.026 26.0578 158.617 26.0578C154.628 26.0578 150.631 26.0578 146.641 26.0578C146.333 26.0578 146.025 26.0502 145.717 26.005C144.069 25.7485 143.322 24.4434 143.284 23.2891C143.207 21.1617 143.26 19.0268 143.268 16.8918C143.276 16.8541 143.291 16.8164 143.299 16.7485Z" fill="white"/>
<path d="M105.679 18.5361C103.845 17.5846 101.904 17.0561 99.8556 17.1618H84.3271V23.8219H91.3365H99.8556C100.179 23.8219 100.503 23.8219 100.826 23.9276C100.934 23.7162 101.042 23.399 101.257 23.1876C102.444 21.2847 103.953 19.699 105.679 18.5361Z" fill="white"/>
<path d="M110.532 16.4166C108.915 16.8394 107.405 17.4737 106.003 18.3195C105.895 18.4252 105.787 18.5309 105.68 18.5309C103.846 19.6938 102.337 21.2795 101.258 23.0767C101.15 23.2881 100.935 23.4996 100.827 23.8167C100.072 25.4025 99.533 27.411 99.2095 28.9968C104.601 28.0454 107.405 24.5567 107.405 24.5567C107.513 24.451 108.483 23.6053 108.915 23.2881C112.905 20.751 118.944 21.0681 122.502 26.4596C125.629 24.5567 124.335 25.4025 127.355 23.4996C124.443 17.8966 117.218 14.8308 110.532 16.4166Z" fill="#F5A427"/>
<path d="M105.679 36.0784C105.787 35.9727 105.679 35.9727 105.679 36.0784C108.59 34.4927 110.208 31.7441 110.208 28.044C110.208 27.304 110.1 26.564 109.992 25.9297C109.561 26.2469 105.679 30.5812 100.179 30.8984C100.071 30.8984 99.8556 30.8984 99.7478 30.8984H90.9052H84.3271V42.21C84.3271 45.8044 87.2387 48.6587 90.9052 48.6587V37.4528H99.1007C99.1007 37.4528 101.904 46.5444 111.178 48.553L110.855 47.9187L105.679 36.0784Z" fill="white"/>
<path d="M122.717 39.3594C119.698 43.9052 114.737 44.6452 110.963 42.9537L113.659 49.191C120.129 49.7196 125.305 45.9138 127.354 42.0023C125.844 41.1565 124.335 40.3108 122.717 39.3594Z" fill="#F5A427"/>
</g>
<defs>
<clipPath id="clip0_7554_17382">
<rect width="114" height="34" fill="white" transform="translate(79 16)"/>
</clipPath>
</defs>
</svg>
