<svg width="188" height="250" viewBox="0 0 188 250" fill="none" xmlns="http://www.w3.org/2000/svg">
<path d="M162.206 241.912C160.163 241.912 158.268 241.46 156.791 240.581L60.435 183.797C58.3676 182.566 57.1616 180.606 57.1616 178.42C57.1616 176.033 58.5645 173.847 61.0257 172.415L71.7812 166.083C73.6271 165.003 75.9406 164.4 78.2788 164.4C80.3216 164.4 82.1921 164.852 83.6935 165.732L180.05 222.515C182.117 223.747 183.323 225.706 183.323 227.892C183.323 230.279 181.92 232.465 179.459 233.897L168.704 240.229C166.858 241.309 164.569 241.912 162.206 241.912Z" fill="url(#paint0_linear_624_6608)"/>
<path d="M115.591 174.802L148.473 194.299C148.054 194.048 147.513 193.998 146.897 194.199C146.651 194.274 146.405 194.375 146.159 194.55L113.277 175.028C113.523 174.877 113.794 174.751 114.016 174.701C114.631 174.5 115.172 174.55 115.591 174.802Z" fill="#1F79FF"/>
<path d="M145.322 195.153L112.44 175.655L112.514 175.429L145.396 194.927L145.322 195.153Z" fill="#1F79FF"/>
<path d="M146.159 194.525C146.405 194.374 146.676 194.248 146.898 194.173C148.325 193.721 149.408 194.6 149.408 196.409C149.408 198.52 147.956 201.082 146.159 202.138C145.027 202.816 144.043 202.716 143.452 202.012C143.181 201.685 142.984 201.233 142.935 200.68C142.91 200.53 142.91 200.379 142.91 200.228C142.91 198.469 143.919 196.384 145.298 195.128C145.593 194.927 145.864 194.701 146.159 194.525Z" fill="#888B90"/>
<path d="M145.396 194.927L112.514 175.43L92.8 126.611L125.682 146.108L145.396 194.927Z" fill="#1F79FF"/>
<path d="M143.87 202.39L110.988 182.892C110.841 182.792 110.693 182.691 110.595 182.54C110.324 182.214 110.127 181.761 110.078 181.209C110.053 181.058 110.053 180.907 110.053 180.756C110.053 178.998 111.062 176.912 112.441 175.656C112.711 175.405 112.982 175.204 113.277 175.028L146.159 194.525C145.864 194.701 145.593 194.902 145.322 195.153C143.944 196.41 142.935 198.495 142.935 200.254C142.935 200.405 142.935 200.555 142.96 200.706C143.033 201.259 143.206 201.711 143.476 202.038C143.6 202.189 143.723 202.289 143.87 202.39Z" fill="#BABCBF"/>
<path d="M142.96 200.706L110.078 183.168L84.0875 198.469C83.5214 198.796 83.0784 199.273 82.783 199.776L82.2908 199.65V201.61C82.2908 202.841 82.8815 204.072 84.0628 204.776L106.46 218.067C109.635 219.952 113.524 219.952 116.698 218.093L143.649 202.213L142.96 200.706Z" fill="#888B90"/>
<path d="M110.078 181.209L84.0874 196.511C81.7 197.918 81.7 201.436 84.0874 202.843L106.484 216.134C109.659 218.018 113.548 218.018 116.723 216.159L142.935 200.707L110.078 181.209Z" fill="url(#paint1_linear_624_6608)"/>
<path d="M126.986 144.751L146.947 194.123C146.676 194.249 146.43 194.375 146.184 194.525C145.888 194.701 145.618 194.902 145.347 195.153L145.421 194.927L125.707 146.108L126.986 144.751Z" fill="#1F79FF"/>
<path d="M125.682 146.108L92.8 126.611L94.1045 125.254L126.986 144.751L125.682 146.108Z" fill="#1F79FF"/>
<path d="M58.6389 1.33447L59.5742 1.86211L179.484 72.5405L178.549 72.0128L58.6389 1.33447Z" fill="#1F79FF"/>
<path d="M58.4172 1.20898C58.7372 1.38486 59.0571 1.56074 59.3771 1.76175C59.4509 1.78687 59.5002 1.83712 59.574 1.86225L58.6387 1.33461C58.5649 1.28436 58.4911 1.25924 58.4172 1.20898Z" fill="#1F79FF"/>
<path d="M184.948 195.154L180.813 197.591C182.511 196.586 183.57 194.425 183.57 191.385L187.705 188.948C187.705 191.988 186.646 194.124 184.948 195.154Z" fill="#818489"/>
<path d="M188 88.7217V87.6162L187.729 187.817V188.923L188 88.7217Z" fill="#1F79FF"/>
<path d="M183.865 91.1845L188 88.7222L187.729 188.923L183.594 191.385L183.865 91.1845Z" fill="url(#paint2_linear_624_6608)"/>
<path d="M178.549 72.0132L179.484 72.5408C184.21 75.3298 188.024 82.0886 188 87.6162L187.975 88.7217C188.024 82.5911 183.767 75.1036 178.549 72.0132Z" fill="#818489"/>
<path d="M173.454 76.1086C178.18 78.8975 181.994 85.6563 181.97 91.184L181.699 191.385C181.674 196.913 177.835 199.174 173.109 196.385L53.2239 125.707C48.4984 122.918 44.6835 116.159 44.7081 110.631L44.9789 10.4302C45.0035 4.87748 48.843 2.6413 53.5685 5.43025L173.454 76.1086Z" fill="url(#paint3_linear_624_6608)"/>
<path d="M147.513 69.8528C146.996 70.1794 146.504 70.5563 146.085 70.9834L59.9431 19.8779L60.2385 129.853L159.327 188.245L159.105 105.581C162.256 107.064 165.332 107.24 167.769 105.808C173.356 102.466 173.356 91.7121 167.769 81.7874C162.182 71.8628 153.125 66.5111 147.513 69.8528Z" fill="#818489"/>
<path d="M174.414 74.4503L54.5041 3.77198C49.2617 0.681533 45.0038 3.16897 44.9792 9.29962L44.9546 10.4051C44.9792 4.85238 48.8187 2.61621 53.5442 5.40515L173.454 76.0835C178.18 78.8724 181.995 85.6312 181.97 91.1589L181.699 191.36C181.675 196.837 177.934 199.073 173.307 196.46C173.627 196.636 173.947 196.812 174.267 197.013C179.41 199.903 183.57 197.415 183.57 191.36L183.841 91.1589C183.89 85.0282 179.657 77.5408 174.414 74.4503Z" fill="url(#paint4_linear_624_6608)"/>
<path d="M178.549 72.013L58.6388 1.33469C56.0053 -0.223093 53.6179 -0.373847 51.8951 0.656303L47.7603 3.09349C49.4831 2.06334 51.8705 2.21409 54.504 3.77188L174.414 74.4502C179.656 77.5407 183.89 85.0281 183.865 91.1839L188 88.7467C188.025 82.5909 183.767 75.1035 178.549 72.013Z" fill="url(#paint5_linear_624_6608)"/>
<path d="M53.7161 113.873L54.0115 114.702C48.7691 111.611 44.5358 104.124 44.5604 97.9683L45.1019 98.6466C45.0773 104.25 48.9414 111.059 53.7161 113.873Z" fill="#2891D2"/>
<path d="M45.102 98.6466L44.5359 97.9682L44.782 14.4004L45.3235 15.0788L45.102 98.6466Z" fill="#2891D2"/>
<path d="M47.5383 8.19425L48.7935 7.44048C50.5164 6.41033 52.9038 6.56109 55.5373 8.11887L54.282 8.87264C51.6485 7.31485 49.2612 7.1641 47.5383 8.19425Z" fill="#2891D2"/>
<path d="M45.3232 15.0788L44.7571 14.4004C44.7817 8.24459 49.0396 5.78228 54.282 8.87273L53.9866 10.0536C49.2365 7.23957 45.3478 9.50087 45.3232 15.0788Z" fill="#2891D2"/>
<path d="M168.95 181.787L169.245 182.616L53.9868 114.702L53.7161 113.873L168.95 181.787Z" fill="#2891D2"/>
<path d="M177.244 182.541L175.989 183.294C177.687 182.289 178.745 180.128 178.745 177.088L180.001 176.334C180.025 179.375 178.967 181.535 177.244 182.541Z" fill="#2891D2"/>
<path d="M177.613 176.737L178.746 177.063C178.721 183.219 174.463 185.682 169.221 182.591L168.925 181.762C173.725 184.601 177.589 182.34 177.613 176.737Z" fill="#2891D2"/>
<path d="M178.991 93.5209L180.247 92.7671L180.025 176.335L178.745 177.064L178.991 93.5209Z" fill="#2891D2"/>
<path d="M177.835 93.1689L178.992 93.5207L178.745 177.063L177.613 176.737L177.835 93.1689Z" fill="#2891D2"/>
<path d="M54.0115 10.0283L54.2822 8.87256L169.541 76.7871L169.245 77.968L54.0115 10.0283Z" fill="#2891D2"/>
<path d="M54.2822 8.87242L55.5621 8.11865L170.796 76.0332L169.541 76.7869L54.2822 8.87242Z" fill="#2891D2"/>
<path d="M169.245 77.9676L54.0113 10.028C49.2365 7.23904 45.3478 9.50035 45.3232 15.0782L45.1017 98.646C45.0771 104.249 48.9412 111.058 53.7159 113.872L168.95 181.787C173.724 184.601 177.589 182.339 177.613 176.736L177.835 93.1686C177.859 87.5908 173.995 80.7817 169.245 77.9676Z" fill="url(#paint6_linear_624_6608)"/>
<path d="M167.793 81.7874C165.652 77.9935 162.994 74.8528 160.237 72.6417L155.093 69.6015C152.337 68.5714 149.679 68.5714 147.537 69.8528C147.02 70.1794 146.528 70.5563 146.11 70.9834L59.9675 19.8779L60.2383 117.692L159.327 176.084L159.13 105.581C162.28 107.064 165.357 107.24 167.793 105.808C173.38 102.491 173.38 91.7372 167.793 81.7874Z" fill="#2891D2"/>
<path d="M169.245 77.968L169.54 76.7871C174.783 79.8776 179.016 87.365 178.992 93.5208L177.859 93.1941C177.859 87.5911 173.995 80.7821 169.245 77.968Z" fill="#2891D2"/>
<path d="M169.541 76.787L170.796 76.0332C176.038 79.1237 180.271 86.6111 180.247 92.7669L178.992 93.5206C178.992 87.3649 174.783 79.8774 169.541 76.787Z" fill="#2891D2"/>
<path d="M76.7529 121.762C77.0975 121.058 77.2698 120.506 77.2698 120.104L76.7529 121.762Z" fill="#52586C"/>
<path d="M157.358 201.46L58.2695 142.666C56.842 141.736 56.0298 139.852 56.0298 137.39L155.118 196.184C155.118 198.646 155.93 200.53 157.358 201.46Z" fill="url(#paint7_linear_624_6608)"/>
<path d="M155.118 196.208L56.0299 137.414L55.71 22.4146L154.798 81.1834L155.118 196.208Z" fill="url(#paint8_linear_624_6608)"/>
<path d="M154.798 81.1839L55.71 22.4151L57.1128 21.5859L156.201 80.3547L154.798 81.1839Z" fill="#E4E7ED"/>
<path d="M156.201 80.3545L156.521 195.38C156.521 197.415 157.185 198.972 158.367 199.751L157.358 201.485C155.93 200.555 155.118 198.671 155.118 196.209L154.798 81.2088L156.201 80.3545Z" fill="#E4E7ED"/>
<path d="M67.7697 56.9126L122.876 89.4C124.205 90.1789 125.288 89.3497 125.288 87.5407V86.9126C125.288 85.1035 124.205 82.993 122.876 82.1889L67.7697 49.7267C66.4406 48.9478 65.3577 49.7769 65.3577 51.586V52.2141C65.3577 54.0231 66.4406 56.1337 67.7697 56.9126Z" fill="#CFD8DB"/>
<path d="M67.7696 77.0632L141.729 120.656C143.058 121.435 144.141 120.606 144.141 118.797V118.169C144.141 116.36 143.058 114.249 141.729 113.445L67.7696 69.8522C66.4406 69.0733 65.3577 69.9024 65.3577 71.7115V72.3396C65.3577 74.1486 66.4406 76.2592 67.7696 77.0632Z" fill="#CFD8DB"/>
<path d="M140.695 83.5705C141.114 87.3142 142.467 91.485 144.732 95.5303C146.996 99.5755 149.851 102.842 152.805 105.078L156.841 112.264L161.074 109.751C166.661 106.41 166.661 95.6559 161.074 85.7313C155.487 75.8067 146.405 70.4549 140.818 73.7966L136.585 76.3092L140.695 83.5705Z" fill="url(#paint9_linear_624_6608)"/>
<path d="M156.841 88.243C162.428 98.1676 162.428 108.921 156.841 112.263C151.254 115.605 142.172 110.253 136.585 100.328C130.998 90.4038 130.998 79.65 136.585 76.3083C142.197 72.9666 151.254 78.3184 156.841 88.243Z" fill="white"/>
<path d="M154.946 89.3734C159.474 97.4387 159.474 106.157 154.946 108.871C150.417 111.584 143.058 107.238 138.505 99.1975C133.976 91.1322 133.976 82.4136 138.505 79.7C143.033 76.9864 150.393 81.3332 154.946 89.3734Z" fill="#00D158"/>
<path d="M146.898 102.313L145.47 103.167C145.544 103.142 145.593 103.092 145.642 103.042L147.07 102.188C147.021 102.238 146.972 102.288 146.898 102.313Z" fill="#C6C0D0"/>
<path d="M137.102 89.6508L138.529 88.7965C139.022 88.495 139.661 88.5955 140.301 88.9724C140.892 89.3242 141.483 89.9272 141.975 90.7061L140.547 91.5603C140.08 90.7814 139.465 90.1784 138.874 89.8267C138.234 89.4498 137.594 89.3493 137.102 89.6508Z" fill="#D3E1FC"/>
<path d="M140.548 91.5603L141.975 90.7061L144.609 95.0528L143.181 95.9071L140.548 91.5603Z" fill="#D3E1FC"/>
<path d="M152.903 97.0125L154.33 96.1582L147.094 102.188L145.667 103.043L152.903 97.0125Z" fill="#D3E1FC"/>
<path d="M149.211 90.9066L150.638 90.0523C151.131 89.7759 151.771 89.8513 152.411 90.2282L150.983 91.0824C150.343 90.6804 149.703 90.605 149.211 90.9066Z" fill="#D3E1FC"/>
<path d="M151.008 91.0828L152.435 90.2285C153.001 90.5551 153.567 91.1079 154.01 91.8366C155.069 93.4948 155.216 95.4295 154.33 96.1582L152.903 97.0124C153.789 96.2838 153.641 94.3491 152.583 92.6908C152.115 91.9622 151.549 91.4094 151.008 91.0828Z" fill="#D3E1FC"/>
<path d="M151.008 91.0826C151.574 91.4092 152.14 91.962 152.583 92.6906C153.641 94.3489 153.789 96.2836 152.903 97.0123L145.667 103.042C145.076 103.52 144.239 103.47 143.378 102.967C142.689 102.565 141.975 101.861 141.409 100.932L137.176 93.9721C136.142 92.2886 136.068 90.3791 137.003 89.7258C137.496 89.3741 138.185 89.4494 138.874 89.8514C139.465 90.2032 140.055 90.8062 140.548 91.5851L143.181 95.9319L149.063 91.0324C149.556 90.5801 150.269 90.6555 151.008 91.0826Z" fill="white"/>
<path d="M106.042 199.852C105.623 200.103 105.623 200.48 106.042 200.731L110.324 203.269C110.743 203.52 111.407 203.52 111.801 203.269L119.381 198.796C119.8 198.545 119.8 198.168 119.381 197.917L115.099 195.379C114.68 195.128 114.016 195.128 113.622 195.379L106.042 199.852Z" fill="#E9EAED"/>
<path d="M106.041 200.731L106.952 201.284L113.622 197.365C114.04 197.113 114.705 197.113 115.099 197.365L118.471 199.349L119.381 198.822C119.8 198.571 119.8 198.194 119.381 197.942L115.099 195.405C114.68 195.153 114.016 195.153 113.622 195.405L106.041 199.877C105.648 200.103 105.623 200.48 106.041 200.731Z" fill="#888B90"/>
<path d="M105.968 110.43L107.026 109.978C107.395 109.827 107.838 109.852 108.331 110.129L107.272 110.581C106.805 110.305 106.362 110.254 105.968 110.43Z" fill="#DAE6FB"/>
<path d="M139.145 166.134L138.086 166.587C138.529 166.386 138.874 165.908 138.948 165.205L140.006 164.752C139.932 165.456 139.588 165.933 139.145 166.134Z" fill="#DAE6FB"/>
<path d="M107.272 110.581L108.331 110.129L141.951 129.953L140.892 130.405L107.272 110.581Z" fill="#DAE6FB"/>
<path d="M142.517 133.848L143.575 133.396L140.006 164.752L138.948 165.205L142.517 133.848Z" fill="#DAE6FB"/>
<path d="M140.892 130.405L141.951 129.953C142.984 130.556 143.723 132.114 143.575 133.42L142.517 133.873C142.664 132.566 141.926 131.008 140.892 130.405Z" fill="#DAE6FB"/>
<path d="M140.892 130.406C141.926 131.009 142.664 132.567 142.517 133.873L138.948 165.205C138.8 166.511 137.84 167.039 136.782 166.436L103.162 146.612C102.128 146.009 101.39 144.451 101.537 143.17L105.106 111.838C105.254 110.532 106.214 109.979 107.247 110.607L140.892 130.406Z" fill="#F9F9F9"/>
<path d="M141.114 131.335C141.828 131.762 142.345 132.842 142.246 133.722L142.025 135.707C141.926 136.611 141.262 136.988 140.523 136.561L105.722 116.084C105.008 115.656 104.491 114.576 104.59 113.697L104.811 111.712C104.91 110.807 105.574 110.43 106.313 110.857L141.114 131.335Z" fill="#DAE6FB"/>
<path d="M64.6191 86.8374L65.6775 86.3851C66.0466 86.2344 66.4897 86.2595 66.9819 86.5359L65.9236 86.9881C65.4313 86.7118 64.9883 86.6866 64.6191 86.8374Z" fill="#DAE6FB"/>
<path d="M97.7717 142.541L96.7134 142.993C97.1564 142.792 97.501 142.314 97.5748 141.611L98.6331 141.159C98.5593 141.862 98.2393 142.365 97.7717 142.541Z" fill="#DAE6FB"/>
<path d="M65.8989 86.9884L66.9572 86.5361L100.577 106.36L99.519 106.812L65.8989 86.9884Z" fill="#DAE6FB"/>
<path d="M101.144 110.28L102.202 109.828L98.6335 141.16L97.5752 141.612L101.144 110.28Z" fill="#DAE6FB"/>
<path d="M99.519 106.813L100.577 106.36C101.611 106.963 102.349 108.521 102.202 109.828L101.143 110.28C101.291 108.973 100.577 107.416 99.519 106.813Z" fill="#DAE6FB"/>
<path d="M99.5193 106.812C100.553 107.415 101.291 108.973 101.144 110.279L97.5749 141.611C97.4273 142.918 96.4674 143.445 95.4091 142.842L61.789 123.018C60.7553 122.415 60.0169 120.857 60.1646 119.576L63.7333 88.2443C63.881 86.9378 64.8409 86.385 65.8746 87.0132L99.5193 106.812Z" fill="#F9F9F9"/>
<path d="M99.7408 107.767C100.455 108.194 100.971 109.274 100.873 110.154L100.651 112.138C100.553 113.043 99.8884 113.42 99.1501 112.993L64.3732 92.4903C63.6594 92.0631 63.1426 90.9827 63.241 90.1033L63.4625 88.1184C63.561 87.2139 64.2255 86.837 64.9639 87.2641L99.7408 107.767Z" fill="#DAE6FB"/>
<path d="M52.5593 248.043C48.1045 250.657 40.8686 250.657 36.3892 248.018C31.9098 245.38 31.8851 241.109 36.3399 238.496C40.7947 235.883 48.0307 235.883 52.5101 238.521C56.9895 241.159 57.0141 245.405 52.5593 248.043Z" fill="#C2C5CD"/>
<path d="M48.0801 243.621C48.0309 243.646 47.0218 244.727 46.948 245.179C46.8742 245.631 46.8495 246.41 46.948 246.837C47.0464 247.264 48.6708 248.345 49.7045 248.345C50.7383 248.345 55.1684 245.907 56.1037 245.48C57.0389 245.078 60.0662 243.948 61.0507 243.269C62.0352 242.566 63.6104 240.882 63.5858 239.626C63.5612 238.395 62.4782 237.39 61.4937 237.415C60.5093 237.465 48.0801 243.621 48.0801 243.621Z" fill="#212430"/>
<path d="M29.793 242.516C29.5715 243.169 29.4485 244.325 29.3992 244.802C29.35 245.28 29.3746 245.682 29.793 246.008C30.2114 246.335 31.5651 246.838 33.4356 246.36C35.3061 245.883 36.7582 242.742 37.5212 241.813C38.2842 240.883 39.8348 240.104 40.9669 239.074C42.0991 238.044 43.2312 236.335 43.1328 235.23C43.0097 234.124 42.9359 233.345 42.1975 233.471C41.4099 233.571 29.793 242.516 29.793 242.516Z" fill="#212430"/>
<path d="M29.7437 238.37C29.7437 238.37 29.3992 241.133 29.3992 242.314C29.3992 243.495 29.5222 244.475 29.5715 244.802C29.6207 245.128 30.6052 245.882 32.7218 245.631C34.8384 245.38 36.0444 242.415 36.6597 241.787C37.275 241.159 39.1702 239.4 40.4008 238.747C41.6314 238.093 42.7635 235.907 42.7881 235.028C42.8128 234.149 42.7635 233.571 42.2467 233.345C41.7298 233.118 38.9487 233.269 37.7427 233.345C36.5367 233.42 32.9187 235.254 32.9187 235.254L29.7437 238.37Z" fill="#33374A"/>
<path d="M52.6578 238.345C54.8237 237.516 60.2629 236.687 61.1243 236.662C61.9858 236.637 62.7734 237.566 62.7734 237.566C62.7734 237.566 64.1762 239.3 61.8135 241.511C59.4507 243.722 58.3186 243.747 56.4973 244.425C54.676 245.104 50.9349 247.013 49.3598 247.214C47.7846 247.415 47.2924 246.234 47.2185 245.531C47.1693 244.827 47.6615 241.812 47.9569 241.285C48.2768 240.757 52.6578 238.345 52.6578 238.345Z" fill="#33374A"/>
<path d="M32.8696 177.39C32.2051 179.375 31.1468 182.088 31.2945 187.44C31.4421 192.792 32.6481 193.269 32.6235 195.304C32.5989 197.339 31.7375 209.048 31.639 210.279C31.5406 211.51 38.7519 213.621 40.2287 211.435C41.7054 209.249 43.3298 204.651 44.0681 197.817C44.8065 190.957 45.1019 183.897 44.0681 182.088C43.0098 180.279 32.8696 177.39 32.8696 177.39Z" fill="#363C53"/>
<path d="M38.2846 181.41C36.5864 187.289 36.8079 189.626 38.2846 193.445C39.7613 197.289 42.8624 199.324 42.8624 199.324C42.8624 199.324 43.0839 215.958 44.1915 219.802C45.299 223.646 52.3873 222.365 53.1257 219.802C53.864 217.239 57.5312 201.36 57.3097 194.274C57.0882 187.189 56.6452 183.068 55.833 181.41C55.0208 179.752 38.2846 181.41 38.2846 181.41Z" fill="#3B4157"/>
<path d="M34.2232 208.697C34.2232 208.697 32.7957 208.144 31.6143 210.28C30.4329 212.415 28.8577 217.315 28.5132 221.712C28.1686 226.109 29.6207 236.436 29.5469 239.149C32.1558 241.134 35.9952 239.425 36.0691 236.385C36.1429 233.345 38.0873 216.385 40.7946 210.481C39.0718 207.415 34.2232 208.697 34.2232 208.697Z" fill="#363C53"/>
<path d="M46.0373 214.124C46.0373 214.124 44.0192 215.908 43.9699 218.848C43.9207 221.787 43.5761 226.008 43.9699 228.647C44.3637 231.285 47.6863 239.174 47.4648 242.24C49.6061 244.375 54.6516 243.069 54.4301 238.973C54.2086 234.878 53.3717 223.044 53.3964 218.672C53.4456 214.275 46.0373 214.124 46.0373 214.124Z" fill="#3B4157"/>
<path d="M55.0206 185.404C52.4117 188.043 46.0864 188.897 41.607 188.445C35.5278 187.842 31.3191 183.922 31.2699 182.691C31.2453 181.46 32.2052 175.279 32.279 173.294C32.3528 171.309 26.7413 158.319 26.1752 154.927C25.5845 151.535 25.9537 148.771 27.2089 146.887C28.4887 145.002 30.8515 143.57 33.8296 144.173C35.3063 145.254 43.2806 151.058 45.4219 152.59C47.5631 154.123 49.9505 156.56 51.6487 159.073C51.7718 159.249 51.8702 159.425 51.9687 159.651C52.0179 159.751 52.0425 159.852 52.0917 159.952C52.2148 160.254 52.3379 160.605 52.4363 160.957C52.4855 161.108 52.5101 161.259 52.5594 161.41C52.6086 161.636 52.6824 161.887 52.7317 162.138C52.7563 162.188 52.7563 162.239 52.7563 162.289C52.7809 162.44 52.8055 162.59 52.8301 162.741C52.8547 162.892 52.8793 163.068 52.9286 163.219C52.9532 163.445 53.0024 163.646 53.027 163.872C53.0516 163.972 53.0516 164.048 53.0762 164.148C53.1008 164.299 53.1254 164.475 53.1501 164.626C53.2977 165.756 53.4208 166.912 53.4946 167.942C53.5192 168.093 53.5192 168.244 53.5439 168.369C53.6177 169.148 53.6915 169.852 53.7408 170.43C53.7408 170.53 53.7654 170.631 53.7654 170.706C53.8146 171.083 53.8638 171.384 53.913 171.611C53.9376 171.661 53.9376 171.736 53.9623 171.786C54.4053 173.621 55.0452 175.706 56.1773 181.862C56.4235 183.269 55.9558 184.45 55.0206 185.404Z" fill="#EAEEF9"/>
<path d="M31.6882 139.475C32.0574 141.887 31.9343 144.199 31.3929 145.33C30.8514 146.46 29.8177 148.043 33.5341 147.968C37.2506 147.892 40.4747 149.098 40.4747 149.098C40.4747 149.098 40.5486 143.822 40.7455 143.571C40.9424 143.319 43.2559 142.867 44.0435 141.762C44.8065 140.656 44.3142 135.983 44.3142 135.983C44.3142 135.983 43.945 131.46 41.9515 128.872C39.9579 126.284 38.9488 126.335 36.8075 126.586C34.6909 126.787 31.6882 139.475 31.6882 139.475Z" fill="#FF9C78"/>
<path d="M40.3518 131.41C38.5058 133.873 40.5979 134.878 40.8194 136.034C41.0409 137.189 40.5733 139.501 40.5733 139.501C40.5733 139.501 39.7365 137.415 38.2351 137.541C36.7092 137.692 36.2169 139.35 36.0446 140.883C35.8724 142.415 35.2817 143.345 34.9125 143.596C34.5433 143.848 31.8852 142.893 31.8852 142.893C31.8852 142.893 27.6027 142.968 25.2892 139.074C22.951 135.204 23.4432 130.405 27.9473 127.415C32.4267 124.425 34.8633 124.601 38.5305 125.958C40.7209 127.064 41.1886 127.893 41.287 128.722C41.3362 129.25 41.3362 130.129 40.3518 131.41Z" fill="#553012"/>
<path d="M39.0718 138.696C38.4811 137.566 38.8503 137.39 38.0135 137.365C37.1767 137.339 36.6844 138.646 37.1275 139.802C37.5705 140.958 38.8503 141.334 39.2933 140.782C39.7363 140.229 39.0718 138.696 39.0718 138.696Z" fill="#FF9C78"/>
<path d="M55.0206 185.405C53.6424 182.289 51.4273 179.274 50.6889 177.515C49.5322 174.701 47.3171 168.244 45.8157 167.013C44.3144 165.757 38.5798 164.978 38.2844 162.993C38.2844 162.993 44.1175 154.777 51.9441 159.651C51.9934 159.752 52.018 159.852 52.0672 159.953C52.1903 160.254 52.3133 160.606 52.4118 160.958C52.461 161.108 52.4856 161.259 52.5348 161.41C52.5841 161.636 52.6579 161.887 52.7071 162.139C52.7317 162.189 52.7317 162.239 52.7317 162.289C52.7563 162.44 52.7809 162.591 52.8056 162.742C52.8302 162.892 52.8548 163.068 52.904 163.219C52.9286 163.445 52.9778 163.646 53.0025 163.872C53.0271 163.973 53.0271 164.048 53.0517 164.149C53.0763 164.299 53.1009 164.475 53.1255 164.626C53.2732 165.757 53.3962 166.912 53.4701 167.943C53.4947 168.093 53.4947 168.244 53.5193 168.37C53.5931 169.149 53.667 169.852 53.7162 170.43C53.7162 170.53 53.7408 170.631 53.7408 170.706C53.79 171.083 53.8393 171.385 53.8885 171.611C53.9131 171.661 53.9131 171.737 53.9377 171.787C54.3807 173.621 55.0206 175.706 56.1528 181.862C56.4235 183.269 55.9559 184.45 55.0206 185.405Z" fill="#CCD6F1"/>
<path d="M66.4159 159.4C66.0221 159.074 66.2682 159.049 66.8097 159.049C67.3512 159.049 67.8188 159.149 68.7787 158.873C69.7385 158.596 70.1569 157.893 69.8862 157.566C69.6155 157.24 68.4833 157.617 68.311 157.692C68.1388 157.767 65.0869 157.416 65.0869 157.416L62.478 158.421C62.478 158.421 50.2212 158.772 48.1784 157.717C46.1355 156.637 49.3843 159.978 54.9713 162.265C60.5582 164.551 71.7321 164.4 70.4031 163.094C69.0494 161.737 66.4159 159.4 66.4159 159.4Z" fill="#FF9C78"/>
<path d="M125.658 147.314L118.545 153.847C117.831 154.5 116.797 154.6 115.788 153.997C114.164 152.992 113.155 150.505 113.573 148.445C113.893 146.837 114.951 145.957 116.157 146.108C119.012 146.46 122.827 146.937 125.658 147.314Z" fill="#52586C"/>
<path d="M125.658 147.315L118.545 153.848C118.988 153.446 119.308 152.843 119.455 152.064L125.658 147.315Z" fill="#52586C"/>
<path d="M116.157 146.109L125.657 147.315L119.455 152.064C119.849 150.003 118.864 147.516 117.24 146.511C116.871 146.285 116.526 146.134 116.157 146.109Z" fill="#52586C"/>
<path d="M115.542 146.109C114.582 146.26 113.819 147.089 113.548 148.42C113.154 150.481 114.139 152.968 115.763 153.973C116.551 154.451 117.363 154.501 118.003 154.174C113.425 156.41 108.847 158.672 104.269 160.908C103.26 161.385 102.054 161.335 100.848 160.581C98.3624 159.049 96.8365 155.255 97.4518 152.114C97.8456 150.079 99.0269 148.822 100.479 148.571C105.525 147.767 110.545 146.938 115.542 146.109Z" fill="#52586C"/>
<path d="M118.052 154.199C113.475 156.435 108.897 158.696 104.319 160.932C105.377 160.405 106.189 159.274 106.485 157.666L119.48 152.063C119.258 153.118 118.742 153.847 118.052 154.199Z" fill="#454C61"/>
<path d="M100.504 148.621C105.525 147.792 110.521 146.963 115.542 146.133C116.059 146.058 116.649 146.159 117.24 146.51C118.864 147.515 119.873 150.003 119.455 152.063L106.46 157.666C107.075 154.525 105.549 150.731 103.063 149.199C102.202 148.646 101.316 148.47 100.504 148.621Z" fill="#454C61"/>
<path d="M100.085 148.722C98.83 149.124 97.8455 150.33 97.5009 152.164C96.8856 155.305 98.4116 159.099 100.897 160.631C101.931 161.284 102.989 161.41 103.9 161.109L9.61117 191.36C8.70052 191.661 7.6422 191.511 6.60849 190.882C4.12267 189.35 2.59672 185.556 3.21202 182.415C3.55659 180.581 4.54108 179.375 5.79629 178.973C34.0756 169.903 71.8059 157.792 100.085 148.722Z" fill="#52586C"/>
<path d="M103.9 161.109L9.61133 191.36C10.8665 190.958 11.851 189.752 12.1956 187.918L106.485 157.667C106.115 159.501 105.131 160.707 103.9 161.109Z" fill="#3D4359"/>
<path d="M4.04882 180.33C3.65502 180.882 3.38429 181.586 3.21201 182.415C2.5967 185.556 4.12265 189.35 6.60847 190.882C6.87921 191.058 7.14994 191.184 7.42067 191.284C7.273 191.234 7.10072 191.159 6.97766 191.108C6.90382 191.083 6.82998 191.058 6.75615 191.033C6.60848 190.958 6.41158 190.907 6.28852 190.857C6.14085 190.807 5.96856 190.732 5.8455 190.681C5.77166 190.656 5.69783 190.631 5.62399 190.606C5.47632 190.556 5.30403 190.48 5.18097 190.43C5.0333 190.38 4.86102 190.304 4.73796 190.254C4.66412 190.229 4.59028 190.204 4.51645 190.179C4.36877 190.129 4.19649 190.053 4.07343 190.003C3.92576 189.953 3.75347 189.877 3.63041 189.827C3.55658 189.802 3.48274 189.777 3.4089 189.752C3.26123 189.701 3.08895 189.626 2.96589 189.576C2.84282 189.526 2.69515 189.475 2.57209 189.375C1.39071 188.646 0.652349 186.837 0.947694 185.304C1.02153 184.902 1.1692 184.576 1.34149 184.299C2.1783 183.018 3.11356 181.661 4.04882 180.33Z" fill="#52586C"/>
<path d="M5.79663 178.972L100.086 148.721C100.996 148.42 102.055 148.57 103.088 149.199C105.574 150.731 107.1 154.525 106.485 157.666L12.1958 187.917C12.8111 184.776 11.2851 180.982 8.79931 179.45C7.7656 178.822 6.70728 178.671 5.79663 178.972Z" fill="#3D4359"/>
<path d="M7.42085 191.259C7.27318 191.209 7.1009 191.133 6.97784 191.083C6.904 191.058 6.83016 191.033 6.75633 191.008C6.60865 190.957 6.41176 190.907 6.2887 190.857C6.14102 190.807 5.96874 190.731 5.84568 190.681C5.77184 190.656 5.69801 190.631 5.62417 190.606C5.4765 190.555 5.30421 190.48 5.18115 190.43C5.03348 190.38 4.8612 190.304 4.73814 190.254C4.6643 190.229 4.59046 190.204 4.51663 190.179C4.36895 190.128 4.19667 190.053 4.07361 190.003C3.92594 189.952 3.75365 189.877 3.63059 189.827C3.55675 189.802 3.48292 189.777 3.40908 189.751C3.26141 189.701 3.08912 189.626 2.96606 189.576C4.02438 189.952 4.98426 189.324 5.25499 187.967L12.2694 187.892C11.6541 190.731 9.61133 192.088 7.42085 191.259Z" fill="#40475D"/>
<path d="M1.26782 184.35C2.20308 183.019 3.11373 181.662 4.04899 180.33C5.13192 178.773 6.97783 178.345 8.82373 179.451C11.3096 180.984 12.8355 184.778 12.2202 187.918L5.20576 187.994C5.5011 186.486 4.76274 184.677 3.58136 183.923C2.67071 183.396 1.78468 183.597 1.26782 184.35Z" fill="#40475D"/>
<path d="M5.18108 187.992C4.88573 189.5 3.67974 190.128 2.49836 189.399C1.31698 188.671 0.578618 186.862 0.873963 185.329C1.16931 183.822 2.3753 183.193 3.55668 183.922C4.73806 184.651 5.47642 186.485 5.18108 187.992Z" fill="#333B53"/>
<path d="M43.1083 164.878C43.1083 164.878 54.6268 170.255 59.5492 171.385C64.4962 172.516 61.2967 164.652 60.1645 164.074C59.0324 163.496 52.2886 159.828 51.0334 158.596C49.7782 157.365 47.76 155.606 47.76 155.606C47.76 155.606 40.5979 160.38 43.1083 164.878Z" fill="#FF9C78"/>
<path d="M57.9497 168.898C57.9497 168.898 56.916 170.782 59.5495 171.385C62.2076 171.988 64.6934 171.687 66.5147 171.21C68.336 170.732 72.9385 169.752 73.0369 169.727C73.1354 169.727 73.4553 169.677 73.5538 170.28C73.6768 170.883 76.458 173.345 76.6549 173.395C76.8272 173.446 77.3686 173.094 77.3686 173.094C77.3686 173.094 77.787 173.27 78.0578 173.119C78.3285 172.968 78.7961 172.39 78.7961 172.39C78.7961 172.39 79.313 172.315 79.5837 172.164C79.8298 171.988 79.7068 170.808 79.7068 170.808C79.7068 170.808 80.3467 170.431 80.3221 169.903C80.2975 169.401 79.0915 167.24 79.0915 167.24C79.0915 167.24 77.4179 166.134 77.3932 165.506C77.344 164.878 77.8116 164.526 78.2793 164.174C78.7469 163.848 78.7961 162.39 78.4762 161.863C78.1562 161.335 77.4425 161.662 77.344 162.139C77.2456 162.617 77.0979 162.843 77.0979 162.843C77.0979 162.843 76.8518 163.345 76.2119 163.798C75.5719 164.25 75.2766 164.501 74.9074 164.828C74.5382 165.154 74.046 165.305 71.2894 164.978C68.5329 164.652 60.8047 163.772 59.3034 163.948C57.802 164.124 57.9497 168.898 57.9497 168.898Z" fill="#FF9C78"/>
<path d="M37.989 151.586C35.3309 153.244 33.7557 157.465 34.814 160.405C35.8723 163.37 43.7728 165.606 43.7728 165.606C43.7728 165.606 48.7445 157.867 50.0243 157.189C46.1848 153.948 44.3143 150.656 37.989 151.586Z" fill="#F8F7FB"/>
<path d="M28.0952 136.51C27.406 131.711 21.2284 130.731 19.0133 135.882C14.9769 145.304 31.3932 153.797 15.8137 158.52C25.0679 161.862 33.7313 159.123 29.8918 148.671C27.2337 141.41 25.6586 137.339 28.0952 136.51Z" fill="#553012"/>
<defs>
<linearGradient id="paint0_linear_624_6608" x1="57.1781" y1="203.144" x2="183.309" y2="203.144" gradientUnits="userSpaceOnUse">
<stop offset="0.2139" stop-color="#F3F4F5"/>
<stop offset="0.7933" stop-color="#E9EAED"/>
<stop offset="1" stop-color="#E4E5E9"/>
</linearGradient>
<linearGradient id="paint1_linear_624_6608" x1="104.122" y1="214.746" x2="120.329" y2="187.248" gradientUnits="userSpaceOnUse">
<stop offset="0.134" stop-color="#E8E8E9"/>
<stop offset="0.5799" stop-color="#D1D1D4"/>
<stop offset="1" stop-color="#C9C9CD"/>
</linearGradient>
<linearGradient id="paint2_linear_624_6608" x1="163.474" y1="179.526" x2="209.514" y2="101.412" gradientUnits="userSpaceOnUse">
<stop offset="0.1649" stop-color="#818489"/>
<stop offset="1" stop-color="#B7B9BD"/>
</linearGradient>
<linearGradient id="paint3_linear_624_6608" x1="55.9571" y1="134.732" x2="171.897" y2="69.1625" gradientUnits="userSpaceOnUse">
<stop offset="0.0644" stop-color="#BBBDBF"/>
<stop offset="0.7397" stop-color="#C7C9CB"/>
</linearGradient>
<linearGradient id="paint4_linear_624_6608" x1="100.438" y1="108.512" x2="173.065" y2="67.4377" gradientUnits="userSpaceOnUse">
<stop offset="0.2139" stop-color="#989A9F"/>
<stop offset="1" stop-color="#B7B9BD"/>
</linearGradient>
<linearGradient id="paint5_linear_624_6608" x1="83.4394" y1="66.213" x2="154.996" y2="25.7441" gradientUnits="userSpaceOnUse">
<stop stop-color="#818489"/>
<stop offset="0.433" stop-color="#B7B9BD"/>
</linearGradient>
<linearGradient id="paint6_linear_624_6608" x1="58.7493" y1="126.99" x2="165.278" y2="66.7432" gradientUnits="userSpaceOnUse">
<stop offset="0.2758" stop-color="#13A5FF"/>
<stop offset="1" stop-color="#B0D0FF"/>
</linearGradient>
<linearGradient id="paint7_linear_624_6608" x1="105.776" y1="171.067" x2="107.671" y2="167.851" gradientUnits="userSpaceOnUse">
<stop offset="0.1314" stop-color="#BDC8E0"/>
<stop offset="1" stop-color="#EAECEF"/>
</linearGradient>
<linearGradient id="paint8_linear_624_6608" x1="80.9829" y1="152.504" x2="131.379" y2="67" gradientUnits="userSpaceOnUse">
<stop stop-color="#EAECEF"/>
<stop offset="0.6675" stop-color="#F2F2F2"/>
</linearGradient>
<linearGradient id="paint9_linear_624_6608" x1="163.074" y1="108.602" x2="142.118" y2="73.0468" gradientUnits="userSpaceOnUse">
<stop offset="0.1108" stop-color="#A7D1FF"/>
<stop offset="0.6418" stop-color="#E3ECF5"/>
<stop offset="0.8136" stop-color="#E1EBF5"/>
<stop offset="0.8893" stop-color="#DAE8F7"/>
<stop offset="0.9459" stop-color="#CDE2F9"/>
<stop offset="0.993" stop-color="#BBDAFB"/>
<stop offset="1" stop-color="#B8D9FC"/>
</linearGradient>
</defs>
</svg>
