<svg width="238" height="250" viewBox="0 0 238 250" fill="none" xmlns="http://www.w3.org/2000/svg">
<path d="M142.936 172.738C112.399 155.078 62.9137 155.078 32.5605 172.738C2.20736 190.398 2.39132 219.095 32.9284 236.755C63.4655 254.415 112.95 254.415 143.304 236.755C173.657 219.095 173.473 190.398 142.936 172.738ZM123.804 224.43C104.12 235.835 72.2956 235.835 52.612 224.43C32.9284 213.025 32.7445 194.629 52.428 183.223C72.1116 171.818 103.936 171.818 123.62 183.223C143.304 194.629 143.304 213.025 123.804 224.43Z" fill="#DFDFDF"/>
<path d="M144.408 162.252V172.554C144.224 172.554 144.224 172.37 144.04 172.37V162.068C144.224 162.068 144.224 162.068 144.408 162.252Z" fill="#DFDFDF"/>
<path d="M30.9051 162.803V173.105L30.7212 173.289V162.987C30.7212 162.987 30.9051 162.987 30.9051 162.803Z" fill="#DFDFDF"/>
<path d="M153.422 178.992C153.606 179.176 153.79 179.176 153.79 179.36C153.606 179.176 153.422 179.176 153.422 178.992Z" fill="#DFDFDF"/>
<path d="M147.167 163.907V174.208C146.983 174.208 146.983 174.024 146.799 174.024V163.723C146.983 163.723 146.983 163.907 147.167 163.907Z" fill="#DFDFDF"/>
<path d="M29.0657 164.091V174.393C28.8817 174.393 28.8817 174.577 28.6978 174.577V164.275C28.6978 164.275 28.8817 164.275 29.0657 164.091Z" fill="#DFDFDF"/>
<path d="M28.6978 164.458C28.8817 164.458 28.8817 164.274 29.0657 164.274C28.8817 164.274 28.6978 164.274 28.6978 164.458Z" fill="#DFDFDF"/>
<path d="M21.1553 180.648C21.3392 180.464 21.5232 180.28 21.5232 180.28C21.5232 180.464 21.3392 180.648 21.1553 180.648Z" fill="#DFDFDF"/>
<path d="M25.5703 176.968C25.5703 173.473 25.5703 170.161 25.5703 166.666C25.7543 166.482 25.7543 166.482 25.9382 166.298V176.6C25.7543 176.784 25.7543 176.784 25.5703 176.968Z" fill="#DFDFDF"/>
<path d="M18.5798 183.591C18.7638 183.407 18.7638 183.407 18.9478 183.223C18.7638 183.407 18.5798 183.407 18.5798 183.591Z" fill="#DFDFDF"/>
<path d="M153.421 178.992L153.237 168.506C153.237 168.506 153.237 168.506 153.421 168.69C153.421 172.186 153.421 175.681 153.421 178.992Z" fill="#DFDFDF"/>
<path d="M153.422 178.992C153.422 175.497 153.422 172.186 153.422 168.69C153.606 168.69 153.606 168.874 153.606 168.874C153.606 172.37 153.606 175.681 153.606 179.176C153.606 179.176 153.606 179.176 153.422 178.992Z" fill="#DFDFDF"/>
<path d="M17.844 184.326C18.028 184.142 18.028 184.142 18.2119 183.958C18.028 184.142 17.844 184.326 17.844 184.326Z" fill="#DFDFDF"/>
<path d="M154.525 180.096C154.525 179.912 154.525 179.912 154.525 180.096V169.61C154.525 169.61 154.525 169.61 154.709 169.794C154.525 173.105 154.525 176.6 154.525 180.096Z" fill="#DFDFDF"/>
<path d="M154.525 180.095C154.525 176.6 154.525 173.289 154.525 169.793C154.709 169.977 154.709 169.977 154.893 170.161C154.893 173.657 154.893 176.968 154.893 180.463C154.709 180.279 154.709 180.095 154.525 180.095Z" fill="#DFDFDF"/>
<path d="M21.1553 180.647C21.1553 177.152 21.1553 173.841 21.1553 170.345C21.3392 170.161 21.3392 170.161 21.5232 169.978C21.5232 173.473 21.5232 176.784 21.5232 180.279C21.5232 180.463 21.3392 180.463 21.1553 180.647Z" fill="#DFDFDF"/>
<path d="M20.7876 170.897V181.199C20.6036 181.383 20.6036 181.383 20.4197 181.567V171.265C20.4197 171.265 20.6036 171.081 20.7876 170.897Z" fill="#DFDFDF"/>
<path d="M20.2357 171.266V181.567L20.0518 181.751L20.2357 171.266C20.2357 171.45 20.2357 171.45 20.2357 171.266Z" fill="#DFDFDF"/>
<path d="M20.2357 171.45V181.751L20.0518 181.935V171.634C20.0518 171.634 20.0518 171.634 20.2357 171.45Z" fill="#DFDFDF"/>
<path d="M19.6836 172.001L19.8667 171.818C19.8667 171.818 19.8667 171.818 19.6836 172.001Z" fill="#DFDFDF"/>
<path d="M19.8676 171.633V181.934L19.6836 182.118V171.817C19.8676 171.817 19.8676 171.817 19.8676 171.633Z" fill="#DFDFDF"/>
<path d="M19.6835 172.001V182.303L19.4995 182.487L19.6835 172.001Z" fill="#DFDFDF"/>
<path d="M19.4994 172.185V182.487C19.4994 182.671 19.3154 182.671 19.3154 182.855V172.553C19.3154 172.369 19.4994 172.185 19.4994 172.185Z" fill="#DFDFDF"/>
<path d="M19.3154 172.369C19.3154 172.185 19.4994 172.185 19.4994 172.001C19.4994 172.185 19.3154 172.369 19.3154 172.369Z" fill="#DFDFDF"/>
<path d="M19.3156 172.369V182.671C19.3156 182.671 19.3156 182.671 19.1316 182.855L19.3156 172.369Z" fill="#DFDFDF"/>
<path d="M19.1318 172.553V182.855C18.9479 183.039 18.9479 183.039 18.7639 183.223V172.921C18.9479 172.737 19.1318 172.553 19.1318 172.553Z" fill="#DFDFDF"/>
<path d="M18.7639 172.921V183.223C18.58 183.407 18.58 183.407 18.396 183.59V173.289C18.58 173.105 18.7639 173.105 18.7639 172.921Z" fill="#DFDFDF"/>
<path d="M18.3959 173.289V183.591C18.3959 183.775 18.2119 183.959 18.2119 183.959V173.657C18.2119 173.657 18.3959 173.473 18.3959 173.289Z" fill="#DFDFDF"/>
<path d="M18.2119 173.656V183.958C18.028 184.142 18.028 184.142 17.844 184.326V174.024C17.844 174.024 18.028 173.84 18.2119 173.656Z" fill="#DFDFDF"/>
<path d="M17.4763 174.576C17.6603 174.392 17.6603 174.392 17.8442 174.208C17.6603 174.208 17.6603 174.392 17.4763 174.576Z" fill="#DFDFDF"/>
<path d="M17.8442 174.208V184.51C17.6603 184.694 17.6603 184.694 17.4763 184.878V174.576C17.6603 174.392 17.6603 174.208 17.8442 174.208Z" fill="#DFDFDF"/>
<path d="M16.1885 186.349C16.1885 182.854 16.1885 179.543 16.1885 176.047C16.5564 175.495 16.9243 174.944 17.2922 174.576V184.877C17.1083 185.429 16.5564 185.797 16.1885 186.349Z" fill="#DFDFDF"/>
<path d="M14.3486 189.294C14.3486 185.799 14.3486 182.487 14.3486 178.992C14.9005 178.072 15.4524 176.969 16.1882 176.049C16.1882 179.544 16.1882 182.855 16.1882 186.351C15.6363 187.454 14.9005 188.374 14.3486 189.294Z" fill="#DFDFDF"/>
<path d="M12.5095 192.973C12.5095 189.477 12.5095 186.166 12.5095 182.671C13.0614 181.383 13.6133 180.279 14.3491 178.992C14.3491 182.487 14.3491 185.798 14.3491 189.293C13.6133 190.581 13.0614 191.685 12.5095 192.973Z" fill="#DFDFDF"/>
<path d="M41.0227 183.959C41.0227 183.775 41.2067 183.775 41.2067 183.591C41.2067 183.775 41.2067 183.775 41.0227 183.959Z" fill="#DFDFDF"/>
<path d="M40.4709 185.062C40.4709 184.878 40.6549 184.694 40.6549 184.694C40.6549 184.878 40.4709 184.878 40.4709 185.062Z" fill="#DFDFDF"/>
<path d="M40.103 185.615C40.103 185.431 40.287 185.247 40.287 185.247C40.287 185.431 40.287 185.431 40.103 185.615Z" fill="#DFDFDF"/>
<path d="M11.4053 196.099C11.4053 192.604 11.4053 189.293 11.4053 185.798C11.7732 184.878 12.1411 183.774 12.509 182.854C12.509 186.35 12.509 189.661 12.509 193.156C12.1411 194.076 11.7732 194.996 11.4053 196.099Z" fill="#DFDFDF"/>
<path d="M39.5513 186.718C39.5513 186.534 39.7352 186.35 39.7352 186.166C39.7352 186.534 39.7352 186.534 39.5513 186.718Z" fill="#DFDFDF"/>
<path d="M39.3674 187.27C39.3674 187.086 39.5514 186.902 39.5514 186.718C39.5514 187.086 39.5514 187.27 39.3674 187.27Z" fill="#DFDFDF"/>
<path d="M132.083 179.359C131.899 179.175 131.899 179.175 131.715 178.991C131.531 178.807 131.531 178.807 131.347 178.623C131.163 178.439 131.163 178.439 130.979 178.255C130.795 178.071 130.795 178.071 130.611 177.887C130.427 177.703 130.427 177.703 130.243 177.519C130.059 177.335 130.059 177.335 129.875 177.151C129.691 176.967 129.691 176.967 129.507 176.783C123.804 172.736 123.62 172.736 123.436 172.552C103.753 161.147 72.112 161.147 52.6124 172.552C52.4285 172.552 52.2445 172.736 52.2445 172.736C45.438 177.703 45.4381 177.887 45.2541 177.887C45.0701 178.071 45.0701 178.071 44.8862 178.255C44.7022 178.439 44.7022 178.439 44.5183 178.623C41.391 181.75 39.3674 185.245 38.4476 188.74C38.4476 188.74 38.4476 188.74 38.4476 188.557C38.4476 188.74 38.2637 189.108 38.2637 189.292C38.2637 189.476 38.0797 189.844 38.0797 190.028C38.0797 190.212 38.0797 190.58 38.0797 190.764C38.0797 190.948 38.0797 190.948 38.0797 191.132C38.0797 191.684 37.8958 192.236 37.8958 192.788V203.089C37.8958 202.537 37.8958 201.985 38.0797 201.434C38.0797 201.25 38.0797 201.25 38.0797 201.066C38.6316 196.835 40.6551 192.604 44.5183 188.74C44.7022 188.556 44.7022 188.557 44.8862 188.373C44.8862 188.373 45.0701 188.189 45.2541 188.005C45.2541 188.005 45.438 187.821 52.2445 182.854C52.4285 182.854 52.6124 182.67 52.6124 182.67C72.112 171.264 103.937 171.264 123.436 182.67C123.62 182.67 123.804 182.854 129.507 186.901C129.691 186.901 129.691 187.085 129.875 187.269C130.059 187.269 130.059 187.453 130.243 187.637C130.427 187.637 130.427 187.821 130.611 188.005C130.611 188.005 130.795 188.189 130.979 188.373C131.163 188.373 131.163 188.556 131.347 188.74C131.531 188.924 131.531 188.924 131.715 189.108C131.899 189.292 131.899 189.292 132.083 189.476C136.314 193.891 138.521 198.858 138.521 203.825V193.523C138.521 188.74 136.314 183.774 132.083 179.359Z" fill="#1196C3"/>
<path d="M166.483 204.01C166.483 196.284 163.171 188.558 156.365 181.751V171.45C162.987 178.44 166.483 185.982 166.483 193.709C166.483 196.836 166.483 201.067 166.483 204.01Z" fill="#DFDFDF"/>
<path d="M38.4476 206.402C38.2637 205.482 38.2637 204.562 38.2637 203.642V193.341C38.2637 194.261 38.2637 195.18 38.4476 196.1C38.4476 199.595 38.4476 203.091 38.4476 206.402Z" fill="#DFDFDF"/>
<path d="M38.4475 206.401C38.4475 206.033 38.4475 205.665 38.4475 205.298C38.4475 205.114 38.4475 204.93 38.4475 204.746C38.4475 204.562 38.4475 204.378 38.4475 204.194C38.4475 203.458 38.4475 202.538 38.4475 201.802C38.4475 200.331 38.4475 198.675 38.4475 197.203C38.4475 196.835 38.4475 196.468 38.4475 196.1C38.4475 196.651 38.6315 197.203 38.8154 197.755C38.8154 201.25 38.8154 204.562 38.8154 208.057C38.6315 207.505 38.6315 206.953 38.4475 206.401Z" fill="#DFDFDF"/>
<path d="M38.8152 208.057C38.8152 207.873 38.8152 207.689 38.8152 207.322C38.8152 207.138 38.8152 206.954 38.8152 206.586C38.8152 203.642 38.8152 200.699 38.8152 197.572C39.3671 199.779 40.2869 201.803 41.7585 204.01C41.7585 207.506 41.7585 210.817 41.7585 214.312C40.2869 212.288 39.3671 210.265 38.8152 208.057Z" fill="#DFDFDF"/>
<path d="M41.7585 214.311C41.7585 214.127 41.7585 213.76 41.7585 213.576C41.7585 212.84 41.7585 211.92 41.7585 211.184C41.7585 210.08 41.7585 209.161 41.7585 208.057C41.7585 206.769 41.7585 205.481 41.7585 204.01C42.3104 204.746 42.6783 205.297 43.2302 206.033C43.2302 209.529 43.2302 212.84 43.2302 216.335C42.6783 215.783 42.1265 215.047 41.7585 214.311Z" fill="#DFDFDF"/>
<path d="M43.2305 216.519C43.2305 216.335 43.2305 216.152 43.2305 215.968C43.2305 215.784 43.2305 215.6 43.2305 215.416C43.2305 212.288 43.2305 209.345 43.2305 206.218C45.254 208.609 48.0134 211.001 51.3246 213.208V223.51C48.0134 221.302 45.254 218.911 43.2305 216.519Z" fill="#DFDFDF"/>
<path d="M31.6408 224.429C31.0889 224.062 30.5371 223.694 29.9852 223.326C29.4333 222.958 29.0654 222.774 28.5135 222.406C27.9617 222.038 27.4098 221.67 26.8579 221.118C26.306 220.75 25.9381 220.382 25.3862 220.014C24.6504 219.463 23.7306 218.727 22.9948 217.991C22.6269 217.623 22.075 217.255 21.7071 216.887C21.3391 216.519 20.7873 215.967 20.4194 215.599C20.0514 215.232 19.6835 214.68 19.1316 214.312C18.5798 213.76 18.0279 213.024 17.476 212.472C17.1081 212.104 16.7402 211.552 16.3723 211.184C16.0043 210.817 15.8204 210.265 15.4525 209.897C15.0846 209.345 14.7166 208.793 14.5327 208.425C14.1648 207.873 13.7968 207.321 13.6129 206.769C13.4289 206.218 13.061 205.666 12.8771 205.298C12.6931 204.93 12.5091 204.562 12.3252 204.01C12.1412 203.458 11.7733 202.722 11.5893 202.171C11.2214 201.251 11.0375 200.515 10.8535 199.595V199.411C10.8535 199.043 10.6696 198.675 10.6696 198.307C10.8535 197.572 11.0375 196.652 11.2214 195.916C11.2214 192.421 11.2214 189.109 11.2214 185.614C10.8535 186.902 10.4856 188.19 10.3016 189.477C10.1177 190.397 10.1177 191.501 10.1177 192.421C10.1177 192.605 10.1177 192.973 10.1177 193.157V203.458C10.1177 204.93 10.3016 206.218 10.4856 207.689C10.6696 208.425 10.6696 208.977 10.8535 209.713V209.897C10.8535 210.265 11.0375 210.633 11.0375 210.817C11.0375 210.817 11.0375 210.817 11.0375 210.633C11.0375 210.633 11.0375 210.633 11.0375 210.817C11.0375 211.184 11.2214 211.368 11.2214 211.736C11.2214 211.92 11.4054 212.104 11.4054 212.472C11.5893 213.024 11.7733 213.76 12.1412 214.312C12.3252 214.68 12.5091 215.048 12.6931 215.599C12.8771 216.151 13.245 216.703 13.4289 217.071C13.7968 217.623 13.9808 218.175 14.3487 218.727C14.7166 219.279 15.0846 219.831 15.2685 220.198C15.6364 220.566 15.8204 221.118 16.1883 221.486C16.5562 221.854 16.9241 222.406 17.2921 222.774C17.8439 223.326 18.3958 224.062 18.9477 224.613C19.3156 224.981 19.6835 225.533 20.2354 225.901C20.6033 226.269 21.1552 226.821 21.5231 227.189C21.891 227.557 22.2589 227.925 22.8108 228.293C23.5466 229.028 24.2825 229.58 25.2023 230.316C25.7541 230.684 26.1221 231.052 26.6739 231.42C27.2258 231.788 27.7777 232.156 28.3296 232.708C28.8814 233.076 29.2494 233.443 29.8012 233.627C30.3531 233.995 30.721 234.179 31.0889 234.547C31.0889 234.547 31.2729 234.547 31.2729 234.731L31.6408 224.429Z" fill="#1196C3"/>
<path d="M51.3244 213.023V223.325L31.6409 234.73V224.428L51.3244 213.023Z" fill="#1196C3"/>
<path d="M166.298 206.585C166.298 205.849 166.482 205.113 166.482 204.562C166.482 204.378 166.482 204.378 166.482 204.194V193.892V193.708C166.482 193.892 166.482 193.892 166.482 194.076C166.482 194.812 166.482 195.548 166.298 196.099C166.298 196.467 166.298 196.835 166.114 197.019C166.114 197.571 165.93 198.123 165.93 198.675C165.93 199.043 165.747 199.595 165.563 199.963C165.379 200.514 165.195 201.25 165.011 201.802C165.011 201.986 165.011 201.986 164.827 202.17C164.643 202.722 164.459 203.274 164.275 203.826C164.275 204.01 164.275 204.01 164.091 204.194C163.907 204.746 163.539 205.481 163.171 206.033C162.435 207.321 161.699 208.793 160.78 210.08L160.596 210.264C160.228 210.816 159.86 211.368 159.308 211.92L159.124 212.104C158.572 212.656 158.204 213.208 157.652 213.759L157.468 213.943C155.813 215.783 153.789 217.623 151.582 219.462C151.582 219.462 151.398 219.462 151.398 219.646C150.662 220.198 149.926 220.75 149.19 221.302C149.19 221.302 149.19 221.302 149.006 221.302C147.351 222.406 145.695 223.509 143.855 224.613V234.915C144.039 234.731 144.223 234.731 144.407 234.547C146.063 233.627 147.535 232.523 149.006 231.42C149.006 231.42 149.006 231.42 149.19 231.42C149.926 230.868 150.662 230.316 151.398 229.764C151.398 229.764 151.582 229.764 151.582 229.58C153.789 227.74 155.629 226.085 157.468 224.061L157.652 223.877C157.836 223.693 158.02 223.509 158.204 223.141C158.388 222.957 158.388 222.773 158.572 222.773C158.756 222.589 158.94 222.406 159.124 222.222L159.308 222.038C159.676 221.486 160.228 220.934 160.596 220.382L160.78 220.198C161.699 218.91 162.435 217.623 163.171 216.151C163.539 215.599 163.723 214.863 164.091 214.311C164.091 214.127 164.275 214.127 164.275 213.943C164.459 213.392 164.643 212.84 164.827 212.288C164.827 212.104 164.827 212.104 165.011 211.92C165.195 211.368 165.379 210.632 165.563 210.08V209.896V209.712C165.563 209.528 165.563 209.528 165.563 209.344C165.563 209.344 165.563 209.344 165.563 209.161C165.563 209.161 165.563 209.161 165.563 209.344C165.563 209.161 165.563 208.977 165.747 208.793C165.93 208.241 165.93 207.689 165.93 207.137C166.114 207.137 166.298 206.953 166.298 206.585Z" fill="#1196C3"/>
<path d="M144.407 225.165C144.407 228.66 144.407 231.971 144.407 235.466C144.591 235.283 144.775 235.283 144.959 235.099C144.959 231.603 144.959 228.292 144.959 224.797C144.775 224.981 144.591 225.165 144.407 225.165Z" fill="#EA5E7A"/>
<path d="M143.488 161.699C143.672 161.883 144.04 161.883 144.224 162.067C144.592 162.251 144.776 162.435 144.959 162.435C145.327 162.619 145.511 162.803 145.695 162.803C146.063 162.987 146.247 163.171 146.431 163.171C146.799 163.355 146.983 163.539 147.167 163.539C147.351 163.539 147.351 163.723 147.535 163.723C148.271 164.275 148.271 164.275 148.455 164.275C148.639 164.275 148.639 164.458 148.823 164.458C149.191 164.826 149.375 164.826 149.558 165.01C149.926 165.194 150.11 165.378 150.11 165.378C150.478 165.562 150.662 165.746 150.662 165.746C151.03 165.93 151.214 166.114 151.214 166.298C151.582 166.482 151.766 166.666 151.766 166.85C152.134 167.034 152.134 167.218 152.318 167.402C152.686 167.586 152.686 167.77 152.87 167.954C153.054 168.138 153.238 168.322 153.422 168.506C153.606 168.69 153.789 168.874 153.973 168.874C154.157 169.057 154.341 169.241 154.525 169.425C154.709 169.609 154.893 169.793 155.077 169.977C155.261 170.161 155.445 170.345 155.629 170.529C155.813 170.713 155.997 170.897 156.181 171.081C156.365 171.265 156.549 171.449 156.733 171.633C173.289 188.741 169.426 210.632 144.592 225.349L124.724 213.943C140.361 204.561 142.936 190.397 132.266 179.543C132.082 179.359 132.082 179.359 131.898 179.175C131.714 178.991 131.714 178.991 131.531 178.807C131.347 178.623 131.347 178.623 131.163 178.439C130.979 178.255 130.979 178.255 130.795 178.071C130.611 177.887 130.611 177.887 130.427 177.704C130.243 177.52 130.243 177.52 130.059 177.336C129.875 177.152 129.875 177.152 129.691 176.968C123.988 172.921 123.804 172.921 123.62 172.737C103.937 161.331 72.2959 161.331 52.7963 172.737C52.6123 172.737 52.4284 172.921 52.4284 172.921C45.6219 177.887 45.6219 178.071 45.4379 178.071C45.254 178.255 45.254 178.255 45.07 178.439C44.8861 178.623 44.8861 178.623 44.7021 178.807C34.2165 189.477 36.424 203.274 51.1406 212.84L31.641 224.429C7.54247 209.712 3.8633 187.637 20.6035 170.897C20.7875 170.713 20.9714 170.529 21.1554 170.345C21.3394 170.161 21.5233 169.977 21.7073 169.793C21.8912 169.609 22.0752 169.425 22.2592 169.241C22.4431 169.057 22.6271 168.874 22.811 168.874C22.995 168.69 23.1789 168.506 23.3629 168.322C23.5469 168.138 23.7308 167.954 23.9148 167.954C24.0987 167.77 24.2827 167.586 24.4667 167.586C24.8346 167.402 24.8346 167.218 25.0185 167.218C25.3864 167.034 25.3864 166.85 25.5704 166.85C25.9383 166.666 25.9383 166.482 26.1223 166.482C26.4902 166.298 26.4902 166.114 26.6742 166.114C27.0421 165.93 27.226 165.746 27.226 165.746C27.5939 165.562 27.7779 165.378 27.7779 165.378C28.1458 165.194 28.3298 165.01 28.3298 165.01C28.6977 164.642 28.8817 164.642 28.8817 164.642C29.4335 163.907 29.4335 163.723 29.6175 163.723C29.8015 163.723 29.8014 163.539 29.9854 163.539C30.3533 163.171 30.5373 163.171 30.7212 162.987C31.0892 162.803 31.2731 162.619 31.4571 162.619C31.825 162.435 32.009 162.251 32.1929 162.251C32.5608 162.067 32.9287 161.883 33.1127 161.699C63.4659 144.039 112.767 144.039 143.488 161.699Z" fill="#86E563"/>
<path d="M144.408 225.166L144.224 235.467L124.54 224.062V213.76L144.408 225.166Z" fill="#1196C3"/>
<path d="M204.01 44.1499L232.34 60.5222C234.731 61.9939 236.755 65.3051 236.755 68.2485V84.9887" stroke="#F9FBFC" stroke-width="0.7827" stroke-miterlimit="10"/>
<path d="M232.155 114.423L129.874 55.3721C127.483 53.9004 125.459 50.5892 125.459 47.6458L125.643 3.86372C125.643 1.10434 127.667 0.000590803 130.058 1.2883L162.251 19.8681" stroke="#F9FBFC" stroke-width="0.7827" stroke-miterlimit="10"/>
<path d="M34.4006 89.7715V91.795C34.4006 92.8988 35.6883 93.6346 36.7921 93.0827L46.174 87.564C46.7259 87.38 46.9098 86.8282 46.9098 86.2763V84.2527C46.9098 83.149 45.6221 82.4131 44.7023 82.965L35.3204 88.4838C34.7686 88.6677 34.4006 89.2196 34.4006 89.7715Z" fill="#F2F9FF"/>
<path d="M4.41504 116.813V118.837C4.41504 119.941 5.70275 120.676 6.62254 120.124L46.1736 97.4976C46.7255 97.3136 46.9095 96.7617 46.9095 96.2099V94.1863C46.9095 93.0826 45.6217 92.3467 44.702 92.8986L5.15087 115.526C4.78296 115.709 4.41504 116.261 4.41504 116.813Z" fill="#F2F9FF"/>
<g opacity="0.53">
<path d="M20.6038 127.484V129.507C20.6038 130.611 21.8915 131.347 22.8113 130.795L45.99 117.55C46.5419 117.366 46.7259 116.814 46.7259 116.262V114.055C46.7259 112.951 45.4382 112.215 44.5184 112.767L21.3396 126.012C20.9717 126.38 20.6038 126.932 20.6038 127.484Z" fill="#F2F9FF"/>
</g>
<path d="M10.4858 123.252V125.276C10.4858 126.379 11.7735 127.115 12.6933 126.563L45.9898 107.432C46.5417 107.248 46.7257 106.696 46.7257 106.144V104.12C46.7257 103.017 45.438 102.281 44.5182 102.833L11.4056 121.964C10.8538 122.148 10.4858 122.7 10.4858 123.252Z" fill="#F2F9FF"/>
<path d="M222.958 64.0181C225.349 65.4897 227.373 68.801 227.373 71.7443L227.189 115.526C227.189 118.286 225.165 119.39 222.774 118.102L120.677 58.8672C118.286 57.3956 116.262 54.0843 116.262 51.141L116.446 7.35884C116.446 4.59946 118.469 3.49571 120.861 4.78342L222.958 64.0181Z" fill="#86E563"/>
<path d="M136.681 29.9856V31.6412C136.681 32.561 135.577 33.2968 134.841 32.745L126.931 28.146C126.563 27.962 126.379 27.4102 126.379 27.0422V25.3866C126.379 24.4668 127.483 23.731 128.219 24.2829L136.129 28.8818C136.497 29.0658 136.681 29.4337 136.681 29.9856Z" fill="#F9FBFC"/>
<path d="M161.699 52.6132V54.2688C161.699 55.1886 160.596 55.9244 159.86 55.3725L126.931 36.4248C126.563 36.2408 126.379 35.689 126.379 35.3211V33.6654C126.379 32.7456 127.483 32.0098 128.219 32.5617L160.964 51.5094C161.515 51.6934 161.699 52.0613 161.699 52.6132Z" fill="#F9FBFC"/>
<g opacity="0.53">
<path d="M148.087 61.4427V63.0983C148.087 64.0181 146.983 64.7539 146.247 64.2021L126.931 53.1646C126.563 52.9806 126.379 52.4287 126.379 52.0608V50.4052C126.379 49.4854 127.483 48.7496 128.219 49.3014L147.535 60.3389C147.903 60.5229 148.087 60.8908 148.087 61.4427Z" fill="#F9FBFC"/>
</g>
<path d="M156.549 57.9483V59.6039C156.549 60.5237 155.445 61.2595 154.709 60.7076L126.931 44.8872C126.563 44.7033 126.379 44.1514 126.379 43.7835V42.1278C126.379 41.208 127.483 40.4722 128.219 41.0241L155.997 57.0285C156.365 57.0285 156.549 57.5804 156.549 57.9483Z" fill="#F9FBFC"/>
<path d="M198.675 73.0322C198.859 73.0322 198.859 73.2162 199.043 73.2162C199.043 73.2162 199.043 73.2162 199.227 73.4002C199.963 74.3199 199.043 76.7114 198.123 76.1595C198.123 76.1595 198.123 76.1595 197.939 76.1595C197.939 76.1595 197.939 76.1595 197.755 75.9756C197.755 75.9756 197.755 75.9756 197.755 75.7916C197.571 75.4237 197.387 75.2397 197.387 74.8718C197.387 74.136 197.571 73.2162 197.755 73.2162C197.939 73.2162 198.123 72.6643 198.675 73.0322Z" fill="#E6F4FF"/>
<path d="M197.939 75.9756C198.307 77.8152 198.491 79.6548 198.859 81.3104C198.859 81.3104 197.388 82.966 195.732 82.7821C195.364 82.7821 195.18 83.3339 195.18 83.3339L194.628 81.8623C194.628 81.8623 193.34 80.2066 193.156 78.735V78.367V77.4473C194.996 77.6312 197.388 77.2633 197.939 75.9756Z" fill="#E6F4FF"/>
<path d="M198.675 81.1268L199.411 81.6787C199.411 81.8626 199.779 82.9664 199.595 83.8862C199.411 84.806 197.572 86.6456 197.02 86.2776C196.652 85.9097 195.916 84.0701 195.916 84.0701C195.732 84.0701 195.364 83.8862 195.18 83.7022C194.628 83.3343 194.076 82.7824 193.892 82.7824L192.421 82.9664C192.237 82.0466 192.237 80.391 192.237 80.207L192.421 78.1835L192.605 77.9995C192.605 78.1835 192.605 78.1835 192.605 78.3674C192.789 79.8391 194.076 81.3108 194.076 81.4947L194.628 82.9664C194.628 82.9664 194.996 82.4145 195.18 82.4145C197.388 82.9664 198.675 81.3108 198.675 81.1268Z" fill="#AEC4E1"/>
<path d="M210.448 84.0697C210.448 92.8997 204.745 96.9468 197.387 93.8195C202.354 95.8431 206.585 94.7393 208.792 90.8762C206.953 87.5649 202.538 83.8858 199.595 81.6783L198.859 81.1264C198.675 79.4708 198.307 77.6312 198.123 75.9755C198.123 75.9755 198.123 75.9756 198.307 76.1595C198.307 76.1595 198.307 76.1595 198.491 76.1595C199.411 76.7114 200.33 74.3199 199.595 73.4001C200.146 72.2964 200.698 70.8247 200.146 69.721C199.411 67.8814 198.307 66.9616 198.307 66.9616C198.307 66.9616 198.123 66.5937 196.651 63.8343C195.915 62.3626 194.628 61.0749 193.34 60.3391C192.236 59.7872 191.132 59.4193 190.397 59.7872C188.557 60.523 189.845 64.2022 190.029 64.3862C190.029 64.7541 188.373 72.2964 189.661 75.2397C189.845 75.6076 190.213 75.9755 190.764 76.3435C191.5 76.7114 192.236 76.8953 193.156 77.0793V77.9991C190.765 77.2633 187.821 76.3435 186.166 76.1595C184.326 76.7114 184.142 77.8151 184.142 79.8387C186.717 84.6216 190.213 89.0366 194.444 91.796C186.717 86.4612 180.463 75.4237 180.647 66.4097C180.647 56.8439 187.453 52.7968 195.915 57.7637C203.642 62.7305 210.448 74.5039 210.448 84.0697Z" fill="#C7D8F2"/>
<path d="M192.972 60.3391C194.26 61.0749 195.548 62.3627 196.284 63.8343C197.755 66.5937 197.939 66.7777 197.939 66.9616C197.939 66.9616 199.043 67.8814 199.779 69.721C200.331 70.8248 199.779 72.2964 199.227 73.4002C199.227 73.4002 199.227 73.2162 199.043 73.2162C198.859 73.0323 198.859 73.0323 198.675 73.0323C197.939 72.6643 197.755 73.4002 197.755 73.4002C197.755 73.4002 197.387 74.136 197.387 75.0558L197.203 74.6879C197.203 74.5039 196.651 71.7445 196.835 70.2729C196.835 69.3531 195.732 67.5135 194.076 66.4097C193.892 66.2258 193.892 66.2258 193.708 66.2258C193.156 65.8579 192.788 66.0418 192.236 65.8579C191.685 65.8579 191.133 65.6739 190.213 65.122C190.029 64.9381 189.661 64.7541 189.293 64.5702C189.293 64.3862 187.821 60.707 189.661 59.9712C190.765 59.6033 191.869 59.7872 192.972 60.3391Z" fill="#4B5CC0"/>
<path d="M195.18 55.5556C185.614 50.0368 177.888 54.4518 177.888 65.4893C177.888 76.3429 185.614 89.7719 194.996 95.2906C204.562 100.809 212.288 96.3944 212.288 85.3569C212.472 74.3194 204.746 61.0743 195.18 55.5556ZM197.572 94.0029C197.388 94.0029 197.388 94.0029 197.388 93.8189C197.204 93.8189 197.02 93.635 196.836 93.635C196.652 93.635 196.468 93.451 196.284 93.451C196.284 93.451 196.1 93.451 196.1 93.2671C196.1 93.2671 195.916 93.2671 195.732 93.0831C195.732 93.0831 195.548 93.0831 195.548 92.8992L195.364 92.7152C195.364 92.7152 195.18 92.7152 195.18 92.5312C195.18 92.5312 194.996 92.5312 194.996 92.3473C194.996 92.3473 194.812 92.3473 194.812 92.1633C194.812 92.1633 194.628 92.1633 194.628 91.9794C194.628 91.9794 194.444 91.9794 194.444 91.7954C194.444 91.7954 194.26 91.7954 194.26 91.6114C194.076 91.6114 194.076 91.4275 193.892 91.4275C193.708 91.4275 193.708 91.2435 193.524 91.2435C193.524 91.2435 193.524 91.2435 193.34 91.2435L193.157 91.0596C192.973 91.0596 192.973 90.8756 192.789 90.8756C185.614 85.3569 180.279 75.0552 180.279 66.4091C180.279 56.8433 187.086 52.7962 195.548 57.7631C204.01 62.546 210.817 74.3193 210.633 84.0692V84.2531V84.4371C210.633 84.4371 210.633 84.4371 210.633 84.621C210.633 84.621 210.633 84.621 210.633 84.805C210.633 84.805 210.633 84.805 210.633 84.9889C210.633 84.9889 210.633 84.9889 210.633 85.1729C210.633 85.1729 210.633 85.1729 210.633 85.3569C210.633 85.3569 210.633 85.3569 210.633 85.5408C210.633 85.5408 210.633 85.5408 210.633 85.7248C210.633 85.7248 210.633 85.7248 210.633 85.9087C210.633 85.9087 210.633 85.9087 210.633 86.0927C210.633 86.0927 210.633 86.0927 210.633 86.2767C210.633 86.2767 210.633 86.2767 210.633 86.4606C210.633 86.4606 210.633 86.4606 210.633 86.6446C210.633 86.6446 210.633 86.6446 210.633 86.8285C210.633 86.8285 210.633 86.8285 210.633 87.0125C210.633 87.0125 210.633 87.0125 210.633 87.1964C210.633 87.1964 210.633 87.1964 210.633 87.3804C210.633 87.3804 210.633 87.3804 210.633 87.5644C210.633 87.5644 210.633 87.5644 210.633 87.7483C210.633 87.7483 210.633 87.7483 210.633 87.9323C210.633 87.9323 210.633 87.9323 210.633 88.1162C210.633 88.1162 210.633 88.1162 210.633 88.3002C210.633 88.3002 210.633 88.3002 210.633 88.4842C210.633 88.4842 210.633 88.4842 210.633 88.6681C210.633 88.6681 210.633 88.6681 210.633 88.8521C210.633 88.8521 210.633 88.8521 210.633 89.036C210.633 89.036 210.633 89.036 210.633 89.22C210.633 89.22 210.633 89.22 210.633 89.4039C210.633 89.4039 210.633 89.4039 210.633 89.5879C210.633 89.5879 210.633 89.5879 210.633 89.7719C210.633 89.7719 210.633 89.7719 210.633 89.9558C210.633 89.9558 210.633 89.9558 210.633 90.1398C210.633 90.1398 210.633 90.1398 210.633 90.3237C210.633 90.3237 210.633 90.3237 210.633 90.5077C210.633 90.5077 210.633 90.5077 210.633 90.6917V90.8756C207.137 94.5548 202.722 96.0264 197.572 94.0029ZM197.939 94.1869C198.123 94.1869 198.123 94.3708 198.307 94.3708C198.123 94.1869 197.939 94.1869 197.939 94.1869ZM197.388 94.0029C197.572 94.0029 197.572 94.0029 197.388 94.0029Z" fill="#E6F4FF"/>
<path d="M197.019 93.8194C197.019 93.8194 196.836 93.8194 196.836 93.6362C196.836 93.6362 197.019 93.6362 197.019 93.8194Z" fill="#94C3FF"/>
<path d="M197.02 93.8188C197.02 93.8188 197.203 93.8188 197.203 94.002C197.203 93.8188 197.203 93.8188 197.02 93.8188Z" fill="#94C3FF"/>
<path d="M193.892 66.2259C194.076 66.2259 194.076 66.4099 194.26 66.4099C195.732 67.5136 196.835 69.3532 197.019 70.273C197.019 71.7447 197.387 74.5041 197.387 74.688L197.571 75.056C197.571 75.4239 197.755 75.7918 197.939 75.9757V76.1597C197.571 77.2635 194.996 77.6314 192.788 77.2635C191.869 77.0795 191.133 76.8955 190.397 76.5276C189.845 76.1597 189.477 75.9757 189.293 75.4239C188.005 72.2966 189.477 64.9382 189.661 64.5703C190.029 64.7543 190.213 64.9382 190.581 65.1222C191.501 65.6741 192.237 65.858 192.604 65.858C192.972 65.858 193.34 65.858 193.892 66.2259Z" fill="#E6F4FF"/>
<path d="M199.411 81.6784C202.354 83.8859 206.769 87.5651 208.609 90.8763C206.402 94.7395 201.803 96.0272 196.652 93.6357C196.468 93.6357 196.284 93.4518 196.1 93.4518C195.916 93.4518 195.916 93.2678 195.916 93.2678C195.732 93.2678 195.732 93.0838 195.548 93.0838C195.364 93.0838 195.364 92.8999 195.364 92.8999L195.18 92.7159C195.18 92.7159 194.996 92.7159 194.996 92.532C194.812 92.532 194.812 92.348 194.812 92.348H194.628C194.628 92.348 194.444 92.348 194.444 92.1641C194.26 92.1641 194.26 91.9801 194.26 91.9801C194.076 91.9801 194.076 91.7961 194.076 91.7961C190.029 89.0368 186.35 84.6218 183.775 79.8388C183.775 77.9993 183.959 76.7115 185.798 76.1597C187.454 76.3436 190.397 77.0795 192.789 77.9993V78.3672C192.789 78.1832 192.789 78.1832 192.789 77.9993L192.605 78.1832L192.421 80.2067C192.421 80.3907 192.421 82.0463 192.605 82.9661L194.076 82.7822C194.076 82.7822 194.628 83.334 195.364 83.702C195.548 83.8859 195.916 84.0699 196.1 84.0699C196.1 84.2538 196.836 85.9095 197.204 86.2774C197.572 86.4613 199.595 84.8057 199.779 83.8859C199.779 82.9661 199.595 81.8624 199.411 81.6784Z" fill="#4B5CC0"/>
<path d="M129.875 128.956V147.351L104.304 162.068V143.672L129.875 128.956Z" fill="#CBDCEB"/>
<path d="M107.8 49.3025L109.824 47.8308L112.399 42.312C112.399 42.312 113.871 41.7602 114.239 41.5762C114.607 41.3923 117.366 42.1281 117.366 42.1281C117.366 42.1281 118.654 40.6564 119.022 40.2885C119.389 40.1045 120.861 38.4489 121.413 38.8168C121.965 39.1848 121.965 39.7366 121.597 40.2885C121.229 40.8404 120.125 41.9441 120.125 41.9441L118.838 45.0714L119.022 46.1752C119.022 46.1752 119.757 46.1752 119.941 46.911C120.125 47.6468 120.125 48.3827 119.389 48.5666C118.47 48.7506 117.918 49.1185 117.918 49.1185C117.918 49.1185 116.262 50.2223 115.342 50.5902C114.423 50.9581 113.319 51.1421 113.319 51.1421L112.215 52.7977L107.8 49.3025Z" fill="#FF9554"/>
<path d="M119.573 47.0935C119.573 46.9096 119.573 46.9096 119.573 47.0935C119.021 47.0935 118.469 47.0935 118.101 47.2775C117.366 47.6454 116.446 48.9331 116.078 49.1171C115.71 49.485 113.502 50.4048 112.399 49.485C111.663 48.7492 110.007 48.3812 109.087 48.1973L107.616 49.301L112.031 52.7963L112.583 51.3246C112.583 51.3246 113.686 51.1406 114.606 50.7727C115.526 50.4048 117.182 49.301 117.182 49.301C117.182 49.301 117.917 48.9331 118.653 48.7492C119.757 48.3812 119.757 47.6454 119.573 47.0935Z" fill="#FF8161"/>
<path d="M105.592 50.2218L108.167 48.1982C108.167 48.1982 112.399 49.118 112.95 52.6132L110.927 54.8207L105.592 50.2218Z" fill="#F9FBFC"/>
<path d="M91.7957 61.4427L105.593 48.7495C105.593 48.7495 111.847 49.1174 112.399 54.2683L98.7861 69.9047C98.7861 69.9047 91.7957 68.617 91.7957 61.4427Z" fill="#575973"/>
<path d="M118.838 132.451L119.757 136.13C119.757 136.13 120.861 140.913 120.861 141.649C120.677 142.2 120.309 142.2 120.309 142.2C120.309 142.2 118.47 143.488 117.734 143.488C116.998 143.488 114.607 143.672 114.055 143.304C113.503 142.752 113.135 141.281 112.951 140.545C112.767 139.809 113.503 139.441 113.503 139.441C113.503 139.441 113.319 138.521 113.687 137.234C113.871 135.946 114.239 135.394 114.239 135.394L114.055 134.106L118.838 132.451Z" fill="#FF9554"/>
<path d="M120.677 141.833C120.493 141.833 120.125 141.833 119.941 141.833C119.573 141.833 118.47 142.568 117.918 142.568C117.182 142.568 116.262 143.12 115.71 142.568C115.158 142.2 114.974 141.833 115.158 141.097C115.526 140.545 115.158 139.993 114.974 139.809C114.79 139.441 114.79 138.153 115.158 137.602C115.342 137.05 116.078 136.13 117.182 135.394C117.918 135.026 118.837 133.922 119.205 133.187L118.837 132.451L113.871 133.922L114.055 135.21C114.055 135.21 113.871 135.762 113.503 137.05C113.319 138.337 113.319 139.257 113.319 139.257C113.319 139.257 112.583 139.625 112.767 140.361C112.951 141.097 113.135 142.568 113.871 143.12C114.422 143.672 116.63 143.304 117.55 143.304C118.47 143.304 120.125 142.017 120.125 142.017C120.125 142.017 120.493 142.2 120.677 141.833Z" fill="#FF8161"/>
<path d="M111.663 131.899L112.767 134.474C112.767 134.474 114.422 135.21 116.262 134.842C118.102 134.29 119.573 132.634 119.573 132.634L118.654 130.611L111.663 131.899Z" fill="#F9FBFC"/>
<path d="M65.8572 195.733L65.4893 201.436C65.4893 202.356 65.8572 203.275 66.777 203.643C67.5128 204.011 68.6166 204.195 70.2722 204.011C73.5834 203.459 75.0551 201.804 75.607 200.7C76.1589 199.596 82.7814 195.181 81.8616 192.79C80.5739 190.582 78.3664 192.79 75.9749 192.79C73.7674 192.79 68.9845 191.686 65.8572 195.733Z" fill="#171E26"/>
<path d="M67.3287 107.801C67.3287 107.801 65.8571 146.616 66.5929 158.757C66.5929 158.757 63.4656 189.11 65.1212 196.285C65.1212 196.285 70.456 200.148 75.055 197.021C76.1587 196.653 76.1587 195.181 76.1587 195.181C76.1587 195.181 79.286 166.667 80.0219 158.021C80.7577 149.191 86.8283 123.069 85.7246 117.367C84.4369 111.48 77.2625 103.57 67.3287 107.801Z" fill="#171E26"/>
<path d="M91.9793 203.827C91.9793 203.827 89.9558 210.265 91.4275 211.737C92.8991 213.209 94.9227 213.577 96.2104 213.209C97.682 212.841 98.9698 212.105 98.9698 212.105L99.3377 210.817L99.8895 211.737C99.8895 211.737 100.625 211.553 101.729 211.001C102.833 210.449 105.592 209.346 106.88 208.61C108.168 207.874 110.191 206.586 110.375 204.931C110.559 203.275 104.672 203.827 103.017 203.827C101.361 203.827 100.441 203.275 99.8895 203.275C99.3377 203.275 93.267 204.011 93.267 204.011" fill="#171E26"/>
<path d="M101.545 107.065C101.545 107.065 103.201 112.767 103.201 124.541C103.201 136.13 102.097 165.564 102.097 165.564C102.097 165.564 101.545 195.365 100.994 203.091C100.994 203.091 97.4983 207.69 91.4277 204.195C88.3004 200.7 89.4041 198.124 89.4041 198.124C89.4041 198.124 85.357 179.912 86.8287 163.172C86.8287 163.172 81.3099 129.14 80.2062 125.093C79.1024 121.046 61.4424 119.206 68.4328 99.5225L101.545 107.065Z" fill="#1F2F3F"/>
<path d="M105.04 69.7211C105.224 67.1457 103.937 64.7542 101.913 63.4665C97.3141 60.3392 90.8755 56.4761 86.8284 54.2686C81.6776 51.5092 76.5268 48.7498 73.7674 48.5659C65.8572 47.83 61.2582 55.1884 61.994 64.7542C62.362 70.6409 64.0176 77.0794 66.0411 83.7019C66.9609 86.4613 67.5128 91.6122 67.6967 96.2111C67.6967 98.4186 67.5128 100.994 66.777 102.466C65.4892 105.593 64.2015 117.734 64.2015 117.734C64.2015 117.734 72.8476 126.564 83.8851 127.3C95.1066 128.036 99.3376 125.828 99.3376 125.828L100.073 120.678L101.545 125.277C101.545 125.277 103.569 124.541 103.753 122.517C103.937 120.678 101.913 105.041 101.545 102.098C102.281 95.8432 103.385 86.4613 103.937 82.2303C104.672 77.9992 104.856 73.5842 105.04 69.7211Z" fill="#63687A"/>
<path d="M96.946 45.9898C97.6818 43.5984 98.0498 33.6646 96.946 30.1694C95.6583 25.7544 91.4273 21.8913 84.9887 22.2592C78.7341 22.6271 74.3191 25.2025 72.6635 29.9854C71.7437 32.7448 71.9277 37.5277 73.5833 41.0229C74.687 43.4144 77.2625 45.4379 80.0218 46.9096C82.0454 48.0134 87.5641 50.5888 90.1395 51.3246C93.4508 52.0604 95.6583 49.485 96.946 45.9898Z" fill="#FF9554"/>
<path d="M78.7341 44.3352C81.8614 43.0475 89.0358 44.5191 91.4273 46.5427L89.0358 56.4764C84.4368 56.6604 77.9983 54.4529 76.5266 52.6133L78.7341 44.3352Z" fill="#FF9554"/>
<path d="M91.4276 39.7358C90.1399 37.8962 87.5645 38.6321 87.5645 41.3915C87.5645 44.7027 89.772 46.5423 91.4276 46.5423C91.4276 44.3348 91.4276 42.1273 91.4276 39.7358Z" fill="#FF9554"/>
<path d="M77.2627 49.3018C77.2627 49.3018 80.9419 52.4291 89.5879 53.7168L91.2435 56.6601C91.2435 56.6601 87.5644 57.7639 83.3333 57.212C79.1023 56.6601 75.4231 53.3488 75.0552 52.613C74.6873 51.8772 74.6873 51.8772 74.6873 51.8772L77.2627 49.3018Z" fill="#F9FBFC"/>
<path d="M101.913 63.4663C101.913 63.4663 102.281 63.6503 102.649 64.0182C103.937 64.938 106.696 67.3294 107.8 70.8246C109.271 75.6076 112.399 98.6024 112.399 98.6024L119.941 130.243C119.941 130.243 118.653 133.738 113.686 133.555C110.927 133.555 110.191 131.347 110.191 131.347C110.191 131.347 103.385 107.248 102.281 103.017C101.177 98.7863 98.4179 83.7017 97.1302 78.3669C96.0264 73.0321 96.3943 64.938 101.913 63.4663Z" fill="#63687A"/>
<path d="M70.4559 32.1932C70.4559 32.1932 69.7201 24.4669 76.7105 21.3396C83.701 18.0284 92.8989 20.2359 96.578 25.2027C98.9695 29.4338 95.6583 32.745 94.9224 34.4007C94.1866 35.8723 94.9224 38.9996 94.1866 40.1034C93.4508 41.2071 94.3705 42.8628 94.3705 42.8628L93.0828 43.9665C93.0828 43.9665 91.7951 41.5751 91.0593 40.8392C90.3235 40.2873 87.932 42.3109 88.4839 44.3344C89.0357 46.358 90.8753 47.4617 90.8753 47.4617C90.8753 47.4617 90.1395 48.0136 89.4037 48.5655C88.6678 49.1174 87.1962 49.4853 84.8047 49.4853C82.4132 49.4853 79.102 48.3815 77.8143 47.6457C76.5266 46.9099 72.6634 44.1505 71.1918 40.8392C69.3522 37.528 68.9843 34.2167 70.4559 32.1932Z" fill="#673E29"/>
<g opacity="0.41">
<path d="M204.746 116.078C206.586 117.182 208.241 119.757 208.241 121.965L208.057 155.813C208.057 158.021 206.586 158.94 204.562 157.837L125.46 112.031C123.62 110.927 121.965 108.352 121.965 106.144L122.149 72.2959C122.149 70.0884 123.62 69.1686 125.644 70.2724L204.746 116.078Z" fill="#C7D8F2"/>
</g>
<path d="M138.153 89.7717V91.0594C138.153 91.7953 137.418 92.3472 136.682 91.9792L130.427 88.3001C130.059 88.1161 129.875 87.7482 129.875 87.3803V86.0926C129.875 85.3567 130.611 84.8049 131.347 85.1728L137.418 88.668C137.969 89.0359 138.153 89.4038 138.153 89.7717Z" fill="#F9FBFC"/>
<path d="M157.469 107.248V108.536C157.469 109.272 156.733 109.824 155.997 109.456L130.611 94.9231C130.243 94.7391 130.059 94.3712 130.059 94.0033V92.7156C130.059 91.9798 130.795 91.4279 131.531 91.7958L156.917 106.329C157.285 106.512 157.469 106.88 157.469 107.248Z" fill="#F9FBFC"/>
<g opacity="0.53">
<path d="M146.983 114.054V115.342C146.983 116.078 146.247 116.629 145.512 116.262L130.611 107.615C130.243 107.432 130.059 107.064 130.059 106.696V105.408C130.059 104.672 130.795 104.12 131.531 104.488L146.431 113.134C146.799 113.318 146.983 113.686 146.983 114.054Z" fill="#F9FBFC"/>
</g>
<path d="M153.422 111.295V112.582C153.422 113.318 152.686 113.87 151.95 113.502L130.427 101.177C130.059 100.993 129.875 100.625 129.875 100.257V98.9695C129.875 98.2337 130.611 97.6818 131.347 98.0497L152.87 110.375C153.238 110.743 153.422 110.927 153.422 111.295Z" fill="#F9FBFC"/>
<path d="M180.832 111.478C183.775 113.134 185.983 117.181 185.983 120.492C185.983 120.676 185.983 120.86 185.983 121.044C185.983 121.044 185.799 121.964 185.615 123.068C185.799 122.884 185.983 122.884 186.166 122.884C186.35 122.884 186.35 123.068 186.534 123.252C187.086 124.356 185.983 126.379 185.431 126.195C185.247 126.011 185.063 125.827 184.879 125.643C184.695 126.379 184.511 126.931 184.327 127.299C184.143 127.483 183.959 127.667 183.591 127.667C183.775 128.771 183.959 130.242 184.695 131.346C185.615 132.818 187.822 134.841 189.478 136.681C189.478 136.681 189.294 136.681 189.294 136.865C189.294 136.865 189.11 136.865 189.11 137.049C189.11 137.049 188.926 137.049 188.926 137.233C188.926 137.233 188.742 137.233 188.742 137.417H188.558H188.374H188.19C187.822 137.417 187.638 137.601 187.27 137.601H187.086C187.086 137.601 187.086 137.601 186.902 137.601C186.902 137.601 186.902 137.601 186.718 137.601H186.534C186.534 137.601 186.534 137.601 186.35 137.601H186.166C186.166 137.601 186.166 137.601 185.983 137.601H185.799H185.615C185.615 137.601 185.615 137.601 185.431 137.601H185.247H185.063C185.063 137.601 185.063 137.601 184.879 137.601H184.695C184.695 137.601 184.695 137.601 184.511 137.601H184.327C184.327 137.601 184.327 137.601 184.143 137.601H183.959C183.959 137.601 183.959 137.601 183.775 137.601H183.591C183.591 137.601 183.591 137.601 183.407 137.601H183.223C183.223 137.601 183.223 137.601 183.039 137.601H182.855C182.855 137.601 182.855 137.601 182.671 137.601H182.487C182.487 137.601 182.487 137.601 182.303 137.601H182.119C182.119 137.601 182.119 137.601 181.935 137.601H181.752C181.752 137.601 181.751 137.601 181.568 137.601H181.384C181.384 137.601 181.384 137.601 181.2 137.601H181.016C181.016 137.601 181.016 137.601 180.832 137.601C180.832 137.601 180.648 137.601 180.648 137.417C180.648 137.417 180.648 137.417 180.464 137.417C180.464 137.417 180.28 137.417 180.28 137.233C180.28 137.233 180.28 137.233 180.096 137.233C179.912 137.233 179.912 137.049 179.728 137.049C179.544 137.049 179.544 136.865 179.36 136.865C179.36 136.865 179.36 136.865 179.176 136.865C179.176 136.865 178.992 136.865 178.992 136.681C178.992 136.681 178.992 136.681 178.808 136.681C178.808 136.681 178.624 136.681 178.624 136.497C178.624 136.497 178.624 136.497 178.44 136.497C178.44 136.497 178.256 136.497 178.256 136.313C178.256 136.313 178.256 136.313 178.072 136.313C178.072 136.313 177.888 136.313 177.888 136.129C177.888 136.129 177.888 136.129 177.704 136.129C177.704 136.129 177.52 136.129 177.52 135.945C177.52 135.945 177.52 135.945 177.336 135.761L177.153 135.577C177.153 135.577 177.153 135.577 176.969 135.393L176.785 135.209C176.785 135.209 176.785 135.209 176.601 135.025L176.417 134.841C176.417 134.841 176.417 134.841 176.233 134.657L176.049 134.473C176.049 134.473 176.049 134.473 175.865 134.289L175.681 134.105C175.681 134.105 175.497 134.105 175.497 133.921C175.497 133.921 175.497 133.921 175.313 133.737L175.129 133.553C175.129 133.553 175.129 133.553 174.945 133.37L174.761 133.186C172.921 131.346 171.45 129.138 170.162 126.931C171.818 127.115 173.841 127.483 174.577 127.115C175.129 126.747 175.497 125.827 175.681 124.723C175.313 124.172 174.945 123.62 174.761 123.252C174.577 122.7 174.393 121.78 174.209 120.86C174.025 120.86 173.841 120.86 173.657 120.86C173.105 120.492 172.002 116.997 172.554 116.629C172.738 116.629 172.738 116.629 172.921 116.629C173.105 116.813 173.473 117.181 173.473 117.549C173.289 116.077 173.105 115.158 173.105 115.158C173.105 114.974 173.105 114.79 173.105 114.606C175.497 111.111 177.888 109.823 180.832 111.478Z" fill="#9B97F8"/>
<path d="M181.199 109.087C187.638 112.766 192.973 121.964 192.973 129.506C192.973 133.002 191.685 135.577 189.845 136.865C188.19 135.025 185.982 133.002 185.063 131.53C184.327 130.426 184.143 128.955 183.959 127.851C184.327 127.851 184.511 127.667 184.695 127.483C184.879 127.115 185.063 126.563 185.246 125.827C185.43 126.011 185.614 126.195 185.798 126.379C186.35 126.563 187.454 124.54 186.902 123.436C186.718 123.252 186.718 123.068 186.534 123.068C186.35 122.884 186.166 123.068 185.982 123.252C186.166 122.148 186.35 121.228 186.35 121.228C186.35 121.044 186.35 120.86 186.35 120.676C186.35 117.365 183.959 113.318 181.199 111.663C178.256 110.007 175.865 111.295 175.865 114.606C175.865 114.79 175.865 114.974 175.865 115.158C175.865 115.158 176.049 116.261 176.233 117.549C176.049 117.181 175.865 116.813 175.681 116.629C175.497 116.629 175.497 116.629 175.313 116.629C174.761 116.997 175.865 120.493 176.416 120.86C176.6 121.044 176.784 121.044 176.968 120.86C177.152 121.78 177.336 122.516 177.52 123.252C177.704 123.62 178.072 124.172 178.44 124.724C178.256 125.643 178.072 126.747 177.336 127.115C176.416 127.483 174.393 127.115 172.921 126.931C171.082 123.436 169.978 119.573 169.978 116.078C169.242 108.351 174.577 105.408 181.199 109.087Z" fill="#DEDFFF"/>
<path d="M39.5511 23.9156C35.32 21.5241 29.4334 21.892 22.9948 25.5712C10.3017 32.9295 0 50.7735 0 65.4902C0 72.8485 2.57542 77.9994 6.80646 80.3908L11.9573 83.3342C7.72626 80.9427 5.15084 75.7919 5.15084 68.4335C5.15084 53.7168 15.4525 35.8729 28.1457 28.5145C34.5842 24.8353 40.4709 24.4674 44.7019 26.8589L39.5511 23.9156Z" fill="#86E563"/>
<path d="M28.1457 28.514C15.2686 35.8724 4.9669 53.7164 5.15086 68.433C5.15086 83.1497 15.6365 89.0364 28.3296 81.6781C41.0228 74.3197 51.5084 56.4757 51.3245 41.7591C51.3245 27.0424 41.0228 21.1557 28.1457 28.514Z" fill="#2AB774"/>
<path d="M39.3671 39.7354L43.2303 41.7589L26.3061 71.1923L18.2119 66.5933L22.075 59.9708L26.3061 62.3623L39.3671 39.7354Z" fill="white"/>
</svg>
