<svg width="208" height="250" viewBox="0 0 208 250" fill="none" xmlns="http://www.w3.org/2000/svg">
<path d="M194.508 145.309C194.508 146.049 195.103 146.645 195.84 146.645C196.577 146.645 197.172 146.049 197.172 145.309C197.172 144.57 196.577 143.974 195.84 143.974C195.103 143.95 194.508 144.57 194.508 145.309Z" fill="#202020"/>
<path d="M188.777 165.412C188.777 166.151 189.371 166.748 190.109 166.748C190.846 166.748 191.44 166.151 191.44 165.412C191.44 164.673 190.846 164.077 190.109 164.077C189.371 164.077 188.777 164.673 188.777 165.412Z" fill="#202020"/>
<path d="M153.962 168.87C153.962 169.61 154.556 170.206 155.294 170.206C156.031 170.206 156.625 169.61 156.625 168.87C156.625 168.131 156.031 167.535 155.294 167.535C154.556 167.511 153.962 168.107 153.962 168.87Z" fill="#202020"/>
<path d="M138.243 150.484C138.243 151.224 138.838 151.82 139.575 151.82C140.312 151.82 140.907 151.224 140.907 150.484C140.907 149.745 140.312 149.149 139.575 149.149C138.838 149.149 138.243 149.745 138.243 150.484Z" fill="#202020"/>
<path d="M162.975 136.199C162.975 136.938 163.569 137.535 164.306 137.535C165.044 137.535 165.638 136.938 165.638 136.199C165.638 135.46 165.044 134.864 164.306 134.864C163.593 134.864 162.975 135.46 162.975 136.199Z" fill="#202020"/>
<path d="M169.777 152.01L156.317 167.869L155.817 168.322L154.105 167.845V166.795L166.138 150.961L138.267 149.768V148.719L166.78 148.648L163.57 134.768L163.522 134.244V133.194L170.799 148.266L197.505 143.186V144.236L172.63 150.365L191.845 163.266V164.315L191.25 164.697L190.513 165.126L169.777 152.01Z" fill="#929FB3"/>
<path d="M169.777 149.888L156.317 166.82L155.817 167.273L154.105 166.796L166.138 148.839L138.267 148.719L138.576 147.599L166.78 146.525L163.57 133.719L163.522 133.195L165.401 133.004L170.799 146.144L196.625 142.185L197.529 143.187L172.654 148.242L191.298 162.885L191.869 163.266L191.274 163.648L190.537 164.077L169.777 149.888Z" fill="#ACAFB2"/>
<path d="M156.126 166.414L169.729 149.315L190.56 163.528L191.155 163.171L191.393 163.028L191.155 162.861L172.035 147.861L197.029 142.781L196.529 142.233L170.656 146.215L165.258 133.051L163.831 133.194L163.855 133.457L167.136 146.549L138.79 147.622L138.624 148.242L166.637 148.361L154.533 166.414L155.746 166.772L156.126 166.414Z" fill="#C0C0C0"/>
<path d="M166.209 147.67V135.96H172.178V147.67C172.178 148.123 171.869 148.552 171.298 148.886C170.133 149.554 168.23 149.577 167.065 148.886C166.494 148.576 166.209 148.123 166.209 147.67Z" fill="#979DA7"/>
<path d="M167.089 137.201C168.254 137.868 170.133 137.868 171.322 137.201C172.487 136.533 172.487 135.436 171.345 134.744C170.18 134.077 168.302 134.077 167.113 134.744C165.924 135.436 165.924 136.533 167.089 137.201Z" fill="#AAAAAA"/>
<path d="M167.017 135.722V119.697H171.369V135.722C171.369 136.032 171.155 136.366 170.727 136.605C169.871 137.105 168.492 137.105 167.659 136.605C167.231 136.366 167.017 136.056 167.017 135.722Z" fill="#979DA7"/>
<path d="M167.659 120.579C168.516 121.08 169.895 121.056 170.727 120.579C171.583 120.078 171.583 119.291 170.727 118.791C169.871 118.29 168.516 118.314 167.659 118.791C166.803 119.291 166.803 120.102 167.659 120.579Z" fill="#464646"/>
<path d="M139.813 102.861C136.127 100.81 133.035 95.6347 132.988 94.2516C132.94 93.1307 132.94 92.0099 132.988 90.9368C133.107 88.4089 134.795 85.5472 136.959 84.3071L158.98 71.5487C161.715 69.9509 163.379 69.9986 165.258 70.0225H165.448C165.757 70.0225 166.233 70.1656 166.661 70.8094C167.065 71.4056 167.256 72.2403 167.232 73.2419C167.208 73.8381 167.232 74.6727 167.232 75.6266C167.232 77.5583 167.256 79.9669 167.113 82.0178C166.78 87.145 162.476 92.9638 161.12 93.7508L145.045 103.051C144.331 103.481 143.546 103.671 142.738 103.671C141.81 103.719 140.835 103.433 139.813 102.861ZM165.995 73.218C166.019 72.5026 165.876 71.9064 165.639 71.5249C165.52 71.3579 165.448 71.2864 165.448 71.2864H165.258C163.403 71.2625 162.071 71.2387 159.622 72.6457L137.601 85.4041C135.841 86.4296 134.343 88.9336 134.272 91.0083C134.224 92.0576 134.224 93.1307 134.272 94.2277C134.296 95.0862 137.078 99.9034 140.455 101.787C141.953 102.622 143.309 102.694 144.474 102.002L160.55 92.7015C161.501 92.153 165.615 86.7157 165.9 81.9701C166.019 79.9669 166.019 77.5821 166.019 75.6505C165.971 74.6727 165.972 73.8381 165.995 73.218Z" fill="#E0E0E0"/>
<path d="M141.002 103.767C137.244 101.692 134.129 96.4217 134.082 94.9908C134.058 94.2993 134.034 93.1069 134.082 91.6522C134.201 89.0528 135.937 86.1434 138.148 84.8557L160.169 72.0972C162.951 70.4756 164.616 70.4994 166.732 70.5471C167.089 70.5471 167.636 70.7141 168.112 71.4295C168.54 72.0734 168.754 72.9319 168.73 73.9573C168.706 74.5535 168.706 75.3882 168.73 76.3182C168.73 78.2499 168.754 80.6585 168.611 82.7332C168.278 87.9081 163.903 93.8223 162.523 94.6331L146.448 103.934C145.687 104.363 144.878 104.578 144.046 104.578C143.047 104.625 142.024 104.339 141.002 103.767ZM166.495 72.2165C164.663 72.1926 163.356 72.1688 160.978 73.5519L138.957 86.3104C137.244 87.2881 135.794 89.7444 135.723 91.7476C135.675 93.1307 135.699 94.2754 135.723 94.9432C135.794 95.8255 138.624 100.667 141.929 102.407C143.332 103.147 144.545 103.194 145.639 102.574L161.715 93.2738C162.642 92.7492 166.685 87.3835 166.97 82.6855C167.089 80.6823 167.089 78.2976 167.089 76.3898C167.089 75.4359 167.089 74.5774 167.089 73.9812C167.113 73.3135 166.994 72.7411 166.756 72.4073C166.685 72.288 166.614 72.2403 166.566 72.2403C166.518 72.2165 166.518 72.2165 166.495 72.2165Z" fill="#E0E0E0"/>
<path d="M163.451 70.4762C162.809 70.7147 162.095 71.0485 161.311 71.5016L139.29 84.26C137.554 85.2616 136.032 87.1218 135.081 89.1726L132.56 87.7179L131.656 86.8356C131.656 86.8356 135.104 83.7831 136.769 82.8053L158.79 70.0469C159.575 69.5938 160.288 69.26 160.93 69.0215L163.427 69.3315L163.451 70.4762Z" fill="#2C3240"/>
<path d="M163.427 69.3068C162.785 69.5452 161.216 70.1653 160.407 70.6184L138.386 83.3768C136.65 84.3784 135.128 86.2385 134.177 88.2894L131.656 86.8347C132.607 84.7838 134.129 82.9237 135.865 81.9221L157.886 69.1637C158.671 68.7106 160.264 68.0905 160.906 67.8521L163.427 69.3068Z" fill="#31394C"/>
<path d="M165.496 89.1952L166.043 63.726L168.73 31.3172C168.897 29.2187 170.443 26.8578 172.179 26.0469L172.298 25.9992C173.225 25.57 174.034 25.6654 174.533 26.1662L206.446 44.6003L201.31 113.639L169.301 95.1094L165.496 89.1952Z" fill="url(#paint0_linear_624_5512)"/>
<path d="M198.051 82.2553L200.739 49.8466C200.905 47.748 202.451 45.3871 204.187 44.5763L204.306 44.5286C206.018 43.7416 207.278 44.7193 207.159 46.7464L205.447 78.4397L204.686 111.683L201.309 113.663L197.504 107.772L198.051 82.2553Z" fill="url(#paint1_linear_624_5512)"/>
<path d="M133.891 112.829L133.963 110.039C134.01 108.56 135.033 106.819 136.293 106.104L165.496 89.1958L197.504 107.725L166.566 132.932L134.581 114.403C134.129 114.14 133.868 113.616 133.891 112.829Z" fill="url(#paint2_linear_624_5512)"/>
<path d="M197.481 107.726L201.286 113.616L168.207 132.765C166.899 133.529 165.829 132.885 165.876 131.358L165.948 128.568C165.995 127.09 167.018 125.349 168.278 124.633L197.481 107.726Z" fill="url(#paint3_linear_624_5512)"/>
<path d="M159.884 25.2359C155.627 24.4012 148.541 31.5793 145.093 35.4187C141.644 39.2582 131.68 51.5158 129.255 55.9276C128.803 56.7623 133.963 64.1789 140.336 59.7432C146.733 55.3076 156.222 45.864 158.933 40.0929C161.668 34.3218 159.884 25.2359 159.884 25.2359Z" fill="#3B3F51"/>
<path d="M124.713 153.918C124.713 155.373 122.953 156.565 122.953 156.565C122.953 156.565 111.633 162.646 111.015 163.409C110.397 164.172 110.254 165.651 109.992 168.06C109.873 169.228 112.37 171.136 115.723 170.635C119.077 170.11 121.74 168.87 123.381 167.702C125.045 166.533 125.711 165.365 127.186 164.864C127.756 164.673 127.495 165.436 128.399 165.484C129.778 165.532 132.441 164.816 133.821 164.125C136.08 162.956 136.46 161.978 136.413 159.665C136.365 157.304 135.985 153.775 135.985 153.775L133.821 150.651L124.713 153.918Z" fill="#33374A"/>
<path d="M144.307 162.645C144.212 163.599 143.214 167.129 143.214 167.129C143.214 167.129 132.584 179.41 131.87 180.626C131.157 181.843 131.085 184.204 131.085 184.204C131.085 184.204 132.607 186.088 137.673 186.469C145.568 187.065 148.255 181.366 149.182 180.197C149.492 179.816 150.395 177.526 151.537 176.382C152.226 175.69 152.369 176.453 153.011 176.31C154.7 174.498 156.911 171.827 156.911 170.801C156.911 168.607 154.272 162.025 154.272 162.025L144.307 162.645Z" fill="#33374A"/>
<path d="M162.904 82.4946C147.78 91.7236 126.662 109.252 125.854 111.946C125.045 114.665 125.331 119.196 126.663 121.771C127.97 124.347 133.036 125.587 135.889 124.633C138.767 123.679 138.434 123.441 138.434 123.441C138.434 123.441 169.563 105.15 171.465 103.027C173.368 100.905 174.414 87.0018 174.414 87.0018L162.904 82.4946Z" fill="#363C53"/>
<path d="M172.464 88.2897C172.464 88.2897 169.824 89.2436 166.756 94.657C163.689 100.07 163.974 102.932 163.974 102.932C163.974 102.932 146.139 115.38 145.045 118.099C143.951 120.818 143.428 125.945 144.522 129.594C145.616 133.266 152.631 132.813 154.819 132.169C157.006 131.525 156.887 130.094 156.887 130.094C156.887 130.094 158.837 128.354 162.214 125.42C165.567 122.487 175.65 120.007 187.208 113.043C198.765 106.08 197.433 98.3295 196.411 90.8414C195.388 83.3532 191.797 79.2515 191.797 79.2515L172.464 88.2897Z" fill="#3B4157"/>
<path d="M152.607 122.367C152.607 122.367 143.451 121.223 143.998 126.564C144.545 131.882 143.594 156.898 142.928 165.531C142.738 167.129 148.136 167.63 149.991 167.391C153.415 166.962 155.175 164.291 155.246 163.337C155.365 161.859 157.291 145.332 157.981 140.229C158.671 135.126 157.648 127.327 157.957 125.181C158.314 123.011 152.607 122.367 152.607 122.367Z" fill="#3B4157"/>
<path d="M134.058 111.612C134.058 111.612 125.759 108.512 125.497 113.854C125.212 119.196 125.069 146.12 124.403 154.753C124.403 156.398 128.018 157.662 130.943 157.161C134.677 156.517 135.889 154.49 135.961 153.441C136.08 151.962 140.003 130.047 139.433 124.943C138.886 119.816 139.1 116.549 139.409 114.403C139.742 112.28 134.058 111.612 134.058 111.612Z" fill="#363C53"/>
<path d="M191.393 51.0397C191.393 51.0397 194.128 38.0428 189.586 34.8472C185.044 31.6517 170.205 25.0459 170.205 25.0459C170.205 25.0459 155.128 25.809 153.867 28.7184C152.607 31.6278 151.775 38.4959 152.583 45.5309C153.416 52.5659 157.886 60.6979 163.047 82.9715C163.427 84.617 168.564 90.6743 180.573 90.6743C192.582 90.6743 194.366 85.1416 194.437 83.5915C194.485 82.0415 194.223 74.7203 194.223 74.7203L191.393 51.0397Z" fill="#EAEEF9"/>
<path d="M167.065 71.8822C160.93 61.2939 157.553 41.1666 160.05 33.7262C162.547 26.2858 165.353 24.9265 165.353 24.9265C165.353 24.9265 157.981 24.0918 155.009 27.3351C152.036 30.5783 151.228 35.3955 152.274 44.4099C153.32 53.4242 161.525 76.6994 162.143 82.2797C162.785 87.86 170.3 88.3847 171.964 88.1462C173.581 87.8839 167.065 71.8822 167.065 71.8822Z" fill="#33374A"/>
<path d="M167.066 71.8817C167.066 71.8817 161.715 53.4476 160.455 47.0803C159.194 40.713 160.74 32.6526 162.571 31.0786C164.402 29.5047 162.096 27.6684 159.48 30.0293C156.888 32.3902 156.269 38.996 156.935 44.3378C157.577 49.6797 161.406 67.0168 167.066 71.8817Z" fill="#3B3F51"/>
<path d="M174.723 27.5495C178.504 31.055 181.286 30.745 176.958 43.098C172.63 55.4511 166.804 70.1411 167.041 72.7405C167.279 75.316 168.611 91.1746 173.676 92.1762C178.742 93.1778 186.375 94.6087 192.225 90.0776C198.075 85.5705 195.887 82.041 194.437 75.8884C192.986 69.7119 193.39 38.5909 190.18 35.4191C186.97 32.2474 171.488 25.0932 171.488 25.0932C171.488 25.0932 168.349 24.4731 174.723 27.5495Z" fill="#33374A"/>
<path d="M176.863 124.323C173.177 122.273 170.086 117.098 170.038 115.714C169.991 114.594 169.991 113.473 170.038 112.4C170.133 109.896 171.893 106.986 174.009 105.77L196.03 93.0116C198.765 91.4138 200.406 91.4615 202.308 91.4854H202.499C202.808 91.4854 203.283 91.6285 203.711 92.2723C204.116 92.8685 204.306 93.7032 204.282 94.7048C204.258 95.301 204.258 96.1357 204.282 97.0896C204.282 99.0212 204.306 101.43 204.163 103.481C203.83 108.608 199.526 114.451 198.171 115.214C197.077 115.834 187.113 121.605 182.095 124.514C181.381 124.943 180.597 125.134 179.788 125.134C178.861 125.158 177.862 124.872 176.863 124.323ZM203.046 94.6809C203.069 93.9655 202.927 93.3693 202.689 92.9878C202.57 92.8208 202.499 92.7493 202.499 92.7493H202.308C200.453 92.7255 199.122 92.7016 196.672 94.1086L174.652 106.867C172.892 107.892 171.394 110.396 171.322 112.471C171.275 113.52 171.275 114.594 171.322 115.691C171.346 116.549 174.128 121.366 177.505 123.25C179.003 124.085 180.335 124.156 181.524 123.465C186.542 120.556 196.506 114.784 197.6 114.164C198.527 113.616 202.641 108.202 202.95 103.433C203.069 101.43 203.069 99.045 203.069 97.1134C203.022 96.1118 203.022 95.2771 203.046 94.6809Z" fill="#E0E0E0"/>
<path d="M178.029 125.206C174.271 123.131 171.156 117.861 171.109 116.43C171.085 115.738 171.061 114.546 171.109 113.091C171.227 110.492 172.963 107.582 175.175 106.295L197.196 93.5362C199.978 91.9145 201.667 91.9384 203.759 91.9861C204.116 91.9861 204.663 92.153 205.139 92.8685C205.567 93.5123 205.781 94.3708 205.757 95.3963C205.733 95.9925 205.757 96.8271 205.757 97.7572C205.757 99.6888 205.781 102.097 205.638 104.172C205.305 109.371 200.929 115.261 199.55 116.072L183.474 125.373C182.713 125.802 181.905 126.017 181.073 126.017C180.098 126.064 179.075 125.778 178.029 125.206ZM203.545 93.6554C201.714 93.6077 200.406 93.6077 198.004 94.9909L175.984 107.749C174.271 108.727 172.821 111.183 172.749 113.187C172.702 114.57 172.726 115.714 172.749 116.382C172.821 117.264 175.651 122.106 178.956 123.846C180.359 124.586 181.572 124.633 182.666 124.013L198.742 114.713C199.669 114.188 203.712 108.846 203.997 104.124C204.14 102.121 204.116 99.7365 204.116 97.8287C204.116 96.851 204.116 96.0163 204.116 95.4201C204.14 94.7524 204.021 94.1801 203.783 93.8462C203.712 93.727 203.64 93.6793 203.593 93.6793C203.569 93.6554 203.569 93.6554 203.545 93.6554Z" fill="#E0E0E0"/>
<path d="M200.501 91.9137C199.859 92.1522 199.145 92.486 198.361 92.9391L176.34 105.698C174.604 106.699 173.082 108.559 172.131 110.61L169.61 109.155L168.706 108.273C168.706 108.273 172.154 105.221 173.819 104.243L195.84 91.4844C196.625 91.0313 197.338 90.6975 197.98 90.459L200.477 90.769L200.501 91.9137Z" fill="#2C3240"/>
<path d="M200.454 90.7696C199.812 91.0081 198.242 91.6281 197.434 92.0812L175.413 104.84C173.677 105.841 172.155 107.701 171.204 109.752L168.683 108.298C169.634 106.247 171.156 104.387 172.892 103.385L194.913 90.6265C195.698 90.1734 197.267 89.5534 197.933 89.3149L200.454 90.7696Z" fill="#31394C"/>
<path d="M176.625 29.0283C179.051 31.6516 177.838 37.5181 175.365 42.9076C172.892 48.2971 167.066 71.8823 167.066 71.8823C167.066 71.8823 174.842 59.1478 178.742 47.6294C182.642 36.0872 182.309 32.7486 181.548 31.3416C180.811 29.9345 178.005 27.0013 173.415 26.3574C175.746 28.3845 176.625 29.0283 176.625 29.0283Z" fill="#3B3F51"/>
<path d="M134.653 69.0439L125.616 69.1155V140.515C125.616 141.183 126.044 141.827 126.924 142.351C128.684 143.377 131.537 143.353 133.297 142.351C134.201 141.827 134.629 141.159 134.629 140.491V69.0439H134.653Z" fill="#A8ABB5"/>
<path d="M187.465 104.889C189.96 104.876 191.977 103.69 191.969 102.242C191.961 100.793 189.932 99.6294 187.436 99.6429C184.941 99.6565 182.924 100.842 182.932 102.291C182.94 103.739 184.969 104.903 187.465 104.889Z" fill="#A8ABB5"/>
<path d="M191.964 102.24L182.927 102.311V173.711C182.927 174.378 183.355 175.022 184.235 175.547C185.995 176.572 188.849 176.549 190.608 175.547C191.512 175.022 191.94 174.355 191.94 173.687V102.24H191.964Z" fill="url(#paint4_linear_624_5512)"/>
<path d="M38.6028 124.657L29.5662 124.728V196.128C29.5662 196.795 29.9942 197.439 30.8741 197.964C32.6339 198.989 35.4875 198.966 37.2473 197.964C38.151 197.439 38.579 196.772 38.579 196.104V124.657H38.6028Z" fill="#A8ABB5"/>
<path d="M62.7878 191.024C62.2647 192.169 60.814 194.697 60.6476 196.7C60.4811 198.679 60.1482 202.829 60.1244 204.212C60.0768 205.595 61.2659 207.432 65.5939 206.859C67.8293 206.549 70.5165 204.928 71.1348 203.997C71.7056 203.139 71.9196 202.71 72.7757 202.352C74.5354 201.613 74.2501 202.114 78.4592 201.136C82.6684 200.158 83.9763 198.679 83.7861 195.412C83.5959 192.145 82.5019 192.527 77.5318 192.765C72.5617 193.028 69.1372 193.099 69.1372 193.099L62.7878 191.024Z" fill="#33374A"/>
<path d="M61.6226 160.524C61.6226 160.524 60.5524 197.153 60.4811 198.68C60.4097 200.206 70.4452 201.446 71.1348 197.368C71.5153 195.007 73.2037 153.012 73.2037 153.012L61.6226 160.524Z" fill="#363C53"/>
<path d="M84.9038 203.521C85.9977 203.449 95.8666 201.804 97.8166 202.543C99.7428 203.282 100.1 205.429 100.028 206.478C99.9806 207.456 99.7428 209.34 96.2233 211.2C94.7251 211.987 90.4446 212.631 89.4696 213.108C88.4946 213.584 84.4519 216.303 80.7184 216.16C76.9848 216.017 75.2726 214.61 75.3915 212.964C75.5104 211.319 76.1287 204.999 76.6757 204.236C77.2226 203.473 84.9038 203.521 84.9038 203.521Z" fill="#33374A"/>
<path d="M83.8101 163.218C79.2442 163.409 75.7722 168.131 75.796 179.387C75.8198 190.643 75.8436 205.452 76.0338 206.978C76.2478 208.695 87.1869 210.556 87.6863 205.81C88.0668 202.137 88.8516 191.406 89.7077 181.247C91.3961 161.239 89.4461 157.853 89.4461 157.853L83.8101 163.218Z" fill="#3B4157"/>
<path d="M65.1421 222.336C65.1421 223.171 65.808 223.838 66.6403 223.838C67.4726 223.838 68.1384 223.171 68.1384 222.336C68.1384 221.501 67.4726 220.833 66.6403 220.833C65.808 220.833 65.1421 221.501 65.1421 222.336Z" fill="#202020"/>
<path d="M60.2667 246.184C61.0942 246.184 61.7649 245.512 61.7649 244.682C61.7649 243.852 61.0942 243.18 60.2667 243.18C59.4393 243.18 58.7686 243.852 58.7686 244.682C58.7686 245.512 59.4393 246.184 60.2667 246.184Z" fill="#202020"/>
<path d="M20.0776 248.497C20.0776 249.332 20.7435 250 21.5758 250C22.4081 250 23.074 249.332 23.074 248.497C23.074 247.663 22.4081 246.995 21.5758 246.995C20.7435 246.995 20.0776 247.687 20.0776 248.497Z" fill="#202020"/>
<path d="M2.6228 228.084C2.6228 228.919 3.28865 229.586 4.12097 229.586C4.95329 229.586 5.61915 228.919 5.61915 228.084C5.61915 227.249 4.95329 226.582 4.12097 226.582C3.28865 226.582 2.6228 227.249 2.6228 228.084Z" fill="#202020"/>
<path d="M30.1133 212.225C30.1133 213.06 30.7791 213.727 31.6115 213.727C32.4438 213.727 33.1096 213.06 33.1096 212.225C33.1096 211.39 32.4438 210.723 31.6115 210.723C30.7791 210.723 30.1133 211.39 30.1133 212.225Z" fill="#202020"/>
<path d="M37.6515 229.776L22.6936 247.4L22.1466 247.901L20.2679 247.352V246.184L33.6564 228.584L2.69409 227.249V226.08L34.3936 225.985L30.8265 210.555L30.7552 209.983V208.814L38.8406 225.579L68.5187 219.927V221.096L40.8619 227.916L62.2169 242.249V243.417L61.551 243.846L60.7187 244.323L37.6515 229.776Z" fill="#929FB3"/>
<path d="M37.6516 227.416L22.6936 246.232L22.1466 246.732L20.2679 246.184L33.6564 226.224L2.69409 226.08L3.02702 224.84L34.3698 223.648L30.8027 209.411L30.7314 208.839L32.8241 208.648L38.8168 223.243L67.4962 218.831L68.495 219.952L40.8381 225.58L61.551 241.844L62.1931 242.273L61.5273 242.702L60.6949 243.179L37.6516 227.416Z" fill="#ACAFB2"/>
<path d="M22.5035 245.802L37.6042 226.795L60.7427 242.582L61.4086 242.177L61.694 242.01L61.4324 241.843L40.1963 225.174L67.9482 219.522L67.4013 218.902L38.6506 223.337L32.6341 208.719L31.0646 208.862L31.0883 209.172L34.7268 223.695L3.24127 224.911L3.05103 225.579L34.1798 225.722L20.72 245.778L22.0755 246.183L22.5035 245.802Z" fill="#C0C0C0"/>
<path d="M33.7041 224.959V211.938H40.3389V224.935C40.3389 225.436 40.006 225.913 39.3639 226.295C38.056 227.058 35.9633 227.058 34.6791 226.295C34.0133 225.961 33.7041 225.46 33.7041 224.959Z" fill="#979DA7"/>
<path d="M34.6789 213.322C35.9631 214.061 38.0795 214.061 39.3637 213.322C40.6716 212.559 40.6716 211.343 39.3875 210.603C38.1033 209.864 35.9869 209.864 34.7027 210.603C33.371 211.366 33.371 212.583 34.6789 213.322Z" fill="#AAAAAA"/>
<path d="M34.6074 211.676V193.862H39.4349V211.676C39.4349 212.034 39.1971 212.392 38.7215 212.654C37.7702 213.203 36.2483 213.203 35.2971 212.654C34.8452 212.392 34.6074 212.034 34.6074 211.676Z" fill="#979DA7"/>
<path d="M35.2974 194.864C36.2486 195.412 37.7706 195.412 38.7218 194.864C39.673 194.315 39.673 193.433 38.7218 192.885C37.7706 192.336 36.2486 192.336 35.2974 192.885C34.3699 193.433 34.3699 194.315 35.2974 194.864Z" fill="#464646"/>
<path d="M5.02463 182.034C3.88316 181.437 1.95694 179.911 1.71913 176.501C1.57645 174.355 1.57644 171.636 1.57644 169.466C1.57644 168.441 1.57644 167.534 1.57644 166.89C1.55266 165.865 1.74291 164.744 2.14718 163.647C2.43255 162.86 2.74169 162.288 3.0984 161.882L3.31243 161.62C5.45268 159.092 7.1411 157.113 10.1612 155.372L34.6314 141.207C35.9869 140.42 37.2949 140.3 38.365 140.897C39.3876 141.469 39.9821 142.59 40.0534 144.068C40.1248 145.595 40.101 146.954 40.0534 147.765C39.9821 149.673 33.2046 168.607 27.2357 172.065L9.37648 182.415C8.97221 182.654 8.42525 182.749 7.83074 182.749C6.92708 182.749 5.90451 182.487 5.02463 182.034ZM35.5589 142.781L11.0887 156.946C8.35391 158.52 6.83195 160.332 4.71548 162.813L4.50145 163.075C4.35877 163.242 4.14475 163.576 3.88316 164.291C3.55024 165.15 3.40756 166.032 3.43134 166.843C3.45512 167.487 3.43134 168.417 3.43134 169.466C3.43134 171.612 3.40755 174.283 3.55024 176.358C3.7167 178.767 4.92951 179.887 5.90451 180.412C7.09354 181.056 8.23501 180.96 8.49659 180.817L26.3558 170.468C31.54 167.463 38.1985 149.434 38.2699 147.669C38.2937 146.906 38.3412 145.595 38.2699 144.14C38.2223 143.329 37.9607 142.733 37.5327 142.494C37.3662 142.399 37.176 142.351 36.9619 142.351C36.5101 142.351 36.0583 142.494 35.5589 142.781Z" fill="#E0E0E0"/>
<path d="M6.42813 182.844C5.28667 182.248 3.36044 180.722 3.12263 177.312C2.97995 175.189 2.97995 172.494 3.00373 170.324C3.00373 169.275 3.00373 168.345 3.00373 167.701C2.97995 166.652 3.17019 165.531 3.57446 164.458C3.85983 163.671 4.16898 163.098 4.52569 162.693L4.73971 162.455C6.87997 159.927 8.59217 157.924 11.6123 156.183L36.0825 142.017C37.438 141.23 38.7697 141.111 39.8161 141.707C40.8386 142.28 41.4331 143.4 41.5045 144.879C41.552 146.024 41.552 147.264 41.5045 148.575C41.4331 150.483 34.6795 169.418 28.6867 172.876L10.8275 183.226C10.4233 183.464 9.87632 183.56 9.2818 183.56C8.33058 183.56 7.30801 183.321 6.42813 182.844ZM36.9624 143.591L12.4922 157.757C9.75741 159.354 8.21168 161.143 6.09521 163.623L5.88118 163.862C5.76228 164.005 5.52447 164.338 5.26288 165.078C4.92995 165.936 4.78728 166.819 4.78728 167.629C4.81106 168.297 4.81106 169.227 4.78728 170.3C4.78728 172.423 4.76349 175.094 4.90618 177.145C5.07264 179.553 6.28545 180.674 7.26045 181.199C8.44948 181.843 9.59095 181.747 9.85253 181.604L27.7118 171.254C32.8959 168.249 39.5545 150.221 39.6258 148.456C39.6496 147.693 39.6972 146.381 39.6258 144.927C39.5783 144.116 39.3167 143.52 38.8886 143.281C38.7222 143.186 38.5319 143.138 38.3179 143.138C37.9136 143.162 37.4618 143.305 36.9624 143.591Z" fill="#E0E0E0"/>
<path d="M42.0035 142.995C40.9571 141.922 39.2449 141.827 37.3187 142.948L12.8485 157.113C11.9686 157.614 11.1838 158.162 10.4704 158.711L7.66431 157.089V155.491C7.66431 155.491 9.59053 155.754 10.0424 155.491L34.5126 141.326C36.4388 140.205 38.7217 139.418 39.7681 140.467C39.7681 140.467 41.1949 140.897 41.9797 141.398C42.6931 141.779 42.0035 142.995 42.0035 142.995Z" fill="#A06238"/>
<path d="M42.0034 141.397C40.7192 140.634 39.2448 140.229 37.3186 141.35L12.8722 155.515C11.9923 156.016 11.2075 156.565 10.4941 157.113L7.68799 155.491C8.40141 154.943 9.18616 154.394 10.066 153.894L34.5363 139.728C36.4625 138.607 37.818 139.227 39.221 139.776L42.0034 141.397Z" fill="#C48358"/>
<path d="M10.7561 178.099L43.1928 159.331C43.9538 158.902 44.6197 158.878 45.0953 159.188L80.6235 179.768L42.0752 210.15L6.52319 189.569L10.7561 178.099Z" fill="#3E4963"/>
<path d="M46.3081 198.703L42.0752 210.15L78.84 188.878C80.2906 188.043 81.4796 185.968 81.432 184.323L81.3607 181.318C81.3131 179.744 80.1717 179.124 78.7686 179.935L46.3081 198.703Z" fill="url(#paint5_linear_624_5512)"/>
<path d="M54.2505 147.359C64.1908 141.612 67.5676 143.591 70.8494 145.499C74.1311 147.431 73.275 151.652 73.2274 152.987C73.1799 154.346 46.3316 182.129 33.0858 180.912C26.784 180.34 21.9089 171.254 24.1443 163.265C27.3071 151.914 54.2505 147.359 54.2505 147.359Z" fill="#363C53"/>
<path d="M31.754 165.197C31.326 173.687 31.1833 180.436 37.6992 184.228C44.1913 188.043 56.8188 185.849 63.8341 182.224C70.8493 178.6 82.3829 170.778 84.428 169.728C86.4732 168.679 89.8976 158.758 89.4695 157.828C89.0415 156.898 88.9939 156.231 86.1878 154.466C83.3817 152.701 78.6969 153.56 76.9134 154.251C75.1298 154.943 59.1255 163.099 59.1255 163.099L52.3243 161.549L31.754 165.197Z" fill="#3B4157"/>
<path d="M95.9141 157.829L86.8774 157.9V229.3C86.8774 229.967 87.3055 230.611 88.1854 231.136C89.9451 232.161 92.7988 232.137 94.5586 231.136C95.4622 230.611 95.8903 229.944 95.8903 229.276V157.829H95.9141Z" fill="url(#paint6_linear_624_5512)"/>
<path d="M196.863 102.217L193.748 102.623C193.605 102.528 193.486 102.456 193.343 102.361L138.862 70.8103C133.678 67.8055 124.617 68.1871 118.625 71.645L28.639 123.776C28.1634 124.038 27.7353 124.348 27.3311 124.634L23.6926 125.111V130.334H23.7164C23.6926 132.265 24.8341 134.102 27.2122 135.485L81.6935 167.035C86.8776 170.04 95.938 169.658 101.931 166.2L191.94 114.094C195.222 112.186 196.91 109.753 196.887 107.44V102.217H196.863Z" fill="#D67E4A"/>
<path d="M81.6693 161.811L27.188 130.284C22.0038 127.279 22.6459 122.033 28.6386 118.575L118.648 66.4682C124.641 63.0103 133.701 62.6288 138.885 65.6336L193.367 97.1838C198.551 100.189 197.909 105.435 191.916 108.893L101.907 160.976C95.9139 164.458 86.8535 164.815 81.6693 161.811Z" fill="#F8BB72"/>
<path d="M126.948 70.9277C128.708 71.9532 131.561 71.9293 133.321 70.9277C135.081 69.9023 135.105 68.2568 133.345 67.2314C131.585 66.2059 128.732 66.2298 126.972 67.2314C125.188 68.2568 125.188 69.9023 126.948 70.9277Z" fill="#A8ABB5"/>
<path d="M30.8981 126.54C32.6578 127.565 35.5115 127.542 37.2713 126.54C39.031 125.515 39.0548 123.869 37.2951 122.844C35.5353 121.818 32.6816 121.842 30.9219 122.844C29.1621 123.869 29.1383 125.515 30.8981 126.54Z" fill="#A8ABB5"/>
<path d="M187.465 104.889C189.96 104.876 191.977 103.69 191.969 102.242C191.961 100.793 189.932 99.6294 187.436 99.6429C184.941 99.6565 182.924 100.842 182.932 102.291C182.94 103.739 184.969 104.903 187.465 104.889Z" fill="#A8ABB5"/>
<path d="M124.95 109.657L96.1282 92.9876L135.057 70.4517L163.855 87.1211L124.95 109.657Z" fill="white"/>
<path d="M158.291 31.2458C158.552 31.365 161.929 35.9438 162.571 39.0201C163.404 40.4032 167.422 41.691 170.133 40.4032C173.391 38.8531 175.769 35.586 176.412 32.3666C176.887 29.9342 175.793 28.9087 175.793 28.9087C175.793 28.9087 172.155 25.8801 171.346 21.993C170.514 18.1058 167.185 13.4078 165.092 14.2187C162.999 15.0295 156.436 22.1599 156.436 22.1599L158.291 31.2458Z" fill="#FF9C78"/>
<path d="M173.915 27.3828C174.866 28.7659 174.057 33.1777 171.655 35.7056C168.041 39.5212 164.569 38.9727 164.569 38.9727V40.3797L165.877 43.7422C165.877 43.7422 170.443 44.3622 175.413 39.3781C180.359 34.394 177.886 30.6499 177.363 29.8391C176.84 29.0521 174.462 26.9058 173.962 26.6197C173.463 26.3335 173.463 26.3335 173.463 26.3335C173.463 26.3335 173.154 26.7151 173.915 27.3828Z" fill="#F8F7FB"/>
<path d="M165.187 39.2831C165.187 39.2831 165.829 39.5693 164.569 38.997C163.308 38.4008 162.095 36.8507 161.881 35.396C161.287 37.3038 161.12 41.1432 161.953 42.5979C163.047 41.6917 164.569 40.404 164.569 40.404L165.187 39.2831Z" fill="#F8F7FB"/>
<path d="M164.236 19.4413C164.45 20.1806 168.112 27.8357 168.064 29.0042C168.017 30.1727 170.87 32.5336 160.788 38.1139C158.766 39.2348 155.96 37.3747 155.389 36.7785C154.795 36.1823 149.753 26.381 148.184 22.5177C146.614 18.6782 146.044 13.861 146.733 11.7147C147.423 9.54462 152.227 7.61297 156.388 8.20916C160.55 8.80535 164.236 19.4413 164.236 19.4413Z" fill="#FF9C78"/>
<path d="M140.455 55.6426C139.242 53.4963 133.368 53.3055 132.037 53.854C130.729 54.4263 129.54 54.1163 128.065 58.8858C127.59 60.4359 124.76 71.835 125.188 74.1005C125.616 76.366 132.679 79.3231 134.653 74.8875C136.626 70.428 141.002 60.6505 141.145 59.1958C141.287 57.6219 140.455 55.6426 140.455 55.6426Z" fill="#3B3F51"/>
<path d="M132.346 71.3811C131.014 70.618 129.611 70.1649 128.755 70.9519C127.899 71.715 128.018 71.4288 127.138 71.8581C126.258 72.2873 125.545 73.6943 125.188 74.0998C124.831 74.5052 123.88 75.2444 123.381 75.7452C122.881 76.246 122.952 78.0584 122.952 78.0584C122.952 78.0584 124.641 81.3733 125.307 81.9933C125.973 82.5895 129.254 82.4225 129.445 82.3987C129.635 82.3748 132.251 82.7325 133.107 82.2794C133.987 81.8502 133.963 80.8009 133.963 80.8009L132.346 71.3811Z" fill="#FF9C78"/>
<path d="M134.986 76.0788L132.322 71.3809C132.322 71.3809 131.252 73.1456 131.609 74.0279C131.966 74.9103 133.06 76.8896 133.06 76.8896C133.06 76.8896 132.013 79.2744 132.584 80.2521C133.155 81.206 134.415 81.4684 134.534 80.6814C134.677 79.8944 134.986 76.0788 134.986 76.0788Z" fill="#FF9C78"/>
<path d="M128.446 71.2146C128.256 72.1446 129.088 75.4356 129.088 75.4356C129.088 75.4356 131.062 82.876 131.847 83.2576C132.631 83.6391 133.654 83.5437 133.583 82.5183C133.511 81.4928 132.203 75.6263 132.203 75.6263L131.561 70.9999C131.561 70.9761 130.016 69.5214 128.446 71.2146Z" fill="#FF9C78"/>
<path d="M148.802 86.1909C148.802 86.1909 146.115 88.0033 145.14 87.7172C144.165 87.431 143.38 87.7172 143.214 88.1226C143.024 88.528 143.428 89.6249 145.449 90.0304C147.471 90.4358 153.273 87.8602 153.273 87.8602L148.802 86.1909Z" fill="#FF9C78"/>
<path d="M149.492 16.8898C154.176 20.133 160.478 18.726 160.478 18.726C160.478 18.726 161.477 20.5146 161.691 20.8723C161.905 21.23 163.189 22.5655 163.189 22.5655L164.806 25.1887L166.566 24.1156C166.566 24.1156 165.329 19.7276 168.064 18.8214C170.799 17.9152 168.825 21.3493 170.347 23.3286C171.893 25.3079 172.654 25.1887 172.654 25.1887C172.654 25.1887 172.202 23.8533 172.796 21.5162C174.2 16.079 174.033 11.6672 171.251 7.08845C168.468 2.50973 164.164 2.58127 164.164 2.58127C164.164 2.58127 160.764 -1.75898 153.487 0.816553C146.21 3.36824 145.33 9.9263 145.829 14.0996C145.948 15.1012 146.947 18.4637 146.947 18.4637C146.947 18.4637 146.234 12.9788 146.709 14.0042C147.304 15.2204 148.826 16.4367 149.492 16.8898Z" fill="#553012"/>
<path d="M166.78 21.8023C166.519 21.2538 166.209 18.8929 168.326 18.1298C170.442 17.3666 170.466 19.7991 170.347 21.4207C170.228 23.0423 170.062 24.9025 168.754 25.4033C167.446 25.9041 167.113 24.2586 167.113 23.7816C167.113 23.3285 166.78 21.8023 166.78 21.8023Z" fill="#FF9C78"/>
<path d="M186.138 71.8821C175.246 77.8202 162.452 84.7121 157.934 85.0698C153.392 85.4275 149.088 86.0237 149.088 86.0237C149.088 86.0237 141.074 91.3656 140.669 91.7948C140.265 92.2241 140.669 93.1064 140.669 93.1064C140.669 93.1064 139.766 93.2495 140.241 94.3465C140.717 95.4435 141.93 94.9665 141.93 94.9665C141.93 94.9665 142.477 95.5627 143.309 95.5627C144.141 95.5627 145.711 94.8712 145.711 94.8712C145.711 94.8712 146.068 96.1828 147.399 95.9443C148.707 95.682 154.724 93.3211 154.724 93.3211C154.724 93.3211 157.673 93.3687 159.694 92.5102C161.715 91.6279 161.691 90.8171 162.548 90.1255C163.38 89.4339 176.031 88.6946 183.379 85.9045C190.728 83.0905 194.937 81.2781 195.769 78.4879C196.601 75.6739 194.295 73.8615 194.295 73.8615C194.295 73.8615 188.635 70.499 186.138 71.8821Z" fill="#FF9C78"/>
<path d="M187.802 75.221C187.588 75.0541 187.66 77.415 186.138 71.8585C184.616 66.3021 182.594 53.6867 182.214 48.8457C181.833 44.0046 180.835 38.4005 185.02 34.7279C186.447 34.0602 186.447 34.0602 186.447 34.0602C186.447 34.0602 188.801 33.9171 190.371 35.4434C191.916 36.9696 193.415 38.7343 194.627 47.5818C195.84 56.4292 197.814 73.3371 195.959 79.1082C192.796 78.1066 187.802 75.221 187.802 75.221Z" fill="#3B3F51"/>
<path d="M186.138 71.8818C181.643 73.5989 161.382 82.8278 160.645 83.3048C159.908 83.7817 160.264 84.5687 160.264 84.5687C160.264 84.5687 161.62 85.3795 162.5 87.2158C163.38 89.0521 162.738 90.0298 162.738 90.0298C162.738 90.0298 163.285 90.6498 163.641 90.6021C166.043 90.2206 175.104 89.3859 182.69 86.6196C193.89 82.5178 194.675 81.397 195.935 79.1315C196.34 77.0091 186.138 71.8818 186.138 71.8818Z" fill="#3B3F51"/>
<path d="M88.2094 159.712C89.9692 160.738 92.8229 160.714 94.5826 159.712C96.3424 158.687 96.3662 157.041 94.6064 156.016C92.8467 154.991 89.993 155.014 88.2332 156.016C86.4497 157.041 86.4497 158.687 88.2094 159.712Z" fill="#A8ABB5"/>
<path d="M73.2273 122.296C75.32 121.628 75.5578 120.341 77.5792 120.126C79.6005 119.911 80.2664 119.554 80.528 118.981C80.7896 118.409 79.1011 117.598 78.8871 117.622C78.6731 117.646 75.2249 115.833 73.9408 115.69C72.6566 115.547 69.9694 115.357 68.9706 115.69C67.9718 116.024 63.7865 120.007 62.9541 120.102C62.1218 120.221 58.0078 124.228 62.9541 124.609C67.9005 124.991 73.2273 122.296 73.2273 122.296Z" fill="#FF9C78"/>
<path d="M67.4486 125.205C67.5438 122.892 66.331 118.313 62.5974 119.673C58.6974 121.104 49.7559 123.345 49.7559 123.345C49.7559 123.345 42.5741 136.509 48.4955 135.364C54.4407 134.22 67.4486 125.205 67.4486 125.205Z" fill="#F8F7FB"/>
<path d="M69.8032 123.369C71.8483 123.607 72.8471 122.94 74.2026 122.248C75.5581 121.557 76.6282 121.27 77.0325 120.627C77.4368 119.983 77.0563 119.363 75.9624 119.41C74.8923 119.434 72.7996 120.34 72.5142 120.46C72.2288 120.579 70.2788 120.269 69.1611 120.603C68.0435 120.937 67.4727 123.083 69.8032 123.369Z" fill="#FF9C78"/>
<path d="M55.8914 160.834C57.0566 165.961 51.8487 169.18 43.2401 169.848C34.6316 170.516 24.287 162.98 24.1919 160.524C24.0968 158.091 24.7626 142.257 24.1681 138.87C23.5736 135.508 18.651 116.644 21.576 107.129C24.1681 98.6156 35.6779 101.811 35.6779 101.811C35.6779 101.811 53.989 110.301 56.6999 113.592C59.4109 116.883 55.9627 137.63 55.8201 142.543C55.6774 147.455 55.8914 160.834 55.8914 160.834Z" fill="#EAEEF9"/>
<path d="M51.5159 111.898C49.2567 112.565 46.2604 115.332 46.189 119.529C46.1177 123.702 52.9189 132.717 52.9189 132.717C52.9189 132.717 69.494 148.17 73.0849 147.645C76.6758 147.121 78.9349 142.232 79.0776 141.135C79.2203 140.038 75.5105 134.648 75.5105 134.648C75.5105 134.648 59.197 115.069 56.486 113.329C53.7513 111.612 51.5159 111.898 51.5159 111.898Z" fill="#F8F7FB"/>
<path d="M31.2786 92.5109C32.5389 96.4696 32.3725 100.238 31.9206 102.789C31.4688 105.341 30.9932 105.222 31.5164 105.889C32.0395 106.557 35.4402 108.608 39.9347 109.037C44.4292 109.466 46.4981 107.988 46.4981 107.988C46.4981 107.988 46.0463 100.905 46.5219 100.261C46.9975 99.5936 49.7798 99.1644 51.278 97.4474C52.7524 95.7542 51.278 87.6699 51.278 87.6699C51.278 87.6699 51.9914 81.8988 51.6585 79.8717C51.3256 77.8447 50.5646 73.1229 48.6384 73.0514C46.7359 73.0037 31.2786 92.5109 31.2786 92.5109Z" fill="#FF9C78"/>
<path d="M47.4967 87.1925C47.1162 86.6201 45.404 86.787 44.9283 88.6472C44.4527 90.5073 45.3088 93.5597 46.4741 93.8221C47.6156 94.1082 47.4967 92.2481 47.4967 92.2481V87.1925Z" fill="#FF9C78"/>
<path d="M88.2568 132.289C90.2068 131.072 90.4446 130.834 90.4446 130.834C90.4446 130.834 90.1355 130.095 90.8014 129.093C91.4672 128.115 93.4648 127.138 93.4648 127.138C93.4648 127.138 95.4386 127.185 96.4611 126.804C97.4837 126.422 98.102 126.971 98.102 126.971C98.102 126.971 100.813 126.446 101.479 126.398C102.145 126.351 102.739 127.066 102.739 127.066C102.739 127.066 103.595 126.565 104.333 126.994C105.07 127.424 104.737 127.925 104.737 127.925C104.737 127.925 105.617 128.33 105.236 128.998C104.856 129.665 104.57 129.88 104.57 129.88C104.57 129.88 105.545 130.309 104.879 131.001C104.19 131.692 101.836 133.028 101.146 133.696C100.456 134.363 98.0069 135.89 96.7941 136.414C95.5812 136.939 93.7264 136.057 93.1794 136.414C92.6325 136.772 89.327 139.252 89.327 139.252L88.2568 132.289Z" fill="#FF9C78"/>
<path d="M47.9487 89.6489C47.9487 89.6489 46.9023 85.7379 45.5944 86.7395C44.2865 87.7411 41.8133 93.9414 39.7919 95.7062C37.7706 97.4709 33.9181 97.8286 32.0395 95.9923C30.1608 94.1561 31.0407 92.5106 28.4486 89.2196C25.8803 85.9287 24.834 76.4135 30.1846 73.3372C34.3224 68.83 38.9834 67.8523 45.4517 70.0939C51.92 72.3356 51.3255 74.9827 51.3255 74.9827C51.3255 74.9827 50.4456 78.7744 51.1115 79.6091C51.7773 80.4437 50.6121 83.6155 50.6121 83.6155L49.5658 87.9557L47.9487 89.6489Z" fill="#553012"/>
<path d="M92.2281 138.274C93.322 134.602 93.108 131.12 88.9939 131.669C84.8799 132.217 75.5579 135.508 75.5579 135.508C75.5579 135.508 68.3761 148.672 74.2975 147.527C80.2189 146.406 92.2281 138.274 92.2281 138.274Z" fill="#F8F7FB"/>
<path d="M3.19363 116.621L3.31253 116.525C4.47778 115.714 5.57168 115.643 6.2851 116.167L41.8133 136.724L38.3175 212.297L2.76558 191.716L1.90947 155.754L0.00702915 122.749C-0.111874 120.651 1.29118 117.932 3.19363 116.621Z" fill="url(#paint7_linear_624_5512)"/>
<path d="M45.6896 171.088L42.7171 138.536C42.5268 136.437 40.8146 135.794 38.8884 137.129L38.7695 137.224C36.867 138.536 35.464 141.231 35.6067 143.353L37.5091 176.358L38.3652 212.32L42.1225 210.174L46.3555 198.727L45.6896 171.088Z" fill="url(#paint8_linear_624_5512)"/>
<path d="M43.121 204.069C41.9795 203.473 40.0533 201.947 39.8155 198.537C39.6728 196.414 39.6728 193.719 39.6966 191.549C39.6966 190.5 39.6966 189.57 39.6966 188.926C39.6728 187.877 39.8631 186.756 40.2673 185.683C40.5527 184.896 40.8619 184.324 41.2186 183.918L41.4326 183.656C43.5728 181.128 45.2613 179.149 48.2814 177.408L72.7516 163.242C74.0833 162.455 75.415 162.336 76.4852 162.932C77.5077 163.505 78.1022 164.625 78.1736 166.104C78.2449 167.63 78.2211 168.99 78.1736 169.8C78.1022 171.708 71.3486 190.643 65.3559 194.101L47.4966 204.451C47.0924 204.689 46.5454 204.785 45.9509 204.785C45.0234 204.785 44.0009 204.546 43.121 204.069ZM73.6315 164.84L49.1613 179.006C46.4265 180.579 44.9045 182.392 42.7881 184.872L42.5741 185.134C42.4314 185.301 42.2173 185.635 41.9558 186.351C41.6228 187.209 41.4801 188.091 41.5039 188.902C41.5277 189.57 41.5277 190.5 41.5039 191.573C41.5039 193.696 41.4801 196.367 41.6228 198.417C41.7893 200.826 43.0021 201.947 43.9771 202.471C45.1661 203.115 46.3076 203.02 46.5692 202.877L64.4284 192.527C69.6126 189.522 76.2711 171.494 76.3425 169.729C76.3662 168.966 76.4138 167.654 76.3425 166.199C76.2949 165.389 76.0333 164.792 75.6053 164.554C75.4388 164.459 75.2486 164.411 75.0345 164.411C74.6065 164.387 74.1309 164.554 73.6315 164.84Z" fill="#E0E0E0"/>
<path d="M44.5244 204.88C43.383 204.284 41.4329 202.757 41.1951 199.347C41.0525 197.225 41.0525 194.53 41.0762 192.36C41.0762 191.311 41.0762 190.381 41.0762 189.737C41.0525 188.687 41.2427 187.567 41.647 186.493C41.9323 185.73 42.2415 185.134 42.5982 184.729L42.8122 184.466C44.9525 181.939 46.6409 179.959 49.661 178.218L74.1312 164.053C75.4867 163.266 76.8184 163.147 77.8648 163.743C78.8874 164.315 79.4819 165.436 79.5532 166.915C79.6008 168.083 79.6008 169.323 79.5532 170.611C79.4819 172.519 72.7044 191.454 66.7355 194.912L48.8763 205.261C48.472 205.5 47.925 205.619 47.3305 205.619C46.4269 205.595 45.4043 205.357 44.5244 204.88ZM75.0349 165.651L50.5647 179.816C47.8299 181.39 46.308 183.202 44.1915 185.683L43.9775 185.945C43.7872 186.183 43.5494 186.613 43.3592 187.161C43.0263 188.02 42.8836 188.902 42.9073 189.713C42.9311 190.381 42.9311 191.311 42.9073 192.384C42.9073 194.506 42.8836 197.177 43.0263 199.228C43.1927 201.637 44.4055 202.757 45.3805 203.282C46.5696 203.926 47.711 203.831 47.9726 203.687L65.8318 193.338C71.016 190.333 77.6746 172.304 77.7459 170.539C77.7697 169.776 77.8172 168.465 77.7459 167.01C77.6983 166.199 77.4367 165.603 77.0087 165.364C76.8422 165.269 76.652 165.221 76.438 165.221C76.0099 165.221 75.5343 165.364 75.0349 165.651Z" fill="#E0E0E0"/>
<path d="M80.0999 165.031C79.0536 163.958 77.3414 163.862 75.4151 164.983L50.9449 179.149C50.065 179.649 49.2803 180.198 48.5669 180.746L45.7607 179.125V177.527C45.7607 177.527 47.687 177.789 48.1388 177.527L72.609 163.362C74.5352 162.241 76.8182 161.454 77.8645 162.503C77.8645 162.503 79.2914 162.932 80.0761 163.433C80.7658 163.815 80.0999 165.031 80.0999 165.031Z" fill="#2C3240"/>
<path d="M80.0999 163.433C78.8158 162.67 77.3414 162.265 75.4151 163.385L50.9449 177.551C50.065 178.052 49.2803 178.6 48.5669 179.149L45.7607 177.527C46.4742 176.979 47.2589 176.43 48.1388 175.929L72.609 161.764C74.5352 160.643 75.8907 161.263 77.2938 161.812L80.0999 163.433Z" fill="#374056"/>
<defs>
<linearGradient id="paint0_linear_624_5512" x1="171.065" y1="96.1162" x2="202.296" y2="42.174" gradientUnits="userSpaceOnUse">
<stop offset="0.8246" stop-color="#282E3B"/>
<stop offset="0.8674" stop-color="#31394C"/>
<stop offset="0.9255" stop-color="#3A445C"/>
<stop offset="0.9699" stop-color="#3D4862"/>
</linearGradient>
<linearGradient id="paint1_linear_624_5512" x1="218.021" y1="103.942" x2="188.795" y2="53.4631" gradientUnits="userSpaceOnUse">
<stop offset="0.6814" stop-color="#2C3240"/>
<stop offset="0.8254" stop-color="#2D3442"/>
<stop offset="0.9039" stop-color="#31394A"/>
<stop offset="0.9663" stop-color="#384258"/>
<stop offset="1" stop-color="#3E4963"/>
</linearGradient>
<linearGradient id="paint2_linear_624_5512" x1="155.332" y1="126.432" x2="174.028" y2="94.1403" gradientUnits="userSpaceOnUse">
<stop offset="0.1008" stop-color="#2D3341"/>
<stop offset="0.162" stop-color="#3D4862"/>
<stop offset="0.9021" stop-color="#3E4962"/>
</linearGradient>
<linearGradient id="paint3_linear_624_5512" x1="184.041" y1="123.617" x2="180.526" y2="117.547" gradientUnits="userSpaceOnUse">
<stop offset="0.5039" stop-color="#2D3341"/>
<stop offset="0.6858" stop-color="#2E3543"/>
<stop offset="0.7848" stop-color="#323A4B"/>
<stop offset="0.8637" stop-color="#394259"/>
<stop offset="0.8992" stop-color="#3D4862"/>
</linearGradient>
<linearGradient id="paint4_linear_624_5512" x1="182.938" y1="139.258" x2="191.964" y2="139.258" gradientUnits="userSpaceOnUse">
<stop offset="0.0335" stop-color="#8C909D"/>
<stop offset="0.6418" stop-color="#A8ABB5"/>
</linearGradient>
<linearGradient id="paint5_linear_624_5512" x1="63.1548" y1="197.944" x2="59.2498" y2="191.2" gradientUnits="userSpaceOnUse">
<stop offset="0.5039" stop-color="#2C3240"/>
<stop offset="0.6826" stop-color="#2D3442"/>
<stop offset="0.78" stop-color="#31394A"/>
<stop offset="0.8575" stop-color="#384258"/>
<stop offset="0.8992" stop-color="#3E4963"/>
</linearGradient>
<linearGradient id="paint6_linear_624_5512" x1="86.896" y1="194.864" x2="95.9224" y2="194.864" gradientUnits="userSpaceOnUse">
<stop offset="0.0335" stop-color="#8C909D"/>
<stop offset="0.6418" stop-color="#A8ABB5"/>
</linearGradient>
<linearGradient id="paint7_linear_624_5512" x1="4.19765" y1="192.555" x2="37.8457" y2="134.438" gradientUnits="userSpaceOnUse">
<stop offset="0.8246" stop-color="#282E3B"/>
<stop offset="0.8674" stop-color="#31394C"/>
<stop offset="0.9255" stop-color="#3A445C"/>
<stop offset="0.9699" stop-color="#3D4862"/>
</linearGradient>
<linearGradient id="paint8_linear_624_5512" x1="56.0256" y1="202.073" x2="23.5491" y2="145.98" gradientUnits="userSpaceOnUse">
<stop offset="0.6814" stop-color="#2C3240"/>
<stop offset="0.8254" stop-color="#2D3442"/>
<stop offset="0.9039" stop-color="#31394A"/>
<stop offset="0.9663" stop-color="#384258"/>
<stop offset="1" stop-color="#3E4963"/>
</linearGradient>
</defs>
</svg>
