<svg width="235" height="250" viewBox="0 0 235 250" fill="none" xmlns="http://www.w3.org/2000/svg">
<path d="M136.403 137.792L143.225 133.816L143.089 239.354L136.267 243.343L136.403 137.792Z" fill="#4B4B4B"/>
<path d="M130.559 134.413L137.393 130.424L143.225 133.816L136.403 137.792L130.559 134.413Z" fill="#63B5B3"/>
<path d="M136.403 137.793L136.267 243.343L130.423 239.951L130.559 134.413L136.403 137.793Z" fill="#151719"/>
<path d="M206.987 122.708L213.821 118.72L213.685 198.339L206.85 202.315L206.987 122.708Z" fill="#4B4B4B"/>
<path d="M201.155 119.317L207.977 115.328L213.821 118.72L206.986 122.709L201.155 119.317Z" fill="#63B5B3"/>
<path d="M206.986 122.708L206.85 202.315L201.006 198.936L201.155 119.316L206.986 122.708Z" fill="#151719"/>
<path d="M17.8803 97.2868L24.7146 93.2983L24.5784 170.731L17.7441 174.719L17.8803 97.2868Z" fill="#ECD9CC"/>
<path d="M12.0488 93.9069L18.8708 89.9185L24.7146 93.298L17.8803 97.2865L12.0488 93.9069Z" fill="#63B5B3"/>
<path d="M17.8797 97.2868L17.7435 174.719L11.8997 171.327L12.0482 93.9072L17.8797 97.2868Z" fill="#151719"/>
<path d="M228.357 119.378L228.332 125.852L137.666 178.733L137.691 172.247L228.357 119.378Z" fill="#20272B"/>
<path d="M137.691 172.247L137.666 178.733L0.0634766 99.0015L0.0882385 92.5156L137.691 172.247Z" fill="#151719"/>
<path d="M228.356 119.378L137.69 172.247L0.0878906 92.5153L90.7415 39.647L228.356 119.378Z" fill="#5D5D5D"/>
<path d="M78.9675 87.5326C78.9675 87.9924 79.2647 88.4645 79.8713 88.8124L81.4685 89.7443V87.7066L84.6628 85.8428L87.7952 87.6569L86.0123 88.713L84.6628 87.9302L83.2637 88.7503L84.6133 89.5331L87.7952 87.6693V87.7811L89.318 86.8865C89.4418 86.4144 89.6276 85.9919 89.8628 85.5943L88.8476 85.0104V82.923L92.0295 81.0592L92.7476 81.4692V80.6368L95.9295 78.773L96.6352 79.183V78.3506L99.8295 76.4868L102.962 78.3133V78.8227L103.395 78.5742L106.528 80.4007V80.9101L106.961 80.6492L110.093 82.4757V82.9851L110.527 82.7366L113.647 84.5506V85.0601L114.08 84.8116L117.212 86.638V87.1475L117.646 86.899L120.778 88.7254V89.2224L121.211 88.9739L124.344 90.788V91.2974L124.777 91.0365L127.897 92.863V93.3724L128.331 93.1239L131.463 94.9379V95.4474L131.896 95.1864L135.029 97.0129V97.5223L135.462 97.2614L138.594 99.0879V99.5973L139.028 99.3364L142.16 101.163V101.66L142.593 101.411L145.726 103.225V103.735L146.159 103.474L149.292 105.3V107.177L150.901 106.232L154.033 108.059V109.972L155.519 109.102C156.113 108.755 156.411 108.295 156.411 107.835L156.398 109.922C156.398 110.382 156.101 110.842 155.507 111.19L137.319 121.85C136.118 122.546 134.162 122.546 132.949 121.85L79.8713 90.8998C79.2647 90.5519 78.9675 90.0798 78.9675 89.62C78.9675 88.9242 78.9675 88.2284 78.9675 87.5326Z" fill="#AEC0D0"/>
<path d="M79.8596 86.2651L98.0473 75.6044C99.2482 74.8962 101.204 74.8962 102.418 75.6044L155.458 106.481C156.659 107.189 156.671 108.332 155.47 109.04L137.283 119.701C136.082 120.397 134.125 120.397 132.912 119.701L79.872 88.8122C78.671 88.104 78.671 86.9609 79.8596 86.2651Z" fill="#FBFCFF"/>
<path d="M99.8415 76.4614L96.6472 78.3376L99.7796 80.1517L102.962 78.2879L99.8415 76.4614Z" fill="#1C2325"/>
<path d="M103.396 78.5361L100.214 80.4123L103.334 82.2264L106.528 80.3626L103.396 78.5361Z" fill="#1C2325"/>
<path d="M106.961 80.6113L103.767 82.4751L106.899 84.3016L110.081 82.4378L106.961 80.6113Z" fill="#1C2325"/>
<path d="M99.4956 80.8223L96.3137 82.686L99.4337 84.5125L102.628 82.6487L99.4956 80.8223Z" fill="#1C2325"/>
<path d="M92.0298 81.0347L88.8479 82.8984L91.9803 84.7249L95.1622 82.8611L92.0298 81.0347Z" fill="#1C2325"/>
<path d="M110.527 82.6865L107.333 84.5503L110.453 86.3767L113.647 84.5006L110.527 82.6865Z" fill="#1C2325"/>
<path d="M95.5955 83.1094L92.4136 84.9731L95.5336 86.7996L98.7279 84.9359L95.5955 83.1094Z" fill="#1C2325"/>
<path d="M114.08 84.7617L110.886 86.6255L114.018 88.4519L117.212 86.5758L114.08 84.7617Z" fill="#1C2325"/>
<path d="M99.1613 85.1836L95.967 87.0473L99.0994 88.8738L102.281 87.0101L99.1613 85.1836Z" fill="#1C2325"/>
<path d="M117.646 86.8364L114.452 88.7002L117.584 90.5267L120.766 88.6505L117.646 86.8364Z" fill="#1C2325"/>
<path d="M108.138 85.8555L104.956 87.7192L113.684 92.801L116.866 90.9373L108.138 85.8555Z" fill="#1C2325"/>
<path d="M124.765 90.9736L121.571 92.8498L124.703 94.6639L127.885 92.8001L124.765 90.9736Z" fill="#1C2325"/>
<path d="M117.299 91.1968L114.117 93.0481L117.237 94.8746L120.419 93.0108L117.299 91.1968Z" fill="#1C2325"/>
<path d="M103.953 88.3022L100.263 90.4642L98.1458 91.7067L97.0811 92.3404L102.355 95.4093L105.537 93.5332L103.928 92.5889L107.605 90.4269L103.953 88.3022Z" fill="#1C2325"/>
<path d="M128.318 93.0493L125.136 94.9255L128.256 96.7395L131.451 94.8758L128.318 93.0493Z" fill="#1C2325"/>
<path d="M120.853 93.2603L117.671 95.124L120.803 96.9505L123.985 95.0867L120.853 93.2603Z" fill="#1C2325"/>
<path d="M115.802 94.875L112.62 96.7387L115.74 98.5652L118.922 96.689L115.802 94.875Z" fill="#1C2325"/>
<path d="M131.884 95.1235L128.69 96.9873L131.822 98.8138L135.017 96.95L131.884 95.1235Z" fill="#1C2325"/>
<path d="M124.419 95.3354L121.237 97.1992L124.369 99.0257L127.551 97.1619L124.419 95.3354Z" fill="#1C2325"/>
<path d="M119.317 96.9253L116.135 98.789L119.268 100.616L122.45 98.7393L119.317 96.9253Z" fill="#1C2325"/>
<path d="M135.437 97.1987L132.255 99.0625L135.388 100.889L138.57 99.0128L135.437 97.1987Z" fill="#1C2325"/>
<path d="M127.984 97.4102L124.802 99.2739L127.922 101.1L131.117 99.2242L127.984 97.4102Z" fill="#1C2325"/>
<path d="M103.842 97.0381L100.647 98.9018L106.875 102.53L110.057 100.654L103.842 97.0381Z" fill="#1C2325"/>
<path d="M122.834 98.9756L119.652 100.839L122.784 102.653L125.966 100.79L122.834 98.9756Z" fill="#1C2325"/>
<path d="M139.003 99.2617L135.809 101.138L138.941 102.952L142.136 101.088L139.003 99.2617Z" fill="#1C2325"/>
<path d="M131.538 99.4854L128.356 101.349L131.488 103.176L134.67 101.299L131.538 99.4854Z" fill="#1C2325"/>
<path d="M126.363 101.026L123.181 102.89L126.301 104.704L129.483 102.84L126.363 101.026Z" fill="#1C2325"/>
<path d="M142.557 101.349L139.375 103.213L142.507 105.027L145.689 103.163L142.557 101.349Z" fill="#1C2325"/>
<path d="M135.103 101.548L131.921 103.424L135.053 105.238L138.235 103.374L135.103 101.548Z" fill="#1C2325"/>
<path d="M129.878 103.063L126.696 104.927L129.816 106.753L133.01 104.889L129.878 103.063Z" fill="#1C2325"/>
<path d="M146.122 103.411L142.94 105.287L146.06 107.101L149.254 105.237L146.122 103.411Z" fill="#1C2325"/>
<path d="M138.657 103.623L135.475 105.486L138.607 107.313L141.789 105.449L138.657 103.623Z" fill="#1C2325"/>
<path d="M133.395 105.113L130.213 106.977L133.345 108.804L136.527 106.94L133.395 105.113Z" fill="#1C2325"/>
<path d="M150.852 106.17L147.657 108.034L150.802 109.86L153.984 107.996L150.852 106.17Z" fill="#1C2325"/>
<path d="M136.91 107.163L133.729 109.039L136.861 110.853L140.043 108.99L136.91 107.163Z" fill="#1C2325"/>
<path d="M110.44 100.89L107.258 102.753L122.549 111.662L125.731 109.798L110.44 100.89Z" fill="#1C2325"/>
<path d="M142.371 105.785L139.189 107.661L146.902 112.146L150.084 110.27L142.371 105.785Z" fill="#1C2325"/>
<path d="M140.452 109.226L137.257 111.089L143.002 114.432L146.184 112.555L140.452 109.226Z" fill="#1C2325"/>
<path d="M126.226 110.07L123.031 111.934L128.318 115.015L131.5 113.152L126.226 110.07Z" fill="#1C2325"/>
<path d="M132.144 113.526L128.962 115.39L135.177 119.005L138.371 117.142L132.144 113.526Z" fill="#1C2325"/>
<path d="M95.9295 78.7476L92.7476 80.6237L95.8799 82.4378L99.0619 80.574L95.9295 78.7476Z" fill="#1C2325"/>
<path d="M103.061 82.8975L99.8792 84.7612L102.999 86.5877L106.181 84.7239L103.061 82.8975Z" fill="#1C2325"/>
<path d="M84.6628 85.8306L81.4685 87.7067L84.6009 89.5208L87.7828 87.657L84.6628 85.8306Z" fill="#1C2325"/>
<path d="M88.2041 87.8926L87.7832 88.1411L85.0222 89.7688L88.1546 91.5828L91.3365 89.7191L91.0146 89.5327L88.2041 87.8926Z" fill="#1C2325"/>
<path d="M91.6458 85.8306L91.2248 86.0791L88.4639 87.7067L91.5839 89.5208L94.7782 87.657L94.4563 87.4707L91.6458 85.8306Z" fill="#1C2325"/>
<path d="M121.2 88.9106L118.018 90.7744L121.138 92.5884L124.332 90.7247L121.2 88.9106Z" fill="#1C2325"/>
<path d="M91.6458 89.8926L88.4639 91.7688L91.5839 93.5952L94.7782 91.7191L91.6458 89.8926Z" fill="#1C2325"/>
<path d="M108.756 90.7754L105.574 92.6391L108.707 94.4656L111.889 92.6019L108.756 90.7754Z" fill="#1C2325"/>
<path d="M112.272 92.8242L109.091 94.688L112.223 96.5144L115.405 94.6383L112.272 92.8242Z" fill="#1C2325"/>
<path d="M96.7344 92.9126L93.5525 94.7763L100.003 98.5287L103.185 96.665L96.7344 92.9126Z" fill="#1C2325"/>
<path d="M131.03 108.282L127.836 110.158L130.956 111.972L134.15 110.109L131.03 108.282Z" fill="#1C2325"/>
<path d="M130.671 108.083L127.539 106.257L124.357 108.133L127.477 109.947L130.671 108.083Z" fill="#1C2325"/>
<path d="M127.155 106.033L124.022 104.219L120.84 106.082L123.973 107.909L127.155 106.033Z" fill="#1C2325"/>
<path d="M123.676 104.007L120.543 102.193L117.349 104.057L120.481 105.871L123.676 104.007Z" fill="#1C2325"/>
<path d="M120.035 101.895L116.915 100.069L113.721 101.933L116.853 103.759L120.035 101.895Z" fill="#1C2325"/>
<path d="M116.557 99.8575L113.437 98.0435L110.243 99.9072L113.363 101.734L116.557 99.8575Z" fill="#1C2325"/>
<path d="M113.04 97.8206L109.908 95.9941L106.714 97.8579L109.846 99.6844L113.04 97.8206Z" fill="#1C2325"/>
<path d="M109.549 95.7942L106.429 93.9678L103.235 95.8315L106.367 97.658L109.549 95.7942Z" fill="#1C2325"/>
<path d="M142.284 114.842L134.583 110.357L131.389 112.233L139.102 116.719L142.284 114.842Z" fill="#1C2325"/>
<path d="M163.592 84.9351V88.4762L147.657 97.8198V94.2662L163.592 84.9351Z" fill="#AEC0D0"/>
<path d="M147.657 94.2662V97.8197L113.461 77.9149V74.3613L147.657 94.2662Z" fill="#FBFCFF"/>
<path d="M163.592 84.9356L147.657 94.2668L113.461 74.3619L129.395 65.0308L163.592 84.9356Z" fill="#E8E8E8"/>
<path d="M128.009 58.0361L123.935 60.4217L150.047 75.6175L150.319 81.3703L127.452 68.0507L123.391 70.4363L123.193 73.8904L150.716 89.9187L154.789 87.5331L154.616 83.8677L154.12 73.2319L128.009 58.0361Z" fill="#121719"/>
<path d="M123.391 70.4359L123.948 60.4214L150.047 75.6172L150.555 86.2529L150.716 89.9183L123.193 73.8901L123.391 70.4359Z" fill="#161B1E"/>
<path d="M155.123 75.2694L170.29 84.0041V85.6815C170.29 86.6258 169.955 87.3092 169.41 87.6198C170.859 86.7749 172.308 85.9176 173.756 85.0727C174.301 84.7496 174.635 84.0787 174.635 83.1344V81.457V79.3075L174.648 77.0586L174.759 41.0509C174.759 39.1375 173.422 36.7892 171.763 35.82L110.923 0.408763C110.093 -0.0758119 109.338 -0.113087 108.793 0.209963L104.447 2.75709C104.992 2.43404 105.747 2.48374 106.577 2.96831L109.474 4.64569L106.503 6.38519C106.181 6.57156 105.97 6.98159 105.97 7.55314L105.859 43.685L103.445 45.1015L127.266 59.0672L155.123 75.2694Z" fill="#121719"/>
<path d="M167.417 38.3671C169.064 39.3238 170.413 41.6846 170.413 43.598L170.302 79.6057L170.289 81.8546V84.0041L103.457 45.089L103.469 42.9395V40.6906L103.581 4.68294C103.581 2.76949 104.93 1.98672 106.589 2.95587L167.417 38.3671ZM167.875 80.7736L167.986 43.6477C167.999 42.5046 167.182 41.0882 166.191 40.5042L107.79 6.50941C106.8 5.92544 105.983 6.39759 105.983 7.55311L105.871 44.679L167.875 80.7736Z" fill="#1C2325"/>
<path d="M170.289 84.0035V85.6808C170.289 87.5943 168.927 88.3771 167.281 87.4079L106.453 51.9967C104.794 51.0275 103.457 48.6792 103.457 46.7658V45.0884L170.289 84.0035Z" fill="#1C2325"/>
<path d="M107.79 6.50851C106.8 5.92453 105.983 6.39668 105.983 7.55221L105.884 44.2059C105.884 45.9082 107.06 47.9831 108.533 48.8405L165.238 81.8537C166.699 82.6986 167.888 82.0152 167.9 80.313L168.012 43.6717C168.024 42.5286 167.207 41.1121 166.216 40.5281L107.79 6.50851Z" fill="#45BDF5"/>
<path d="M167.974 47.5864L167.875 80.289C167.875 81.9913 166.687 82.6871 165.213 81.8297L162.601 80.3139V44.4678L167.974 47.5864Z" fill="#313131"/>
<path d="M167.281 52.7679L163.32 50.4568V45.8472L167.281 48.1458V52.7679Z" fill="#191919"/>
<path d="M167.281 58.2835L163.32 55.9849V51.3628L167.281 53.6738V58.2835Z" fill="#191919"/>
<path d="M167.281 63.8138L163.32 61.5027V56.8931L167.281 59.1917V63.8138Z" fill="#191919"/>
<path d="M167.281 69.3294L163.32 67.0308V62.4087L167.281 64.7197V69.3294Z" fill="#191919"/>
<path d="M167.281 74.8221L163.32 72.511V67.9014L167.281 70.2124V74.8221Z" fill="#191919"/>
<path d="M167.281 80.3509L163.32 78.0399V73.4302L167.281 75.7288V80.3509Z" fill="#191919"/>
<path d="M162.614 44.4678V80.3139L121.447 56.3461V20.5L162.614 44.4678Z" fill="#696969"/>
<path d="M105.933 26.5382L105.983 11.5039L121.459 20.512V35.5835V56.3706L108.521 48.8286C107.06 47.9713 105.872 45.9087 105.872 44.1941L105.933 26.5382Z" fill="#313131"/>
<path d="M107.358 28.7993L120.271 36.304V35.4964L107.358 27.9917V28.7993Z" fill="#FD7261"/>
<path d="M107.358 30.2656L120.271 37.7828V36.9751L107.358 29.458V30.2656Z" fill="#B1D22D"/>
<path d="M107.358 31.7441L120.271 39.2613V38.4536L107.358 30.9365V31.7441Z" fill="#6ED0F6"/>
<path d="M107.11 36.4035L109.722 37.9193V34.8752L107.11 33.3594V36.4035Z" fill="#FD7261"/>
<path d="M109.748 37.9318L112.36 39.4601V36.416L109.748 34.8877V37.9318Z" fill="#FD8E7F"/>
<path d="M112.385 39.4728L114.997 40.9887V37.9446L112.385 36.4287V39.4728Z" fill="#FDA89D"/>
<path d="M115.022 41.0007L117.634 42.5289V39.4848L115.022 37.9565V41.0007Z" fill="#FDC3BA"/>
<path d="M117.646 42.529L120.271 44.0573V41.0131L117.646 39.4849V42.529Z" fill="#FDDDD9"/>
<path d="M107.11 39.4474L109.722 40.9633V37.9192L107.11 36.4033V39.4474Z" fill="#FFB80C"/>
<path d="M109.748 40.9763L112.36 42.5045V39.4604L109.748 37.9321V40.9763Z" fill="#FFC843"/>
<path d="M112.385 42.5168L114.997 44.0326V40.9885L112.385 39.4727V42.5168Z" fill="#FFD978"/>
<path d="M115.022 44.0451L117.634 45.5734V42.5293L115.022 41.001V44.0451Z" fill="#FFE8AE"/>
<path d="M117.646 45.5729L120.271 47.1012V44.0571L117.646 42.5288V45.5729Z" fill="#FFF8E3"/>
<path d="M107.11 42.4914L109.722 44.0072V40.9631L107.11 39.4473V42.4914Z" fill="#B1D22D"/>
<path d="M109.748 44.0202L112.36 45.5485V42.5043L109.748 40.9761V44.0202Z" fill="#B8D24E"/>
<path d="M112.385 45.5607L114.997 47.0766V44.0324L112.385 42.5166V45.5607Z" fill="#BFD26F"/>
<path d="M115.022 47.089L117.634 48.6173V45.5732L115.022 44.0449V47.089Z" fill="#C6D291"/>
<path d="M117.646 48.6298L120.271 50.1456V47.1015L117.646 45.5732V48.6298Z" fill="#CCD2B2"/>
<path d="M107.11 45.5358L109.722 47.0517V44.0075L107.11 42.4917V45.5358Z" fill="#6ED0F6"/>
<path d="M109.748 47.0637L112.36 48.5919V45.5478L109.748 44.0195V47.0637Z" fill="#87D8F6"/>
<path d="M112.385 48.6052L114.997 50.121V47.0769L112.385 45.561V48.6052Z" fill="#9FDEF6"/>
<path d="M115.022 50.134L117.634 51.6622V48.6181L115.022 47.0898V50.134Z" fill="#B8E5F6"/>
<path d="M117.646 51.6735L120.271 53.1894V50.1452L117.646 48.6294V51.6735Z" fill="#D0EBF6"/>
<path d="M107.147 13.6904L120.27 21.3194V34.0923L107.122 26.4385L107.147 13.6904Z" fill="#191919"/>
<path d="M108.212 15.3428L119.207 21.7416V32.4396L108.188 26.0283L108.212 15.3428Z" fill="#696969"/>
<path d="M127.427 30.7012L150.839 44.3314V67.1188L127.365 53.4513L127.427 30.7012Z" fill="#191919"/>
<path d="M129.606 40.0933L148.636 51.1764V63.7132L129.556 52.6052L129.606 40.0933Z" fill="#E8E8E8"/>
<path d="M138.371 45.6849L137.901 46.6043L137.195 45.163L136.985 46.3434L136.081 45.0264L136.155 46.3931L135.103 45.2873L135.462 46.741L134.348 45.921L134.954 47.3747L133.828 46.8777L134.67 48.2569L133.605 48.1202L134.608 49.3254L133.691 49.5491L134.781 50.5058L134.05 51.0898L135.19 51.7483L134.694 52.6429L135.784 52.9411L135.573 54.109L136.551 54.0345L136.613 55.3888L137.43 54.9539L137.777 56.4077L138.371 55.6373L138.978 57.1035L139.312 56.0473L140.13 57.4389L140.191 56.1592L141.182 57.3768L140.959 55.9604L142.061 56.9295L141.566 55.4509L142.692 56.1219L141.974 54.693L143.064 55.0161L142.148 53.7114L143.138 53.6617L142.086 52.5808L142.915 52.1707L141.789 51.3631L142.408 50.6052L141.281 50.133L141.64 49.0893L140.6 48.9775L140.674 47.7102L139.77 47.9587L139.56 46.5422L138.854 47.151L138.371 45.6849Z" fill="#F24C39"/>
<path d="M127.427 30.7012L150.839 44.3314V49.4256L127.365 35.7581L127.427 30.7012Z" fill="#E8E8E8"/>
<path d="M105.983 7.54041C105.983 6.38488 106.8 5.92516 107.79 6.49671L166.192 40.4915C167.182 41.0755 167.999 42.4795 167.987 43.635L167.974 47.5737L105.97 11.4916L105.983 7.54041Z" fill="#E8E8E8"/>
<path d="M144.711 145.894V146.304L155.556 152.665V152.255L144.711 145.894Z" fill="#3698C5"/>
<path d="M145.949 160.605V161.015L160.286 152.665V152.255L145.949 160.605Z" fill="#3698C5"/>
<path d="M139.461 140.042V140.464L145.949 161.015V160.605L139.461 140.042Z" fill="#3698C5"/>
<path d="M160.286 152.255L145.937 160.604L139.449 140.053L160.286 152.255ZM144.711 145.893L148.091 156.603L155.569 152.255L144.711 145.893Z" fill="#45BDF5"/>
<path d="M75.7363 121.565L75.7487 119.167C75.7487 119.851 76.1944 120.534 77.0982 121.069L77.0859 123.467C76.1944 122.945 75.7363 122.249 75.7363 121.565Z" fill="#121719"/>
<path d="M127.241 125.69L127.229 128.088C127.229 128.759 126.783 129.443 125.904 129.965L125.917 127.567C126.796 127.045 127.241 126.361 127.241 125.69Z" fill="#121719"/>
<mask id="mask0_624_5902" style="mask-type:luminance" maskUnits="userSpaceOnUse" x="125" y="125" width="3" height="5">
<path d="M127.241 125.69L127.229 128.088C127.229 128.759 126.783 129.443 125.904 129.965L125.917 127.567C126.796 127.045 127.241 126.361 127.241 125.69Z" fill="white"/>
</mask>
<g mask="url(#mask0_624_5902)">
<path d="M125.941 127.542L125.929 129.94C125.917 129.952 125.904 129.952 125.904 129.952L125.917 127.554C125.929 127.554 125.941 127.542 125.941 127.542Z" fill="#072B49"/>
</g>
<path d="M125.916 127.554V129.965L110.354 139.072L110.366 136.674L125.916 127.554Z" fill="#121719"/>
<path d="M103.903 136.674V139.072L77.0859 123.466L77.0983 121.056L103.903 136.674Z" fill="#121719"/>
<path d="M110.366 136.674L110.354 139.072C108.571 140.116 105.686 140.116 103.903 139.072V136.674C105.698 137.718 108.583 137.718 110.366 136.674Z" fill="#121719"/>
<mask id="mask1_624_5902" style="mask-type:luminance" maskUnits="userSpaceOnUse" x="103" y="136" width="8" height="4">
<path d="M110.366 136.674L110.354 139.072C108.571 140.116 105.686 140.116 103.903 139.072V136.674C105.698 137.718 108.583 137.718 110.366 136.674Z" fill="white"/>
</mask>
<g mask="url(#mask1_624_5902)">
<path d="M110.366 136.674L110.354 139.072C110.106 139.221 109.821 139.345 109.537 139.457L109.549 137.059C109.834 136.947 110.119 136.823 110.366 136.674Z" fill="#121719"/>
<path d="M109.549 137.059L109.536 139.457C107.778 140.091 105.438 139.966 103.903 139.072V136.674C105.438 137.568 107.791 137.693 109.549 137.059Z" fill="#121719"/>
</g>
<path d="M77.098 121.056L103.903 136.674C105.166 137.407 106.986 137.63 108.57 137.32C109.016 137.233 109.45 137.109 109.846 136.935C110.031 136.86 110.205 136.773 110.366 136.674L125.916 127.566C126.052 127.492 126.176 127.405 126.288 127.318C126.585 127.094 126.808 126.846 126.969 126.597C127.551 125.653 127.191 124.559 125.891 123.801L99.0866 108.183C97.7866 107.425 95.9047 107.227 94.2952 107.562C93.8619 107.649 93.4409 107.786 93.0571 107.96C92.9085 108.022 92.7723 108.096 92.6238 108.183L77.0732 117.291C76.9123 117.39 76.7637 117.49 76.6275 117.601C76.3428 117.837 76.1199 118.086 75.9713 118.347C75.4513 119.266 75.8228 120.322 77.098 121.056Z" fill="#20272B"/>
<path d="M80.8501 117.663C79.4386 118.483 79.4386 119.812 80.8501 120.645L98.0844 130.672C99.4958 131.492 101.786 131.492 103.198 130.672L115.566 123.478C116.978 122.658 116.978 121.328 115.566 120.496L98.332 110.456C96.9206 109.636 94.6301 109.636 93.2187 110.456L80.8501 117.663Z" fill="#121719"/>
<path d="M112.508 123.167C112.545 123.167 112.57 123.154 112.607 123.142C113.239 122.782 113.573 122.285 113.573 121.75C113.573 121.216 113.226 120.719 112.607 120.359C112.521 120.309 112.397 120.334 112.347 120.433C112.298 120.52 112.323 120.645 112.422 120.694C112.917 120.98 113.202 121.365 113.202 121.75C113.202 122.136 112.929 122.521 112.422 122.807C112.335 122.856 112.298 122.981 112.347 123.067C112.384 123.13 112.446 123.167 112.508 123.167Z" fill="#45BDF5"/>
<path d="M100.214 129.604C101.006 129.604 101.811 129.43 102.418 129.07C102.504 129.02 102.541 128.896 102.492 128.809C102.442 128.709 102.319 128.685 102.232 128.734C101.118 129.38 99.3224 129.38 98.2081 128.734C98.1214 128.685 97.9976 128.709 97.9481 128.809C97.8986 128.896 97.9233 129.02 98.0224 129.07C98.6167 129.418 99.4214 129.604 100.214 129.604Z" fill="#45BDF5"/>
<path d="M83.9083 120.831C83.9702 120.831 84.0445 120.794 84.0692 120.732C84.1187 120.633 84.094 120.521 83.9949 120.471C83.4997 120.173 83.2149 119.8 83.2149 119.415C83.2149 119.03 83.4873 118.645 83.9949 118.359C84.0816 118.309 84.1187 118.185 84.0692 118.098C84.0197 117.999 83.8959 117.974 83.8092 118.023C83.1902 118.384 82.8435 118.881 82.8435 119.415C82.8435 119.949 83.1902 120.446 83.8092 120.807C83.8464 120.819 83.8711 120.831 83.9083 120.831Z" fill="#45BDF5"/>
<path d="M98.3073 112.444C98.3692 112.444 98.4435 112.407 98.4683 112.345C98.5178 112.245 98.493 112.134 98.394 112.084C97.1806 111.376 95.1997 111.376 93.9864 112.084C93.8997 112.134 93.8626 112.258 93.9121 112.345C93.9616 112.432 94.0854 112.469 94.1721 112.419C95.2864 111.773 97.0816 111.773 98.1959 112.419C98.2454 112.432 98.2826 112.444 98.3073 112.444Z" fill="#45BDF5"/>
<path d="M104.213 131.293C102.801 132.114 102.801 133.443 104.213 134.275L104.931 134.698C106.342 135.518 108.633 135.518 110.044 134.698L122.413 127.504C123.824 126.684 123.824 125.354 122.413 124.522L121.695 124.099C120.283 123.279 117.993 123.279 116.581 124.099L104.213 131.293Z" fill="#121719"/>
<path d="M116.941 128.71C117.436 128.996 117.436 129.455 116.941 129.741L114.539 131.145C114.056 131.431 113.264 131.431 112.768 131.145L110.367 129.741C109.884 129.455 109.884 128.996 110.367 128.71L112.768 127.318C113.251 127.033 114.044 127.033 114.539 127.318L116.941 128.71Z" fill="#20272B"/>
<path d="M102.503 117.551L81.1213 124.037C81.3318 123.975 81.5671 124.05 81.8147 124.261C82.3099 124.708 82.5947 125.615 82.4461 126.286C82.3718 126.634 82.1985 126.845 81.9756 126.907L103.358 120.422C103.568 120.359 103.754 120.148 103.828 119.8C103.977 119.129 103.692 118.222 103.197 117.775C102.949 117.564 102.701 117.489 102.503 117.551Z" fill="#DFE0E2"/>
<path d="M81.2824 126.684C81.7777 127.132 82.2977 126.958 82.4462 126.287C82.5948 125.616 82.2977 124.709 81.8148 124.261C81.3196 123.814 80.7996 123.988 80.651 124.659C80.5024 125.33 80.7872 126.249 81.2824 126.684Z" fill="#9CAEBE"/>
<path d="M64.2221 209.385L65.3488 209.273L66.2154 198.489L63.4792 198.389L64.2221 209.385Z" fill="#AE1515"/>
<path d="M57.0652 159.623C58.8976 157.734 60.569 155.845 61.8195 154.218C64.8652 150.292 71.3157 146.117 71.3157 146.117C70.7833 153.572 74.9062 178.31 74.4976 191.021C74.4109 193.729 84.2538 200.886 80.7129 205.322C77.1595 209.745 61.0395 199.159 65.4224 193.903L57.0652 159.623Z" fill="#E4BA95"/>
<path d="M75.4271 193.021C77.7547 196.364 83.5862 201.756 80.7262 205.335C80.0947 206.13 79.1414 206.565 78.0147 206.764C78.2128 205.235 73.0871 203.794 76.3062 202.862C80.4043 201.669 74.9938 193.879 75.4271 193.021Z" fill="#F24C39"/>
<path d="M77.5314 202.067C78.7695 200.402 79.3143 199.719 79.0295 198.427C80.6515 200.017 82.1619 203.521 80.7134 205.322C77.16 209.746 64.3209 203.633 63.7638 201.384C62.5257 196.401 65.4352 193.904 65.4352 193.904C64.1352 196.19 74.7581 205.819 77.5314 202.067Z" fill="#F24C39"/>
<path d="M91.0644 221.96L92.2406 221.724L93.1073 211.213L90.3711 211.113L91.0644 221.96Z" fill="#AE1515"/>
<path d="M83.9568 172.346C85.7892 170.469 87.4606 168.568 88.7111 166.953C91.7568 163.027 98.2073 158.852 98.2073 158.852C97.6749 166.307 100.696 191.679 100.3 204.402C100.213 207.111 111.158 213.621 107.604 218.057C104.051 222.48 87.9311 211.894 92.3263 206.639L83.9568 172.346Z" fill="#E4BA95"/>
<path d="M101.328 206.391C104.571 209.385 110.477 214.467 107.605 218.058C106.973 218.853 106.02 219.288 104.906 219.487C105.104 217.958 99.9782 216.517 103.185 215.585C107.295 214.392 100.907 207.26 101.328 206.391Z" fill="#F24C39"/>
<path d="M104.423 214.789C105.661 213.125 106.205 212.441 105.921 211.161C107.543 212.752 109.053 216.256 107.604 218.057C104.051 222.481 91.2121 216.367 90.6549 214.119C89.4168 209.136 92.3263 206.639 92.3263 206.639C91.0263 208.912 101.649 218.542 104.423 214.789Z" fill="#F24C39"/>
<path d="M40.6981 149.012C41.2924 149.347 41.701 149.993 41.8372 150.888C41.8372 150.9 41.8496 150.925 41.8496 150.938L41.8743 162.816L40.0048 161.735L39.98 149.857C39.98 149.832 39.98 149.819 39.9677 149.807C39.8191 148.912 39.4105 148.266 38.8286 147.931L40.6981 149.012Z" fill="#1B1D20"/>
<path d="M15.292 163.848C15.3539 163.028 15.5025 162.195 15.7377 161.363C15.9606 160.543 16.2577 159.723 16.6168 158.915C17.3844 157.201 18.4244 155.56 19.6501 154.169C20.2939 153.436 20.9996 152.765 21.7425 152.193C22.1758 151.858 22.6215 151.56 23.0796 151.299L35.9435 143.906C36.1911 143.757 36.4387 143.645 36.674 143.533C37.3673 143.21 38.0359 142.999 38.6673 142.899C39.7444 142.738 40.7102 142.899 41.5149 143.359L43.3845 144.44C42.5921 143.98 41.6264 143.806 40.5492 143.968C39.9178 144.067 39.2492 144.279 38.5435 144.602C38.2959 144.713 38.0606 144.838 37.813 144.987L24.9492 152.38C24.4911 152.641 24.0454 152.939 23.612 153.274C22.8815 153.846 22.1758 154.504 21.532 155.237C20.3063 156.629 19.2663 158.269 18.4987 159.984C18.1396 160.791 17.8425 161.611 17.6196 162.431C17.3844 163.276 17.2358 164.109 17.1739 164.929C17.1739 164.991 17.1615 165.066 17.1615 165.14L17.1863 177.056L15.3168 175.975L15.292 164.059C15.2796 163.997 15.2796 163.922 15.292 163.848Z" fill="#3D4B50"/>
<path d="M24.9366 152.379C20.8137 154.752 17.4461 160.331 17.1489 165.14L17.1737 177.055L20.9499 174.881L20.9251 162.965C21.2223 160.555 22.9061 157.846 24.9489 156.678L37.8128 149.298C39.8557 148.13 41.5519 148.875 41.8614 150.95L41.8861 162.829L45.6623 156.455L45.6376 148.751C45.2909 144.328 41.9233 142.638 37.8004 144.999L24.9366 152.379Z" fill="#20272B"/>
<path d="M67.1439 244.424L69.2858 245.654C68.9639 245.467 68.5305 245.492 68.0477 245.778L65.9058 244.548C66.3886 244.275 66.822 244.25 67.1439 244.424Z" fill="#222B2E"/>
<mask id="mask2_624_5902" style="mask-type:luminance" maskUnits="userSpaceOnUse" x="65" y="244" width="5" height="2">
<path d="M67.1439 244.424L69.2858 245.654C68.9639 245.467 68.5305 245.492 68.0477 245.778L65.9058 244.548C66.3886 244.275 66.822 244.25 67.1439 244.424Z" fill="white"/>
</mask>
<g mask="url(#mask2_624_5902)">
<path d="M68.0357 245.778L65.8938 244.548C66.0795 244.436 66.2528 244.374 66.4262 244.336L68.5681 245.567C68.4071 245.616 68.2214 245.678 68.0357 245.778Z" fill="#222B2E"/>
<path d="M68.5684 245.567L66.4265 244.337C66.6865 244.287 66.9218 244.312 67.1075 244.411L69.237 245.641C69.0637 245.542 68.8284 245.517 68.5684 245.567Z" fill="#222B2E"/>
<path d="M69.2494 245.654L67.1199 244.424C67.1323 244.424 67.1446 244.436 67.157 244.436L69.2989 245.666C69.2742 245.654 69.2618 245.654 69.2494 245.654Z" fill="#222B2E"/>
</g>
<path d="M66.81 249.891L64.6805 248.661C64.3709 248.474 64.1729 248.089 64.1729 247.555C64.1729 246.449 64.9405 245.12 65.9062 244.561L68.0481 245.791C67.0824 246.337 66.3148 247.679 66.3148 248.785C66.3024 249.319 66.5005 249.704 66.81 249.891Z" fill="#222B2E"/>
<mask id="mask3_624_5902" style="mask-type:luminance" maskUnits="userSpaceOnUse" x="64" y="244" width="5" height="6">
<path d="M66.81 249.891L64.6805 248.661C64.3709 248.474 64.1729 248.089 64.1729 247.555C64.1729 246.449 64.9405 245.12 65.9062 244.561L68.0481 245.791C67.0824 246.337 66.3148 247.679 66.3148 248.785C66.3024 249.319 66.5005 249.704 66.81 249.891Z" fill="white"/>
</mask>
<g mask="url(#mask3_624_5902)">
<path d="M66.8102 249.891L64.6807 248.661C64.3712 248.474 64.1731 248.089 64.1731 247.555C64.1731 247.132 64.2845 246.673 64.4826 246.238L66.6245 247.468C66.4264 247.903 66.315 248.362 66.315 248.773C66.3026 249.319 66.5007 249.704 66.8102 249.891Z" fill="#222B2E"/>
<path d="M66.6126 247.468L64.4707 246.238C64.6193 245.902 64.8174 245.579 65.0526 245.293L67.1945 246.524C66.9593 246.809 66.7612 247.132 66.6126 247.468Z" fill="#222B2E"/>
<path d="M67.1939 246.524L65.052 245.294C65.2996 244.995 65.5844 244.734 65.8939 244.561L68.0358 245.791C67.7263 245.965 67.4415 246.213 67.1939 246.524Z" fill="#222B2E"/>
</g>
<path d="M68.0356 245.779C69.0013 245.232 69.7813 245.667 69.7813 246.773C69.7813 247.866 69.0137 249.208 68.048 249.767C67.0946 250.314 66.3022 249.866 66.3022 248.773C66.3022 247.68 67.0823 246.338 68.0356 245.779Z" fill="#2D373B"/>
<path d="M35.7708 227.239L37.9003 228.469C37.5784 228.283 37.1451 228.308 36.6622 228.593L34.5327 227.351C35.0156 227.077 35.4489 227.053 35.7708 227.239Z" fill="#222B2E"/>
<mask id="mask4_624_5902" style="mask-type:luminance" maskUnits="userSpaceOnUse" x="34" y="227" width="4" height="2">
<path d="M35.7708 227.239L37.9003 228.469C37.5784 228.283 37.1451 228.308 36.6622 228.593L34.5327 227.351C35.0156 227.077 35.4489 227.053 35.7708 227.239Z" fill="white"/>
</mask>
<g mask="url(#mask4_624_5902)">
<path d="M36.6622 228.592L34.5327 227.35C34.7184 227.238 34.9041 227.176 35.0651 227.139L37.207 228.381C37.0213 228.418 36.848 228.481 36.6622 228.592Z" fill="#222B2E"/>
<path d="M37.1944 228.382L35.0525 227.14C35.3125 227.09 35.5353 227.115 35.7334 227.214L37.8754 228.444C37.6773 228.357 37.4544 228.332 37.1944 228.382Z" fill="#222B2E"/>
<path d="M37.8631 228.457L35.7212 227.227C35.7336 227.227 35.746 227.239 35.7583 227.239L37.8879 228.469C37.8879 228.469 37.8755 228.457 37.8631 228.457Z" fill="#222B2E"/>
</g>
<path d="M35.4364 232.694L33.2945 231.464C32.985 231.277 32.7869 230.892 32.7869 230.346C32.7869 229.24 33.5545 227.91 34.5202 227.351L36.6497 228.594C35.6964 229.14 34.9164 230.482 34.9164 231.588C34.9288 232.135 35.1145 232.52 35.4364 232.694Z" fill="#222B2E"/>
<mask id="mask5_624_5902" style="mask-type:luminance" maskUnits="userSpaceOnUse" x="32" y="227" width="5" height="6">
<path d="M35.4364 232.694L33.2945 231.464C32.985 231.277 32.7869 230.892 32.7869 230.346C32.7869 229.24 33.5545 227.91 34.5202 227.351L36.6497 228.594C35.6964 229.14 34.9164 230.482 34.9164 231.588C34.9288 232.135 35.1145 232.52 35.4364 232.694Z" fill="white"/>
</mask>
<g mask="url(#mask5_624_5902)">
<path d="M35.4366 232.693L33.2947 231.463C32.9852 231.277 32.7871 230.892 32.7871 230.345C32.7871 229.923 32.8985 229.463 33.0966 229.041L35.2262 230.283C35.0281 230.718 34.9166 231.165 34.9166 231.588C34.929 232.134 35.1147 232.52 35.4366 232.693Z" fill="#222B2E"/>
<path d="M35.226 230.271L33.0964 229.028C33.245 228.693 33.4431 228.37 33.6783 228.084L35.8203 229.326C35.585 229.612 35.3745 229.935 35.226 230.271Z" fill="#222B2E"/>
<path d="M35.8079 229.327L33.666 228.084C33.9136 227.786 34.1984 227.525 34.5079 227.351L36.6375 228.594C36.3527 228.768 36.0679 229.028 35.8079 229.327Z" fill="#222B2E"/>
</g>
<path d="M36.6622 228.593C37.6279 228.034 38.4079 228.481 38.4079 229.587C38.4079 230.68 37.6279 232.022 36.6746 232.582C35.7212 233.141 34.9289 232.693 34.9289 231.587C34.9165 230.482 35.6965 229.14 36.6622 228.593Z" fill="#2D373B"/>
<path d="M35.4366 244.311L33.2947 245.553C33.6042 245.367 34.0499 245.392 34.5328 245.678L36.6623 244.435C36.1794 244.162 35.7461 244.137 35.4366 244.311Z" fill="#222B2E"/>
<mask id="mask6_624_5902" style="mask-type:luminance" maskUnits="userSpaceOnUse" x="33" y="244" width="4" height="2">
<path d="M35.4366 244.311L33.2947 245.553C33.6042 245.367 34.0499 245.392 34.5328 245.678L36.6623 244.435C36.1794 244.162 35.7461 244.137 35.4366 244.311Z" fill="white"/>
</mask>
<g mask="url(#mask6_624_5902)">
<path d="M34.5321 245.678L36.6617 244.435C36.476 244.336 36.3026 244.261 36.1293 244.224L33.9998 245.454C34.1731 245.504 34.3464 245.566 34.5321 245.678Z" fill="#222B2E"/>
<path d="M34.0003 245.467L36.1298 244.237C35.8698 244.187 35.647 244.212 35.4489 244.311L33.3193 245.541C33.5174 245.43 33.7527 245.405 34.0003 245.467Z" fill="#222B2E"/>
<path d="M33.3316 245.529L35.4611 244.299C35.4487 244.311 35.4363 244.311 35.4363 244.311L33.2944 245.554C33.3068 245.541 33.3192 245.541 33.3316 245.529Z" fill="#222B2E"/>
</g>
<path d="M35.7584 249.779L37.888 248.548C38.1975 248.362 38.3956 247.977 38.3956 247.443C38.3956 246.337 37.6156 245.007 36.6622 244.448L34.5327 245.691C35.4861 246.237 36.2661 247.579 36.2661 248.685C36.2661 249.207 36.0803 249.592 35.7584 249.779Z" fill="#222B2E"/>
<mask id="mask7_624_5902" style="mask-type:luminance" maskUnits="userSpaceOnUse" x="34" y="244" width="5" height="6">
<path d="M35.7584 249.779L37.888 248.548C38.1975 248.362 38.3956 247.977 38.3956 247.443C38.3956 246.337 37.6156 245.007 36.6622 244.448L34.5327 245.691C35.4861 246.237 36.2661 247.579 36.2661 248.685C36.2661 249.207 36.0803 249.592 35.7584 249.779Z" fill="white"/>
</mask>
<g mask="url(#mask7_624_5902)">
<path d="M35.7585 249.777L37.8881 248.547C38.1976 248.361 38.3957 247.976 38.3957 247.442C38.3957 247.019 38.2843 246.559 38.0862 246.125L35.969 247.355C36.1547 247.789 36.2785 248.237 36.2662 248.672C36.2662 249.206 36.0805 249.591 35.7585 249.777Z" fill="#222B2E"/>
<path d="M35.9691 247.355L38.0986 246.125C37.9501 245.789 37.7396 245.466 37.5167 245.181L35.3872 246.411C35.6101 246.697 35.8082 247.02 35.9691 247.355Z" fill="#222B2E"/>
<path d="M35.3744 246.411L37.5039 245.181C37.2563 244.87 36.9715 244.622 36.662 244.436L34.5325 245.678C34.842 245.852 35.1268 246.101 35.3744 246.411Z" fill="#222B2E"/>
</g>
<path d="M34.5326 245.678C33.5669 245.131 32.7869 245.566 32.7869 246.672C32.7869 247.765 33.5545 249.107 34.5202 249.666C35.4735 250.213 36.2659 249.778 36.2659 248.672C36.2659 247.567 35.4983 246.225 34.5326 245.678Z" fill="#2D373B"/>
<path d="M67.0194 227.078L64.8899 228.308C65.1994 228.122 65.6451 228.146 66.128 228.432L68.2699 227.202C67.7747 226.916 67.3289 226.891 67.0194 227.078Z" fill="#222B2E"/>
<mask id="mask8_624_5902" style="mask-type:luminance" maskUnits="userSpaceOnUse" x="64" y="226" width="5" height="3">
<path d="M67.0194 227.078L64.8899 228.308C65.1994 228.122 65.6451 228.146 66.128 228.432L68.2699 227.202C67.7747 226.916 67.3289 226.891 67.0194 227.078Z" fill="white"/>
</mask>
<g mask="url(#mask8_624_5902)">
<path d="M66.1151 228.433L68.2571 227.202C68.0713 227.091 67.898 227.028 67.7247 226.991L65.5828 228.221C65.7561 228.259 65.9294 228.321 66.1151 228.433Z" fill="#222B2E"/>
<path d="M65.5818 228.221L67.7237 226.991C67.4637 226.929 67.2285 226.966 67.0428 227.065L64.9009 228.295C65.099 228.196 65.3342 228.171 65.5818 228.221Z" fill="#222B2E"/>
<path d="M64.9138 228.296L67.0557 227.065C67.0433 227.065 67.0433 227.078 67.0309 227.078L64.9014 228.308C64.889 228.308 64.9014 228.296 64.9138 228.296Z" fill="#222B2E"/>
</g>
<path d="M67.3417 232.533L69.4836 231.303C69.7931 231.129 69.9912 230.744 69.9912 230.198C69.9912 229.104 69.2112 227.762 68.2579 227.203L66.116 228.433C67.0817 228.98 67.8617 230.322 67.8493 231.428C67.8617 231.962 67.6636 232.347 67.3417 232.533Z" fill="#222B2E"/>
<mask id="mask9_624_5902" style="mask-type:luminance" maskUnits="userSpaceOnUse" x="66" y="227" width="4" height="6">
<path d="M67.3417 232.533L69.4836 231.303C69.7931 231.129 69.9912 230.744 69.9912 230.198C69.9912 229.104 69.2112 227.762 68.2579 227.203L66.116 228.433C67.0817 228.98 67.8617 230.322 67.8493 231.428C67.8617 231.962 67.6636 232.347 67.3417 232.533Z" fill="white"/>
</mask>
<g mask="url(#mask9_624_5902)">
<path d="M67.3423 232.533L69.4842 231.303C69.7937 231.129 69.9918 230.744 69.9918 230.197C69.9918 229.775 69.8804 229.327 69.6823 228.893L67.5528 230.123C67.7509 230.558 67.8623 231.017 67.8623 231.427C67.8623 231.962 67.6642 232.347 67.3423 232.533Z" fill="#222B2E"/>
<path d="M67.5521 230.11L69.6816 228.88C69.5331 228.545 69.335 228.222 69.0997 227.936L66.9702 229.166C67.1931 229.452 67.4035 229.775 67.5521 230.11Z" fill="#222B2E"/>
<path d="M66.9703 229.166L69.0998 227.936C68.8522 227.638 68.5674 227.377 68.2579 227.203L66.116 228.433C66.4255 228.607 66.7226 228.868 66.9703 229.166Z" fill="#222B2E"/>
</g>
<path d="M66.1156 228.433C65.1499 227.874 64.3823 228.321 64.3699 229.427C64.3699 230.52 65.1375 231.862 66.1032 232.421C67.0689 232.968 67.8489 232.521 67.8489 231.427C67.8613 230.322 67.0813 228.98 66.1156 228.433Z" fill="#2D373B"/>
<path d="M32.8862 224.444L32.8986 229.19L46.4806 237.043L46.4682 232.309L32.8862 224.444Z" fill="#222529"/>
<path d="M46.4685 232.309L46.4809 237.043L51.4209 234.223L51.3961 229.477L46.4685 232.309Z" fill="#151719"/>
<path d="M37.8136 221.611L32.886 224.444L46.4679 232.309L51.3956 229.476L37.8136 221.611Z" fill="#272C2F"/>
<path d="M56.2986 232.309L56.311 237.043L69.992 229.19L69.9796 224.444L56.2986 232.309Z" fill="#151719"/>
<path d="M51.3706 235.142L51.383 239.876L56.3106 237.043L56.2982 232.31L51.3706 235.142Z" fill="#151719"/>
<path d="M37.6897 242.996L37.7021 247.742L51.3831 239.877L51.3707 235.143L37.6897 242.996Z" fill="#151719"/>
<path d="M51.3704 235.143L51.3827 239.877L64.9771 247.742L64.9647 242.996L51.3704 235.143Z" fill="#222529"/>
<path d="M32.7866 240.162L37.6895 242.995L51.3705 235.142L56.2981 232.309L69.9791 224.444L65.0762 221.611L51.3952 229.476L46.4676 232.309L32.7866 240.162Z" fill="#272C2F"/>
<path d="M32.7869 240.162L32.7992 244.908L37.7021 247.741L37.6897 242.995L32.7869 240.162Z" fill="#222529"/>
<path d="M64.9651 242.995L64.9775 247.741L69.9051 244.908L69.8927 240.162L64.9651 242.995Z" fill="#151719"/>
<path d="M69.8926 240.162L56.2982 232.31L51.3706 235.142L64.9649 242.995L69.8926 240.162Z" fill="#272C2F"/>
<path d="M51.3954 180.285L51.4697 235.142L45.9478 231.948L45.8611 180.285H51.3954Z" fill="#3D4B50"/>
<path d="M56.1127 180.285L56.1993 232.433L51.4698 235.142L51.3955 180.285H56.1127Z" fill="#1B1D20"/>
<path d="M21.5076 171.277C12.9399 176.197 12.8904 184.174 21.4085 189.094L35.04 196.984C43.5458 201.904 57.3877 201.904 65.9553 196.984L79.6735 189.094C88.2287 184.174 88.2906 176.197 79.7849 171.277L66.1534 163.387C57.6353 158.467 43.7934 158.467 35.2381 163.387L21.5076 171.277Z" fill="#194756"/>
<path d="M15.6757 178.732C16.5795 180.882 18.4986 182.919 21.4081 184.609L35.0396 192.486C39.3977 195.009 45.1424 196.239 50.8625 196.177C56.3225 196.127 61.7701 194.884 65.9549 192.486L79.673 184.609C83.9816 182.136 86.1359 178.881 86.1235 175.638L86.1359 181.093C86.1359 184.336 83.994 187.591 79.6854 190.064L65.9673 197.941C61.7825 200.339 56.3472 201.569 50.8748 201.631C45.1548 201.693 39.3977 200.463 35.0519 197.941L21.4205 190.064C18.5109 188.386 16.6043 186.336 15.6881 184.187C15.2795 183.205 15.069 182.211 15.069 181.217L15.0566 175.762C15.0566 176.756 15.2671 177.763 15.6757 178.732Z" fill="#EF9D00"/>
<path d="M21.5076 166.792C12.9399 171.712 12.8904 179.689 21.4085 184.609L35.04 192.487C43.5458 197.407 57.3877 197.407 65.9553 192.487L79.6735 184.609C88.2287 179.689 88.2906 171.712 79.7849 166.792L66.1534 158.902C57.6353 153.982 43.7934 153.982 35.2381 158.902L21.5076 166.792Z" fill="#FFC400"/>
<path d="M15.6764 183.218C16.5802 185.367 18.4993 187.417 21.4088 189.095L35.0403 196.985C39.3984 199.495 45.1432 200.737 50.8632 200.675C56.3232 200.625 61.7708 199.395 65.9556 196.985L79.6738 189.095C83.9823 186.622 86.1366 183.367 86.1243 180.124L86.1366 185.579C86.1366 188.822 83.9947 192.077 79.6861 194.549L65.968 202.439C61.7832 204.837 56.348 206.067 50.8756 206.13C45.1556 206.192 39.3984 204.962 35.0527 202.439L21.4212 194.549C18.5117 192.872 16.605 190.822 15.6888 188.672C15.2802 187.703 15.0698 186.697 15.0698 185.703L15.0574 180.248C15.0574 181.242 15.2678 182.249 15.6764 183.218Z" fill="#20272B"/>
<path d="M95.3602 154.591C91.8316 152.566 81.7782 148.416 78.8315 146.726C73.941 143.918 66.042 143.968 61.1763 146.813L23.4885 164.494C29.6666 167.103 38.7419 173.291 44.4 177.167L46.7029 175.813C51.7172 178.733 57.1029 182.398 60.9286 185.033L95.4221 164.817C100.275 161.959 100.251 157.387 95.3602 154.591Z" fill="#03203A"/>
<path d="M57.7845 107.203C57.7845 100.108 50.034 93.3862 42.6054 90.0314C39.7701 88.7516 36.1549 90.516 33.5053 91.92C30.113 93.7092 27.7729 96.8776 27.7729 100.854C27.7729 107.948 28.8006 140.328 35.8701 140.328C42.9397 140.328 57.7845 114.297 57.7845 107.203Z" fill="white"/>
<path d="M54.8254 104.594C53.8473 103.065 45.4282 100.071 38.3587 100.071C31.2892 100.071 27.7729 93.759 27.7729 100.854C27.7729 107.948 28.8006 140.328 35.8701 140.328C42.9397 140.328 58.6388 110.57 54.8254 104.594Z" fill="#DBDBDB"/>
<path d="M36.0555 91.9688C36.0431 96.2554 43.5955 97.3985 49.365 97.9949C49.3898 97.9949 49.3898 98.0073 49.4022 98.0073C50.6031 96.9388 51.2593 95.8951 51.2593 95.8951L51.4079 87.2721L36.2288 85.9551L35.9316 91.8445C35.9812 91.8818 36.0555 91.9439 36.0555 91.9688Z" fill="#E4BA95"/>
<path d="M34.0125 79.8171C41.1192 87.2969 43.9173 87.1851 51.0116 82.1654C58.1059 77.1457 61.065 70.0262 59.3688 59.4774C57.5612 48.2576 44.2516 45.4123 35.783 50.5935C19.5887 60.5087 25.1849 70.5232 34.0125 79.8171Z" fill="#8D4E2B"/>
<path d="M37.0831 72.6103C37.5041 75.7787 39.3612 85.1098 41.3298 86.8121C44.1032 89.2225 51.9898 90.8378 55.6299 87.9303C60.4956 84.0413 59.827 75.8532 59.827 65.6771C59.827 55.5011 53.2651 53.5876 47.6689 57.9239C42.0974 62.2603 35.7584 62.5585 37.0831 72.6103Z" fill="#EECEB1"/>
<path d="M46.5179 74.7602C47.4341 77.4191 48.7093 78.9971 50.3931 78.7734C52.0769 78.5498 52.9684 76.7606 52.6093 73.965C52.2503 71.1693 49.8112 69.1192 48.1274 69.3429C46.4312 69.5541 45.4779 71.7533 46.5179 74.7602Z" fill="#EECEB1"/>
<path d="M55.0848 98.8155C55.122 97.9085 52.0639 92.1433 51.2715 92.7645C48.3248 95.1128 39.7076 94.591 37.6276 93.51C35.7705 92.5409 35.9686 89.6831 35.9686 89.6831C35.9686 89.6831 24.1695 100.046 40.4876 103.239C43.781 103.885 47.4458 103.649 50.4296 102.208C52.9801 100.965 57.4496 101.176 55.0848 98.8155Z" fill="white"/>
<path d="M80.3921 140.513C82.3607 144.936 80.4045 150.105 76.0216 152.068C71.6388 154.031 66.5007 152.043 64.5321 147.62L50.393 116.384C48.4244 111.973 50.3806 106.792 54.7635 104.828C59.1464 102.865 64.2845 104.853 66.253 109.277L80.3921 140.513Z" fill="#0D3B5B"/>
<path d="M87.0529 105.202C84.6634 102.841 84.5767 97.5355 85.171 95.7836C86.3472 95.2245 88.7244 94.2802 91.411 93.5596C95.2491 92.5159 99.7434 91.8946 102.294 93.3732C107.729 96.5291 106.702 98.9644 104.993 101.102C102.393 104.307 90.3586 101.71 87.0529 105.202Z" fill="#E4BA95"/>
<path d="M82.9175 91.485C87.6594 90.578 92.228 93.6718 93.1318 98.4057C94.0356 103.127 90.928 107.7 86.1861 108.607L41.045 113.751C36.3155 114.658 31.7345 111.564 30.8431 106.83C29.9393 102.096 33.0469 97.536 37.7888 96.6289L82.9175 91.485Z" fill="#AEC0C4"/>
<path d="M57.7835 107.203C57.7835 100.108 50.033 93.3862 42.6044 90.0314C39.7692 88.7516 36.1539 90.516 33.5044 91.92C30.112 93.7092 27.772 96.8776 27.772 100.854C27.772 107.948 28.7996 140.328 35.8691 140.328C42.9387 140.328 57.7835 114.297 57.7835 107.203Z" fill="white"/>
<path d="M54.8244 104.594C53.8463 103.065 45.4273 100.071 38.3577 100.071C31.2882 100.071 27.772 93.759 27.772 100.854C27.772 107.948 28.7996 140.328 35.8691 140.328C42.9387 140.328 58.6378 110.57 54.8244 104.594Z" fill="#DBDBDB"/>
<path d="M36.0557 91.9693C36.0433 96.2559 43.5957 97.399 49.3653 97.9954C49.39 97.9954 49.39 98.0078 49.4024 98.0078C50.6034 96.9393 51.2595 95.8956 51.2595 95.8956L51.4081 87.2726L36.229 85.9556L35.9319 91.845C35.9814 91.8823 36.0557 91.9444 36.0557 91.9693Z" fill="#E4BA95"/>
<path d="M34.0125 79.8176C41.1192 87.2974 43.9173 87.1856 51.0116 82.1659C58.1059 77.1462 61.065 70.0267 59.3688 59.4779C57.5612 48.2581 44.2516 45.4128 35.783 50.594C19.5887 60.5091 25.1849 70.5237 34.0125 79.8176Z" fill="#3F332E"/>
<path d="M37.0824 72.6108C37.5034 75.7792 39.3605 85.1103 41.3291 86.8126C44.1024 89.223 51.9891 90.8382 55.6291 87.9308C60.4949 84.0418 59.8263 75.8537 59.8263 65.6776C59.8263 55.5016 53.2644 53.5881 47.6682 57.9244C42.0967 62.2608 35.7576 62.559 37.0824 72.6108Z" fill="#EECEB1"/>
<path d="M25.6307 62.3233C26.2374 57.9124 36.786 57.49 36.786 57.49C37.5536 56.8812 42.1841 39.9335 59.7775 53.7252C63.4298 56.5954 62.2536 66.5851 62.2536 66.5851C62.2536 66.5851 54.2803 67.3803 53.3022 68.1631C52.4108 68.8837 49.006 74.4998 46.1584 79.4946C45.7746 80.1656 45.4031 80.8241 45.0441 81.4702C43.5212 84.1913 41.7136 89.7701 34.6812 85.1232C34.1736 84.6759 22.4364 72.4248 25.6307 62.3233Z" fill="#3F332E"/>
<path d="M45.7991 75.7919C46.542 77.9414 47.5696 79.2088 48.9315 79.0348C50.2934 78.8609 51.0115 77.4072 50.7144 75.1458C50.4172 72.8969 48.4487 71.2444 47.0991 71.4183C45.7372 71.6047 44.9572 73.369 45.7991 75.7919Z" fill="#EECEB1"/>
<path d="M55.0851 98.816C55.1222 97.9089 52.0641 92.1437 51.2717 92.765C48.3251 95.1133 39.7079 94.5915 37.6279 93.5105C35.7707 92.5413 35.9688 89.6836 35.9688 89.6836C35.9688 89.6836 24.1697 100.046 40.4879 103.239C43.7812 103.885 47.446 103.649 50.4298 102.208C52.9803 100.965 57.4498 101.177 55.0851 98.816Z" fill="white"/>
<path d="M66.7728 168.88C63.269 160.518 59.4556 145.993 64.9528 129.207C71.589 108.979 58.6509 99.1878 54.2185 97.262C54.2185 97.262 49.7613 102.369 39.8318 100.182C29.7289 97.9578 33.4927 91.9316 33.4927 91.9316C20.2946 92.1056 20.307 109.24 19.9108 115.365C19.1927 126.535 18.4993 149.956 18.6727 168.892H66.7728V168.88Z" fill="#AEC0D0"/>
<path d="M18.66 160.257C18.6476 163.835 18.66 167.364 18.7095 170.706C19.8114 175.328 22.4981 181.64 27.2524 184.299C38.5438 190.611 53.4877 190.835 64.2715 182.995C66.7477 181.193 68.8525 178.956 70.6725 176.447C70.6725 176.447 66.3887 170.184 63.9125 160.232H18.66V160.257Z" fill="#07243E"/>
<path d="M89.5161 137.544C86.1856 137.159 82.8675 133.022 82.2732 131.27C82.8551 130.102 84.1675 127.902 85.8389 125.666C88.2408 122.473 91.398 119.217 94.3199 118.82C100.535 117.962 101.216 120.522 101.167 123.268C101.092 127.405 89.9989 132.761 89.5161 137.544Z" fill="#E4BA95"/>
<path d="M80.255 143.085C81.8645 147.831 79.3512 152.975 74.6464 154.566C69.9416 156.168 64.8407 153.621 63.2311 148.875L51.6549 115.315C50.0454 110.569 52.5711 105.425 57.2635 103.834C61.9683 102.232 67.0692 104.779 68.6788 109.525L80.255 143.085Z" fill="#AEC0C4"/>
<path d="M77.8654 129.269C81.0473 125.64 86.5569 125.268 90.1597 128.449C93.7626 131.629 94.0969 137.146 90.9026 140.787L78.2492 152.193C75.0549 155.821 69.5578 156.194 65.9549 153.013C62.352 149.832 62.0178 144.315 65.212 140.675L77.8654 129.269Z" fill="#AEC0C4"/>
<path d="M28.3423 200.998L30.7071 199.619L30.868 143.669L28.5032 145.048L28.3423 200.998Z" fill="#20272B"/>
<path d="M28.5026 145.048L30.8674 143.669L24.7884 140.178L22.4236 141.557L28.5026 145.048Z" fill="#272C2F"/>
<path d="M22.4239 141.557L22.2629 197.494L28.342 200.998L28.503 145.049L22.4239 141.557Z" fill="#3D4B50"/>
<path d="M11.6149 105.102L15.7378 102.716C15.6388 102.778 15.5273 102.828 15.4283 102.89L11.3054 105.276C11.3921 105.214 11.5035 105.164 11.6149 105.102Z" fill="#2D817E"/>
<path d="M15.7259 102.716C17.8307 101.623 20.4926 101.35 23.464 101.971C25.4697 102.393 27.6116 103.213 29.8155 104.481C33.4802 106.593 36.9717 109.712 39.9307 113.302C42.4069 116.309 44.5117 119.652 46.0098 122.994C47.3469 125.988 48.2136 128.995 48.4365 131.778L50.8012 161.549C51.1479 166.009 49.7612 169.103 47.2107 170.582L43.0879 172.967C45.6507 171.489 47.025 168.395 46.6784 163.934L44.3136 134.164C44.0907 131.381 43.2364 128.386 41.8869 125.38C40.3888 122.037 38.2841 118.695 35.8079 115.688C32.8612 112.097 29.3574 108.979 25.6926 106.866C23.5012 105.611 21.3469 104.779 19.3411 104.356C16.3697 103.735 13.6954 104.008 11.603 105.102L15.7259 102.716Z" fill="#EF9D00"/>
<path d="M25.6918 106.867C16.208 101.425 7.78892 104.046 6.97177 112.706L4.45843 139.681C3.65367 148.341 10.847 159.946 20.4671 165.475L30.5699 171.278C40.19 176.807 47.4328 173.489 46.6776 163.935L44.3128 134.164C43.5452 124.597 35.1757 112.321 25.6918 106.867Z" fill="#FFC400"/>
<path d="M81.1968 176.994C81.7788 177.33 82.1873 177.976 82.3359 178.87C82.3359 178.895 82.3359 178.908 82.3359 178.92L82.3607 190.798L80.4911 189.717L80.4664 177.839C80.4664 177.814 80.4664 177.802 80.454 177.789C80.3178 176.895 79.8968 176.249 79.3149 175.913L81.1968 176.994Z" fill="#1B1D20"/>
<path d="M55.7782 191.842C55.8402 191.022 55.9887 190.189 56.224 189.344C56.4468 188.524 56.744 187.704 57.103 186.896C57.8706 185.182 58.9106 183.542 60.1364 182.15C60.7802 181.417 61.4859 180.746 62.2164 180.174C62.6497 179.839 63.1078 179.541 63.5535 179.28L76.4174 171.887C76.665 171.75 76.9126 171.626 77.1478 171.514C77.8535 171.191 78.5221 170.98 79.1536 170.881C80.2307 170.719 81.1964 170.881 81.9888 171.353L83.8583 172.434C83.0659 171.974 82.1002 171.8 81.0231 171.962C80.3917 172.061 79.7231 172.26 79.0174 172.595C78.7821 172.707 78.5345 172.831 78.2869 172.98L65.423 180.373C64.9649 180.634 64.5192 180.932 64.0859 181.268C63.343 181.839 62.6497 182.51 61.9935 183.243C60.7678 184.635 59.7278 186.275 58.9602 187.99C58.6011 188.797 58.304 189.617 58.0811 190.438C57.8459 191.27 57.6973 192.115 57.6354 192.935C57.623 192.997 57.623 193.072 57.623 193.146L57.6478 205.049L55.7782 203.956L55.7659 192.04C55.7659 191.978 55.7659 191.904 55.7782 191.842Z" fill="#3D4B50"/>
<path d="M65.4222 180.361C61.2993 182.734 57.9317 188.313 57.6345 193.121L57.6593 205.024L61.4355 202.85L61.4107 190.934C61.7079 188.511 63.3917 185.815 65.4345 184.647L78.2984 177.254C80.3413 176.086 82.0374 176.844 82.347 178.907L82.3717 190.785L86.1479 184.411L86.1232 176.708C85.7765 172.284 82.3965 170.595 78.286 172.955L65.4222 180.361Z" fill="#20272B"/>
<path d="M35.0148 96.8756C34.4701 95.6828 33.8882 94.49 33.2691 93.2724C17.4091 69.23 38.2834 61.5265 38.2958 61.4271C38.4568 60.0107 37.8872 59.0291 37.0082 58.4575C36.2901 57.8487 35.3987 57.4138 34.5939 57.0287C34.2225 56.8547 32.5263 54.8294 28.5396 54.7673C22.832 54.6679 13.9919 57.886 12.8157 84.3636C12.5805 89.694 10.5005 102.74 13.1748 110.282C14.1776 111.972 15.7129 113.413 17.7681 113.413C18.2386 113.413 18.771 113.401 19.291 113.401C26.5339 110.618 36.9587 107.213 35.5225 100.553C35.2872 99.3979 35.1263 98.1554 35.0148 96.8756Z" fill="#52433B"/>
<path d="M228.071 112.134L228.059 114.333L187.895 137.866L187.907 135.667L228.071 112.134Z" fill="#EF9D00"/>
<path d="M187.907 135.667L187.895 137.866L157.438 120.123V117.924L187.907 135.667Z" fill="#D89100"/>
<path d="M228.071 112.134L187.907 135.667L157.438 117.924L197.602 94.3911L228.071 112.134Z" fill="#9B6700"/>
<path d="M234.175 113.837V114.57L194.011 138.103L194.024 137.37L234.175 113.837Z" fill="#AEC0D0"/>
<path d="M194.024 137.371L194.011 138.104L163.554 120.373V119.64L194.024 137.371Z" fill="#C9D6E5"/>
<path d="M234.175 113.837L194.024 137.37L163.554 119.639L203.718 96.1064L234.175 113.837Z" fill="#DCDDDB"/>
<path d="M229.421 113.291V114.024L189.258 137.557L189.27 136.823L229.421 113.291Z" fill="#AEC0D0"/>
<path d="M189.27 136.823L189.257 137.556L158.8 119.825V119.092L189.27 136.823Z" fill="#C9D6E5"/>
<path d="M229.421 113.29L189.27 136.823L158.8 119.093L198.952 95.5596L229.421 113.29Z" fill="#E5E5E5"/>
<path d="M234.224 108.283L234.212 109.016L194.061 132.549V131.816L234.224 108.283Z" fill="#AEC0D0"/>
<path d="M194.06 131.815V132.549L163.591 114.818V114.085L194.06 131.815Z" fill="#C9D6E5"/>
<path d="M234.225 108.282L194.061 131.815L163.592 114.084L203.755 90.5391L234.225 108.282Z" fill="#F7F8F5"/>
<path d="M228.072 107.971L228.059 110.17L187.895 133.703L187.908 131.504L228.072 107.971Z" fill="#EF9D00"/>
<path d="M187.907 131.504L187.895 133.703L159.084 116.929L159.06 119.066L157.438 120.123V115.973V113.773L187.907 131.504Z" fill="#D89100"/>
<path d="M228.072 107.971L187.908 131.504L157.438 113.774L197.602 90.2407L228.072 107.971Z" fill="#FFC400"/>
<path d="M173.113 112.471L172.58 112.16C172.679 111.974 172.778 111.787 172.865 111.613C173.001 111.365 173.113 111.104 173.224 110.855L173.757 111.166C173.645 111.415 173.534 111.676 173.397 111.924C173.311 112.098 173.212 112.284 173.113 112.471Z" fill="#BA022A"/>
<path d="M176.01 105.487L176.542 105.798L176.555 105.81C176.654 105.897 176.678 106.307 176.493 107.115C176.059 109.028 175.18 110.333 173.818 111.128C173.794 111.141 173.781 111.141 173.756 111.153L173.224 110.842C173.237 110.83 173.261 110.818 173.286 110.818C174.648 110.022 175.527 108.718 175.96 106.804C176.146 105.984 176.121 105.587 176.022 105.5C176.022 105.487 176.022 105.487 176.01 105.487Z" fill="#AE1515"/>
<path d="M176.617 104.43L177.149 104.741C176.803 104.542 176.282 104.741 175.787 105.027L175.255 104.716C175.75 104.43 176.283 104.232 176.617 104.43Z" fill="#AE1515"/>
<path d="M175.193 106.431L174.661 106.12C174.723 105.748 174.747 105.387 174.797 105.015L175.329 105.325C175.28 105.698 175.255 106.058 175.193 106.431Z" fill="#E60535"/>
<path d="M175.341 105.325L174.809 105.015C174.945 104.915 175.106 104.816 175.267 104.716L175.799 105.027C175.638 105.114 175.477 105.226 175.341 105.325Z" fill="#AE1515"/>
<path d="M175.787 105.027C176.79 104.456 177.941 104.232 177.322 106.928C176.691 109.724 175.242 111.289 173.818 112.122C173.571 112.258 173.335 112.37 173.1 112.47C173.199 112.283 173.298 112.097 173.397 111.923C173.533 111.662 173.645 111.414 173.756 111.165C173.781 111.153 173.793 111.14 173.818 111.14C175.18 110.345 176.059 109.04 176.492 107.127C176.678 106.307 176.653 105.909 176.554 105.822C176.455 105.735 176.171 105.81 175.787 106.034C175.564 106.17 175.353 106.319 175.192 106.444C175.254 106.071 175.279 105.711 175.341 105.338C175.477 105.226 175.638 105.114 175.787 105.027Z" fill="#E6402D"/>
<path d="M170.686 113.302C170.686 113.712 170.413 114.122 169.869 114.433C168.804 115.029 167.12 115.004 166.092 114.396C165.597 114.097 165.35 113.712 165.35 113.327V113.886C165.35 114.271 165.597 114.657 166.092 114.955C167.12 115.576 168.804 115.588 169.869 114.992C170.413 114.681 170.686 114.271 170.686 113.861V113.302Z" fill="#AE1515"/>
<path d="M173.162 109.041C170.191 110.706 165.461 110.656 162.613 108.929C161.239 108.096 160.558 107.04 160.533 105.972C160.546 106.382 160.571 107.326 160.88 108.556C161.029 109.165 161.202 109.6 161.264 109.749C161.45 110.221 161.536 110.383 161.784 110.867C162.081 111.439 162.626 112.184 162.948 112.532C163.183 112.793 163.406 113.029 163.629 113.215C163.728 113.302 163.864 113.427 163.988 113.501C164.198 113.663 164.483 113.862 164.706 113.998C165.164 114.272 165.672 114.52 166.229 114.682C166.662 114.806 167.182 114.93 167.937 114.942C168.73 114.955 169.373 114.793 169.646 114.719C169.72 114.706 170.005 114.619 170.401 114.458C170.612 114.371 170.884 114.234 171.082 114.122C171.293 114.011 172.06 113.563 172.778 112.818C172.976 112.619 173.199 112.371 173.546 111.911C173.905 111.426 174.14 110.991 174.19 110.904C174.351 110.594 174.499 110.32 174.71 109.811C174.933 109.239 175.069 108.767 175.093 108.643C175.155 108.395 175.267 107.935 175.341 107.413C175.378 107.152 175.415 106.804 175.428 106.543C175.44 106.369 175.44 106.121 175.453 105.947C175.453 107.053 174.673 108.196 173.162 109.041Z" fill="#F24C39"/>
<path d="M162.613 108.928C159.766 107.201 159.852 104.455 162.836 102.791C165.808 101.126 170.537 101.175 173.385 102.89C176.232 104.617 176.146 107.363 173.162 109.028C170.19 110.693 165.461 110.656 162.613 108.928Z" fill="#FF7765"/>
<path d="M167.975 109.612C166.08 109.612 164.248 109.165 162.948 108.382C161.796 107.686 161.165 106.804 161.177 105.909C161.19 104.965 161.896 104.07 163.146 103.362C164.458 102.629 166.192 102.231 168.024 102.231C169.918 102.231 171.763 102.679 173.051 103.462C174.202 104.157 174.834 105.039 174.821 105.947C174.809 106.891 174.103 107.785 172.853 108.494C171.54 109.202 169.807 109.612 167.975 109.612Z" fill="#461E00"/>
<path d="M190.855 95.7084L204.821 87.5328C205.737 86.9985 207.012 87.073 208.411 87.8931L194.445 96.0687C193.034 95.2487 191.771 95.1741 190.855 95.7084Z" fill="#121719"/>
<path d="M211.952 99.9205L197.986 108.096C198.89 107.574 199.46 106.444 199.46 104.841C199.472 101.61 197.219 97.6964 194.433 96.0687L208.399 87.8931C211.185 89.5083 213.426 93.4346 213.426 96.6527C213.413 98.2555 212.856 99.3862 211.952 99.9205Z" fill="#121719"/>
<mask id="mask10_624_5902" style="mask-type:luminance" maskUnits="userSpaceOnUse" x="194" y="87" width="20" height="22">
<path d="M211.952 99.9205L197.986 108.096C198.89 107.574 199.46 106.444 199.46 104.841C199.472 101.61 197.219 97.6964 194.433 96.0687L208.399 87.8931C211.185 89.5083 213.426 93.4346 213.426 96.6527C213.413 98.2555 212.856 99.3862 211.952 99.9205Z" fill="white"/>
</mask>
<g mask="url(#mask10_624_5902)">
<path d="M194.433 96.0687L208.399 87.8931C208.708 88.067 209.006 88.2782 209.303 88.5019L195.337 96.69C195.04 96.4539 194.743 96.2427 194.433 96.0687Z" fill="#121719"/>
<path d="M195.337 96.6781L209.303 88.5024C209.909 88.987 210.466 89.5586 210.974 90.2047L197.008 98.3927C196.501 97.7342 195.931 97.1627 195.337 96.6781Z" fill="#121719"/>
<path d="M197.009 98.3917L210.974 90.2036C212.448 92.0798 213.426 94.5275 213.426 96.6522C213.426 96.9007 213.413 97.1368 213.389 97.3604L199.423 105.548C199.448 105.325 199.46 105.089 199.46 104.84C199.46 102.703 198.482 100.255 197.009 98.3917Z" fill="#121719"/>
<path d="M199.423 105.536L213.388 97.3481C213.314 98.0067 213.128 98.5782 212.844 99.0131L198.878 107.201C199.15 106.766 199.336 106.207 199.423 105.536Z" fill="#121719"/>
<path d="M198.878 107.214L212.844 99.0259C212.609 99.4111 212.311 99.7093 211.952 99.9205L197.987 108.096C198.346 107.897 198.643 107.587 198.878 107.214Z" fill="#121719"/>
</g>
<path d="M194.433 96.0675C197.219 97.6827 199.459 101.609 199.459 104.839C199.447 108.07 197.194 109.362 194.408 107.747C191.622 106.132 189.381 102.205 189.381 98.9749C189.394 95.7444 191.647 94.4522 194.433 96.0675Z" fill="#121719"/>
<path d="M196.661 107.672C196.092 107.672 195.448 107.461 194.779 107.076C192.216 105.585 190.136 101.945 190.136 98.975C190.149 97.1982 190.904 96.1421 192.167 96.1421C192.724 96.1421 193.38 96.3409 194.049 96.7385C196.612 98.2295 198.692 101.87 198.692 104.84C198.692 106.616 197.924 107.672 196.661 107.672Z" fill="#121719"/>
<path d="M196.661 107.325C196.166 107.325 195.572 107.139 194.953 106.779C192.489 105.337 190.483 101.833 190.483 98.9757C190.483 98.2302 190.656 96.4907 192.167 96.4907C192.662 96.4907 193.256 96.6771 193.876 97.0374C196.352 98.4787 198.345 101.97 198.345 104.828C198.345 105.586 198.172 107.325 196.661 107.325Z" fill="#121719"/>
<path d="M183.451 85.9914L189.468 82.4627C190.062 82.1148 190.867 82.1645 191.771 82.6863L185.754 86.215C184.85 85.6932 184.033 85.6435 183.451 85.9914Z" fill="#263033"/>
<path d="M215.642 115.986L209.625 119.515C210.206 119.18 210.565 118.459 210.565 117.428L216.583 113.899C216.583 114.93 216.224 115.651 215.642 115.986Z" fill="#1C2325"/>
<path d="M210.602 104.443L216.619 100.914L216.582 113.898L210.565 117.427L210.602 104.443Z" fill="#1C2325"/>
<path d="M185.754 86.2157L191.771 82.687L213.4 95.286L207.383 98.8147L185.754 86.2157Z" fill="#263033"/>
<path d="M207.383 98.8143L213.4 95.2856C215.183 96.3293 216.632 98.8392 216.62 100.914L210.602 104.443C210.615 102.368 209.166 99.8456 207.383 98.8143Z" fill="#1C2325"/>
<path d="M207.384 98.814C209.166 99.8577 210.615 102.368 210.603 104.443L210.565 117.427C210.565 119.489 209.104 120.322 207.322 119.29L185.692 106.704C183.909 105.66 182.461 103.15 182.473 101.075L182.51 88.0912C182.523 86.0163 183.971 85.1838 185.754 86.2275L207.384 98.814Z" fill="#121719"/>
<path d="M204.536 108.916L204.944 108.68C205.192 108.531 205.526 108.556 205.91 108.779L205.502 109.015C205.118 108.792 204.771 108.779 204.536 108.916Z" fill="#AEC0D0"/>
<path d="M206.864 112.011L206.455 112.259C206.703 112.11 206.851 111.812 206.851 111.377C206.851 110.507 206.245 109.451 205.502 109.016L205.911 108.78C206.653 109.215 207.26 110.271 207.26 111.141C207.26 111.576 207.111 111.874 206.864 112.011Z" fill="#AEC0D0"/>
<path d="M205.502 109.015C206.244 109.45 206.851 110.506 206.851 111.376C206.851 112.245 206.244 112.593 205.489 112.158C204.746 111.724 204.14 110.667 204.14 109.798C204.14 108.928 204.746 108.58 205.502 109.015Z" fill="#E1E1E1"/>
<path d="M209.538 94.938V95.8077C209.538 95.8823 209.525 95.9568 209.501 96.0314V95.1616C209.525 95.0871 209.538 95.0125 209.538 94.938Z" fill="#74787A"/>
<path d="M209.488 95.1611V96.0309C209.426 96.1924 209.277 96.3415 209.067 96.4658C208.745 96.6521 208.324 96.7515 207.903 96.7391V95.8694C208.324 95.8818 208.745 95.7824 209.067 95.596C209.277 95.4718 209.426 95.3227 209.488 95.1611Z" fill="#8D9194"/>
<path d="M207.903 95.8696V96.7393C207.507 96.7393 207.111 96.6399 206.802 96.466C206.492 96.2796 206.331 96.0435 206.331 95.795L206.343 94.9253C206.343 95.1614 206.492 95.4099 206.814 95.5838C207.111 95.7702 207.507 95.8572 207.903 95.8696Z" fill="#74787A"/>
<path d="M209.067 94.2796C209.699 94.6399 209.699 95.2363 209.08 95.5966C208.461 95.9569 207.445 95.9569 206.814 95.5966C206.182 95.2363 206.182 94.6399 206.814 94.2796C207.433 93.9068 208.436 93.9068 209.067 94.2796Z" fill="#A2A8AB"/>
<path d="M201.75 113.712L184.293 103.549V88.1045L201.75 98.2681V113.712Z" fill="#191F21"/>
<path d="M184.64 103.337V88.7256L201.403 98.4792V113.091L184.64 103.337Z" fill="#6ED0F6"/>
<path d="M207.458 106.095L207.755 105.921V108.232L207.445 108.406L207.458 106.095Z" fill="#959595"/>
<path d="M204.487 104.369L204.796 104.182L207.755 105.922L207.458 106.096L204.487 104.369Z" fill="#C2C2C2"/>
<path d="M207.458 106.095L207.446 108.406L204.474 106.679L204.487 104.368L207.458 106.095Z" fill="#E1E1E1"/>
<path d="M204.635 100.343L204.945 100.169C205.032 100.12 205.156 100.095 205.279 100.132L204.97 100.305C204.846 100.268 204.722 100.281 204.635 100.343Z" fill="#AEC0D0"/>
<path d="M204.969 100.307L205.279 100.133C205.353 100.145 205.415 100.183 205.489 100.22L205.18 100.394C205.118 100.344 205.044 100.319 204.969 100.307Z" fill="#C0C0C0"/>
<path d="M205.192 100.393L205.489 100.219L207.569 101.424L207.272 101.598L205.192 100.393Z" fill="#C2C2C2"/>
<path d="M207.272 101.598L207.582 101.424C207.879 101.598 208.127 101.933 208.263 102.281L207.953 102.455C207.817 102.107 207.557 101.772 207.272 101.598Z" fill="#C0C0C0"/>
<path d="M207.941 102.467L208.25 102.293C208.312 102.455 208.35 102.629 208.35 102.79C208.35 103.039 208.263 103.213 208.127 103.287L207.817 103.474C207.953 103.387 208.04 103.213 208.04 102.964C208.04 102.803 208.003 102.629 207.941 102.467Z" fill="#AEC0D0"/>
<path d="M207.273 101.598C207.706 101.846 208.053 102.455 208.053 102.952C208.053 103.449 207.706 103.648 207.273 103.399L205.192 102.194C204.759 101.946 204.413 101.337 204.425 100.84C204.425 100.343 204.772 100.144 205.205 100.393L207.273 101.598Z" fill="#E1E1E1"/>
<path d="M206.541 114.643L206.777 114.507C206.863 114.457 206.975 114.432 207.098 114.47L206.863 114.606C206.739 114.581 206.628 114.593 206.541 114.643Z" fill="#AEC0D0"/>
<path d="M206.864 114.618L207.099 114.482C207.161 114.494 207.235 114.531 207.309 114.569L207.074 114.705C207 114.655 206.938 114.63 206.864 114.618Z" fill="#C0C0C0"/>
<path d="M207.074 114.705L207.309 114.568L207.941 114.929L207.706 115.065L207.074 114.705Z" fill="#C2C2C2"/>
<path d="M207.705 115.065L207.941 114.929C208.213 115.09 208.461 115.413 208.597 115.749L208.362 115.885C208.225 115.55 207.978 115.227 207.705 115.065Z" fill="#C0C0C0"/>
<path d="M208.349 115.898L208.585 115.761C208.646 115.923 208.671 116.084 208.671 116.233C208.671 116.469 208.585 116.643 208.448 116.718L208.213 116.855C208.349 116.78 208.424 116.606 208.436 116.37C208.448 116.209 208.411 116.047 208.349 115.898Z" fill="#AEC0D0"/>
<path d="M207.705 115.066C208.114 115.302 208.448 115.886 208.448 116.371C208.448 116.843 208.114 117.042 207.705 116.806L207.074 116.433C206.665 116.197 206.331 115.613 206.331 115.141C206.331 114.656 206.665 114.47 207.074 114.706L207.705 115.066Z" fill="#E1E1E1"/>
<path d="M202.976 112.531L203.211 112.395C203.298 112.346 203.409 112.333 203.533 112.358L203.298 112.494C203.174 112.469 203.062 112.482 202.976 112.531Z" fill="#AEC0D0"/>
<path d="M203.297 112.507L203.532 112.371C203.594 112.383 203.669 112.421 203.743 112.458L203.508 112.594C203.433 112.544 203.371 112.52 203.297 112.507Z" fill="#C0C0C0"/>
<path d="M203.509 112.581L203.744 112.457L204.363 112.817L204.14 112.954L203.509 112.581Z" fill="#C2C2C2"/>
<path d="M204.139 112.955L204.375 112.818C204.659 112.979 204.895 113.302 205.031 113.638L204.796 113.775C204.659 113.439 204.412 113.116 204.139 112.955Z" fill="#C0C0C0"/>
<path d="M204.784 113.775L205.019 113.638C205.081 113.8 205.118 113.961 205.106 114.11C205.106 114.346 205.019 114.508 204.883 114.595L204.648 114.732C204.784 114.657 204.858 114.483 204.858 114.247C204.883 114.098 204.846 113.936 204.784 113.775Z" fill="#AEC0D0"/>
<path d="M204.14 112.954C204.548 113.19 204.883 113.774 204.883 114.259C204.883 114.731 204.548 114.93 204.14 114.694L203.508 114.333C203.1 114.097 202.765 113.513 202.765 113.029C202.765 112.556 203.1 112.358 203.521 112.594L204.14 112.954Z" fill="#E1E1E1"/>
<path d="M191.3 102.008C191.486 101.822 191.486 98.38 195.176 100.505C195.176 100.505 195.758 105.065 191.907 104.158C190.954 103.946 191.3 102.008 191.3 102.008Z" fill="#00A753"/>
<path d="M191.536 103.437C191.387 103.114 191.375 100.294 188.366 98.5171C188.366 98.5171 187.883 101.698 191.041 104.63C191.821 105.351 191.536 103.437 191.536 103.437Z" fill="#00A753"/>
<path d="M191.585 105.945L191.09 105.66V98.5898L191.585 98.8756V105.945Z" fill="#00A753"/>
<path d="M192.254 97.0137C192.254 96.4173 191.845 95.6966 191.338 95.4108C190.83 95.1126 190.421 95.3611 190.421 95.9451C190.421 96.5415 190.83 97.2497 191.338 97.5479C191.845 97.8461 192.254 97.6101 192.254 97.0137Z" fill="#DEDEDE"/>
<path d="M192.254 94.9752C192.254 94.1303 191.845 93.2233 191.338 92.9251C190.83 92.6269 190.421 93.0742 190.421 93.9067C190.421 94.7516 190.83 95.6586 191.338 95.9568C191.845 96.255 192.254 95.8201 192.254 94.9752Z" fill="#F98518"/>
<path d="M190.285 93.9196C189.666 93.1368 188.948 92.8014 188.7 93.1617C188.44 93.522 188.75 94.4539 189.369 95.2367C189.988 96.0194 190.706 96.3549 190.954 95.9946C191.201 95.6343 190.904 94.7024 190.285 93.9196Z" fill="#FFC20A"/>
<path d="M189.356 95.4227C188.737 95.4724 188.44 96.0564 188.688 96.7149C188.935 97.3734 189.654 97.8704 190.273 97.8083C190.892 97.7586 191.201 97.1746 190.941 96.5161C190.694 95.8576 189.988 95.3606 189.356 95.4227Z" fill="#F98518"/>
<path d="M190.421 97.9822C190.421 98.8271 190.83 99.7341 191.338 100.032C191.845 100.331 192.254 99.8832 192.254 99.0508C192.254 98.2059 191.845 97.2988 191.338 97.0006C190.83 96.7024 190.421 97.1373 190.421 97.9822Z" fill="#FFC20A"/>
<path d="M192.39 99.0379C193.009 99.8207 193.727 100.156 193.975 99.7958C194.235 99.4355 193.925 98.5037 193.306 97.7209C192.687 96.9381 191.969 96.6026 191.721 96.963C191.461 97.3233 191.771 98.2551 192.39 99.0379Z" fill="#F98518"/>
<path d="M193.306 97.5351C193.925 97.4854 194.235 96.9014 193.975 96.2429C193.715 95.5844 193.009 95.0998 192.39 95.1495C191.771 95.2116 191.461 95.7832 191.721 96.4417C191.969 97.1002 192.687 97.5972 193.306 97.5351Z" fill="#FFC20A"/>
<path d="M192.254 97.0137C192.254 96.4173 191.845 95.6966 191.338 95.4108C190.83 95.1126 190.421 95.3611 190.421 95.9451C190.421 96.5415 190.83 97.2497 191.338 97.5479C191.845 97.8461 192.254 97.6101 192.254 97.0137Z" fill="#DEDEDE"/>
<path d="M194.037 108.32C193.851 107.413 192.712 106.145 191.337 105.338C189.951 104.53 188.824 104.493 188.638 105.176L194.037 108.32Z" fill="#763B19"/>
<path d="M215.518 108.829L212.534 110.568V106.133L215.518 104.393V108.829Z" fill="#E1E1E1"/>
<path d="M215.518 110.594L212.534 112.333V111.128L215.518 109.401V110.594Z" fill="#E1E1E1"/>
<path d="M205.279 92.962C205.972 93.372 205.972 94.0181 205.279 94.4281C204.586 94.8382 203.459 94.8382 202.766 94.4281L201.305 93.5832C200.611 93.1856 200.611 92.5271 201.305 92.1171C201.998 91.7071 203.125 91.7071 203.818 92.1171L205.279 92.962Z" fill="#121719"/>
<path d="M159.803 136.873L159.258 136.55L159.333 136.811L159.89 137.134L159.803 136.873Z" fill="#315D76"/>
<path d="M161.313 133.605L160.768 133.282C160.768 133.307 160.768 133.344 160.768 133.369L161.313 133.692C161.313 133.667 161.313 133.643 161.313 133.605Z" fill="#C9D6E5"/>
<path d="M161.314 133.691L160.769 133.368C160.744 134.412 160.15 135.679 159.308 136.499L159.853 136.822C160.695 136.002 161.289 134.747 161.314 133.691Z" fill="#C9D6E5"/>
<path d="M159.852 136.823L159.308 136.5C159.295 136.512 159.27 136.537 159.258 136.55L159.803 136.873C159.815 136.86 159.84 136.835 159.852 136.823Z" fill="#C9D6E5"/>
<path d="M161.598 133.445L161.041 133.122L160.769 133.283L161.313 133.606L161.598 133.445Z" fill="#325F77"/>
<path d="M161.313 133.605C161.313 134.686 160.694 136.028 159.803 136.861L159.889 137.122C160.917 136.165 161.598 134.686 161.598 133.444L161.313 133.605Z" fill="#90A2B2"/>
<path d="M154.974 134.09L154.417 133.767L154.504 134.028L155.048 134.351L154.974 134.09Z" fill="#315D76"/>
<path d="M156.484 130.822L155.94 130.499C155.94 130.523 155.94 130.561 155.94 130.586L156.484 130.909C156.484 130.884 156.484 130.859 156.484 130.822Z" fill="#C9D6E5"/>
<path d="M156.485 130.908L155.94 130.585C155.915 131.629 155.321 132.896 154.479 133.716L155.024 134.039C155.866 133.219 156.448 131.952 156.485 130.908Z" fill="#C9D6E5"/>
<path d="M155.023 134.039L154.478 133.716C154.466 133.728 154.441 133.753 154.429 133.766L154.974 134.089C154.986 134.064 154.998 134.051 155.023 134.039Z" fill="#C9D6E5"/>
<path d="M156.757 130.661L156.213 130.338L155.94 130.499L156.485 130.822L156.757 130.661Z" fill="#325F77"/>
<path d="M156.485 130.823C156.485 131.904 155.866 133.246 154.974 134.091L155.061 134.352C156.089 133.395 156.77 131.916 156.77 130.674L156.485 130.823Z" fill="#90A2B2"/>
<path d="M150.591 131.655L150.046 131.332L150.133 131.593L150.678 131.916L150.591 131.655Z" fill="#315D76"/>
<path d="M152.114 128.4L151.569 128.077C151.569 128.102 151.569 128.126 151.569 128.164L152.114 128.487C152.114 128.449 152.114 128.425 152.114 128.4Z" fill="#C9D6E5"/>
<path d="M152.102 128.487L151.557 128.164C151.532 129.207 150.938 130.475 150.096 131.295L150.641 131.618C151.483 130.798 152.077 129.53 152.102 128.487Z" fill="#C9D6E5"/>
<path d="M150.641 131.605L150.096 131.282C150.084 131.295 150.071 131.319 150.046 131.332L150.591 131.655C150.604 131.643 150.628 131.63 150.641 131.605Z" fill="#C9D6E5"/>
<path d="M152.387 128.239L151.83 127.916L151.558 128.078L152.115 128.401L152.387 128.239Z" fill="#325F77"/>
<path d="M152.114 128.4C152.114 129.481 151.495 130.823 150.604 131.656L150.691 131.917C151.718 130.96 152.399 129.481 152.399 128.239L152.114 128.4Z" fill="#90A2B2"/>
<path d="M164.1 137.47V138.24L138.483 153.249V152.479L164.1 137.47Z" fill="#F24C39"/>
<path d="M138.483 152.479V153.25L118.748 141.769V140.999L138.483 152.479Z" fill="#F24C39"/>
<path d="M164.099 137.469L138.483 152.478L118.748 140.998L144.376 125.988L164.099 137.469Z" fill="#F24C39"/>
<path d="M164.099 136.712V137.483L138.483 152.492V151.722L164.099 136.712Z" fill="#C9D6E5"/>
<path d="M138.483 151.721V152.491L118.748 141.011V140.24L138.483 151.721Z" fill="#AEC0D0"/>
<path d="M164.099 136.712L138.483 151.721L118.747 140.24L144.376 125.231L164.099 136.712Z" fill="#F7F8F5"/>
<path d="M142.098 129.617L142.989 129.058L158.75 138.228L157.859 138.787L142.098 129.617Z" fill="#F24C39"/>
<path d="M138.31 130.275L139.214 129.716L154.975 138.885L154.071 139.445L138.31 130.275Z" fill="#F24C39"/>
<path d="M136.923 132.238L137.815 131.679L153.588 140.849L152.684 141.408L136.923 132.238Z" fill="#F24C39"/>
<path d="M134.285 133.68L135.177 133.121L150.938 142.303L150.034 142.862L134.285 133.68Z" fill="#F24C39"/>
<path d="M156.485 133.929C156.745 133.78 157.166 133.78 157.426 133.929C157.686 134.078 157.686 134.326 157.426 134.475C157.166 134.625 156.745 134.625 156.485 134.475C156.225 134.314 156.225 134.078 156.485 133.929Z" fill="#F24C39"/>
<path d="M156.485 133.929C156.745 133.78 157.166 133.78 157.426 133.929C157.686 134.078 157.686 134.326 157.426 134.475C157.166 134.625 156.745 134.625 156.485 134.475C156.225 134.314 156.225 134.078 156.485 133.929Z" fill="#232A2E"/>
<path d="M151.805 131.109C152.065 130.96 152.486 130.96 152.746 131.109C153.006 131.258 153.006 131.506 152.746 131.656C152.486 131.805 152.065 131.805 151.805 131.656C151.545 131.506 151.545 131.258 151.805 131.109Z" fill="#232A2E"/>
<path d="M147.422 128.635C147.682 128.486 148.103 128.486 148.363 128.635C148.623 128.784 148.623 129.033 148.363 129.182C148.103 129.331 147.682 129.331 147.422 129.182C147.162 129.033 147.162 128.784 147.422 128.635Z" fill="#232A2E"/>
<path d="M160.694 132.227L160.149 131.904C160.385 132.04 160.57 132.277 160.669 132.6L161.214 132.923C161.103 132.6 160.929 132.364 160.694 132.227Z" fill="#C9D6E5"/>
<path d="M161.214 132.91L160.669 132.587C160.731 132.786 160.768 133.022 160.768 133.283L161.313 133.606C161.313 133.345 161.276 133.121 161.214 132.91Z" fill="#C9D6E5"/>
<path d="M160.88 131.891L160.335 131.568C159.914 131.32 159.32 131.345 158.676 131.693L159.221 132.016C159.877 131.668 160.459 131.643 160.88 131.891Z" fill="#C9D6E5"/>
<path d="M159.233 132.015L158.688 131.692C158.663 131.705 158.651 131.717 158.626 131.73L159.171 132.053C159.183 132.04 159.208 132.028 159.233 132.015Z" fill="#C9D6E5"/>
<path d="M159.171 132.052L158.627 131.729C158.367 131.878 158.107 132.077 157.871 132.313L158.416 132.636C158.651 132.4 158.911 132.201 159.171 132.052Z" fill="#C9D6E5"/>
<path d="M158.403 132.637L157.858 132.313C157.4 132.748 156.991 133.32 156.694 133.954L157.239 134.277C157.549 133.643 157.945 133.084 158.403 132.637Z" fill="#C9D6E5"/>
<path d="M159.172 132.053C158.416 132.501 157.711 133.308 157.253 134.277L157.476 134.339C157.884 133.482 158.503 132.762 159.172 132.364C160.348 131.681 161.314 132.227 161.326 133.606L161.598 133.445C161.586 131.904 160.496 131.283 159.172 132.053Z" fill="#90A2B2"/>
<path d="M155.854 129.443L155.309 129.12C155.544 129.256 155.73 129.492 155.829 129.815L156.374 130.138C156.275 129.815 156.089 129.579 155.854 129.443Z" fill="#C9D6E5"/>
<path d="M156.386 130.126L155.841 129.803C155.903 130.002 155.94 130.238 155.94 130.499L156.485 130.822C156.485 130.561 156.447 130.325 156.386 130.126Z" fill="#C9D6E5"/>
<path d="M156.05 129.108L155.506 128.785C155.085 128.537 154.49 128.561 153.847 128.922L154.391 129.245C155.035 128.872 155.63 128.847 156.05 129.108Z" fill="#C9D6E5"/>
<path d="M154.392 129.232L153.847 128.909C153.823 128.921 153.81 128.934 153.785 128.946L154.33 129.269C154.355 129.257 154.38 129.244 154.392 129.232Z" fill="#C9D6E5"/>
<path d="M154.33 129.269L153.786 128.946C153.526 129.095 153.266 129.294 153.03 129.53L153.575 129.853C153.81 129.617 154.07 129.418 154.33 129.269Z" fill="#C9D6E5"/>
<path d="M153.575 129.854L153.031 129.531C152.572 129.966 152.164 130.538 151.867 131.171L152.411 131.494C152.709 130.861 153.117 130.289 153.575 129.854Z" fill="#C9D6E5"/>
<path d="M154.33 129.27C153.575 129.718 152.869 130.525 152.411 131.494L152.634 131.557C153.043 130.699 153.662 129.979 154.33 129.581C155.519 128.898 156.472 129.444 156.485 130.811L156.757 130.65C156.757 129.121 155.668 128.5 154.33 129.27Z" fill="#90A2B2"/>
<path d="M151.483 127.007L150.938 126.684C151.173 126.821 151.359 127.057 151.458 127.38L152.003 127.703C151.904 127.38 151.718 127.144 151.483 127.007Z" fill="#C9D6E5"/>
<path d="M152.003 127.702L151.458 127.379C151.52 127.578 151.557 127.814 151.557 128.075L152.102 128.398C152.102 128.137 152.064 127.901 152.003 127.702Z" fill="#C9D6E5"/>
<path d="M151.681 126.672L151.136 126.349C150.715 126.101 150.121 126.125 149.477 126.486L150.022 126.809C150.666 126.448 151.248 126.424 151.681 126.672Z" fill="#C9D6E5"/>
<path d="M150.022 126.809L149.477 126.486C149.453 126.499 149.44 126.511 149.416 126.524L149.96 126.847C149.973 126.834 149.997 126.822 150.022 126.809Z" fill="#C9D6E5"/>
<path d="M149.961 126.846L149.416 126.522C149.156 126.672 148.896 126.87 148.661 127.106L149.205 127.429C149.441 127.193 149.701 126.995 149.961 126.846Z" fill="#C9D6E5"/>
<path d="M149.192 127.43L148.648 127.107C148.19 127.542 147.793 128.114 147.484 128.748L148.029 129.071C148.338 128.437 148.747 127.865 149.192 127.43Z" fill="#C9D6E5"/>
<path d="M149.96 126.846C149.205 127.293 148.499 128.101 148.041 129.07L148.264 129.132C148.673 128.275 149.292 127.554 149.96 127.157C151.149 126.473 152.102 127.02 152.115 128.399L152.387 128.238C152.375 126.685 151.297 126.063 149.96 126.846Z" fill="#90A2B2"/>
</svg>
