<svg width="272" height="66" viewBox="0 0 272 66" fill="none" xmlns="http://www.w3.org/2000/svg">
<g clip-path="url(#clip0_7554_17383)">
<path d="M98.5483 15.4488C98.5483 17.8878 96.5807 19.8898 94.1034 19.8898C91.6261 19.8898 89.6514 17.8878 89.6514 15.4488C89.6514 13.0098 91.6615 11.0078 94.1034 11.0078C96.5453 11.0078 98.5483 12.9745 98.5483 15.4488Z" fill="white"/>
<path d="M186.359 28.1049C187.18 28.1049 187.612 27.7243 187.612 26.9066V23.2481H189.955V29.7474C189.955 31.0022 189.325 31.7 188.121 31.7H174.539C173.399 31.7 172.833 31.0022 172.833 29.6205V23.2481H175.048V26.7797C175.048 27.6609 175.424 28.112 176.181 28.112H180.095V21.8594H182.431V28.112H186.352L186.359 28.1049Z" fill="white"/>
<path d="M139.468 27.6797H136.743H124.689V30.8941H136.743H139.468H154.119V27.6797H139.468Z" fill="white"/>
<path d="M139.468 22.6953H136.453H128.54V25.9732H136.453H139.468H150.269V22.6953H139.468Z" fill="white"/>
<path d="M171.035 47.651V46.0156C171.035 46.5796 171.099 47.0871 171.099 47.651H171.035Z" fill="white"/>
<path d="M171.573 36.7338H178.835L178.46 39.2574H174.673C173.342 39.2574 172.649 39.8919 172.585 41.0902V53.4545H174.801V43.5504C174.801 43.1133 175.119 42.916 175.876 42.916H177.639V52.5028H179.974V42.916H182.685V52.5028H184.957V42.916H187.3C187.93 42.916 188.242 43.1063 188.242 43.5504V48.1605C188.242 49.0417 187.866 49.5422 187.109 49.6127C186.415 49.6127 185.778 49.5422 185.34 49.4153C185.778 50.7405 185.969 52.1292 185.969 53.5743C186.791 53.5743 187.357 53.5109 187.668 53.4474C188.114 53.4474 188.496 53.3205 188.879 53.2007C189.954 52.8835 190.457 52.1222 190.457 50.8604V41.9643C190.457 40.2091 189.763 39.3209 188.305 39.2574H181.107L181.546 36.7338H191.087V33.2656H171.566V36.7338H171.573Z" fill="white"/>
<path d="M171.573 46.0144C171.573 45.4505 171.516 44.8161 171.516 44.1887C170.129 44.6962 168.664 45.0698 167.22 45.4505V38.1334H170.759V34.6652H167.22V27.8557H171.198V24.0703H160.715V27.8557H165.012V34.6652H161.098V38.1334H165.012V46.0144C162.867 46.5149 161.218 46.9661 159.958 47.2128C160.085 47.6498 160.213 48.4746 160.468 49.546C160.652 50.6175 160.843 51.3788 160.843 51.8229C162.669 51.1321 164.438 50.4342 166.208 49.7364C168.041 48.9821 169.803 48.2842 171.573 47.6498V46.0144Z" fill="white"/>
<path d="M139.468 32.7266H137.967H128.157V35.941H137.967H139.468H150.389V32.7266H139.468Z" fill="white"/>
<path d="M139.468 37.4531H128.094V40.6605H139.468H150.269V37.4531H139.468Z" fill="white"/>
<path d="M148.627 42.3125H130.436C129.297 42.3759 128.667 42.82 128.412 43.6377V50.9618C128.54 51.7725 129.049 52.28 129.863 52.3435H148.811C149.95 52.28 150.516 51.7725 150.516 50.9618V43.7646C150.46 42.8835 149.823 42.383 148.627 42.3195V42.3125ZM148.181 48.4241C148.11 48.8118 147.799 48.9317 147.36 48.9317H131.633C131.25 48.9317 130.939 48.8048 130.741 48.5581V46.2812C130.804 45.971 131.059 45.7736 131.505 45.7102H147.423C147.919 45.7736 148.181 46.0345 148.181 46.3446V48.4241Z" fill="white"/>
<path d="M119.692 42.7883H119.742C119.926 42.7883 120.025 42.7883 120.117 42.8376C120.166 42.8376 120.216 42.9293 120.258 42.9786C120.308 43.028 120.35 43.1196 120.35 43.2112C120.35 43.3522 120.301 43.4016 120.209 43.5003C120.159 43.5919 120.018 43.6412 119.876 43.6412C119.926 43.6906 119.968 43.6906 120.018 43.7399C120.067 43.7893 120.11 43.8809 120.159 43.9726L120.492 44.3955H120.209L119.968 44.0642C119.919 43.9655 119.876 43.8739 119.827 43.8245C119.777 43.7752 119.735 43.7329 119.735 43.7329H119.685V43.5003H119.735C119.784 43.5003 119.876 43.4509 119.919 43.4509C119.968 43.4509 120.018 43.4016 120.06 43.3522C120.103 43.3029 120.103 43.2535 120.103 43.2112C120.103 43.169 120.103 43.0703 120.011 43.0209C119.961 42.9716 119.869 42.9716 119.777 42.9716H119.685V42.7812L119.692 42.7883ZM119.027 44.3955V42.7883H119.692V42.9786H119.268V43.5003H119.692V43.7329C119.692 43.6835 119.643 43.6835 119.593 43.6835H119.26V44.3955H119.027Z" fill="white"/>
<path fill-rule="evenodd" clip-rule="evenodd" d="M119.692 42.2188C120.407 42.2188 121.023 42.832 121.023 43.5863C121.023 44.2912 120.407 44.9115 119.692 44.9115V44.7212C120.308 44.7212 120.832 44.1996 120.832 43.5863C120.832 42.9237 120.308 42.4091 119.692 42.4091V42.2188ZM119.692 44.9115C118.935 44.9115 118.319 44.2983 118.319 43.5863C118.319 42.832 118.935 42.2188 119.692 42.2188V42.4091C119.027 42.4091 118.503 42.9237 118.503 43.5863C118.503 44.1996 119.027 44.7212 119.692 44.7212V44.9115Z" fill="white"/>
<path d="M94.0561 51.9098H96.0804L96.0662 47.5887L100.745 51.4164C101.134 51.7407 101.318 51.9098 101.502 51.9098C101.913 51.9098 102.153 51.6561 102.153 51.3177V46.2282H101.127V50.4013L96.2219 46.4397C95.8609 46.1366 95.6274 46.1648 95.6274 46.1648C95.2239 46.1648 95.0611 46.3762 95.0682 46.7569V51.8957C95.0682 51.8957 92.2795 46.6018 92.1946 46.4749C92.0813 46.2987 91.8336 46.193 91.6071 46.193C91.3877 46.193 91.1754 46.2564 91.0196 46.482C90.9276 46.6159 88.0752 51.9098 88.0752 51.9098H89.0944L89.6323 50.8595H93.5182L94.0561 51.9028M91.3594 47.6169C91.4656 47.3984 91.5363 47.342 91.6071 47.342C91.6779 47.342 91.7558 47.3913 91.8548 47.6169L93.1996 50.2533H89.9438L91.3523 47.6169H91.3594Z" fill="white"/>
<path d="M115.63 51.9044L116.635 51.8903C116.635 51.8903 113.846 46.5964 113.761 46.4695C113.648 46.2932 113.4 46.1875 113.173 46.1875C112.954 46.1875 112.742 46.2509 112.586 46.4765C112.494 46.6105 109.642 51.9044 109.642 51.9044H110.661L111.199 50.8541H115.085L115.63 51.8973M112.933 47.6114C113.046 47.3929 113.11 47.3365 113.181 47.3365C113.251 47.3365 113.329 47.3859 113.428 47.6114L114.773 50.2478H111.517L112.926 47.6114H112.933Z" fill="white"/>
<path d="M86.9427 49.976L84.8971 46.2258H83.8213L86.4472 51.0122V50.991V51.9074H87.4452L87.4523 50.9981L90.0074 46.2258L88.9669 46.2188L86.9427 49.976Z" fill="white"/>
<path d="M117.923 49.9525L115.877 46.1953H114.801L117.427 50.9888V50.9676L117.42 51.884H118.425L118.432 50.9676L120.987 46.1953H119.947L117.923 49.9525Z" fill="white"/>
<path d="M102.698 51.9074H103.71V47.1351L108.07 47.121C108.516 47.121 108.735 47.3607 108.743 47.8401C108.743 48.3124 108.516 48.552 108.07 48.552H108.169L104.078 48.5591V49.5178L107.865 51.9074H109.656L105.954 49.5178H107.964C109.139 49.5178 109.748 49.1019 109.79 48.0797V47.6215C109.755 46.6065 109.16 46.2188 107.978 46.2188H102.677" fill="white"/>
<path d="M117.661 28.8669C117.661 21.4441 110.116 21 110.116 21H98.7059L94.8767 31.0098L90.4247 21H83L91.1254 39.349V44.9179H98.529V39.349L103.045 27.5557H108.148C108.148 27.5557 110.151 27.3725 110.151 29.3039C110.151 31.2354 108.148 31.3059 108.148 31.3059H103.632L109.464 44.9179H116.896L112.89 36.0007C112.89 36.0007 117.668 35.1618 117.668 28.8669" fill="white"/>
</g>
<defs>
<clipPath id="clip0_7554_17383">
<rect width="109" height="43" fill="white" transform="translate(82 11)"/>
</clipPath>
</defs>
</svg>
